<?xml version="1.0" encoding="UTF-8" standalone="no"?>
<!-- Uploaded to: SVG Repo, www.svgrepo.com, Generator: SVG Repo Mixer Tools -->

<svg
   width="726.80664"
   height="608.36194"
   viewBox="0 0 116.28906 97.33791"
   aria-hidden="true"
   role="img"
   class="iconify iconify--noto"
   preserveAspectRatio="xMidYMid"
   version="1.1"
   id="svg5"
   sodipodi:docname="bird-svgrepo-com.svg"
   xmlns:inkscape="http://www.inkscape.org/namespaces/inkscape"
   xmlns:sodipodi="http://sodipodi.sourceforge.net/DTD/sodipodi-0.dtd"
   xmlns="http://www.w3.org/2000/svg"
   xmlns:svg="http://www.w3.org/2000/svg">
  <defs
     id="defs5" />
  <sodipodi:namedview
     id="namedview5"
     pagecolor="#ffffff"
     bordercolor="#000000"
     borderopacity="0.25"
     inkscape:showpageshadow="2"
     inkscape:pageopacity="0.0"
     inkscape:pagecheckerboard="0"
     inkscape:deskcolor="#d1d1d1" />
  <path
     d="m 38.911652,72.62594 c 0,0 2.67,7.18 1.13,9.71 -1.55,2.53 -7.74,2.04 -9.64,3.24 -1.36,0.86 -1.34,3.24 -0.49,4.22 0.84,0.99 13.09,0.14 15.49,-4.5 2.4,-4.64 -0.86,-13.52 -0.86,-13.52 z"
     fill="#f97d23"
     id="path1" />
  <path
     d="m 58.471652,71.77594 -5.21,1.13 c 0,0 2.25,9.43 0.42,12.53 -1.83,3.1 -8.39,6.41 -9.57,9.01 -1.06,2.32 1.55,4.22 5.63,1.69 4.08,-2.53 8.7,-6.31 9.57,-8.17 2.12,-4.5 -0.84,-16.19 -0.84,-16.19 z"
     fill="#f97d23"
     id="path2" />
  <path
     d="M 22.861652,0.68594017 C 11.781652,3.1759402 3.1516524,12.51594 6.3916524,26.72594 c 1.92,8.43 3.1,11.4 3.7999996,15.2 1.48,7.99 1.08,11.5 4.46,18.82 3.59,7.79 16.8,17.79 33.27,15.39 16.47,-2.4 23.09,-4.65 23.09,-4.65 l 5.91,-5.21 5.63,-1.41 0.84,-4.08 c 0,0 4.21,-0.19 5.07,-1.55 1.36,-2.16 0.56,-3.94 -1.83,-4.79 -2.39,-0.84 -3.8,-1.55 -3.8,-1.55 0,0 23.229998,-15.35 26.039998,-17.03 2.81,-1.68 7.18,-4.58 7.39,-5.63 0.53,-2.67 -6.69,-8.59 -16.12,-11.4 -9.429998,-2.82 -17.529998,-3.59 -18.859998,-2.53 -1.77,1.39 -9.57,16.05 -14.78,15.35 -6.76,-0.92 -11.4,-7.25 -12.67,-10.84 -1.44,-4.07 -10.09,-24.8199998 -30.97,-20.12999983 z"
     fill="#36b4e1"
     id="path3" />
  <path
     d="m 8.6416524,22.64594 c -1.69,-0.28 -6.01,4.32 -6.85,5.44 -0.84000001,1.12 -2.17000001,2.73 -1.69000001,3.94 0.75,1.88 4.60000001,1.98 6.85000001,2.16 2.35,0.19 6.8499996,0.56 7.5999996,-0.84 0.75,-1.41 -0.84,-4.97 -2.16,-7.13 -1.22,-2.01 -1.99,-3.27 -3.7499996,-3.57 z"
     fill="#f97d23"
     id="path4" />
  <ellipse
     transform="rotate(-6.88)"
     cx="23.656229"
     cy="25.412813"
     rx="4.02"
     ry="4.3600001"
     fill="#2a2d2f"
     id="ellipse4" />
  <path
     d="m 39.751652,52.49594 c -1.95,0.71 0.61,7.6 3.24,10.7 2.77,3.26 9.47,10.58 19.71,11.54 6.95,0.66 10.04,-1.31 11.68,-3.1 1.22,-1.33 2.53,-2.87 3.43,-3.57 1.31,-1.03 2.63,-0.14 4.88,-1.78 1.62,-1.18 1.97,-3.14 2.82,-3.85 0.84,-0.7 2.27,-0.54 3,-1.22 1.31,-1.22 1.13,-4.79 0.19,-4.97 -0.94,-0.18 -1.03,2.53 -1.97,2.91 -0.94,0.38 -2.19,0.14 -3.94,1.13 -1.5,0.84 -1.03,2.53 -2.06,3.28 -1.03,0.75 -2.91,-0.28 -5.44,1.13 -1.37,0.76 -2.53,4.41 -6.48,5.26 -4.9,1.05 -12.25,-2.52 -15.77,-5.07 -8.17,-5.92 -9.96,-13.61 -13.29,-12.39 z"
     fill="#026aa8"
     id="path5" />
</svg>
