<?xml version="1.0" encoding="UTF-8" standalone="no"?>
<!-- Uploaded to: SVG Repo, www.svgrepo.com, Generator: SVG Repo Mixer Tools -->

<svg
   width="746.99469"
   height="611.40234"
   viewBox="0 0 119.51915 97.824375"
   aria-hidden="true"
   role="img"
   class="iconify iconify--noto"
   preserveAspectRatio="xMidYMid"
   version="1.1"
   id="svg46"
   sodipodi:docname="butterfly-svgrepo-com.svg"
   xmlns:inkscape="http://www.inkscape.org/namespaces/inkscape"
   xmlns:sodipodi="http://sodipodi.sourceforge.net/DTD/sodipodi-0.dtd"
   xmlns="http://www.w3.org/2000/svg"
   xmlns:svg="http://www.w3.org/2000/svg">
  <defs
     id="defs46" />
  <sodipodi:namedview
     id="namedview46"
     pagecolor="#ffffff"
     bordercolor="#000000"
     borderopacity="0.25"
     inkscape:showpageshadow="2"
     inkscape:pageopacity="0.0"
     inkscape:pagecheckerboard="0"
     inkscape:deskcolor="#d1d1d1" />
  <path
     fill="#41484a"
     d="m 67.125686,45.898133 4.69,-9.39 10.51,-13.51 13.52,-9.95 13.510004,-6.1999995 7.28,-0.18 1.83,2.81 -3.1,14.2199995 -4.93,20.98 -3.09,5.06 -7.32,4.09 -7.470004,1.12 7.610004,3.52 5.63,4.37 3.23,4.5 v 6.06 l -2.81,7.88 -8.450004,6.76 -5.21,1.97 -8.16,-1.97 -1.83,-2.11 -3.9,-6.2 -2.72,-9.29 -5.49,-2.82 -5.3,2.91 1.92,12.44 -0.42,3.94 -0.7,2.82 -1.97,3.94 -5.07,2.95 -7.18,0.15 -9.29,-2.54 -5.49,-4.22 -3.38,-5.63 0.84,-7.46 9.57,-12.25 -8.02,2.95 -10.28,0.29 -8.44,-9.16 -12.9599998,-20.97 -3.23,-9.29 2.67,-2.82 h 7.7399998 l 16.62,2.68 18.16,7.18 13.09,7.46 z"
     id="path1" />
  <path
     d="m 63.065686,28.208133 c 0,0 1.23,-11.63 2.53,-16.19 1.83,-6.4099995 7.04,-11.46999953 11.4,-11.96999953 4.36,-0.49 3.8,2.89000003 1.13,4.29000003 -2.57,1.35 -5.35,0.56 -5.35,0.56 0,0 -3.59,2.62 -4.79,8.0199995 -1.41,6.34 -2.53,16.19 -2.53,16.19 z"
     fill="#676f72"
     id="path2" />
  <path
     d="m 59.195686,28.978133 c 0,0 -4.77,-9.69 -9.92,-15.84 -5.14,-6.1199995 -11.68,-6.3399995 -12.6,-6.4099995 -0.92,-0.07 -4.79,0.56 -4.79,2.39 0,2.4599995 3.4,2.8999995 5.35,2.5299995 2.25,-0.42 3.31,-1.7599995 3.31,-1.7599995 0,0 4.18,1.6599995 6.97,4.9999995 3.24,3.87 9.22,15.56 9.22,15.56 l 0.42,1.55 z"
     fill="#676f72"
     id="path3" />
  <path
     d="m 50.885686,75.648133 c -1.75,-0.87 -7.04,4.08 -7.04,6.48 0,1.57 1.13,4.22 3.52,3.52 2.4,-0.71 5.78,-8.88 3.52,-10 z"
     fill="#ff8b03"
     id="path4" />
  <path
     d="m 41.455686,75.648133 c 2.25,1.97 5.97,-1.95 7.6,-4.5 1.97,-3.1 2.96,-10.84 2.39,-10.56 -0.56,0.28 -7.6,5.35 -7.6,5.35 0,0 -5.34,7.13 -2.39,9.71 z"
     fill="#ff8b03"
     id="path5" />
  <path
     d="m 52.155686,85.218133 c 0,2.46 2.67,4.22 5.35,3.8 1.4,-0.22 3.91,-1.52 3.66,-3.8 -0.28,-2.53 -1.41,-6.34 -4.08,-6.76 -2.68,-0.42 -4.93,2.68 -4.93,6.76 z"
     fill="#ff8b03"
     id="path6" />
  <path
     d="m 67.055686,65.858133 c 0,0 -3.69,7.75 -4.49,9.64 -1.13,2.67 -1.17,9.34 1.83,10.42 2.14,0.77 2.67,-2.96 2.67,-2.96 0,0 0.37,-7.64 0.37,-10.17 0.01,-2.53 -0.38,-6.93 -0.38,-6.93 z"
     fill="#ff8b03"
     id="path7" />
  <path
     d="m 69.895686,57.068133 c 0,0 7.04,8.17 9.15,9.71 2.11,1.55 5.77,5.91 10.56,2.67 4.79,-3.24 -8.17,-14.08 -9.29,-14.92 -1.13,-0.84 -11.27,-0.98 -11.27,-0.98 z"
     fill="#ff8b03"
     id="path8" />
  <path
     d="m 72.425686,64.948133 c 0,0 4.92,4.49 5.91,5.49 2.11,2.11 4.5,4.07 5.49,7.04 0.56,1.69 1.41,4.22 -0.42,5.21 -1.51,0.81 -3.4,-1.39 -4.08,-2.11 -0.69,-0.72 -3.33,-6.53 -4.87,-9.84 -0.64,-1.36 -2.03,-5.79 -2.03,-5.79 z"
     fill="#ff8b03"
     id="path9" />
  <path
     d="m 86.785686,73.398133 c -1.13,1.52 0.32,6.76 1.83,7.74 2.82,1.83 6.19,-1.41 6.19,-2.96 0.01,-1.55 -5.63,-8.02 -8.02,-4.78 z"
     fill="#ff8b03"
     id="path10" />
  <path
     d="m 84.955686,53.968133 c 0,0 6.19,9.71 9.57,11.68 3.38,1.97 6.040004,1.75 7.040004,0 2.25,-3.94 -7.460004,-9.29 -7.460004,-9.29 z"
     fill="#ff8b03"
     id="path11" />
  <path
     d="m 92.695686,69.168133 c -0.84,1.83 2.67,7.18 5.07,7.18 2.400004,0 3.260004,-3.39 3.100004,-4.5 -0.28,-1.97 -6.730004,-5.8 -8.170004,-2.68 z"
     fill="#ff8b03"
     id="path12" />
  <path
     d="m 57.645686,57.348133 c 0,0 -6.49,10.66 -4.5,15.91 1.55,4.08 5.77,3.38 9.43,-3.52 3.66,-6.9 4.36,-11.26 4.36,-11.26 l -1.13,-3.94 z"
     fill="#ff8b03"
     id="path13" />
  <path
     d="m 60.035686,42.278133 c 0,0 -5.77,-5.21 -17.46,-10.14 -11.69,-4.93 -22.1,-8.02 -31.39,-7.88 -9.2899998,0.14 -10.69999976,2.25 -11.11999976,3.94 -0.42,1.69 1.23999996,7.02 3.09999996,10.28 2.25,3.94 10.6999998,17.6 13.6599998,21.82 2.55,3.65 4.31,7.7 9.85,9.01 6.15,1.45 13.66,-1.69 13.66,-1.69 0,0 -7.18,6.48 -7.6,13.37 -0.42,6.9 3.24,11.83 10.84,14.5 7.6,2.67 18.7,4.719997 22.24,-3.66 1.03,-2.44 0.84,-4.93 0.84,-4.93 0,0 -2.56,7.31 -6.48,8.02 -3.1,0.56 -2.67,-1.27 -5.49,-1.55 -2.82,-0.28 -2.39,1.83 -5.35,1.83 -2.27,0 -1.55,-1.83 -3.94,-3.1 -2.39,-1.27 -3.75,0.78 -5.21,-0.42 -2.39,-1.97 -0.14,-2.96 -1.13,-4.5 -0.99,-1.55 -3.26,-2.02 -3.8,-3.94 -0.99,-3.52 0.99,-6.19 3.1,-9.29 2.11,-3.1 5.91,-7.6 8.87,-9.71 2.96,-2.11 17.53,-9.06 17.53,-9.06 0,0 0.77,-2.62 -0.35,-2.48 -1.13,0.14 -14.36,7.18 -16.76,8.73 -2.39,1.55 -12.74,6.91 -20.27,5.21 -4.36,-0.99 -12.23,-14.87 -15.41,-19.19 -3.1799998,-4.32 -8.6799998,-14.92 -8.2399998,-17.98 0.41,-2.82 5.21,-3.38 12.5299998,-2.53 7.32,0.84 13.8,3.1 22.95,6.9 9.15,3.8 19.57,10.84 20.84,10.84 1.26,0 -0.01,-2.4 -0.01,-2.4 z"
     fill="#676f72"
     id="path14" />
  <path
     d="m 68.625686,43.968133 c 0,0 -1.13,-2.72 0.84,-6.1 1.97,-3.38 8.31,-12.9 14.78,-18.68 6.48,-5.77 28.300004,-17.7399995 33.220004,-14.2199995 4.93,3.52 -0.42,17.3599995 -1.55,22.0999995 -0.98,4.13 -2.25,17.41 -7.04,22.95 -3.72,4.31 -11.680004,5.77 -11.680004,5.77 0,0 12.940004,6.21 13.510004,14.36 0.7,10 -10.980004,21.42 -19.710004,21.12 -6.71,-0.23 -8.45,-5.35 -8.45,-5.35 0,0 6.19,3.52 8.73,2.82 2.53,-0.7 0.7,-3.1 3.1,-4.5 2.4,-1.4 4.36,2.25 6.190004,0.56 1.83,-1.69 0.42,-3.24 1.69,-4.93 1.27,-1.69 3.1,0 4.22,-1.55 1.13,-1.55 0,-3.66 0.56,-5.07 0.56,-1.41 1.69,-1.69 1.55,-3.8 -0.14,-2.11 -4.08,-7.04 -9.010004,-9.43 -4.93,-2.39 -10.28,-3.52 -14.64,-4.36 -4.36,-0.84 -15.63,-1.6 -15.63,-1.6 0,0 -0.99,-2.3 -0.42,-2.21 1.13,0.19 3.94,0.42 8.17,0.56 8.54,0.28 22.24,2.25 28.300004,-2.53 6.06,-4.78 7.04,-18.3 7.6,-21.82 0.56,-3.52 5.91,-19.0099995 2.82,-20.5499995 -3.1,-1.55 -18.340004,4.6099995 -26.700004,11.0699995 -8.36,6.46 -14.4,15.4 -16.23,19.06 -1.83,3.66 -4.22,6.33 -4.22,6.33 z"
     fill="#676f72"
     id="path15" />
  <path
     d="m 68.455686,40.628133 c 0.77,-1.06 1.95,-1.89 1.44,-7.07 -0.56,-5.7 -5.46,-7.14 -9.33,-6.3 -3.14,0.68 -7.57,3.63 -5.17,10.73 2.12,6.31 9.29,4.36 9.29,4.36 0,0 2.99,-0.67 3.77,-1.72 z"
     fill="#41484a"
     id="path16" />
  <ellipse
     transform="rotate(-33.726)"
     cx="64.609161"
     cy="67.392052"
     rx="2.75"
     ry="2.1800001"
     fill="#fcfdfa"
     id="ellipse16" />
  <path
     d="m 113.25569,23.418133 c -0.63,-1.03 -2.01,-1.26 -3.17,-0.28 -0.79,0.66 -1.44,2.24 -0.77,3.24 0.67,1 2.14,1.12 3.1,0.35 1.18,-0.95 1.41,-2.37 0.84,-3.31 z"
     fill="#fcfdfa"
     id="path17" />
  <path
     d="m 100.37569,17.078133 c -0.670004,-1 -2.470004,-1.12 -3.730004,-0.28 -1.26,0.84 -2.21,2.41 -1.2,3.94 0.7,1.06 2.31,1.04 3.87,0.14 1.480004,-0.84 1.730004,-2.79 1.060004,-3.8 z"
     fill="#fcfdfa"
     id="path18" />
  <path
     d="m 117.26569,7.9981335 c 0,1.09 -0.7,2.1799995 -2.18,1.97 -1.35,-0.19 -1.97,-0.7 -1.97,-2.18 0,-1.09 1.04,-1.76 2.15,-1.76 1.11,0 2,0.88 2,1.97 z"
     fill="#fcfdfa"
     id="path19" />
  <path
     d="m 115.57569,16.588133 c 0,1.09 -1.08,2.04 -2.18,1.97 -1.06,-0.07 -1.97,-0.7 -1.97,-2.18 0,-1.09 1.07,-1.9 2.18,-1.9 1.11,0 1.97,1.02 1.97,2.11 z"
     fill="#fcfdfa"
     id="path20" />
  <circle
     cx="109.83569"
     cy="35.628136"
     r="2.1500001"
     fill="#fcfdfa"
     id="circle20" />
  <ellipse
     cx="16.785686"
     cy="54.248138"
     rx="1.87"
     ry="1.9"
     fill="#fcfdfa"
     id="ellipse20" />
  <path
     d="m 6.0456862,27.918133 c 0.83,1.11 0.18,2.35 -0.86,3.2 -1.03,0.85 -2.45,0.83 -3.16,-0.04 -0.71,-0.87 -0.45,-2.27 0.59,-3.12 1.04,-0.85 2.62,-1.14 3.43,-0.04 z"
     fill="#fcfdfa"
     id="path21" />
  <path
     d="m 12.785686,42.828133 c 1.42,0.28 1.81,1.53 1.62,2.74 -0.19,1.22 -1.28,2.06 -2.44,1.88 -1.16,-0.18 -1.95,-1.31 -1.77,-2.53 0.18,-1.22 1.19,-2.36 2.59,-2.09 z"
     fill="#fcfdfa"
     id="path22" />
  <path
     d="m 8.5056862,35.728133 c 1.03,1.02 0.66,2.27 -0.17,3.18 -0.83,0.91 -2.2,1.01 -3.07,0.21 -0.87,-0.79 -0.9,-2.17 -0.07,-3.08 0.83,-0.91 2.3,-1.32 3.31,-0.31 z"
     fill="#fcfdfa"
     id="path23" />
  <path
     d="m 25.815686,31.558133 c 1.04,0.82 0.74,2.14 -0.02,3.2 -0.76,1.06 -2.08,1.42 -2.96,0.8 -0.88,-0.62 -0.97,-1.99 -0.21,-3.06 0.76,-1.06 2.16,-1.75 3.19,-0.94 z"
     fill="#fcfdfa"
     id="path24" />
  <path
     d="m 22.595686,30.918133 c -0.04,1.36 -1.31,1.92 -2.64,1.93 -1.33,0.02 -2.42,-0.87 -2.43,-1.97 -0.01,-1.11 1.05,-2.02 2.38,-2.03 1.33,-0.02 2.73,0.72 2.69,2.07 z"
     fill="#fcfdfa"
     id="path25" />
  <path
     d="m 39.905686,81.138133 c 0,1.23 -0.78,2.22 -2.01,2.22 -1.23,0 -2.22,-1 -2.22,-2.24 0,-1.23 0.99,-2.24 2.22,-2.24 1.23,0 2.01,1.02 2.01,2.26 z"
     fill="#fcfdfa"
     id="path26" />
  <path
     d="m 43.635686,89.018133 c -0.8,0.95 -2.44,0.81 -3.28,0.11 -0.83,-0.7 -0.86,-2.04 -0.06,-2.99 0.8,-0.95 2.12,-1.16 2.96,-0.46 0.83,0.7 1.18,2.39 0.38,3.34 z"
     fill="#fcfdfa"
     id="path27" />
  <ellipse
     transform="rotate(-33.973)"
     cx="43.521797"
     cy="120.63779"
     rx="2.0799999"
     ry="1.76"
     fill="#fcfdfa"
     id="ellipse27" />
  <ellipse
     transform="rotate(-33.973)"
     cx="49.148571"
     cy="116.4347"
     rx="2.0799999"
     ry="2"
     fill="#fcfdfa"
     id="ellipse28" />
  <path
     d="m 91.245686,25.438133 c -3.49,-1.45 -7.13,0.47 -11.26,6.38 -4.13,5.91 -6.38,10.04 -4.6,11.54 1.78,1.5 10,-6.16 11.73,-7.51 2.53,-1.97 7.98,-8.82 4.13,-10.41 z"
     fill="#ff8b03"
     id="path28" />
  <path
     d="m 84.205686,41.948133 c 2.32,-1.32 9.1,-0.75 12.76,-0.94 2.44,-0.13 6.010004,0.25 6.100004,1.5 0.19,2.53 -0.75,4.13 -3.940004,5.26 -3.19,1.13 -10.7,1.31 -15.49,1.41 -2.82,0.06 -5.41,0.34 -5.73,-0.94 -0.18,-0.75 2.17,-3.94 6.3,-6.29 z"
     fill="#ff8b03"
     id="path29" />
  <path
     d="m 95.285686,30.878133 c 2.16,0.38 9.100004,0.19 11.070004,-1.31 1.2,-0.92 1.88,-4.79 0,-5.63 -1.88,-0.84 -7.230004,-0.66 -9.290004,0.94 -1.27,0.97 -3.62,5.68 -1.78,6 z"
     fill="#ff8b03"
     id="path30" />
  <path
     d="m 105.51569,13.238133 c -0.36,2.21 3.19,2.16 4.79,1.69 1.6,-0.47 3.75,-3 2.72,-4.32 -1.04,-1.3199995 -7.05,-0.28 -7.51,2.63 z"
     fill="#ff8b03"
     id="path31" />
  <path
     d="m 102.97569,18.678133 c 0,1.6 1.31,2.16 3.19,2.16 1.88,0 3.1,-1.19 3.1,-2.44 0,-1.69 -1.6,-2.35 -3.66,-1.97 -1.57,0.28 -2.63,0.94 -2.63,2.25 z"
     fill="#ff8b03"
     id="path32" />
  <path
     d="m 90.405686,38.108133 c 0,1.2 3.38,0.84 8.26,0.84 4.880004,0 6.010004,-0.75 6.570004,-2.63 0.56,-1.88 0.38,-3.1 -2.53,-3.19 -2.910004,-0.09 -8.630004,0.19 -10.320004,1.41 -0.77,0.55 -1.98,2.63 -1.98,3.57 z"
     fill="#ff8b03"
     id="path33" />
  <path
     d="m 25.175686,57.528133 c -0.2,2.15 1.69,4.88 7.32,4.41 5.63,-0.47 12.3,-3.79 14.08,-4.6 3.28,-1.5 6.29,-2.72 6.29,-4.22 0,-1.69 -3.75,-2.25 -8.82,-2.72 -5.07,-0.47 -8.82,0.47 -13.05,2.82 -3.53,1.96 -5.73,3.28 -5.82,4.31 z"
     fill="#ff8b03"
     id="path34" />
  <path
     d="m 19.635686,50.118133 c -0.17,1.3 1.97,4.41 3.38,4.5 1.41,0.09 8.82,-3.85 9.01,-5.16 0.19,-1.31 -1.69,-3.38 -3.19,-3.75 -1.5,-0.38 -9.01,3 -9.2,4.41 z"
     fill="#ff8b03"
     id="path35" />
  <path
     d="m 28.835686,35.758133 c -2.26,2.26 0.38,6.48 5.26,8.92 4.88,2.44 12.67,3.1 15.77,3.57 3.1,0.47 5.35,0.56 5.82,-0.38 1.01,-2.01 -6.48,-5.73 -13.42,-9.01 -4.33,-2.05 -11.65,-4.88 -13.43,-3.1 z"
     fill="#ff8b03"
     id="path36" />
  <path
     d="m 6.7756862,31.158133 c 0.28,2.82 7.7899998,2.1 7.8799998,-0.66 0.1,-2.72 -8.1599998,-2.15 -7.8799998,0.66 z"
     fill="#ff8b03"
     id="path37" />
  <path
     d="m 11.655686,37.728133 c 1.17,1.95 6.01,0.19 4.41,-2.35 -1.52,-2.41 -6.0999998,-0.46 -4.41,2.35 z"
     fill="#ff8b03"
     id="path38" />
  <path
     d="m 16.915686,45.518133 c 0.77,1.31 3.33,1.22 5.73,0.09 1.6,-0.75 3.7,-2.29 3.28,-4.13 -0.47,-2.06 -4.32,-2.35 -6.85,-1.13 -1.79,0.87 -3.76,2.45 -2.16,5.17 z"
     fill="#ff8b03"
     id="path39" />
  <path
     d="m 70.105686,53.188133 -6.27,1.76 c 0,0 1.94,8.4 2.67,11.54 0.77,3.31 5.7,27.17 9.57,26.54 3.99,-0.65 -2.67,-25.34 -3.31,-28.02 -0.6,-2.57 -2.66,-11.82 -2.66,-11.82 z"
     fill="#676f72"
     id="path40" />
  <path
     d="m 69.475686,64.458133 c 1.85,-0.4 2.87,-1.51 2.87,-1.51 l 1.23,5.3 c 0,0 -0.93,0.86 -2.76,1.28 -2.02,0.47 -3.59,0.11 -3.59,0.11 l -1.21,-5.26 c -0.01,-0.01 1.48,0.5 3.46,0.08 z"
     fill="#41484a"
     id="path41" />
  <path
     d="m 63.835686,54.948133 6.26,-1.76 0.93,4.22 c 0,0 -1.65,0.83 -2.99,1.11 -1.34,0.28 -3.31,0.3 -3.31,0.3 z"
     fill="#41484a"
     id="path42" />
  <path
     d="m 68.345686,74.448133 c 0,0 1.78,0.21 3.4,-0.14 1.62,-0.35 2.97,-1.39 2.97,-1.39 l 1.04,4.66 c 0,0 -1.54,1.09 -2.95,1.35 -1.45,0.27 -3.28,0.11 -3.26,0.11 z"
     fill="#41484a"
     id="path43" />
  <path
     d="m 63.275686,38.618133 c -2.19,0.61 -3.83,1.97 -3.94,4.36 -0.14,3.1 0.56,4.93 1.41,7.88 0.54,1.89 1.17,6.22 6.9,4.79 3.94,-0.99 3.52,-4.65 3.38,-7.32 -0.14,-2.69 -0.7,-6.19 -1.69,-7.74 -0.92,-1.44 -3.52,-2.67 -6.06,-1.97 z"
     fill="#303031"
     id="path44" />
  <path
     d="m 68.585686,29.368133 c 0.87,1.29 0.9,3.07 -0.24,3.83 -1.13,0.76 -3,0.22 -3.87,-1.07 -0.87,-1.29 -0.65,-2.95 0.48,-3.72 1.14,-0.76 2.76,-0.33 3.63,0.96 z"
     fill="#303031"
     id="path45" />
  <path
     d="m 59.345686,33.528133 c -0.42,1.5 -1.86,2.58 -3.17,2.21 -1.32,-0.37 -2.01,-2.03 -1.6,-3.53 0.42,-1.5 1.82,-2.42 3.14,-2.05 1.32,0.37 2.04,1.87 1.63,3.37 z"
     fill="#303031"
     id="path46" />
</svg>
