<?xml version="1.0" encoding="UTF-8" standalone="no"?>
<!-- Uploaded to: SVG Repo, www.svgrepo.com, Generator: SVG Repo Mixer Tools -->

<svg width="778.80005" height="775.78271" viewBox="0 0 35.046002 34.910222" aria-hidden="true" role="img"
   class="iconify iconify--twemoji" preserveAspectRatio="xMidYMid" version="1.1" id="svg7"
   xmlns="http://www.w3.org/2000/svg" xmlns:svg="http://www.w3.org/2000/svg">
   <defs id="defs7" />
   <path fill="#f18f26"
      d="m 9.5240002,21.439 c 0,0 0.7019998,2.281 -0.337,7.993 -0.186,1.025 -0.46,2.072 -0.599,2.93 -1.757,0 -1.851,2.002 -1.478,2.002 h 2.094 C 10.541,34.364 12.175,31.03 13.058,26.403 13.941,21.776 9.5240002,21.439 9.5240002,21.439 Z M 22.566,25.141 c 0,0 2.272,1.22 2.188,4.081 -0.033,1.131 -0.249,2.091 -0.355,3.024 -1.832,0 -1.839,1.985 -1.305,1.985 h 1.856 c 0.923,0 3.001,-3.158 3.379,-7.281 0.379,-4.122 -5.763,-1.809 -5.763,-1.809 z"
      id="path1" />
   <path fill="#ffcc4e"
      d="M 35.046,7.4470001 C 35.046,2.5250001 30.905,5.9604645e-8 26.046,5.9604645e-8 A 1,1 0 1 0 26.046,2.0000001 c 1.804,0 6.717,0.934 6.717,5.447 C 32.763,10.328 31.196,12.909 28.993,13.429 28.829,13.356 28.648,13.325 28.484,13.237 21.245,9.3200001 15.027,14.139 13.258,12.947 11.506,11.765 12.719,9.6920001 10.434,7.7040001 c -0.33,-1.841 -1.0729998,-4.477 -1.7939998,-4.477 -0.549,0 -1.265,1.825 -1.74,3.656 -0.591,-1.381 -1.363,-2.756 -1.86,-2.756 -0.64,0 -1.278,2.273 -1.594,4.235 -1.68,1.147 -2.90599996,2.8089999 -2.90599996,4.7649999 0,2.7 4.04999996,3.357 5.39999996,3.411 1.35,0.054 3.023,3.562 3.585,5.072 C 10.767,25.977 11.576,30.309 12.223,32.793 c -1.649,0 -1.804,2.111 -1.348,2.111 0.713,0 1.953,-0.003 2.225,0 1.381,0.014 2.026,-4.706 2.026,-8.849 0,-0.212 -0.011,-0.627 -0.011,-0.627 0,0 1.93,0.505 6.038,-0.208 2.444,-0.424 5.03,0.849 5.746,3.163 0.527,1.704 1.399,3.305 1.868,4.484 -1.589,0 -1.545,2.037 -1.084,2.037 0.787,0 1.801,0.014 2.183,0 1.468,-0.055 0.643,-7.574 1.03,-10.097 0.387,-2.523 1.267,-5.578 -0.229,-8.797 3.236,-1.774 4.379,-5.505 4.379,-8.5629999 z"
      id="path2" />
   <circle fill="#292f33" cx="5.04" cy="10.768" r="0.89999998" id="circle2" />
   <path fill="#e75a70"
      d="m 2.0300002,11.86 c -0.677,0.423 -0.677,1.777 -1.015,1.777 C 0.67700024,13.637 2.4223328e-7,12.841 2.4223328e-7,11.86 -9.9975777e-4,10.879 2.8620002,11.34 2.0300002,11.86 Z"
      id="path3" />
   <path fill="#fee7b8"
      d="m 5.6240002,13.343 c -0.041,0.026 -0.09,0.036 -0.142,0.026 -0.018,-0.004 -1.548,-0.241 -2.545,0.146 -0.129,0.05 -0.341,-0.023 -0.413,-0.191 -0.072,-0.168 0.023,-0.365 0.152,-0.415 1.44,-0.569 2.857,-0.234 2.934,-0.218 0.139,0.029 0.195,0.19 0.188,0.372 -0.004,0.114 -0.104,0.235 -0.174,0.28 z m -0.472,2.339 a 0.186,0.186 0 0 1 -0.141,-0.031 c -0.015,-0.01 -1.331,-0.83 -2.402,-0.853 -0.138,-0.003 -0.305,-0.154 -0.305,-0.341 0,-0.186 0.165,-0.335 0.304,-0.333 1.552,0.024 2.724,0.891 2.789,0.937 0.117,0.082 0.104,0.255 0.027,0.424 -0.049,0.107 -0.189,0.182 -0.272,0.197 z"
      id="path4" />
   <path fill="#f18f26"
      d="m 6.9000002,6.8810001 c 0,0 0.372,-0.039 0.859,0.033 0.217,-0.46 0.585,-0.887 0.585,-0.887 0,0 0.281,0.668 0.386,1.179 0.025,0.12 0.218,0.117 0.322,0.189 0,0 0.038,-3.463 -0.863,-3.836 10e-4,-0.002 -0.755,1.124 -1.289,3.322 z m -3.455,1.479 c 0,0 0.384,-0.267 0.883,-0.574 0.217,-0.624 0.568,-1.333 0.568,-1.333 0,0 0.307,0.602 0.345,0.81 0.21,-0.114 0.21,-0.106 0.403,-0.19 0,0 -0.114,-2.286 -1.099,-2.527 0,0 -0.732,1.372 -1.1,3.814 z"
      id="path5" />
   <path fill="#ffdd99"
      d="m 17.496,22.644 c -2.649,0.57 -2.38,2.782 -2.38,2.782 0,0 1.93,0.505 6.038,-0.208 a 5.542,5.542 0 0 1 3.107,0.377 c -1.607,-3.047 -4.315,-3.479 -6.765,-2.951 z"
      id="path6" />
   <path fill="#f18f26"
      d="m 13.732,13.109 c 0.476,0.676 2.397,2.368 2.745,2.159 0.338,-0.203 0.59,-2.055 0.342,-2.706 -1.329,0.359 -2.385,0.658 -3.087,0.547 z m 7.024,2.689 c 0.623,0.138 1.507,-2.979 1.41,-4.123 -1.449,0.017 -2.78,0.256 -3.965,0.537 0.335,1.08 1.953,3.452 2.555,3.586 z m 2.627,-4.082 c 0.042,0.723 0.982,2.603 1.285,2.737 0.307,0.137 1.685,-1.319 1.866,-2.061 a 12.573,12.573 0 0 0 -3.151,-0.676 z"
      id="path7" />
</svg>