<?xml version="1.0" encoding="UTF-8" standalone="no"?>
<!-- Uploaded to: SVG Repo, www.svgrepo.com, Generator: SVG Repo Mixer Tools -->

<svg
   width="658.99121"
   height="734.16669"
   viewBox="0 0 105.43859 117.46667"
   aria-hidden="true"
   role="img"
   class="iconify iconify--noto"
   preserveAspectRatio="xMidYMid"
   version="1.1"
   id="svg22"
   sodipodi:docname="bug-svgrepo-com.svg"
   xmlns:inkscape="http://www.inkscape.org/namespaces/inkscape"
   xmlns:sodipodi="http://sodipodi.sourceforge.net/DTD/sodipodi-0.dtd"
   xmlns="http://www.w3.org/2000/svg"
   xmlns:svg="http://www.w3.org/2000/svg">
  <defs
     id="defs22" />
  <sodipodi:namedview
     id="namedview22"
     pagecolor="#ffffff"
     bordercolor="#000000"
     borderopacity="0.25"
     inkscape:showpageshadow="2"
     inkscape:pageopacity="0.0"
     inkscape:pagecheckerboard="0"
     inkscape:deskcolor="#d1d1d1" />
  <path
     d="m 21.076519,0.82947147 c -0.47,0.86000003 0.09,1.97000003 2.16,2.82000003 2.06,0.84 6.48,2.72 7.79,4.79 1.31,2.0699995 1.97,3.7499995 0.56,7.2299995 -1.41,3.48 1.97,4.04 1.97,4.04 0,0 3.47,-4.13 1.41,-10.0399995 -2.06,-5.91 -9.2,-8.35 -10.23,-8.73000003 -1.03,-0.39 -3.1,-1.14 -3.66,-0.11 z"
     fill="#70853c"
     id="path1" />
  <ellipse
     transform="rotate(-40.352)"
     cx="-42.481182"
     cy="88.606888"
     rx="5.2399998"
     ry="5.4299998"
     fill="#70853c"
     id="ellipse1" />
  <ellipse
     transform="rotate(-64.247)"
     cx="-76.746429"
     cy="81.971687"
     rx="5.2399998"
     ry="5.4299998"
     fill="#70853c"
     id="ellipse2" />
  <ellipse
     transform="rotate(-80.811)"
     cx="-97.29554"
     cy="77.280952"
     rx="5.2399998"
     ry="5.4299998"
     fill="#70853c"
     id="ellipse3" />
  <ellipse
     transform="rotate(-80.811)"
     cx="-98.016983"
     cy="96.647064"
     rx="5.2399998"
     ry="5.4299998"
     fill="#70853c"
     id="ellipse4" />
  <ellipse
     cx="12.276518"
     cy="48.459469"
     rx="5.1399999"
     ry="4.9299998"
     fill="#70853c"
     id="ellipse5" />
  <ellipse
     transform="rotate(-4.863)"
     cx="7.5241666"
     cy="64.68042"
     rx="5.1399999"
     ry="4.9299998"
     fill="#70853c"
     id="ellipse6" />
  <ellipse
     transform="rotate(-19.038)"
     cx="-10.41201"
     cy="81.191536"
     rx="5.4000001"
     ry="5.52"
     fill="#70853c"
     id="ellipse7" />
  <path
     d="m 43.886519,69.019471 c 6.19,10.42 25.34,10.28 43.5,16.19 11.92,3.88 19.290001,13.09 17.880001,21.679999 -1.41,8.59 -7.470001,10.8 -12.670001,10.56 -6.19,-0.28 -13.66,-5.49 -19.29,-6.76 -5.63,-1.27 -27.92,-3.47 -33.79,-5.91 -6.76,-2.82 -15.49,-8.869999 -20.69,-17.879999 -4.92,-8.52 -5.91,-23.93 -6.05,-30.97 -0.14,-7.04 0.14,-13.8 -0.42,-15.49 -0.56,-1.69 -10.0300004,-1.77 -11.97000037,-10.28 -2.11000003,-9.29 4.64999997,-19.15 14.64000037,-20.9799995 9.99,-1.83 22.52,2.9599995 25.9,14.4999995 3.38,11.55 -1.75,37.42 2.96,45.34 z"
     fill="#b7d019"
     id="path7" />
  <path
     d="m 19.196519,57.709471 c -0.64,1.52 1.18,2.65 3.75,2.86 3.38,0.28 8.47,-1.06 12.34,-2.53 4.04,-1.54 6.55,-3.45 6.55,-3.45 l -0.07,-4.29 c 0,0 -2.75,2.67 -9.06,4.6 -3.02,0.92 -7.32,1.88 -8.78,1.92 -1.44,0.04 -4.21,-0.33 -4.73,0.89 z"
     fill="#70853c"
     id="path8" />
  <path
     d="m 33.606519,0.21947147 c -0.93,0.72 -0.35,1.94000003 0.42,3.00000003 0.89,1.22 2.96,3.94 3.05,6.52 0.06,1.5499995 -0.47,5.7099995 -1.17,6.8499995 -1.17,1.92 1.36,3.33 2.63,2.53 1.55,-0.97 2.2,-7.33 1.92,-10.0399995 -0.47,-4.69 -3.14,-6.9 -4.08,-7.84 -0.76,-0.74000003 -1.93,-1.67000003 -2.77,-1.02000003 z"
     fill="#70853c"
     id="path9" />
  <path
     d="m 86.536519,84.919471 c 0,0 0.19,6.79 -0.84,10.37 -1.17,4.08 -2.63,7.269999 -3.38,8.779999 -0.32,0.64 -0.56,1.55 0.23,2.16 0.79,0.61 2.16,0.14 2.72,-0.7 0.67,-1.01 2.96,-4.79 3.99,-9.479999 1.39,-6.33 0.94,-9.9 0.94,-9.9 0,0 -1.36,-0.56 -1.88,-0.7 -0.51,-0.15 -1.78,-0.53 -1.78,-0.53 z"
     fill="#70853c"
     id="path10" />
  <path
     d="m 69.546519,80.699471 c 0,0 0.19,5.21 -0.99,9.62 -0.8,3 -2.86,7.13 -3.28,7.98 -0.42,0.84 -1.34,2.249999 -0.47,3.329999 1.25,1.56 3.26,-0.33 3.92,-1.779999 0.43,-0.96 2.4,-4.19 3.59,-8.78 1.36,-5.26 0.99,-9.53 0.99,-9.53 z"
     fill="#70853c"
     id="path11" />
  <path
     d="m 52.796519,76.149471 c 0,0 -0.49,6.73 -2.11,9.76 -2.53,4.74 -5.77,7.32 -6.19,7.74 -0.42,0.42 -2.02,1.82 -0.47,2.91 1.27,0.89 2.82,0 3.24,-0.38 0.42,-0.38 5.02,-3.41 7.23,-9.34 1.78,-4.79 1.88,-9.39 1.88,-9.39 0,0 -1.45,-0.56 -1.83,-0.7 -0.39,-0.13 -1.75,-0.6 -1.75,-0.6 z"
     fill="#70853c"
     id="path12" />
  <path
     d="m 42.966519,66.899471 c 0,0 -3.87,4.6 -6.55,6.48 -3.31,2.33 -7.41,3.61 -8.78,3.75 -1.36,0.14 -3.24,0.28 -3,2.06 0.23,1.78 2.81,1.69 4.18,1.69 2.11,0 7.13,-1.99 10.35,-4.34 3.07,-2.24 5.91,-5.77 5.91,-5.77 0,0 -1.2,-1.5 -1.34,-1.97 -0.14,-0.46 -0.77,-1.9 -0.77,-1.9 z"
     fill="#70853c"
     id="path13" />
  <circle
     cx="20.646517"
     cy="50.459469"
     r="3.0999999"
     fill="#fe6014"
     id="circle13" />
  <circle
     cx="21.346518"
     cy="70.379471"
     r="3.0999999"
     fill="#fe6014"
     id="circle14" />
  <circle
     cx="34.866516"
     cy="90.189468"
     r="3.0999999"
     fill="#fe6014"
     id="circle15" />
  <ellipse
     cx="56.95652"
     cy="98.789467"
     rx="2.8800001"
     ry="2.8299999"
     fill="#fe6014"
     id="ellipse15" />
  <ellipse
     cx="75.486519"
     cy="103.22947"
     rx="2.8499999"
     ry="2.72"
     fill="#fe6014"
     id="ellipse16" />
  <ellipse
     cx="92.166519"
     cy="108.42947"
     rx="2.8499999"
     ry="2.72"
     fill="#fe6014"
     id="ellipse17" />
  <path
     d="m 97.576519,91.499471 c -2.22,-1.09 -3.84,2.56 -4.81,6.49 -0.97,3.929999 -1.87,6.579999 0.57,7.369999 2.98,0.96 5.12,-3.45 5.86,-6.849999 0.74,-3.4 0.41,-6.02 -1.62,-7.01 z"
     fill="#2e2e27"
     id="path17" />
  <path
     d="m 81.466519,84.289471 c -3.52,-0.99 -4.02,3.79 -4.86,7.53 -0.88,3.94 -3.1,7.42 0.07,8.379999 3.94,1.2 5.98,-3.849999 6.69,-7.039999 0.74,-3.31 1.46,-7.93 -1.9,-8.87 z"
     fill="#2e2e27"
     id="path18" />
  <path
     d="m 63.306519,79.789471 c -3.68,-0.99 -4.18,3.71 -5.35,7.72 -1.17,4.04 -1.65,7.47 0.56,8.26 2.63,0.94 4.83,-2.06 6.05,-6.15 1.23,-4.09 2.55,-8.82 -1.26,-9.83 z"
     fill="#2e2e27"
     id="path19" />
  <path
     d="m 38.346519,88.139471 c 2.5,2.7 6.44,-0.68 8.49,-3.57 1.97,-2.77 5.53,-7.39 2.39,-9.76 -2.67,-2.02 -6.02,2.2 -8.02,4.83 -1.78,2.35 -5.25,5.92 -2.86,8.5 z"
     fill="#2e2e27"
     id="path20" />
  <path
     d="m 24.736519,69.109471 c 0.6,2.41 6.29,3.1 10.75,0.52 3.15,-1.82 6.8,-4.65 5.96,-7.93 -0.88,-3.44 -6.29,-0.33 -9.43,0.94 -3.15,1.26 -8.31,2.34 -7.28,6.47 z"
     fill="#2e2e27"
     id="path21" />
  <path
     d="m 41.276519,43.609471 c -0.7,-2.39 -4.48,0.12 -8.66,1.48 -3.73,1.22 -8.87,0.99 -8.59,4.88 0.25,3.42 8.01,2 10.98,0.89 3.53,-1.32 7.27,-3.87 6.27,-7.25 z"
     fill="#2e2e27"
     id="path22" />
  <ellipse
     transform="rotate(-60)"
     cx="-9.6230822"
     cy="28.131081"
     rx="3.4300001"
     ry="3.1900001"
     fill="#2e2e27"
     id="ellipse22" />
</svg>
