<?xml version="1.0" encoding="UTF-8" standalone="no"?>
<!-- Uploaded to: SVG Repo, www.svgrepo.com, Generator: SVG Repo Mixer Tools -->

<svg
   width="740.8288"
   height="690.6488"
   viewBox="0 0 118.53261 110.50381"
   aria-hidden="true"
   role="img"
   class="iconify iconify--noto"
   preserveAspectRatio="xMidYMid"
   version="1.1"
   id="svg5"
   sodipodi:docname="baby-chick-svgrepo-com.svg"
   xmlns:inkscape="http://www.inkscape.org/namespaces/inkscape"
   xmlns:sodipodi="http://sodipodi.sourceforge.net/DTD/sodipodi-0.dtd"
   xmlns="http://www.w3.org/2000/svg"
   xmlns:svg="http://www.w3.org/2000/svg">
  <defs
     id="defs5" />
  <sodipodi:namedview
     id="namedview5"
     pagecolor="#ffffff"
     bordercolor="#000000"
     borderopacity="0.25"
     inkscape:showpageshadow="2"
     inkscape:pageopacity="0.0"
     inkscape:pagecheckerboard="0"
     inkscape:deskcolor="#d1d1d1" />
  <path
     d="m 48.051881,84.455101 c 0,0 1.25,8.8 -0.09,9.67 -1.31,0.84 -5.54,0.26 -7.79,0.66 -1.6,0.28 -2.72,2.06 -2.63,3.94 0.09,1.879999 2.06,3.379999 4.13,3.379999 2.07,0 6.29,-0.08 8.07,-0.28 2.53,-0.28 4.15,-1.869999 4.6,-2.999999 0.94,-2.35 0.28,-15.02 0.28,-15.02 z"
     fill="#fc9301"
     id="path1" />
  <path
     d="m 64.571881,85.115101 6.66,-0.75 c 0,0 0.19,9.29 0.28,11.26 0.09,1.97 0.56,7.699999 -0.09,9.199999 -0.73,1.67 -4.41,4.79 -8.63,5.35 -4.22,0.56 -8.92,0.84 -9.1,-2.91 -0.18,-3.75 2.72,-3.66 3.85,-3.94 1.13,-0.28 5.73,-1.13 6.85,-2.25 1.12,-1.139999 0.18,-15.959999 0.18,-15.959999 z"
     fill="#fc9301"
     id="path2" />
  <path
     d="m 12.621881,30.585101 c 0,0 1.01,-8.68 1.83,-11.73 1.6,-5.96 8.26,-18.02000033 27.59,-18.82000033 25.6,-1.05999997 31.39,22.24000033 31.39,22.24000033 0,0 11.4,3.24 22.81,7.04 11.409999,3.8 21.679999,9.01 22.239999,10.7 0.56,1.69 -3.26,25.91 -24.349999,38.86 -20.41,12.53 -62.08,12.25 -73.63,-11.68 -5.55,-11.51 -4.67,-18.57 -5.77,-25.9 -1.33,-8.88 -2.11,-10.71 -2.11,-10.71 z"
     fill="#ffb903"
     id="path3" />
  <path
     d="m 0.00188053,30.305101 c 0.22,3.09 14.08000047,6.95 14.08000047,6.95 0,0 2.35,-1.13 2.35,-6.95 0,-5.82 -2.35,-7.41 -2.35,-7.41 0,0 -14.27000047,4.78 -14.08000047,7.41 z"
     fill="#fa9100"
     id="path4" />
  <ellipse
     transform="rotate(-71.319)"
     cx="-14.930444"
     cy="37.408131"
     rx="5.3299999"
     ry="4.9000001"
     fill="#2f302b"
     id="ellipse4" />
  <path
     d="m 47.301881,60.705101 c -2.73,2.73 3.85,7.79 12.11,11.26 8.26,3.47 17.93,2.35 25.34,-1.03 7.07,-3.22 13.7,-13.8 12.58,-18.77 -1.12,-4.97 -5.44,-6.38 -11.36,-7.79 -5.91,-1.41 -14.83,-3.57 -16.8,-3.85 -1.97,-0.28 -3.38,-0.09 -3.75,1.69 -0.27,1.3 1.03,2.53 4.32,3.47 3.28,0.94 19.99,4.97 19.99,8.26 0,3.28 -3.38,9.39 -10.42,12.39 -6.83,2.91 -13.51,3.28 -20.27,0.09 -4.17,-1.97 -7.6,-4.79 -8.45,-5.35 -0.85,-0.55 -1.97,-1.68 -3.29,-0.37 z"
     fill="#fc9301"
     id="path5" />
</svg>
