<?xml version="1.0" encoding="UTF-8" standalone="no"?>
<!-- Uploaded to: SVG Repo, www.svgrepo.com, Generator: SVG Repo Mixer Tools -->

<svg
   width="748.71057"
   height="633.25031"
   viewBox="0 0 119.79369 101.32005"
   aria-hidden="true"
   role="img"
   class="iconify iconify--noto"
   preserveAspectRatio="xMidYMid"
   version="1.1"
   id="svg25"
   sodipodi:docname="chipmunk-svgrepo-com.svg"
   xmlns:inkscape="http://www.inkscape.org/namespaces/inkscape"
   xmlns:sodipodi="http://sodipodi.sourceforge.net/DTD/sodipodi-0.dtd"
   xmlns="http://www.w3.org/2000/svg"
   xmlns:svg="http://www.w3.org/2000/svg">
  <defs
     id="defs25" />
  <sodipodi:namedview
     id="namedview25"
     pagecolor="#ffffff"
     bordercolor="#000000"
     borderopacity="0.25"
     inkscape:showpageshadow="2"
     inkscape:pageopacity="0.0"
     inkscape:pagecheckerboard="0"
     inkscape:deskcolor="#d1d1d1" />
  <path
     d="m 27.922366,9.2335633 c 0.81,-1.96 -1.62,-8.93999999 -4.01,-9.21999999 -2.68,-0.32 -6.26,5.06999999 -5.91,11.11999969 0.23,4.09 9.07,0.14 9.92,-1.8999997 z"
     fill="#865b52"
     id="path1" />
  <path
     d="m 28.832366,55.903563 c 0,0 -1.55,2.82 -4.22,4.36 -2.67,1.55 -9.43,4.79 -9.43,4.79 l 3.1,4.65 19.01,-2.25 c -0.01,0 -3.81,-16.19 -8.46,-11.55 z"
     fill="#865b52"
     id="path2" />
  <path
     d="m 40.522366,26.343563 6.34,-10.56 c 0,0 1.83,8.73 2.96,11.12 1.13,2.39 3.52,7.04 5.77,7.74 2.25,0.7 7.18,-1.27 15.2,2.82 8.02,4.09 17.03,15.49 17.6,26.61 0.57,11.12 -1.97,13.37 -0.7,15.06 1.27,1.69 8.31,0 9.85,-6.19 1.54,-6.19 -0.42,-14.92 -3.38,-21.26 -2.96,-6.34 -6.9,-12.67 -3.52,-22.24 3.38,-9.57 15.200004,-12.81 20.980004,-11.83 5.77,0.99 8.11,3.65 8.17,7.04 0.14,8.45 -10.84,5.49 -10.7,14.78 0.14,9.29 8.63,19.01 7.32,31.96 -1.41,13.94 -11.12,20.98 -24.500004,21.82 -12.64,0.8 -24.5,-2.82 -24.5,-2.82 l -8.87,-39.7 -17.46,-12.67 z"
     fill="#865b52"
     id="path3" />
  <path
     d="m 55.062366,37.233563 c 0,3.38 12.79,7.56 18.49,13.51 10.51,10.98 9.67,23.74 11.54,22.24 0.43,-0.34 2.87,-13.2 -7.6,-25.43 -7.78,-9.1 -22.43,-10.87 -22.43,-10.32 z"
     fill="#fee5c1"
     id="path4" />
  <path
     d="m 7.8623665,65.013563 c 0,0 -4.05,4.45 -0.94,8.63 3.5799995,4.83 10.6099995,0.94 10.6099995,0.94 z"
     fill="#c49166"
     id="path5" />
  <path
     d="m 8.2423665,62.523563 c 0,0 -2.71,3.54 0.36,7.7 3.1899995,4.32 6.1499995,6.66 9.9499995,6.15 3.8,-0.52 4.93,-2.82 4.97,-5.54 0.06,-2.73 -15.2799995,-8.31 -15.2799995,-8.31 z"
     fill="#ad3421"
     id="path6" />
  <path
     d="m 13.022366,59.373563 c -2.07,0 -4.4599995,0.99 -5.2999995,3.75 -1.13,3.7 2.06,6.38 2.8199995,7.23 0.76,0.85 2.16,2.02 4.69,2.02 2.53,0 6.66,-4.74 6.66,-4.74 0,0 -0.43,-3.6 -3.3,-5.99 -2.41,-2.01 -4.31,-2.27 -5.57,-2.27 z"
     fill="#d97755"
     id="path7" />
  <path
     d="m 6.9623665,69.893563 c -0.23,1.17 -0.09,2.06 0.61,2.21 0.7,0.15 0.56,-0.94 0.7,-1.64 0.14,-0.7 0.28,-1.7 -0.23,-1.83 -0.78,-0.21 -0.97,0.7 -1.08,1.26 z"
     fill="#865b52"
     id="path8" />
  <path
     d="m 9.2223665,72.613563 c -0.09,1.08 -0.19,1.83 0.52,1.88 0.7099995,0.05 0.5899995,-1.04 0.6199995,-1.62 0.04,-0.73 0.11,-1.55 -0.15,-1.71 -0.7299995,-0.47 -0.9199995,0.61 -0.9899995,1.45 z"
     fill="#865b52"
     id="path9" />
  <path
     d="m 30.292366,73.693563 c 0,0 -0.38,3.94 1.97,7.41 2.35,3.47 5.54,5.82 5.35,6.19 -0.19,0.37 -4.04,0.84 -9.01,1.22 -4.97,0.38 -7.04,0.19 -8.54,1.69 -1.5,1.5 -3.85,4.79 -2.06,5.91 1.79,1.12 8.07,0.75 10.14,0.56 2.07,-0.19 7.6,-0.84 7.6,-0.84 0,0 -2.91,3 -1.31,4.319997 1.6,1.31 5.54,1.03 8.45,0.94 2.91,-0.09 15.67,-0.84 20.93,-1.03 5.26,-0.189997 9.48,0.28 10.79,-1.879997 1.31,-2.16 -0.47,-3.47 -0.47,-3.47 0,0 6.85,-3 6.76,-15.39 -0.09,-12.39 -4.88,-22.01 -14.83,-29.85 -7.45,-5.87 -15.2,-7.7 -19.33,-14.17 -4.13,-6.47 -3.38,-9.2 -3.38,-9.2 0,0 3.94,-5.26 4.22,-11.26 0.28,-6.0099997 -0.49,-12.7399997 -4.22,-13.5099997 -2.6,-0.53999999 -6.66,2.82 -8.73,6.29 -2.06,3.4699997 -7.13,10.8899997 -7.13,10.8899997 l -0.94,29.09 6.85,14.08 c 0,0 -0.56,1.69 -1.41,2.06 -0.84,0.38 -9.48,0 -11.17,0.09 -1.69,0.09 -5.95,1.47 -6.16,4.32 -0.19,2.55 -0.13,2.63 2.03,3.1 2.15,0.47 13.6,2.44 13.6,2.44 z"
     fill="#c49166"
     id="path10" />
  <path
     d="m 15.012366,67.153563 c 0,0.48 1.41,0.38 2.63,0.05 1.22,-0.33 2.86,-0.56 2.82,-1.31 -0.05,-0.75 -1.83,-0.59 -2.86,-0.19 -1.32,0.51 -2.59,0.75 -2.59,1.45 z"
     fill="#865b52"
     id="path11" />
  <path
     d="m 19.312366,68.623563 c 0,0.86 -1.37,0.68 -2.3,0.89 -0.84,0.19 -2.35,0.61 -2.35,-0.05 0,-0.66 1.27,-0.89 2.16,-1.08 0.89,-0.18 2.49,-0.65 2.49,0.24 z"
     fill="#865b52"
     id="path12" />
  <path
     d="m 34.322366,74.063563 8.94,-3.1 7.6,-11.26 5.28,4.08 c 0,0 -3.66,3.73 -4.08,7.25 -0.56,4.64 0.63,9.43 2.67,12.32 2.04,2.89 5.35,7.67 5.35,7.67 0,0 -3.59,0.92 -7.6,0.28 -3.57,-0.56 -10.17,-3.91 -13.55,-8.06 -2.18,-2.67 -3.69,-4.74 -4.61,-9.18 z"
     fill="#fdc397"
     id="path13" />
  <path
     d="m 49.292366,58.533563 2.21,1.64 c 0,0 -2.49,8.4 -9.1,12.15 -4.59,2.6 -9.18,2.67 -17.93,1.36 -7.23,-1.08 -8.95,-2.44 -9.47,-2.86 -0.6,-0.49 0.88,0.38 3.18,0.61 2.3,0.23 9.29,1.22 12.06,1.45 2.77,0.23 6.73,-0.25 9.76,-1.92 2.63,-1.45 4.88,-3.99 7.04,-7.56 1,-1.64 2.25,-4.87 2.25,-4.87 z"
     fill="#865b52"
     id="path14" />
  <path
     d="m 20.532366,91.103563 c -0.51,-0.21 -1.45,1.24 -2.18,2.57 -0.54,1 -1.04,2.11 -0.48,2.45 0.56,0.34 1.48,-1.23 1.93,-2.08 0.45,-0.86 1.72,-2.54 0.73,-2.94 z"
     fill="#865b52"
     id="path15" />
  <path
     d="m 21.182366,93.593563 c -0.68,1.02 -1.76,2.84 -1.16,3.22 0.6,0.38 1.65,-1.26 2.25,-2.15 0.6,-0.88 1.83,-2.53 1.16,-2.87 -0.67,-0.34 -1.58,0.79 -2.25,1.8 z"
     fill="#865b52"
     id="path16" />
  <path
     d="m 38.322366,95.393563 c -0.9,-0.27 -2.18,1.16 -2.71,2.18 -0.53,1.02 -0.74,2.859997 -0.18,3.199997 0.81,0.49 0.99,-1.719997 1.79,-2.819997 0.61,-0.8 2.26,-2.21 1.1,-2.56 z"
     fill="#865b52"
     id="path17" />
  <path
     d="m 38.342366,98.153563 c -0.55,1.41 -0.67,3.049997 0.04,3.159997 0.8,0.12 0.78,-1.449997 1.46,-2.719997 0.68,-1.27 2.08,-2.62 1.46,-2.9 -0.72,-0.34 -2.13,0.35 -2.96,2.46 z"
     fill="#865b52"
     id="path18" />
  <path
     d="m 35.732366,40.313563 c 3.52,2.02 4.72,4.54 4.72,4.54 0,0 -1.27,2.18 -2.67,4.36 -1.41,2.18 -2.69,8.31 -3.1,10.07 -0.92,3.91 -2.7,4.6 -2.7,4.6 0,0 -1.98,-3.33 -2.97,-5.02 -0.88,-1.5 -2.36,-5.14 -2.99,-5.35 -0.63,-0.21 -6.46,2.15 -10.37,2.49 -4.27,0.37 -7.3199995,-2.06 -7.3199995,-2.06 l -3.14,-4.15 2.25,-4.65 5.5599995,-3.73 13.94,-4.15 c -0.01,-0.01 4.32,0.48 8.79,3.05 z"
     fill="#fdc397"
     id="path19" />
  <path
     d="m 30.662366,28.243563 1.06,-1.69 c 0,0 -1.71,-5.22 -0.53,-10.24 1.23,-5.21 3.06,-7.9499997 3.06,-7.9499997 0,0 -8.24,-3.27 -19.64,4.8199997 -11.3999995,8.09 -10.5599995,19.14 -10.8399995,22.17 -0.28,3.03 -0.41,4.73 -1.48,5.63 -2.01000001,1.69 -2.50000001,3.24 -2.22000001,4.5 0.28,1.27 4.82000001,0.35 4.82000001,0.35 l 2.53,-0.7 12.6699995,-7.53 z"
     fill="#9f7157"
     id="path20" />
  <path
     d="m 41.412366,8.6535633 c -0.65,-0.11 -3.85,2.8299997 -4.74,6.3399997 -1.08,4.27 -0.44,7.15 1.69,7.6 2.21,0.47 3.98,-3.09 4.5,-5.68 0.52,-2.54 -0.04,-8.0299997 -1.45,-8.2599997 z"
     fill="#ffd2b2"
     id="path21" />
  <path
     d="m 3.1223665,44.173563 c -1.74,0.21 -3.33000001,0.56 -3.05000001,1.88 0.28,1.31 1.88000001,2.63 2.35000001,3.1 0.47,0.47 2.77,0.63 2.77,0.63 0,0 2.87,-3.88 2.85,-4.75 -0.04,-1.31 -1.87,-1.24 -4.92,-0.86 z"
     fill="#f69c9c"
     id="path22" />
  <path
     d="m 31.722366,26.553563 c -0.13,-0.79 -11.16,-1.41 -15.32,3.54 -3.71,4.41 -2.73,7.67 -3.86,9.44 -1.99,3.12 -3.7899995,4.68 -3.6499995,4.87 0.16,0.22 2.2099995,-0.54 4.4599995,-1.17 1.87,-0.53 4.33,-0.17 6.69,-0.14 2.71,0.04 7.37,-0.51 9.96,-5.06 2.98,-5.28 1.98,-9.86 1.72,-11.48 z"
     fill="#ffeac6"
     id="path23" />
  <path
     d="m 19.542366,33.523563 c -1.21,1.08 -1.59,3.01 -1.13,4.46 0.39,1.22 1.94,2.83 4.41,2.49 3.43,-0.47 4.41,-4.18 2.82,-6.57 -0.84,-1.27 -3.47,-2.73 -6.1,-0.38 z"
     fill="#100d0f"
     id="path24" />
  <path
     d="m 4.1623665,48.933563 c 0,0 2.48,-5 3.88,-3.68 0.9,0.84 -1.56,4.53 -1.56,4.53 0,0 1.67,2.73 3.7399995,2.91 2.08,0.18 4.35,-1.61 4.99,-2.06 0.63,-0.46 1.62,-1.37 2.46,-1.06 0.84,0.31 1.15,1.25 -0.06,2.44 -1.13,1.1 -4.96,3.73 -8.3899995,2.77 -2.85,-0.8 -4.86,-3.41 -5.77,-4.12 -0.92,-0.7 -4.27000001,-3.1 -3.24000001,-4.19 0.69,-0.72 3.95000001,2.46 3.95000001,2.46 z"
     fill="#494949"
     id="path25" />
</svg>
