<?xml version="1.0" encoding="UTF-8" standalone="no"?>
<!-- Uploaded to: SVG Repo, www.svgrepo.com, Generator: SVG Repo Mixer Tools -->

<svg
   width="769.18048"
   height="611.80573"
   viewBox="0 0 123.06888 97.888916"
   aria-hidden="true"
   role="img"
   class="iconify iconify--noto"
   preserveAspectRatio="xMidYMid"
   version="1.1"
   id="svg20"
   sodipodi:docname="cricket-svgrepo-com.svg"
   xmlns:inkscape="http://www.inkscape.org/namespaces/inkscape"
   xmlns:sodipodi="http://sodipodi.sourceforge.net/DTD/sodipodi-0.dtd"
   xmlns="http://www.w3.org/2000/svg"
   xmlns:svg="http://www.w3.org/2000/svg">
  <defs
     id="defs20" />
  <sodipodi:namedview
     id="namedview20"
     pagecolor="#ffffff"
     bordercolor="#000000"
     borderopacity="0.25"
     inkscape:showpageshadow="2"
     inkscape:pageopacity="0.0"
     inkscape:pagecheckerboard="0"
     inkscape:deskcolor="#d1d1d1" />
  <path
     d="m 52.336261,50.746262 c 0,0 6.51,-9.54 8.63,-12.61 3.05,-4.4 7.73,-10.13 9.53,-12.38 1.8,-2.25 4.73,-6.53 7.73,-6.38 3,0.15 3.84,3.18 4.13,4.43 0.53,2.25 2.7,10.96 3.9,17.86 1.2,6.9 3.15,18.76 3.15,18.76 l -5.33,-1.88 c 0,0 -4.4,-16.68 -5.25,-20.86 -1,-4.9 -0.58,-6.4 -1.2,-7.2 -0.61,-0.78 -4.41,7.27 -6,10.06 -3.6,6.3 -6.68,11.03 -6.68,11.03 z"
     fill="#9c7866"
     id="path1" />
  <path
     d="m 25.086261,41.306262 c -0.47,0 -0.89,-0.31 -1.03,-0.78 -0.03,-0.1 -2.93,-10.23 -11.58,-23.57 C 7.1662613,8.7562618 0.37626132,1.8862618 0.30626132,1.8162618 c -0.41,-0.42 -0.41,-1.08999997 0.01,-1.50999997 0.42,-0.41 1.08999998,-0.41 1.50999998,0.01 0.07,0.07 7.01,7.09999997 12.4499997,15.48000017 8.84,13.64 11.72,23.74 11.84,24.16 0.16,0.57 -0.17,1.15 -0.74,1.31 -0.09,0.03 -0.19,0.04 -0.29,0.04 z"
     fill="#ba967d"
     id="path2" />
  <path
     d="m 29.896261,41.006262 c -0.55,0 -1.01,-0.42 -1.06,-0.98 -0.01,-0.08 -0.75,-8.61 -2.54,-18.05 -1.61,-8.51 -5.02,-17.4400002 -5.05,-17.5300002 a 1.068,1.068 0 0 1 1.99,-0.77 c 0.03,0.09 3.51,9.2000002 5.16,17.8900002 1.81,9.56 2.56,18.18 2.57,18.27 0.05,0.59 -0.39,1.1 -0.97,1.15 -0.04,0.02 -0.07,0.02 -0.1,0.02 z"
     fill="#ba967d"
     id="path3" />
  <path
     d="m 46.406261,51.796262 7.05,-3 c 0,0 3.3,-0.9 8.86,-1.65 5.55,-0.75 10.66,-0.6 10.66,-0.6 l -1.35,4.8 c 0,0 14.56,2.55 20.41,4.05 5.85,1.5 10.359999,4.8 10.359999,4.8 0,0 4.63,-0.65 7.65,-1.95 4.35,-1.88 9.98,-6.3 9.76,-5.18 -0.24,1.19 -1.95,2.78 -2.85,3.68 -0.9,0.9 -2.85,2.78 -2.85,2.78 0,0 1.95,-0.23 3.3,-0.83 1.35,-0.6 4.01,-1.92 3.75,-1.2 -0.6,1.65 -4.2,4.73 -7.65,5.93 -3.45,1.2 -9.01,2.18 -9.01,2.18 0,0 0.04,2.64 -2.4,5.85 -2.849999,3.75 -12.759999,8.41 -24.319999,7.65 -11.56,-0.74 -28.55,-4.14 -34.45,-10.04 -3,-3 -5.4,-3.6 -5.4,-3.6 0,0 -3.3,5.4 -9.98,5.55 -4.95,0.11 -10.73,-6.15 -11.33,-12.08 -0.78,-7.61 29.79,-7.14 29.79,-7.14 z"
     fill="#6c4d42"
     id="path4" />
  <path
     d="m 36.346261,62.156262 c 0,0 0.83,3.08 4.35,5.7 3.52,2.62 11.08,-2.66 12.76,-11.11 1.35,-6.8 0.15,-8 0.15,-8 0,0 -2.85,-4.15 -9.83,-5.43 -4.32,-0.79 -7.65,0.08 -7.65,0.08 z"
     fill="#52352a"
     id="path5" />
  <path
     d="m 73.796261,47.596262 c -0.38,1.06 -3.03,7.67 -6.9,10.28 -3.9,2.63 -8.26,3.98 -12.68,3.9 -4.43,-0.08 -5.03,-1.73 -5.03,-1.73 l 1.43,-0.38 c 0,0 6.7,0.05 10.91,-1.83 4.21,-1.88 6.58,-3.62 8.61,-6.5 1.43,-2.03 2.1,-3.6 2.7,-4.58 0.39,-0.64 1.34,-0.21 0.96,0.84 z"
     fill="#52352a"
     id="path6" />
  <path
     d="m 23.706261,69.696262 c 0,0 1.35,0.75 2.63,1.05 1.28,0.3 2.89,0.11 2.89,0.11 0,0 -3.83,5.7 -4.88,7.35 -1.05,1.65 -3.38,4.04 -4.88,4.49 -1.1,0.33 -3.96,0.34 -5.7,0.23 -2.25,-0.15 -5.1799997,-0.3 -5.3999997,-1.65 -0.13,-0.77 0.2,-3.26 3.8299997,-3.45 2.85,-0.15 4.58,1.65 5.03,1.2 1.04,-1.06 6.48,-9.33 6.48,-9.33 z"
     fill="#b99680"
     id="path7" />
  <path
     d="m 16.156261,47.296262 c -1.2,-1.58 -4.35,-1.28 -4.35,2.4 0,4.13 1.99,5.37 3.3,5.85 1.43,0.53 1.65,-5.48 1.65,-5.48 0,0 0.6,-1.19 -0.6,-2.77 z"
     fill="#040000"
     id="path8" />
  <path
     d="m 27.346261,36.496262 c -1.8,0 -7.98,0.37 -11.18,5.93 -2.55,4.43 -2.07,10.96 -1.35,14.71 0.75,3.9 3.94,12.45 12.83,12.38 9.98,-0.08 18.29,-19.6 8.93,-29.64 -3.08,-3.31 -7.43,-3.38 -9.23,-3.38 z"
     fill="#b99680"
     id="path9" />
  <path
     d="m 32.026261,48.346262 c -1.79,-1.96 -6.5,-1.78 -7.88,2.6 -1.01,3.19 0.81,7.46 4.03,7.46 3.85,0 7.37,-6.21 3.85,-10.06 z"
     fill="#020200"
     id="path10" />
  <path
     d="m 43.736261,44.666262 c -2.08,0.74 -0.67,3.39 -0.81,4.52 -0.14,1.13 -1.18,2.95 0.54,3.9 1.98,1.08 4.53,-0.92 4.51,-4.08 -0.02,-3.16 -2.08,-5.11 -4.24,-4.34 z"
     fill="#865e53"
     id="path11" />
  <path
     d="m 43.856261,63.506262 c -2.07,-1.18 -4.8,-0.98 -6.9,3.08 -2.1,4.05 -6.23,13.88 -7.43,16.36 -1.2,2.48 -3.73,7.16 -4.5,7.49 -0.53,0.23 -1.43,-1.95 -5.4,-1.58 -3.98,0.38 -6.08,4.8 -4.8,5.33 1.28,0.53 4.05,0.6 7.05,0.53 2.7,-0.07 5.93,-0.3 6.83,-0.98 0.9,-0.68 4.53,-5.2 6.6,-8.61 3.15,-5.18 6.68,-11.26 8.33,-14.48 0.86,-1.72 2.84,-5.64 0.22,-7.14 z"
     fill="#b99680"
     id="path12" />
  <path
     d="m 54.606261,71.366262 c 1.34,2 4.43,3.93 13.81,-1.8 10.03,-6.13 22.66,-25.54 23.61,-26.77 1.35,-1.73 2.44,-3.45 2.85,-3 0.55,0.6 0.53,3.68 1.58,7.05 0.87,2.78 6.549999,20.38 7.229999,22.56 1.25,4 4.46,15.81 5.53,17.02 1.2,1.35 4.65,0.68 7.08,1.38 2.07,0.6 5,2 6.2,1.2 1.2,-0.8 0.98,-4.6 -5.3,-6.3 -4.38,-1.19 -4.53,-0.78 -4.53,-0.78 0,0 -10.68,-44.71 -11.93,-49.11 -1.219999,-4.3 -1.879999,-4.8 -3.149999,-4.88 -2.71,-0.16 -11.16,8.96 -14.56,12.46 -3.4,3.5 -11.63,12.78 -22.29,20.41 -1.63,1.17 -8.33,7.28 -6.13,10.56 z"
     fill="#b99680"
     id="path13" />
  <path
     d="m 100.03626,31.636262 c -0.259999,0 -0.519999,-0.13 -0.669999,-0.36 a 0.804,0.804 0 0 1 0.23,-1.11 l 2.899999,-1.9 c 0.37,-0.24 0.87,-0.14 1.11,0.23 0.24,0.37 0.14,0.87 -0.23,1.11 l -2.9,1.9 c -0.14,0.09 -0.29,0.13 -0.44,0.13 z"
     fill="#d4785d"
     id="path14" />
  <path
     d="m 100.83626,35.636262 c -0.32,0 -0.62,-0.19 -0.74,-0.51 -0.159999,-0.41 0.04,-0.88 0.45,-1.04 l 4.1,-1.6 c 0.41,-0.16 0.87,0.04 1.03,0.45 0.16,0.41 -0.04,0.88 -0.45,1.04 l -4.1,1.6 c -0.09,0.05 -0.19,0.06 -0.29,0.06 z"
     fill="#d4785d"
     id="path15" />
  <path
     d="m 101.93626,39.646262 c -0.36,0 -0.68,-0.24 -0.77,-0.61 -0.11,-0.43 0.15,-0.86 0.58,-0.97 l 4,-1 c 0.42,-0.1 0.86,0.15 0.97,0.58 0.11,0.43 -0.15,0.86 -0.58,0.97 l -4,1 c -0.07,0.02 -0.13,0.03 -0.2,0.03 z"
     fill="#d4785d"
     id="path16" />
  <path
     d="m 80.326261,21.436262 a 0.79,0.79 0 0 1 -0.62,-0.3 0.795,0.795 0 0 1 0.12,-1.12 l 2.6,-2.1 c 0.34,-0.28 0.85,-0.23 1.13,0.12 0.28,0.34 0.22,0.85 -0.12,1.12 l -2.6,2.1 c -0.16,0.12 -0.33,0.18 -0.51,0.18 z"
     fill="#d4785d"
     id="path17" />
  <path
     d="m 82.026261,24.836262 a 0.798,0.798 0 0 1 -0.24,-1.56 l 3.8,-1.2 a 0.798,0.798 0 0 1 0.48,1.52 l -3.8,1.2 c -0.08,0.03 -0.16,0.04 -0.24,0.04 z"
     fill="#d4785d"
     id="path18" />
  <path
     d="m 83.226261,28.736262 a 0.798,0.798 0 0 1 -0.08,-1.59 l 3.7,-0.4 c 0.43,-0.04 0.83,0.27 0.88,0.71 0.05,0.44 -0.27,0.83 -0.71,0.88 l -3.7,0.4 z"
     fill="#d4785d"
     id="path19" />
  <path
     d="m 44.606261,68.566262 c 0.46,2.54 6.9,1.2 9.41,0.3 2.15,-0.77 6,-2.7 7.4,-2.5 1.4,0.2 7.2,11.01 8.41,13.41 1.2,2.4 4.5,8.51 5.4,10.16 0.79,1.45 1.7,3.15 3.3,3.65 1.6,0.5 3.15,1.25 4.65,1.83 1.48,0.57 4.38,3.59 6.23,2.03 1.95,-1.65 -0.35,-4.05 -1.35,-4.95 -1,-0.9 -2.17,-1.75 -4.05,-2.4 -2.18,-0.75 -3.28,-1.08 -3.68,-1.28 -0.4,-0.2 -7.22,-15.17 -9.31,-19.34 -1.7,-3.4 -4.1,-8.71 -5.6,-9.81 -1.5,-1.1 -12.41,1.3 -13.51,1.8 -1.1,0.5 -1.63,1.66 -3.9,3.5 -1.6,1.29 -3.6,2.49 -3.4,3.6 z"
     fill="#9c7866"
     id="path20" />
</svg>
