<?xml version="1.0" encoding="UTF-8" standalone="no"?>
<!-- Uploaded to: SVG Repo, www.svgrepo.com, Generator: SVG Repo Mixer Tools -->

<svg
   width="703.31964"
   height="759.32092"
   viewBox="0 0 298.91085 322.71139"
   id="icons"
   version="1.1"
   sodipodi:docname="animal-antler-deer-svgrepo-com.svg"
   xmlns:inkscape="http://www.inkscape.org/namespaces/inkscape"
   xmlns:sodipodi="http://sodipodi.sourceforge.net/DTD/sodipodi-0.dtd"
   xmlns="http://www.w3.org/2000/svg"
   xmlns:svg="http://www.w3.org/2000/svg">
  <defs
     id="defs22" />
  <sodipodi:namedview
     id="namedview22"
     pagecolor="#ffffff"
     bordercolor="#000000"
     borderopacity="0.25"
     inkscape:showpageshadow="2"
     inkscape:pageopacity="0.0"
     inkscape:pagecheckerboard="0"
     inkscape:deskcolor="#d1d1d1" />
  <title
     id="title1" />
  <path
     d="m 226.3681,18.424955 v 0 a 5.215,5.215 0 0 0 -7.1,2.35 c -0.764,1.549 -2.668,5.512 -4.032,7.106 a 10.617,10.617 0 0 1 -16.928,-1 c -2.37,-3.7 -2.955,-11.714 -1.016,-20.6079999 a 5.173,5.173 0 0 0 -3.316,-5.96799998 v 0 a 5.161,5.161 0 0 0 -6.392,2.60499998 c -4.134,8.6369999 -10.894,28.9689999 9.266,41.5259999 0,0 5.225,21.3 22.307,28.337 l 9.17,-4.865 c 0,0 -15.935,-9.111 -15.681,-23.024 0,0 13.344,-5.615 16.431,-20.92 a 5.149,5.149 0 0 0 -2.709,-5.539 z"
     style="fill:#c97469"
     id="path1" />
  <path
     d="m 218.2331,191.76696 c 0,0 -6.516,13.938 -8.141,29.261 a 48.079,48.079 0 0 0 -0.25,5.063 v 13.13 a 17.959,17.959 0 0 1 -4.751,12.177 c -10.036,10.886 -33.993,35.958 -52.541,48.065 a 4.538,4.538 0 0 1 -6.926,-2.958 32.759,32.759 0 0 1 -0.564,-7.776 22.887,22.887 0 0 1 5.883,-13.985 l 26,-29.254 6.137,-45.034 z"
     style="fill:#db5e26"
     id="path2" />
  <path
     d="m 101.1501,211.98096 c 0,0 7.989,19.252 -4.541996,37.362 a 32.616,32.616 0 0 0 -5.529,13.176 43.828,43.828 0 0 0 -0.131,13.728 29.539,29.539 0 0 0 1.175,4.766 l 10.870996,33.04 a 5.738,5.738 0 0 1 -7.143996,7.286 21.357,21.357 0 0 1 -13.144,-10.838 c -0.222,-0.444 -0.414,-0.906 -0.6,-1.368 l -23.474,-59.414 9.383,-49.263 z"
     style="fill:#db5e26"
     id="path3" />
  <path
     d="m 260.6621,70.723955 30.949,-8.533 c 0,0 -1.04,23.41 -23.665,22.015 z"
     style="fill:#db5e26"
     id="path4" />
  <path
     d="m 255.6181,18.424955 v 0 a 5.213,5.213 0 0 1 7.1,2.35 48.3,48.3 0 0 0 4.337,7.234 c 4.565,5.334 13.9,5.411 17.686,-0.5 2.371,-3.7 1.893,-12.341 -0.046,-21.2349999 a 5.172,5.172 0 0 1 3.316,-5.96799998 v 0 a 5.161,5.161 0 0 1 6.392,2.60499998 c 4.141,8.6379999 10.9,28.9699999 -9.258,41.5269999 0,0 -5.225,21.3 -22.308,28.337 l -8.239,-6.23 c 0,0 15,-7.746 14.75,-21.659 0,0 -13.343,-5.615 -16.43,-20.92 a 5.149,5.149 0 0 1 2.7,-5.541 z"
     style="fill:#c97469"
     id="path5" />
  <path
     d="m 223.8241,70.189955 -25.863,-9.095 c 0,0 -5.111,20.179 15.916,21.032 0,0 -4.8,5.868 -5.1,22.771005 a 18.159,18.159 0 0 1 -0.626,4.348 c -2.055,7.737 -10.018,29.522 -34.347,28.586 0,0 -21.316,0 -47.747,-10.231 0,0 -34.166996,-14.5 -64.930996,-10.128 a 49.8,49.8 0 0 0 -26.276,12.564 c -8.7,7.861 -23.513,20.026 -33.4300002,21.567 a 1.71,1.71 0 0 0 -1.17100004,2.574 22.013,22.013 0 0 0 14.48800024,10.032 l 6.734,0.622 c 0,0 -1.807,22.2 11.8,41.757 a 23.826,23.826 0 0 1 3.837,8.686 38.949,38.949 0 0 1 -6,30.772 13.8,13.8 0 0 0 -2.513,7.449 c -0.377,10.47 -0.027,37.029 11.346,57.99 0,0 3.743,7.326 13.689,10.5 a 4.57,4.57 0 0 0 5.937,-4.943 l -6.212,-46.487 a 14.033,14.033 0 0 1 3.758,-11.545 c 5.018,-5.263 12.791,-13.969 16.648,-21.131 0,0 5.684,-13.358 2.273,-25.011 30.232996,-2.073 59.456996,-2.513 77.419996,15.271 a 20.732,20.732 0 0 1 8.265,11.82 c 1.925,7.391 5,18.869 8.591,30.989 a 38.528,38.528 0 0 1 1.589,10.322 l 0.378,23.676 a 18.38,18.38 0 0 0 13.132,17.49 c 0.14,0.039 0.281,0.078 0.424,0.115 a 5,5 0 0 0 6.252,-4.768 c 0.2,-14.487 0.5,-54.47 -1.779,-84.045 a 30.368,30.368 0 0 1 10.078,-24.954 96.555,96.555 0 0 1 13.209,-9.842 c 18.189,-11.369 30.782,-38.614 34.1,-68.211 a 40.059,40.059 0 0 0 18.215,2.43 15.9,15.9 0 0 0 14.1,-15.911 c -0.072,-4.479 -1.256,-10.284 -4.646,-17.620005 a 32.07,32.07 0 0 1 -2.712,-9.629 c -1.049,-8.753 -5.352,-26.355 -22.967,-28.9 a 30.614,30.614 0 0 0 -25.859,9.088 z"
     style="fill:#f99848"
     id="path6" />
  <path
     d="m 153.4501,228.14296 c -8.152,-36.5 -61.147996,-30.432 -61.147996,-30.432 -15.61,0.709 -22.47,-1.893 -22.47,-1.893 1.183,6.86 6.2,17.046 6.2,17.046 0,0 7.958,9.095 28.136996,6.537 15.516,-1.967 33.215,1.275 45.735,6.754 a 20.948,20.948 0 0 1 3.546,1.988 z"
     style="fill:#e7eef2"
     id="path7" />
  <path
     d="m 47.628104,170.65596 1.8,1.27 a 5.729,5.729 0 0 1 1.622,7.595 l -1.238,2.092 a 5.729,5.729 0 0 1 -8.551,1.521 l -1.6,-1.3 a 5.731,5.731 0 0 1 -1.692,-6.591 19.822,19.822 0 0 1 1.493,-2.949 5.72,5.72 0 0 1 8.166,-1.638 z"
     style="fill:#fff2e9"
     id="path8" />
  <path
     d="m 58.269104,138.19796 4.132,-3.714 a 3.072,3.072 0 0 1 4.95,1.261 l 2.13,6.017 a 3.075,3.075 0 0 1 -1.5,3.76 l -3.706,1.9 a 3.039,3.039 0 0 1 -3.379,-0.38 11.417,11.417 0 0 1 -3.556,-5.781 3.08,3.08 0 0 1 0.929,-3.063 z"
     style="fill:#fff2e9"
     id="path9" />
  <path
     d="m 64.239104,166.25596 a 14.947,14.947 0 0 1 2.929,-4.641 4.583,4.583 0 0 1 5.03,-1.1 l 3.212,1.3 a 4.558,4.558 0 0 1 2.3,6.394 l -2.283,4.219 a 4.568,4.568 0 0 1 -6.019,1.924 11,11 0 0 1 -4.958,-4.274 4.464,4.464 0 0 1 -0.211,-3.822 z"
     style="fill:#fff2e9"
     id="path10" />
  <path
     d="m 87.818104,142.80596 a 27.667,27.667 0 0 1 5.418,-5.173 5.1,5.1 0 0 1 6.25,0.462 l 2.408996,2.155 a 5.133,5.133 0 0 1 0.986,6.458 l -2.062,3.456 a 5.106,5.106 0 0 1 -5.299996,2.425 24.117,24.117 0 0 1 -5.881,-1.874 5.144,5.144 0 0 1 -1.82,-7.909 z"
     style="fill:#fff2e9"
     id="path11" />
  <path
     d="m 124.3271,156.27096 -3.792,-0.853 a 4.484,4.484 0 0 1 -3.428,-5.2 12.331,12.331 0 0 1 5.227,-8.258 4.428,4.428 0 0 1 3.884,-0.454 l 4.694,1.625 a 4.486,4.486 0 0 1 1.846,7.264 l -4.133,4.527 a 4.486,4.486 0 0 1 -4.298,1.349 z"
     style="fill:#fff2e9"
     id="path12" />
  <path
     d="m 100.0851,170.77296 1.515,1.166 a 5.278,5.278 0 0 1 1.983,5.065 l -0.631,3.713 a 5.245,5.245 0 0 1 -5.299996,4.394 11,11 0 0 1 -7.638,-3.047 5.265,5.265 0 0 1 -0.149,-7.2 l 3.063,-3.426 a 5.276,5.276 0 0 1 7.156996,-0.665 z"
     style="fill:#fff2e9"
     id="path13" />
  <path
     d="m 118.8011,171.15596 a 32.181,32.181 0 0 1 3.331,-2.383 6.194,6.194 0 0 1 8.625,2.18 l 0.433,0.751 a 6.2,6.2 0 0 1 -1.252,7.73 l -1.871,1.662 a 6.182,6.182 0 0 1 -6.424,1.121 c -0.563,-0.228 -1.157,-0.492 -1.758,-0.8 a 6.177,6.177 0 0 1 -1.084,-10.261 z"
     style="fill:#fff2e9"
     id="path14" />
  <path
     d="m 150.1351,151.89196 q 0.477,-0.526 1.055,-1.09 a 6.864,6.864 0 0 1 6.7,-1.666 v 0 a 6.864,6.864 0 0 1 4.866,7.66 l -0.189,1.205 a 6.843,6.843 0 0 1 -10.364,4.79 13.2,13.2 0 0 1 -1.558,-1.165 6.832,6.832 0 0 1 -0.51,-9.734 z"
     style="fill:#fff2e9"
     id="path15" />
  <path
     d="m 175.2891,166.02396 2.808,-2.012 a 6.187,6.187 0 0 1 7.381,0.136 21.572,21.572 0 0 1 3.809,3.685 6.156,6.156 0 0 1 0.071,7.417 12.5,12.5 0 0 1 -3.55,3.379 5.97,5.97 0 0 1 -5.538,0.232 34.283,34.283 0 0 1 -4.974,-2.788 6.154,6.154 0 0 1 -0.007,-10.049 z"
     style="fill:#fff2e9"
     id="path16" />
  <path
     d="m 149.5291,184.33496 a 18.824,18.824 0 0 1 2.624,-1.652 5.686,5.686 0 0 1 3.288,-0.591 27.944,27.944 0 0 1 7.62,1.97 5.8,5.8 0 0 1 3.095,7.584 34.487,34.487 0 0 1 -2.957,5.488 5.812,5.812 0 0 1 -8.254,1.51 33.6,33.6 0 0 1 -6.42,-6.177 5.724,5.724 0 0 1 1.004,-8.132 z"
     style="fill:#fff2e9"
     id="path17" />
  <path
     d="m 246.2501,92.819955 a 3.06,3.06 0 0 1 -0.591,-0.059 l -3.75,-0.748 a 3,3 0 1 1 1.174,-5.884 l 3.75,0.748 a 3,3 0 0 1 -0.583,5.943 z"
     style="fill:#373d4c"
     id="path18" />
  <path
     d="m 258.1901,90.843955 a 3,3 0 0 1 -1.793,-5.407 l 3.069,-2.282 a 3,3 0 1 1 3.581,4.814 l -3.07,2.283 a 2.982,2.982 0 0 1 -1.787,0.592 z"
     style="fill:#373d4c"
     id="path19" />
  <path
     d="m 21.466104,164.83196 a 52.979,52.979 0 0 1 6.368,-16.9 1.462,1.462 0 0 0 -2.169,-1.9 c -4.715,3.8 -10.06,9.861 -10.931,18.163 a 29.632,29.632 0 0 0 6.732,0.637 z"
     style="fill:#db5e26"
     id="path20" />
  <path
     d="m 258.0151,105.27496 a 17.955,17.955 0 0 1 4.541,-0.814 5.617,5.617 0 0 1 5.85,5.181 c 0.023,0.311 0.036,0.629 0.036,0.952 a 6.745,6.745 0 0 1 -9.321,6.151 11.311,11.311 0 0 1 -3.242,-2.054 5.6,5.6 0 0 1 2.136,-9.416 z"
     style="fill:#373d4c"
     id="path21" />
  <path
     d="m 234.4191,124.82996 a 31.552,31.552 0 0 0 11.127,19.2 c 0.922,-4.35 1.646,-8.8 2.152,-13.307 a 48.709,48.709 0 0 1 -10.47,-7.385 1.673,1.673 0 0 0 -2.809,1.492 z"
     style="fill:#db5e26"
     id="path22" />
</svg>
