<?xml version="1.0" encoding="UTF-8" standalone="no"?>
<!-- Uploaded to: SVG Repo, www.svgrepo.com, Generator: SVG Repo Mixer Tools -->

<svg
   width="736.37695"
   height="644.5528"
   viewBox="0 0 117.82031 103.12845"
   aria-hidden="true"
   role="img"
   class="iconify iconify--noto"
   preserveAspectRatio="xMidYMid"
   version="1.1"
   id="svg10"
   sodipodi:docname="dove-svgrepo-com.svg"
   xmlns:inkscape="http://www.inkscape.org/namespaces/inkscape"
   xmlns:sodipodi="http://sodipodi.sourceforge.net/DTD/sodipodi-0.dtd"
   xmlns="http://www.w3.org/2000/svg"
   xmlns:svg="http://www.w3.org/2000/svg">
  <defs
     id="defs10" />
  <sodipodi:namedview
     id="namedview10"
     pagecolor="#ffffff"
     bordercolor="#000000"
     borderopacity="0.25"
     inkscape:showpageshadow="2"
     inkscape:pageopacity="0.0"
     inkscape:pagecheckerboard="0"
     inkscape:deskcolor="#d1d1d1" />
  <path
     d="m 10.399562,35.827761 c 0,0 4.89,-1.26 6.73,-1.22 2.32,0.05 4.97,0.7 6.38,1.55 1.41,0.84 6.66,-0.4 6.66,-0.4 0,0 3.03,0.21 1.97,-2.04 -0.52,-1.11 -6.09,-2.79 -9.43,-3.31 -4.36,-0.68 -10.35,0.77 -10.35,0.77 0,0 -0.42,-5.16 -1.62,-7.88 -0.68,-1.56 -3.0300003,-6.76 -5.0700003,-8.87 -1.33,-1.38 -3.23,-2.87 -4.85999999,-1.97 -2.04000001,1.13 0.20999999,5.07 1.96999999,7.95 1.76,2.88 4.38,5.95 5.28,8.45 0.65,1.76 2.3400003,6.97 2.3400003,6.97 z"
     fill="#6b7e37"
     id="path1" />
  <path
     d="m 17.119562,24.037761 c 0,0 2.18,-5.28 2.53,-7.81 0.35,-2.53 0.49,-7.1099998 -0.42,-9.5699998 -0.6,-1.61 -1.76,-2.75 -3.17,-2.11 -0.84,0.38 -2.7,2.5 -2.11,6.6199998 0.56,3.94 0.99,7.04 0.99,10.07 0,2.04 -0.35,4.72 -0.35,4.72 z"
     fill="#6b7e37"
     id="path2" />
  <path
     d="m 15.259562,28.017761 c 0,0 2.89,-0.56 6.26,-0.49 3.37,0.07 10.14,1.55 14.15,1.41 4.01,-0.14 4.65,-2.04 3.52,-3.52 -1.13,-1.48 -4.15,-3.87 -10,-3.31 -4.43,0.43 -11.4,2.78 -11.4,2.78 z"
     fill="#6b7e37"
     id="path3" />
  <path
     d="m 20.469562,57.017761 c 0,0 -0.07,1.06 -0.77,1.62 -0.75,0.6 -1.69,0.77 -1.69,0.77 0,0 -5.7,-5.07 -7.67,-10.98 -1.9600003,-5.89 -1.2300003,-11.27 -1.1300003,-12.39 0.21,-2.25 1.4800003,-5.14 2.6700003,-7.04 1.65,-2.61 4.65,-5.77 6.12,-7.18 1.48,-1.41 3.73,-3.94 5.42,-5.77 1.38,-1.49 5.33,-5.67 6.76,-6.7599998 2.67,-2.04 6.62,-4.65 8.31,-2.32 1.69,2.32 -1.83,6.1899998 -4.65,8.0899998 -2.82,1.9 -6.69,4.29 -8.52,5.14 -1.01,0.47 -4.5,2.75 -6.26,4.65 -1.76,1.9 -4.72,5.07 -5.77,8.09 -1.06,3.03 -1.34,5.93 -0.99,10.07 0.35,4.15 2.82,8.51 3.59,9.64 1.43,2.12 4.58,4.37 4.58,4.37 z"
     fill="#6b7e37"
     id="path4" />
  <path
     d="m 46.579562,47.017761 c 0,0 -2.39,-7.39 0.84,-17.25 3.34,-10.17 8.52,-16.33 12.39,-19.57 6.57,-5.4999998 11.05,-6.4099998 12.81,-4.8599998 1.65,1.45 1.62,3.59 1.06,6.0499998 -0.33,1.45 -2.46,4.58 -2.46,4.58 0,0 1.32,-0.03 2.46,1.48 1.76,2.32 0.84,7.81 0.84,7.81 l -8.02,19.36 -10.98,6.83 z"
     fill="#b0b0b0"
     id="path5" />
  <path
     d="m 54.019562,48.547761 c 0,0 -6.31,-2.82 -8.63,-6.38 -4.5,-6.9 -11.02,-8.4 -15.11,-8.35 -10.04,0.1 -13.8,6.85 -13.8,6.85 l 0.47,7.79 c 0,0 4.32,5.63 4.5,6.48 0.18,0.85 -1.36,6.71 2.53,17.64 3.13,8.78 14.08,17.93 27.5,19.62 13.42,1.69 18.3,0.28 18.3,0.28 0,0 5.96,10.749999 6.99,10.649999 1.03,-0.09 3.1,-2.39 5.02,-3.239999 3,-1.32 8.92,-4.01 12.58,-8.59 6.189998,-7.74 5.09,-12.61 6.519998,-15.58 1.22,-2.53 2.39,-4.32 2.21,-5.26 -0.18,-0.94 -5.349998,-1.55 -8.449998,-1.69 -2.26,-0.1 -4.93,-0.28 -7.04,-0.56 -1.81,-0.24 -4.04,-1.45 -4.04,-1.45 l 6.19,-5.16 1.13,-8.45 6.29,-5.73 0.47,-5.82 8.629998,-5.91 5.16,-7.23 v -6.01 l 3.94,-6.48 c 0,0 2.16,-4.3 1.5,-4.87 -0.66,-0.57 -1.92,-1.2999998 -4.22,0.17 -0.84,0.54 1.39,-2.7999998 2.6,-4.6699998 1.55,-2.39 1.92,-4.97 0.99,-5.91000005 -0.94,-0.94 -1.97,-0.99 -6.97,0.35000005 -6.51,1.74 -15.199998,4.6 -27.409998,15.4899998 -12.21,10.89 -27.85,32.02 -27.85,32.02 z"
     fill="#e0e0e0"
     id="path6" />
  <path
     d="m 116.21956,10.677761 c 0,0 -0.59,4.65 -3.33,7.63 -3.04,3.3 -8.31,7.11 -10.56,8.31 -2.25,1.2 -8.089998,3.87 -9.009998,4.22 -0.92,0.35 -2.32,1.13 -1.9,2.11 0.42,0.99 1.41,1.13 2.82,0.49 1.41,-0.63 7.809998,-3.97 9.289998,-4.79 1.69,-0.94 5.87,-3.47 6.19,-2.25 0.38,1.41 -2.43,5.09 -5.79,8.45 -3.939998,3.94 -9.419998,6.9 -11.179998,7.67 -1.76,0.77 -4.43,1.83 -5.28,2.18 -0.84,0.35 -2.75,1.13 -2.32,2.39 0.42,1.27 2.96,0.38 3.84,0.11 2.04,-0.63 7,-3.48 7.21,-2.78 0.21,0.7 -0.28,2.46 -2.04,4.5 -1.76,2.04 -7.18,4.86 -9.08,5.91 -1.9,1.05 -2.67,1.34 -3.24,1.55 -0.56,0.21 -2.04,0.7 -1.76,2.04 0.28,1.34 1.79,0.84 2.57,0.56 0.53,-0.19 5.88,-2.89 6.44,-3.1 0.56,-0.21 0.77,1.9 0,3.55 -0.7,1.51 -2.96,3.63 -5.21,5.46 -1.77,1.44 -4.08,2.75 -4.65,3.03 -0.56,0.28 -2.32,1.2 -1.97,2.11 0.35,0.92 1.69,0.99 3.45,0.14 1.76,-0.84 10.76,-7.16 11.68,-12.11 0.49,-2.64 0.14,-4.08 0.14,-4.08 0,0 4.86,-4.43 5.77,-6.76 0.92,-2.32 0.77,-4.43 0.77,-4.43 0,0 6.069998,-4.83 9.209998,-8.45 2.83,-3.26 4.61,-7.2 4.94,-9.03 0.29,-1.6 0.07,-3.14 0.07,-3.14 0,0 3.31,-4.79 4.15,-7.6 0.94,-3.03 -1.22,-3.89 -1.22,-3.89 z"
     fill="#b0b0b0"
     id="path7" />
  <path
     d="m 115.20956,0.06776115 c 0,0 0.28,2.04000005 -0.7,4.36000005 -1.57,3.69 -5.15,6.4699998 -8.02,8.2399998 -3.1,1.9 -6.969998,3.59 -7.599998,3.94 -0.63,0.35 -1.72,1.16 -1.27,2.25 0.49,1.2 1.9,0.7 2.749998,0.28 0.84,-0.42 10.28,-5.77 12.11,-7.6 1.24,-1.24 4.36,-4.0799998 5.07,-7.0399998 1.27,-5.40000005 -2.34,-4.43000005 -2.34,-4.43000005 z"
     fill="#b0b0b0"
     id="path8" />
  <path
     d="m 30.419562,45.257761 c 0,1.61 -1.05,3 -2.63,3 -1.58,0 -2.88,-1.41 -3.1,-3 -0.23,-1.69 1,-2.98 2.58,-3.05 2.07,-0.09 3.15,1.45 3.15,3.05 z"
     fill="#2d2d2d"
     id="path9" />
  <path
     d="m 17.139562,39.767761 c 0,0 -12.5300003,4.5 -12.4400003,5.44 0.06,0.56 5.4400003,2.63 5.4400003,2.63 l -0.2100003,-0.92 3.3600003,0.59 0.61,1.31 4.04,0.89 c 0,0 0.33,-3.43 0.05,-6.05 -0.26,-2.37 -0.85,-3.89 -0.85,-3.89 z"
     fill="#ffc300"
     id="path10" />
</svg>
