<?xml version="1.0" encoding="UTF-8" standalone="no"?>
<!-- Uploaded to: SVG Repo, www.svgrepo.com, Generator: SVG Repo Mixer Tools -->

<svg
   width="636.87909"
   height="625.3454"
   viewBox="0 0 101.90065 100.05526"
   aria-hidden="true"
   role="img"
   class="iconify iconify--noto"
   preserveAspectRatio="xMidYMid"
   version="1.1"
   id="svg17"
   sodipodi:docname="mouse-svgrepo-com.svg"
   xmlns:inkscape="http://www.inkscape.org/namespaces/inkscape"
   xmlns:sodipodi="http://sodipodi.sourceforge.net/DTD/sodipodi-0.dtd"
   xmlns="http://www.w3.org/2000/svg"
   xmlns:svg="http://www.w3.org/2000/svg">
  <defs
     id="defs17" />
  <sodipodi:namedview
     id="namedview17"
     pagecolor="#ffffff"
     bordercolor="#000000"
     borderopacity="0.25"
     inkscape:showpageshadow="2"
     inkscape:pageopacity="0.0"
     inkscape:pagecheckerboard="0"
     inkscape:deskcolor="#d1d1d1" />
  <path
     d="m 14.586791,47.575234 c 0,0 0.33,3.83 1.94,4.54 1.62,0.71 3.09,0.6 3.86,-0.05 0.77,-0.65 1.92,-4.03 1.92,-4.03 l -3.85,-0.25 z"
     fill="#feeed1"
     id="path1" />
  <path
     d="m 12.796791,39.565234 c -0.12,0 -0.25,-0.02 -0.37,-0.07 -0.02,-0.01 -2.5100002,-0.93 -5.4900002,-1.39 -2.84,-0.44 -5.25,-0.39 -5.27,-0.39 -0.57,0.03 -1.07999995,-0.45 -1.08999995,-1.04 -0.01,-0.59 0.44999995,-1.08 1.03999995,-1.09 0.11,0 2.61,-0.05 5.64,0.41 3.2000002,0.49 5.8000002,1.46 5.9100002,1.5 0.55,0.21 0.83,0.82 0.63,1.38 -0.16,0.42 -0.57,0.69 -1,0.69 z"
     fill="#a8a8a8"
     id="path2" />
  <path
     d="m 1.0767908,44.935234 c -0.37999995,0 -0.74999995,-0.21 -0.94999995,-0.57 -0.28,-0.52 -0.08,-1.17 0.44,-1.45 0.11,-0.06 2.71999995,-1.44 5.54999995,-2.1 2.8,-0.66 5.7100002,-0.75 5.8300002,-0.75 0.58,-0.02 1.08,0.45 1.1,1.04 0.02,0.59 -0.45,1.08 -1.04,1.1 -0.03,0 -2.8200002,0.09 -5.4000002,0.69 -2.56,0.6 -5.02,1.9 -5.04,1.91 -0.15,0.09 -0.32,0.13 -0.49,0.13 z"
     fill="#a8a8a8"
     id="path3" />
  <path
     d="m 3.3267908,50.955234 a 1.07,1.07 0 0 1 -0.67,-1.9 c 0.09,-0.07 2.15,-1.73 4.41,-3.26 2.27,-1.54 5.6500002,-3.35 5.7900002,-3.43 0.52,-0.28 1.17,-0.08 1.45,0.44 0.28,0.52 0.08,1.17 -0.44,1.45 -0.03,0.02 -3.43,1.84 -5.6000002,3.31 a 70.974,70.974 0 0 0 -4.26,3.16 c -0.21,0.16 -0.44,0.23 -0.68,0.23 z"
     fill="#a8a8a8"
     id="path4" />
  <path
     d="m 47.526791,12.595234 c 0,6.87 -4.13,12.42 -11.05,12.42 -6.92,0 -13.58,-3.74 -13.77,-11.98 -0.16,-6.8699995 3.71,-12.09999955 10.96,-12.93999955 8.31,-0.97 13.86,5.63000005 13.86,12.49999955 z"
     fill="#a8a8a8"
     id="path5" />
  <path
     d="m 83.386791,68.235234 c 0,0 6.38,1.44 9.39,5.18 1.76,2.19 2.53,7.67 -0.12,10.19 -2.65,2.53 -6.26,4.37 -17.1,4.13 -10.84,-0.24 -16.25,-0.6 -21.31,-0.24 -3.09,0.22 -8.19,0.84 -11.44,5.06 -2,2.59 -3.72,6.82 -2.17,7.459996 1.44,0.6 3.59,-5.719996 8.19,-7.099996 6.38,-1.93 18.82,0.45 24.68,0.9 8.49,0.66 19.34,1.4 25.24,-6.36 2.439999,-3.21 3.079999,-6.68 3.149999,-9.77 0.12,-5.15 -2.569999,-9.77 -6.479999,-12.71 -6.26,-4.7 -9.63,-4.58 -9.63,-4.58 z"
     fill="#feacab"
     id="path6" />
  <path
     d="m 67.096791,75.615234 c 0,0 -6.38,0.6 -8.79,1.69 -2.41,1.08 -3.97,3.13 -3.01,4.45 0.96,1.32 4.09,-0.36 7.83,-0.48 3.73,-0.12 9.15,0.48 12.4,-0.24 3.25,-0.72 4.21,-3.49 4.7,-4.7 0.48,-1.2 -13.13,-0.72 -13.13,-0.72 z"
     fill="#feacab"
     id="path7" />
  <path
     d="m 36.196791,75.935234 -2.29,0.96 c 0,0 -1.83,0.4 -2.69,2.01 -0.96,1.81 1.85,1.97 3.41,1.97 1.56,0 2.21,-0.32 2.21,-0.32 0,0 0.8,0.92 2.61,1.04 1.81,0.12 3.97,-0.12 5.06,-0.84 1.08,-0.72 0.96,-2.77 0.96,-2.77 z"
     fill="#feacab"
     id="path8" />
  <path
     d="m 36.676791,59.085234 c 0,0 -2.77,-2.05 -2.77,0.24 0,2.29 1.57,9.39 1.57,10.59 0,1.2 -1.87,3.04 -2.21,5.02 -0.32,1.89 0.44,3.01 2.81,3.09 2.29,0.08 4.09,-1 4.09,-1 l 3.85,-11.68 z"
     fill="#a9a9a9"
     id="path9" />
  <path
     d="m 39.406791,18.345234 c 0,0 0.88,-12.8399995 12.64,-13.3999995 10.1,-0.48 15.77,7.9899995 14.33,17.0199995 -1.44,9.03 -9.87,10.47 -9.87,10.47 0,0 6.5,-0.06 9.81,0.3 3.55,0.39 14.03,1.99 18.84,9.93 4.82,7.95 5.66,16.49 2.89,23.72 -2.41,6.29 -6.02,8.43 -7.95,9.15 -1.93,0.72 -7.22,1.69 -9.51,1.69 -2.29,0 -7.1,-3.13 -7.1,-3.13 l -11.32,0.6 c 0,0 -4.08,3.15 -5.41,3.75 -1.32,0.6 -7.44,1.41 -9.78,-0.1 -1.34,-0.86 0.14,-2.57 0.62,-5.58 0.48,-3.01 0.68,-3.61 0.6,-4.78 -0.08,-1.16 -3.97,-4.62 -5.42,-8.95 -0.89,-2.66 -1.93,-6.74 -1.93,-6.74 l -0.36,-1.93 -7.22,-1.93 c 0,0 -3.13,1.2 -5.78,0.6 -2.65,-0.6 -4.09,-2.65 -4.94,-4.45 -0.84,-1.81 -1.03,-5.29 -0.9,-6.43 0.17,-1.43 3.52,-6.56 8.82,-11.51 4.32,-4.03 8.53,-6.3 12.62,-7.26 4.09,-0.96 6.32,-1.04 6.32,-1.04 z"
     fill="#dfdfdf"
     id="path10" />
  <path
     d="m 59.476791,12.525234 c -2.77,-2.8899995 -8.67,-3.3699995 -12.4,0.96 -3.12,3.62 -2.71,8.96 0,11.68 2.89,2.89 9.28,3.16 12.76,-1.08 2.77,-3.37 2.17,-8.91 -0.36,-11.56 z"
     fill="#ffa7a6"
     id="path11" />
  <path
     d="m 51.366791,73.165234 c 0,0 -1.99,1.92 -3.45,2.85 -3.09,1.97 -5.78,1.81 -5.7,2.93 0.03,0.48 3.69,0.52 6.46,-0.92 2.42,-1.26 3.53,-2.33 3.53,-2.33 l 12.32,-0.12 c 0,0 3.37,2.29 7.54,2.41 7.46,0.22 10.43,-2.77 12.12,-4.45 1.69,-1.69 3.49,-5.02 2.05,-4.05 -1.44,0.96 -6.43,5.33 -11.24,5.58 -3.68,0.19 -7.22,-0.28 -9.66,-3.33 -1.46,-1.83 -1.71,-4.65 -0.9,-8.31 1.24,-5.58 5.79,-7.63 8.07,-7.1 4.13,0.96 4.13,-1.61 -0.04,-3.05 -4.53,-1.57 -9.76,1.28 -11.72,8.71 -1.68,6.37 1.09,10.7 1.09,10.7 0,0 -9.03,0 -10.47,0.48 z"
     fill="#a9a9a9"
     id="path12" />
  <path
     d="m 34.306791,35.765234 c -0.63,1.82 -2.69,2.7 -4.17,2.17 -1.49,-0.53 -2.04,-2.55 -1.39,-4.37 0.65,-1.82 2.38,-2.86 3.87,-2.32 1.49,0.53 2.58,1.95 1.69,4.52 z"
     fill="#2a2a2a"
     id="path13" />
  <path
     d="m 11.856791,42.195234 2.63,-0.01 3.29,-2.97 c 0,0 -1.69,-1.77 -3.13,-2.25 -1.44,-0.48 -2.36,-0.34 -2.36,-0.34 0,0 -0.86,1.15 -0.93,2.75 -0.06,1.42 0.5,2.82 0.5,2.82 z"
     fill="#ffa7a6"
     id="path14" />
  <path
     d="m 36.796791,48.905234 c 4.45,-0.54 8.67,-2.53 10.51,-5.12 1.35,-1.9 2.49,-3.85 3.69,-3.05 1.2,0.8 -0.66,3.68 -2.93,5.66 -2.19,1.91 -6.34,4.68 -11.52,4.78 -4.44,0.09 -8.65,-0.18 -11.16,-0.84 -2.29,-0.6 -4.82,-1.73 -4.82,-1.73 0,0 -1.85,1.12 -3.13,0.56 -1.28,-0.56 -4.09,-1.57 -4.82,-3.61 -0.26,-0.75 -1.37,-3.07 -0.48,-3.29 1.44,-0.36 1.4,0.52 1.69,1.2 0.28,0.68 0.72,2.09 1.36,2.57 0.64,0.48 2.33,1.93 3.29,1.93 0.96,0 5.46,-0.72 5.46,-0.72 0,0 7.47,2.32 12.86,1.66 z"
     fill="#a9a9a9"
     id="path15" />
  <path
     d="m 18.256791,39.055234 c -0.8,-0.52 -1.57,0.32 -2.57,1.08 -1,0.76 -1.93,1.28 -2.65,1.32 -0.72,0.04 -2.05,0.04 -1.93,1.16 0.12,1.12 1.28,1 2.13,0.92 0.84,-0.08 2.69,-0.76 3.53,-1.44 0.85,-0.67 2.8,-2.19 1.49,-3.04 z"
     fill="#434b55"
     id="path16" />
  <path
     d="m 13.276791,45.315234 c -0.81,0.69 -0.16,1.44 0.88,2.49 1.2,1.2 3.05,1.91 4.41,1.97 1.81,0.08 3.85,-0.56 5.58,-2.25 1.63,-1.59 -0.04,-2.93 -1.53,-2.17 -1.49,0.76 -3.41,1.89 -4.09,1.85 -1,-0.06 -2.69,-1.2 -3.21,-1.53 -0.51,-0.32 -1.23,-1.04 -2.04,-0.36 z"
     fill="#434b55"
     id="path17" />
</svg>
