<?xml version="1.0" encoding="UTF-8" standalone="no"?>
<!-- Uploaded to: SVG Repo, www.svgrepo.com, Generator: SVG Repo Mixer Tools -->

<svg
   width="707.35114"
   height="747.83313"
   viewBox="0 0 113.17618 119.6533"
   aria-hidden="true"
   role="img"
   class="iconify iconify--noto"
   preserveAspectRatio="xMidYMid"
   version="1.1"
   id="svg16"
   sodipodi:docname="dog-svgrepo-com.svg"
   xmlns:inkscape="http://www.inkscape.org/namespaces/inkscape"
   xmlns:sodipodi="http://sodipodi.sourceforge.net/DTD/sodipodi-0.dtd"
   xmlns="http://www.w3.org/2000/svg"
   xmlns:svg="http://www.w3.org/2000/svg">
  <defs
     id="defs16" />
  <sodipodi:namedview
     id="namedview16"
     pagecolor="#ffffff"
     bordercolor="#000000"
     borderopacity="0.25"
     inkscape:showpageshadow="2"
     inkscape:pageopacity="0.0"
     inkscape:pagecheckerboard="0"
     inkscape:deskcolor="#d1d1d1" />
  <path
     d="m 24.853129,58.667052 c 0,0 -2.39,6.9 -0.99,14.22 1.41,7.32 3.38,14.08 3.38,14.08 0,0 0.42,14.359998 0,15.909998 -0.42,1.55 -3.66,3.52 -3.66,6.34 0,2.82 1.03,6.38 6.24,7.23 5.21,0.85 9.43,-0.89 11.17,-3 2.51,-3.05 2.02,-5.21 2.02,-7.46 0,-2.25 0.14,-15.199998 0.7,-17.179998 0.56,-1.97 1.41,-3.1 2.96,-2.96 1.55,0.14 3.24,2.53 3.38,7.04 0.14,4.5 0.28,12.389998 0.14,13.939998 -0.14,1.55 -1.55,6.76 -0.42,8.87 1.13,2.11 6.24,4.16 10.18,3.94 5.16,-0.28 8.26,-3.52 8.54,-6.05 0.28,-2.53 -1.41,-8.31 -1.41,-10 0,-1.69 1.97,-13.229998 2.53,-13.939998 0.56,-0.7 2.28,-0.55 6.05,-2.25 3.43,-1.55 5.26,-3.1 5.26,-3.1 0,0 0.09,10 -0.05,11.12 -0.14,1.13 -3.52,4.649998 -2.96,7.319998 0.56,2.67 3.86,4.23 6.8,4.5 4.97,0.47 9.81,-3.38 11.07,-6.76 1.27,-3.379998 0.7,-7.599998 0.42,-9.849998 -0.28,-2.25 -0.28,-10.14 0,-12.25 0.28,-2.11 0.74,-3.39 0.92,-4.5 0.28,-1.83 0.21,-3.87 0.21,-3.87 0,0 4.860001,0 7.740001,-1.9 2.88,-1.9 5.91,-5.21 7.25,-9.29 1.31,-3.99 0.99,-5.21 -0.14,-5.35 -1.13,-0.14 -6.19,6.96 -10.49,7.18 -6.830001,0.35 -6.150001,-6.97 -11.360001,-11.4 -5.87,-5 -15.02,-5.63 -15.02,-5.63 0,0 1.58,-5.91 1.6,-10.28 0.07,-19.08 -9.22,-25.5499998 -9.22,-25.5499998 0,0 -11.17,-8.32000003 -23.84,-7.76000003 -12.67,0.56 -21.96,10.62999983 -21.96,10.62999983 l -6.97,30.76 c 0,0 1.76,5.91 4.58,10.21 2.96,4.5 5.35,7.04 5.35,7.04 z"
     fill="#ffd2b1"
     id="path1" />
  <path
     d="m 16.053129,3.8370522 c -10.3500001,0.21 -15.82000015,9.0299998 -15.98000015,14.4299998 -0.09,3.17 -1.33999995,26.21 11.40000015,26.68 5.11,0.19 8.91,-5.74 10.84,-12.46 2.43,-8.47 2.32,-16.96 2.6,-19.22 0.45,-3.6099998 1.2,-6.2599998 1.2,-6.2599998 0,0 -1.26,-3.35 -10.06,-3.17 z"
     fill="#865b52"
     id="path2" />
  <path
     d="m 71.453129,0.31705217 c 11.26,0.42 15.1,5.41000003 16.19,8.31000003 1.2,3.1699998 2.25,14.4799998 0.49,22.0299998 -1.43,6.16 -3.59,9.29 -8.66,9.08 -4.64,-0.19 -6.99,-6.88 -10.49,-15.98 -3.38,-8.8 -5.97,-16.6799998 -6.41,-17.8099998 -0.56,-1.48 -1.76,-2.11 -1.76,-2.11 0,0 2.25,-3.84000003 10.64,-3.52000003 z"
     fill="#865b52"
     id="path3" />
  <path
     d="m 58.573129,23.187052 c -5.56,0.35 -8.22,6.53 -7.04,12.74 1.27,6.69 5.66,9.86 11.19,9.15 6.05,-0.77 7.88,-7.67 7.11,-12.88 -0.71,-4.74 -3.39,-9.51 -11.26,-9.01 z"
     fill="#d27856"
     id="path4" />
  <path
     d="m 65.113129,34.517052 c 0,2.92 -1.62,5.36 -4.19,5.29 -3.49,-0.1 -4.4,-3.19 -4.33,-5.79 0.08,-3.04 1.9,-4.48 4.5,-4.41 2.32,0.05 4.02,1.99 4.02,4.91 z"
     fill="#060401"
     id="path5" />
  <path
     d="m 35.763129,36.127052 c 0,3.04 -1.62,5.58 -4.19,5.5 -3.49,-0.1 -4.4,-3.32 -4.33,-6.03 0.08,-3.17 2.25,-4.52 4.29,-4.37 2.31,0.17 4.23,1.86 4.23,4.9 z"
     fill="#060401"
     id="path6" />
  <path
     d="m 49.133129,53.107052 c 0,0 6.12,-0.63 5.84,-5.07 -0.28,-4.43 -4.43,-4.72 -7.67,-4.65 -3.24,0.07 -7.88,1.76 -7.39,5.49 0.49,3.73 5.77,4.22 5.77,4.22 0,0 -0.01,2.76 -1.83,2.96 -1.97,0.21 -4.79,-2.82 -5.56,-3.59 -0.77,-0.77 -1.97,-0.49 -2.39,0.14 -0.42,0.63 -0.14,2.04 1.06,3.24 1.2,1.2 4.01,4.22 6.83,3.94 2.82,-0.28 2.89,-1.76 4.01,-1.83 1.13,-0.07 1.06,1.62 3.87,1.55 1.98,-0.05 5.97,-3.53 6.69,-4.15 1.62,-1.41 2.04,-2.82 1.34,-3.73 -0.7,-0.91 -2.67,0.42 -3.73,1.2 -1.06,0.77 -2.77,2.59 -4.43,2.89 -2.76,0.49 -2.41,-2.61 -2.41,-2.61 z"
     fill="#060401"
     id="path7" />
  <path
     d="m 74.123129,46.507052 c 0,0 -1.33,2.92 -2.44,5.26 -1.34,2.82 -3.26,5.28 -3.26,5.28 0,0 2.17,14.84 15.08,13.56 4.62,-0.46 8.12,-4.08 8.45,-7.92 0.56,-6.48 -1.9,-9.51 -5.72,-12.47 -6.19,-4.78 -12.11,-3.71 -12.11,-3.71 z"
     fill="#d27856"
     id="path8" />
  <path
     d="m 65.183129,69.717052 c -2.29,2.1 -1.06,6.05 1.97,6.48 3.03,0.42 4.66,-2.1 4.43,-4.01 -0.34,-2.96 -3.79,-4.86 -6.4,-2.47 z"
     fill="#d27856"
     id="path9" />
  <path
     d="m 35.273129,65.817052 c 0,0 -2.02,5.54 2.25,12.48 1.82,2.95 5.87,4.61 8.73,4.5 3.02,-0.11 5.75,-1.16 8.09,-4.08 3.73,-4.65 2.67,-12.39 2.67,-12.39 0,0 -5.91,2.43 -11.33,2.25 -5.77,-0.18 -10.41,-2.76 -10.41,-2.76 z"
     fill="#d27856"
     id="path10" />
  <path
     d="m 27.903129,108.21705 c -1.47,-0.45 -2.06,1.83 -2.16,3.28 -0.1,1.45 -0.09,3.33 1.22,3.8 1.31,0.47 1.05,-2.32 1.17,-3.24 0.24,-1.77 1.32,-3.37 -0.23,-3.84 z"
     fill="#d27856"
     id="path11" />
  <path
     d="m 33.673129,109.06705 c -0.88,-0.04 -1.81,0.85 -1.92,3.43 -0.09,2.16 0,3.94 1.22,4.04 1.64,0.13 1.18,-1.97 1.27,-3.71 0.04,-0.99 1.26,-3.67 -0.57,-3.76 z"
     fill="#d27856"
     id="path12" />
  <path
     d="m 56.063129,111.87705 c -1.41,0 -1.45,1.6 -1.45,3.33 0,1.74 -0.36,3.89 1.22,4.08 1.92,0.23 1.55,-2.35 1.55,-3.8 -0.01,-1.26 0.22,-3.61 -1.32,-3.61 z"
     fill="#d27856"
     id="path13" />
  <path
     d="m 62.443129,111.55705 c -1.13,0.23 -1.03,1.78 -0.99,3.66 0.05,1.88 -0.23,3.87 1.36,3.71 1.36,-0.14 1.27,-2.35 1.22,-4.04 -0.04,-1.46 0.15,-3.7 -1.59,-3.33 z"
     fill="#d27856"
     id="path14" />
  <path
     d="m 81.773129,99.327052 c -0.97,-0.19 -2.07,0.63 -2.35,2.819998 -0.23,1.88 -0.14,3.53 1.5,3.89 0.84,0.19 0.99,-1.97 1.03,-3.52 0.05,-1.34 1.04,-2.949998 -0.18,-3.189998 z"
     fill="#d27856"
     id="path15" />
  <path
     d="m 87.073129,100.46705 c -0.93,-0.15 -1.84,0.42 -2.08,2.75 -0.14,1.36 -0.64,3.8 1.05,3.89 1.31,0.06 1.21,-2.09 1.33,-3.21 0.19,-1.77 1.23,-3.17 -0.3,-3.43 z"
     fill="#d27856"
     id="path16" />
</svg>
