<?xml version="1.0" encoding="UTF-8" standalone="no"?>
<!-- Uploaded to: SVG Repo, www.svgrepo.com, Generator: SVG Repo Mixer Tools -->

<svg
   width="603.81238"
   height="749.92987"
   viewBox="0 0 96.60998 119.98878"
   aria-hidden="true"
   role="img"
   class="iconify iconify--noto"
   preserveAspectRatio="xMidYMid"
   version="1.1"
   id="svg12"
   sodipodi:docname="rabbit-svgrepo-com.svg"
   xmlns:inkscape="http://www.inkscape.org/namespaces/inkscape"
   xmlns:sodipodi="http://sodipodi.sourceforge.net/DTD/sodipodi-0.dtd"
   xmlns="http://www.w3.org/2000/svg"
   xmlns:svg="http://www.w3.org/2000/svg">
  <defs
     id="defs12" />
  <sodipodi:namedview
     id="namedview12"
     pagecolor="#ffffff"
     bordercolor="#000000"
     borderopacity="0.25"
     inkscape:showpageshadow="2"
     inkscape:pageopacity="0.0"
     inkscape:pagecheckerboard="0"
     inkscape:deskcolor="#d1d1d1" />
  <path
     d="m 76.408302,77.486053 c 0,0 5.21,-5.21 10.7,-3.66 5.49,1.55 9.01,4.36 9.43,10.14 0.42,5.78 -0.96,10.1 -5.35,12.95 -5.63,3.659997 -12.39,1.27 -12.39,1.27 z"
     fill="#ecf0f2"
     id="path1" />
  <path
     d="m 42.758302,38.916053 c 0,0 4.08,-8.87 3.8,-20.84 -0.28,-11.9700001 -2.96,-18.30000009 -8.96,-18.07000009 -6.57,0.26 -8.61,10.85000009 -8.49,19.62000009 0.14,10.7 4.04,18.77 4.04,18.77 z"
     fill="#a8a8a8"
     id="path2" />
  <path
     d="m 29.248302,74.056053 -10.04,0.84 c 0,0 0.33,1.03 0.23,1.97 -0.09,0.94 -0.33,3.28 -0.33,3.28 l 12.67,9.95 24.12,-13.42 -6.48,-4.41 z"
     fill="#a8a8a8"
     id="path3" />
  <path
     d="m 2.0283022,61.266053 a 1,1 0 0 1 -0.14,-1.99 c 0.11,-0.02 2.71,-0.38 5.55,-0.48 3.1399998,-0.1 3.9799998,-0.13 6.6999998,0.39 0.54,0.1 0.9,0.63 0.79,1.17 -0.11,0.54 -0.63,0.89 -1.17,0.79 -2.49,-0.48 -3.21,-0.46 -6.2499998,-0.36 -2.73,0.09 -5.31,0.46 -5.34,0.46 -0.05,0.01 -0.09,0.02 -0.14,0.02 z"
     fill="#8e9395"
     id="path4" />
  <path
     d="m 0.99830215,68.206053 c -0.45,0 -0.86,-0.31 -0.97,-0.76 -0.13,-0.54 0.2,-1.08 0.74,-1.21 0.14,-0.04 3.52000005,-0.86 5.60000005,-1.23 2.07,-0.38 5.8099998,-0.83 5.9699998,-0.85 a 0.98,0.98 0 0 1 1.11,0.87 0.987,0.987 0 0 1 -0.87,1.11 c -0.04,0 -3.8399998,0.47 -5.8499998,0.84 -2.01,0.37 -5.45,1.2 -5.48,1.21 -0.1,0.01 -0.17,0.02 -0.25000005,0.02 z"
     fill="#8e9395"
     id="path5" />
  <path
     d="m 63.498302,83.066053 -35.38,22.249997 c 0,0 -7.32,8.26 -5.68,10 0.87,0.92 4.29,1.74 7.27,1.08 4.27,-0.94 7.98,-10 7.98,-10 0,0 -1.88,12.86 1.03,13.42 2.91,0.56 7.13,-0.14 9.01,-3.61 1.88,-3.47 2.53,-7.7 4.22,-9.48 1.69,-1.78 3.19,-3.1 3.19,-3.1 0,0 0.94,1.13 1.5,1.88 0.56,0.75 1.6,1.78 1.6,1.78 0,0 -4.39,2.72 -5.91,4.88 -1.55,2.21 -1.23,4.82 1.03,5.73 3.28,1.31 17.46,-4.41 17.46,-4.41 l -2.82,-31.439997 z"
     fill="#a8a8a8"
     id="path6" />
  <path
     d="m 58.058302,61.856053 c 0,0 0.47,-3.38 -0.19,-6.48 -0.66,-3.1 -2.53,-6.66 -2.53,-6.66 0,0 6.95,-2.63 11.92,-7.13 5.52,-5 13.7,-14.36 14.45,-22.06 0.75,-7.7 -3.85,-14.6400001 -15.96,-7.32 -12.11,7.32 -20.92,25.44 -20.92,25.44 0,0 -9.57,-4.04 -17.36,0.19 -7.79,4.23 -11.92,15.11 -12.3,15.86 -0.38,0.75 -5.1999998,2.94 -5.8199998,9.57 -0.61,6.57 3.0599998,10.28 8.5399998,11.73 3.82,1.01 7.32,0.19 7.32,0.19 0,0 2.91,3.28 10.42,3.19 7.51,-0.09 13.7,-4.04 13.7,-4.04 0,0 -1.41,5.35 -8.17,8.26 -5.07,2.18 -11.26,1.88 -15.77,-0.09 -4.51,-1.97 -6.1,-4.22 -6.1,-4.22 0,0 -1.6,7.32 0,11.73 1.6,4.41 4.69,10.509997 4.5,15.109997 -0.19,4.6 -3.14,7.98 -1.69,9.85 0.81,1.05 4.15,1.93 6.76,-0.84 4.41,-4.69 4.24,-10 5.82,-10.23 3.28,-0.47 1.69,9.1 1.6,11.07 -0.09,1.97 -0.37,4.46 1.78,4.79 4.6,0.7 5.35,-1.03 7.32,-5.63 1.97,-4.6 1.74,-6.99 3.75,-9.76 1.64,-2.25 4.41,-3.75 4.41,-3.75 0,0 -0.52,-6.239997 1.55,-9.529997 2.06,-3.28 6.15,-5.87 9.15,-4.74 3,1.13 -3.61,1.92 -5.77,6.62 -1.58,3.44 -1.27,6.99 0.99,9.429997 2.25,2.44 4.97,4.5 4.97,4.5 0,0 -10.76,3.88 -11.73,7.84 -0.7,2.86 0.47,4.18 7.04,3.52 6.57,-0.66 14.92,-2.91 18.21,-7.04 3.28,-4.13 7.48,-17.669997 3.99,-27.549997 -2.82,-7.98 -4.83,-11.5 -12.06,-16.66 -7.22,-5.16 -11.82,-5.16 -11.82,-5.16 z"
     fill="#dfdfdf"
     id="path7" />
  <path
     d="m 52.428302,40.276053 c -1.76,-1.82 1.31,-8.26 8.26,-15.67 6.95,-7.41 11.73,-9.76 14.08,-8.07 2.35,1.69 -1.03,8.92 -7.7,15.96 -5.52,5.82 -11.73,10.78 -14.64,7.78 z"
     fill="#ffb0b1"
     id="path8" />
  <path
     d="m 30.228302,39.896053 c 2.6,0.56 0.35,4.36 -1.83,8.02 -2.18,3.66 -3.8,5.56 -3.31,7.32 0.49,1.76 4.29,5.14 4.08,9.15 -0.21,4.01 -3.59,8.59 -9.92,8.09 -6.33,-0.5 -8.87,-5.35 -7.81,-10.63 0.84,-4.18 5.14,-6.12 6.26,-8.17 1.13,-2.04 2.99,-5.47 4.93,-8.31 2.75,-3.99 4.99,-6.03 7.6,-5.47 z"
     fill="#ffffff"
     id="path9" />
  <ellipse
     transform="rotate(-84.393)"
     cx="-51.02504"
     cy="44.544094"
     rx="4.75"
     ry="3.48"
     fill="#2f3030"
     id="ellipse9" />
  <path
     d="m 17.188302,59.556053 c 0,0 3.14,-2.58 4.36,-1.31 1.22,1.27 -3.71,4.32 -3.71,4.32 0,0 -0.47,2.3 0.94,2.53 1.41,0.23 1.6,-2.77 3.14,-1.97 1.55,0.8 0.14,4.79 -2.58,4.83 -1.62,0.03 -2.58,-1.17 -2.58,-1.17 0,0 -0.43,0.89 -1.88,0.75 -2.39,-0.23 -3.52,-5.08 -1.74,-5.02 1.41,0.05 0.56,2.3 1.88,2.3 1.5,0 0.89,-2.67 0.89,-2.67 0,0 -3.28,-3.43 -1.83,-4.65 1.47,-1.22 3.11,2.06 3.11,2.06 z"
     fill="#2f3030"
     id="path10" />
  <path
     d="m 39.098302,65.576053 c -0.12,0 -0.23,-0.02 -0.35,-0.06 -0.04,-0.01 -3.62,-1.34 -5.92,-1.84 l -5.44,-1.17 c -0.54,-0.12 -0.88,-0.65 -0.77,-1.19 0.11,-0.54 0.65,-0.88 1.19,-0.77 l 5.44,1.17 c 2.44,0.53 6.04,1.86 6.19,1.92 0.52,0.19 0.78,0.77 0.59,1.29 a 0.98,0.98 0 0 1 -0.93,0.65 z"
     fill="#8e9395"
     id="path11" />
  <path
     d="m 37.968302,72.246053 c -0.18,0 -0.36,-0.05 -0.53,-0.15 -0.03,-0.02 -3.11,-1.93 -5.96,-3.49 a 55.984,55.984 0 0 0 -5.48,-2.62 0.99812324,0.99812324 0 1 1 0.75,-1.85 c 0.11,0.04 2.76,1.12 5.69,2.73 2.9,1.59 6.02,3.53 6.05,3.55 0.47,0.29 0.61,0.91 0.32,1.38 -0.17,0.28 -0.5,0.45 -0.84,0.45 z"
     fill="#8e9395"
     id="path12" />
</svg>
