<?xml version="1.0" encoding="UTF-8" standalone="no"?>
<!-- Uploaded to: SVG Repo, www.svgrepo.com, Generator: SVG Repo Mixer Tools -->

<svg
   width="753.40649"
   height="712.30707"
   viewBox="0 0 120.54504 113.96913"
   aria-hidden="true"
   role="img"
   class="iconify iconify--noto"
   preserveAspectRatio="xMidYMid"
   version="1.1"
   id="svg10"
   sodipodi:docname="snail-svgrepo-com.svg"
   xmlns:inkscape="http://www.inkscape.org/namespaces/inkscape"
   xmlns:sodipodi="http://sodipodi.sourceforge.net/DTD/sodipodi-0.dtd"
   xmlns="http://www.w3.org/2000/svg"
   xmlns:svg="http://www.w3.org/2000/svg">
  <defs
     id="defs10" />
  <sodipodi:namedview
     id="namedview10"
     pagecolor="#ffffff"
     bordercolor="#000000"
     borderopacity="0.25"
     inkscape:showpageshadow="2"
     inkscape:pageopacity="0.0"
     inkscape:pagecheckerboard="0"
     inkscape:deskcolor="#d1d1d1" />
  <path
     d="m 24.346241,47.070083 c 0,0 1.67,-18.16 23.03,-28.02 24.95,-11.5199995 50.69,4.77 57.489999,24.57 5.81,16.91 -0.67,34.36 -7.199999,40.12 -6.53,5.76 -15.16,20.539997 -42.23,19.389997 -27.06,-1.16 -36.47,-41.469997 -31.09,-56.059997 z"
     fill="#a05d43"
     id="path1" />
  <path
     d="m 45.846241,96.210083 c 3.95,4.099997 15.93,7.099997 26.68,3.65 10.75,-3.45 11.32,-6.72 11.32,-6.72 0,0 -16.12,5.18 -25.91,0.77 -9.79,-4.41 -15.36,-23.03 -15.36,-23.03 0,0 -6.91,14.77 3.27,25.33 z"
     fill="#d27856"
     id="path2" />
  <path
     d="m 18.586241,44.340083 c -2.17,1.63 -4.03,4.89 -5.18,7.05 -1.15,2.16 -1.44,4.46 -5.1800003,6.77 -3.74,2.3 -6.91,1.3 -7.92000001,2.3 -1.01,1 0.43,4.75 5.04000001,5.33 4.61,0.58 6.6200003,-0.72 6.6200003,-0.72 0,0 0.43,10.65 0.43,16.41 0,5.76 3.17,28.199997 21.31,31.529997 14.64,2.69 22.89,-0.91 26.92,-3.07 6.92,-3.71 8.78,-6.14 13.68,-7.73 4.89,-1.58 7.98,0.02 13.2,-2.06 5.76,-2.299997 6.91,-8.059997 10.36,-10.649997 3.449999,-2.59 6.289999,-1.87 9.599999,-4.61 3.31,-2.74 2.59,-5.57 8.01,-10.32 2.07,-1.81 4.46,-3.31 5.04,-4.89 0.58,-1.58 -7.77,-2.02 -9.79,-2.02 -2.02,0 -4.82,0.07 -4.82,0.07 0,0 -1.08,4.39 -2.38,7.13 -1.3,2.74 -10.509999,15.12 -13.389999,16.41 -2.88,1.3 -4.8,1.3 -6.29,1.87 -1.49,0.58 -9.41,4.61 -12.72,5.04 -3.31,0.43 -13.93,2.899997 -20.01,-3.41 -5.09,-5.28 -6.33,-12.28 -6.62,-16.17 -0.29,-3.89 -0.29,-14.11 -0.29,-14.11 0,0 1.73,2.06 7.39,2.06 3.46,0 6.14,-3.62 5.47,-4.89 -0.86,-1.63 -4.77,-1.13 -6.62,-2.21 -2.3,-1.34 -4.61,-4.89 -5.18,-6.53 -0.54,-1.52 -1.87,-5.33 -4.22,-7.49 -2.42,-2.22 -5.85,-4.03 -11.52,-3.93 -5.18,0.09 -8.06,0.68 -10.94,2.84 z"
     fill="#e9bb91"
     id="path3" />
  <path
     d="m 40.326241,47.940083 c 0,0 2.3,-22.6 2.59,-26.2 0.29,-3.6 1.73,-12.0899995 1.73,-14.5399995 0,-2.45 -0.72,-6.62000003 -5.04,-7.05000003 -4.32,-0.43 -5.76,4.89000003 -5.9,8.49000003 -0.14,3.5999995 -1.73,34.5499995 -1.73,34.5499995 l -6.19,-0.14 c 0,0 0.14,-19.43 0.29,-23.46 0.14,-4.03 0.14,-10.9399995 0.14,-12.3799995 0,-1.44 0,-7.49000003 -5.47,-7.20000003 -5.47,0.29 -4.89,6.62000003 -5.04,8.64000003 -0.15,2.0199995 0.86,16.5499995 1.01,19.4299995 0.14,2.88 1.44,18.86 1.44,18.86 z"
     fill="#e9bb91"
     id="path4" />
  <path
     d="m 29.146241,54.080083 c 0,0 -1.82,3.93 -4.41,3.93 -2.59,0 -2.59,-2.21 -3.93,-1.34 -1.34,0.86 -0.58,4.8 2.88,5.47 3.45,0.67 5.47,-1.25 5.47,-1.25 0,0 2.07,1.44 4.03,1.44 2.5,0 5.28,-3.65 4.22,-5.28 -1.06,-1.63 -2.88,1.25 -4.61,1.15 -1.73,-0.09 -3.65,-4.12 -3.65,-4.12 z"
     fill="#d27856"
     id="path5" />
  <path
     d="m 55.116241,19.800083 c -4.65,1.4 -6.52,3.35 -7.92,4.67 -1.4,1.32 -1.92,4.34 -0.27,6.09 1.65,1.75 4.57,1.18 6.12,0.08 1.55,-1.1 3.01,-2.21 5.37,-2.87 2.35,-0.66 5.89,-0.83 6.97,-1.43 1.08,-0.59 1.86,-2.31 1.49,-4.12 -0.37,-1.82 -1.36,-2.86 -4,-3.32 -1.96,-0.34 -4.68,-0.03 -7.76,0.9 z"
     fill="#d27856"
     id="path6" />
  <path
     d="m 70.126241,22.410083 c 0,1.34 0.38,2.4 2.88,2.69 2.79,0.32 3.84,-1.06 3.74,-2.5 -0.1,-1.46 -0.77,-2.3 -2.78,-2.69 -2.02,-0.38 -3.84,0.48 -3.84,2.5 z"
     fill="#d27856"
     id="path7" />
  <path
     d="m 42.576241,10.120083 c -0.49,4.1 -1.75,7.14 -3.84,6.91 -3.02,-0.34 -2.98,-3.74 -2.98,-7.8699995 0,-3.87 1.14,-6.9 4.13,-6.57 2.86,0.31 3.15,3.69 2.69,7.5299995 z"
     fill="#2e2c2f"
     id="path8" />
  <path
     d="m 24.456241,9.7400835 c -0.12,4.1299995 -1.36,6.8499995 -3.29,7.0099995 -2.29,0.19 -3.61,-3.55 -3.73,-7.5799995 -0.11,-3.87 0.71,-6.39 3.53,-6.57 3.31,-0.23 3.6,3.27 3.49,7.14 z"
     fill="#2e2c2f"
     id="path9" />
  <path
     d="m 84.906241,86.320083 c -5.94,-0.33 -14.78,-5.95 -15.07,-22.55 -0.29,-16.6 6.15,-23.86 13.24,-22.65 6.72,1.15 7.87,10.17 7.1,16.41 -0.77,6.24 -2.59,13.34 -6.72,11.32 -4.13,-2.02 -1.92,-9.69 -1.06,-11.52 0.86,-1.82 2.11,-3.93 0.86,-5.18 -1.25,-1.25 -4.03,0.29 -5.18,2.59 -1.15,2.3 -3.55,7.77 -1.25,15.07 2.3,7.29 11.8,8.16 15.55,0.77 3.74,-7.39 4.61,-21.21 1.34,-27.64 -3.26,-6.43 -13.92,-13.63 -24.18,-1.82 -9.92,11.41 -6.24,31.57 -3.84,37.52 2.4,5.95 7.49,13.15 17.56,14.4 10.07,1.25 18.619999,-10.65 19.289999,-11.71 0.67,-1.06 3.26,-4.51 0.96,-6.48 -2.3,-1.97 -4.889999,2.54 -5.569999,3.5 -0.65,0.97 -6.12,8.36 -13.03,7.97 z"
     fill="#4f352e"
     id="path10" />
</svg>
