<?xml version="1.0" encoding="UTF-8" standalone="no"?>
<!-- Uploaded to: SVG Repo, www.svgrepo.com, Generator: SVG Repo Mixer Tools -->

<svg
   width="790.00342"
   height="691.44391"
   viewBox="0 0 126.40055 110.63103"
   aria-hidden="true"
   role="img"
   class="iconify iconify--noto"
   preserveAspectRatio="xMidYMid"
   version="1.1"
   id="svg11"
   sodipodi:docname="spider-svgrepo-com.svg"
   xmlns:inkscape="http://www.inkscape.org/namespaces/inkscape"
   xmlns:sodipodi="http://sodipodi.sourceforge.net/DTD/sodipodi-0.dtd"
   xmlns="http://www.w3.org/2000/svg"
   xmlns:svg="http://www.w3.org/2000/svg">
  <defs
     id="defs11" />
  <sodipodi:namedview
     id="namedview11"
     pagecolor="#ffffff"
     bordercolor="#000000"
     borderopacity="0.25"
     inkscape:showpageshadow="2"
     inkscape:pageopacity="0.0"
     inkscape:pagecheckerboard="0"
     inkscape:deskcolor="#d1d1d1" />
  <path
     d="m 54.425316,50.703862 20.4,0.22 c 0,0 1.94,2.01 3.72,0.07 1.79,-1.94 11.91,-12.06 13.25,-13.4 1.34,-1.34 3.28,-3.5 5.06,-3.5 1.78,0 9.230004,5.88 12.660004,8.56 2.44,1.91 8.64,7.3 10.27,7.74 1.64,0.45 5.66,1.19 5.66,2.98 0,1.79 -5.66,1.19 -7.3,1.04 -1.64,-0.15 -11.17,-6.55 -12.66,-7.45 -1.49,-0.89 -6.110004,-4.39 -7.000004,-4.39 -0.89,0 -13.7,12.58 -13.7,12.58 0,0 8.04,-2.83 10.27,-3.72 2.23,-0.89 4.62,-1.94 5.810004,-1.79 1.19,0.15 9.53,9.38 10.87,10.57 1.34,1.19 5.66,5.36 6.85,6.11 1.19,0.74 8.64,3.87 7.74,5.81 -0.9,1.94 -10.05,-0.98 -11.57,-1.74 -1.79,-0.89 -6.55,-4.17 -9.43,-7.35 -0.78,-0.86 -4.77,-5.06 -6.110004,-5.36 -1.34,-0.3 -15.64,5.29 -15.64,5.29 0,0 10.13,-0.67 11.76,0.22 1.64,0.89 6.400004,11.35 7.300004,13.48 1.19,2.83 4.91,11.84 6.11,13.33 1.19,1.49 5.66,5.36 4.32,7.15 -1.34,1.79 -7.07,-2.61 -8.12,-4.1 -1.04,-1.49 -4.64,-5.73 -9.560004,-15.11 -1.59,-3.04 -3.62,-7.15 -4.52,-7.74 -0.89,-0.6 -9.68,0.89 -9.68,0.89 0,0 -0.89,7 -0.6,9.23 0.3,2.23 4.32,20.549998 5.06,24.269998 0.74,3.72 0.74,5.51 -0.6,5.96 -1.34,0.45 -2.98,-1.04 -4.77,-5.21 -0.89,-2.08 -6.2,-17.129998 -6.92,-19.129998 -1.34,-3.72 -0.97,-10.05 -0.97,-10.05 l -29.56,-4.91 c 0,0 -3.8,0.15 -4.39,1.19 -0.6,1.04 -3.35,13.55 -4.1,16.08 -0.74,2.53 -6.18,12.509998 -6.78,13.249998 -0.6,0.74 -2.04,2.94 -3.72,1.04 -1.19,-1.34 1.19,-4.769998 1.94,-7.589998 0,0 1.94,-4.47 2.23,-7.3 0.3,-2.83 2.32,-19.44 3.13,-20.55 1.19,-1.64 5.36,-3.28 5.36,-3.28 0,0 -3.05,-1.19 -4.91,-1.86 -1.33,-0.48 -3.87,-1.34 -4.17,-1.27 -0.78,0.19 -5.51,7.89 -7.45,10.57 -1.94,2.68 -8.79,10.27 -9.68,10.87 -0.8900004,0.6 -3.1300004,1.64 -4.0200004,-0.15 -0.89,-1.79 1.49,-3.13 2.83,-4.91 1.3400004,-1.79 6.5500004,-9.68 8.1900004,-12.51 1.64,-2.83 6.25,-12.06 7.74,-12.66 1.49,-0.6 11.02,3.87 11.02,3.87 0,0 -5.36,-4.42 -7.59,-6.2 -2.23,-1.79 -4,-4.49 -5.16,-4.07 -1.16,0.42 -6.6,5.73 -8.98,7.67 -2.38,1.94 -8.1700004,5.73 -9.9800004,6.48 -2.16,0.89 -4.01999996,0.3 -4.31999996,-0.89 -0.3,-1.19 3.86999996,-4.02 6.99999996,-6.7 3.1300004,-2.68 7.1000004,-7.53 9.2300004,-9.6 2.68,-2.61 5.21,-5.3 6.55,-6.28 2.58,-1.89 17.57,12.91 17.57,12.91 0,0 -7.89,-11.02 -9.53,-13.25 -1.64,-2.23 -2.98,-4.91 -3.42,-5.96 -0.45,-1.04 -0.89,-3.13 0.74,-4.32 1.64,-1.19 3.87,-1.19 6.25,2.08 1.93,2.65 16.68,22.63 16.68,22.63 z"
     fill="#868686"
     id="path1" />
  <path
     d="m 76.265316,52.443862 c 0,0 14.99,-12.41 14.79,-28.49 -0.2,-16.0799998 -12.15,-23.39999985 -21.24,-23.91999985 -10.32,-0.6 -25.61,6.75000005 -26.31,23.91999985 -0.69,17.17 6.75,26.31 6.75,26.31 0,0 -8.14,1.69 -9.83,11.71 -1,5.95 1.76,17.96 15.69,20.15 17.67,2.78 24.79,-10.4 24.22,-19.56 -0.4,-6.35 -4.07,-10.12 -4.07,-10.12 z"
     fill="#616569"
     id="path2" />
  <path
     d="m 61.045316,44.743862 c 3.71,0.09 6.64,0.63 8.93,1.71 5.48,2.58 7.24,7.01 6.68,6.78 -1.24,-0.52 -6.01,-5.34 -16.73,-5.44 -5.77,-0.05 -9.53,2.68 -10.27,2.61 -0.63,-0.06 4.84,-5.81 11.39,-5.66 z"
     fill="#4e4d50"
     id="path3" />
  <path
     d="m 65.345316,36.343862 c -0.06,0 -0.11,0 -0.17,-0.01 -0.75,-0.09 -1.29,-0.78 -1.19,-1.53 l 0.5,-3.97 c 0.09,-0.75 0.78,-1.28 1.53,-1.19 0.75,0.09 1.29,0.78 1.19,1.53 l -0.5,3.97 c -0.09,0.69 -0.68,1.2 -1.36,1.2 z"
     fill="#888a8a"
     id="path4" />
  <path
     d="m 75.695316,39.243862 a 1.48,1.48 0 0 1 -0.5,-0.13 1.38,1.38 0 0 1 -0.64,-1.84 l 2.01,-4.13 c 0.33,-0.68 1.16,-0.97 1.84,-0.64 0.68,0.33 0.97,1.15 0.64,1.84 l -2.01,4.13 c -0.25,0.53 -0.79,0.82 -1.34,0.77 z"
     fill="#888a8a"
     id="path5" />
  <path
     d="m 54.615316,36.543862 c -0.66,0 -1.24,-0.47 -1.35,-1.14 l -0.69,-4.07 a 1.38,1.38 0 0 1 1.12,-1.59 c 0.75,-0.13 1.46,0.37 1.59,1.12 l 0.69,4.07 a 1.38,1.38 0 0 1 -1.36,1.61 z"
     fill="#888a8a"
     id="path6" />
  <path
     d="m 60.475316,22.243862 c -0.74,0 -1.35,-0.59 -1.37,-1.34 l -0.1,-3.87 c -0.02,-0.76 0.58,-1.39 1.34,-1.41 0.78,0.01 1.39,0.58 1.41,1.34 l 0.1,3.87 c 0.02,0.76 -0.58,1.39 -1.34,1.41 z"
     fill="#888a8a"
     id="path7" />
  <path
     d="m 73.685316,23.833862 a 1.37,1.37 0 0 1 -1.33,-1.71 l 1.09,-4.27 c 0.19,-0.74 0.93,-1.18 1.67,-0.99 0.74,0.19 1.18,0.94 0.99,1.67 l -1.09,4.27 c -0.16,0.62 -0.72,1.03 -1.33,1.03 z"
     fill="#888a8a"
     id="path8" />
  <ellipse
     transform="rotate(-83.898)"
     cx="-56.908787"
     cy="59.100193"
     rx="4.4699998"
     ry="3.73"
     fill="#050402"
     id="ellipse8" />
  <ellipse
     cx="65.525314"
     cy="64.453857"
     rx="3.73"
     ry="4.4699998"
     fill="#050402"
     id="ellipse9" />
  <ellipse
     transform="rotate(-5.831)"
     cx="66.14624"
     cy="69.61277"
     rx="2.5"
     ry="3.3900001"
     fill="#050402"
     id="ellipse10" />
  <ellipse
     transform="rotate(-78.492)"
     cx="-48.770763"
     cy="56.86655"
     rx="3.3900001"
     ry="2.5"
     fill="#050402"
     id="ellipse11" />
</svg>
