<?xml version="1.0" encoding="UTF-8" standalone="no"?>
<!-- Uploaded to: SVG Repo, www.svgrepo.com, Generator: SVG Repo Mixer Tools -->

<svg
   width="742.66479"
   height="628.36884"
   viewBox="0 0 118.82637 100.53901"
   aria-hidden="true"
   role="img"
   class="iconify iconify--noto"
   preserveAspectRatio="xMidYMid"
   version="1.1"
   id="svg10"
   sodipodi:docname="tropical-fish.svg"
   xmlns:inkscape="http://www.inkscape.org/namespaces/inkscape"
   xmlns:sodipodi="http://sodipodi.sourceforge.net/DTD/sodipodi-0.dtd"
   xmlns="http://www.w3.org/2000/svg"
   xmlns:svg="http://www.w3.org/2000/svg">
  <defs
     id="defs10" />
  <sodipodi:namedview
     id="namedview10"
     pagecolor="#ffffff"
     bordercolor="#000000"
     borderopacity="0.25"
     inkscape:showpageshadow="2"
     inkscape:pageopacity="0.0"
     inkscape:pagecheckerboard="0"
     inkscape:deskcolor="#d1d1d1" />
  <path
     d="m 92.74,40.480095 1.31,-12.67 -3.85,-17.46 c 0,0 2.82,-3.0999996 4.41,-3.8499996 1.59,-0.75 3.38,-1.17 3.38,-1.17 0,0 4.13,-0.7 6.85,-0.8 2.72,-0.09 5.82,0.38 5.73,-0.94 -0.09,-1.31 -12.29,-3.37999996 -18.96,-3.56999996 -6.66,-0.19 -28.91,0.84 -44.96,8.62999996 C 30.6,16.440095 26.38,23.400095 26.38,23.400095 l -5.35,10.61 -5.35,2.16 c 0,0 -4.88,8.17 -6.4800001,12.86 -1.6,4.69 -3.28,8.35 -4.13,9.29 -0.84,0.94 -5.069999995367433,4.22 -5.069999995367433,4.88 0,0.66 4.319999995367433,3.1 4.319999995367433,3.75 0,0.66 -3.47,1.5 -3.47,2.25 0,0.75 6.1,7.6 15.3000001,14.55 9.2,6.95 20.55,12.01 28.91,14.08 8.35,2.06 19.52,3.000005 19.99,2.630005 0.47,-0.38 -8.73,-7.600005 -8.73,-7.600005 0,0 8.82,3.75 14.36,4.41 5.54,0.66 6.41,0.7 11.83,0.49 5.42,-0.21 14.17,-7.91 14.17,-7.91 l 4.69,-15.49 -2.11,-10.11 c 0,0 -2.84,-4.55 -2.96,-5.49 -0.12,-0.94 1.17,-0.22 2.32,0.07 1.41,0.35 4.69,2.63 6.76,4.79 1.27,1.33 5.18,5.5 6.8,7.25 0.77,0.84 2.15,0.52 2.49,-0.56 l 1.53,-8.8 -0.84,-27.78 -3.18,-10.93 c -0.36,-0.94 -1.63,-1.11 -2.22,-0.28 -2.25,3.17 -7.15,10.68 -8.59,12.53 -1.97,2.53 -5.34,6.36 -7.25,7.04 -1.13,0.4 -1.55,0.21 -1.55,0.21 z"
     fill="#ffb800"
     id="path1" />
  <path
     d="m 81.1,97.550095 c 0,0 14.44,-2.85 16.96,-16.75 1.97,-10.84 -2.11,-22.1 -2.11,-22.1 0,0 0.15,-1.54 1.83,0.56 3.1,3.87 8.87,16.68 1.48,29.7 -6.25,11.01 -17.74,9.01 -18.44,9.01 -0.7,0 0.28,-0.42 0.28,-0.42 z"
     fill="#b5d219"
     id="path2" />
  <path
     d="m 97.99,5.3300954 c 0,0 -8.8,-0.63 -9.15,7.4599996 -0.28,6.41 3.24,10.91 3.1,17.81 -0.14,6.9 -0.9,11.89 0.63,11.68 1.06,-0.14 3.38,-3.45 3.45,-10.56 0.07,-7.11 -4.71,-14.46 -4.58,-19.01 0.15,-4.6999996 6.55,-7.3799996 6.55,-7.3799996 z"
     fill="#b5d219"
     id="path3" />
  <path
     d="m 110.81,21.950095 c -1.47,0.58 0.07,5.07 0.56,6.48 0.49,1.41 1.94,9.08 2.04,20.34 0.07,8.09 -0.7,15.98 -1.06,17.74 -0.36,1.76 -1.13,4.43 0.77,4.86 1.9,0.43 3.79,-3.52 4.86,-10.21 0.84,-5.28 0.77,-10.07 0.84,-15.06 0.15,-10.5 -2.39,-17.25 -3.31,-19.5 -0.9,-2.26 -2.73,-5.43 -4.7,-4.65 z"
     fill="#2c2f30"
     id="path4" />
  <path
     d="m 73.59,23.680095 c -1.69,0.19 1.12,6.42 1.88,10.98 1.22,7.32 1.22,12.01 1.06,18.04 -0.15,5.59 -1.53,15.27 -5.91,23.51 -0.96,1.81 -1.55,3.38 -0.21,3.52 2.67,0.28 7.7,-6.22 10.28,-13.23 2.9,-7.89 3.45,-14.92 2.39,-23.3 -0.85,-6.74 -2.42,-11.19 -3.47,-13.51 -0.96,-2.1 -3.11,-6.33 -6.02,-6.01 z"
     fill="#2c2f30"
     id="path5" />
  <path
     d="m 50.2,10.900095 c -2.6,0.73 1.06,6.12 2.65,10.25 2.49,6.45 7.65,18.11 7.79,30.43 0.14,12.32 -3.66,21.38 -4.79,24.19 -1.17,2.93 -2.98,7.13 -3.54,8.33 -0.56,1.2 -0.54,2.58 0.07,2.75 1.41,0.38 3.78,-1.24 6.19,-3.66 1.6,-1.6 4.6,-4.79 8.05,-14.71 1.89,-5.44 3.68,-14.95 2.37,-25.46 -1.56,-12.48 -7.1,-20.88 -9.08,-23.89 -2.93,-4.46 -6.68,-9.08 -9.71,-8.23 z"
     fill="#2c2f30"
     id="path6" />
  <path
     d="m 33.87,22.860095 c -2.11,0.58 3.87,6.78 6.69,13.96 2.82,7.18 3.68,13.16 4.04,19.43 0.35,6.26 -0.52,12.95 -1.13,17.08 -0.49,3.35 -2.28,9.43 -1.92,10.56 0.35,1.13 2.44,1.17 3.99,-1.36 1.55,-2.53 4.88,-8.07 6.92,-20.04 0.95,-5.56 0.49,-18.6 -5.56,-27.94 -5.22,-8.05 -10.57,-12.37 -13.03,-11.69 z"
     fill="#2c2f30"
     id="path7" />
  <path
     d="m 15.69,36.170095 c 0,0 3.94,-5.63 5.63,-7.7 1.69,-2.06 6.29,-6.76 6.29,-6.76 0,0 0.19,13.42 0.66,16.99 0.47,3.57 2.06,11.45 3.85,15.58 0.93,2.15 2.71,7.4 2.44,9.57 -0.47,3.85 -4.8,9.63 -6.66,9.85 -3.94,0.47 -7.79,-7.02 -9.57,-11.92 -2.55,-6.94 -4.52,-19.61 -2.64,-25.61 z"
     fill="#2c2f30"
     id="path8" />
  <path
     d="m 30,59.960095 c 0.1,2.69 -2.09,4.41 -4.41,4.41 -2.32,0 -4.08,-2.22 -4.08,-4.55 0,-2.33 1.97,-4.08 4.29,-4.08 2.32,0 4.1,1.68 4.2,4.22 z"
     fill="#ffb805"
     id="path9" />
  <path
     d="m 25.92,59.860095 c -0.61,0.7 -2.32,0.69 -2.93,-0.03 -0.61,-0.72 -0.53,-2.18 0.35,-2.92 0.88,-0.75 2.11,-0.89 2.84,0.22 0.51,0.79 0.49,1.86 -0.26,2.73 z"
     fill="#ffedc7"
     id="path10" />
</svg>
