<?xml version="1.0" encoding="UTF-8" standalone="no"?>
<!-- Uploaded to: SVG Repo, www.svgrepo.com, Generator: SVG Repo Mixer Tools -->

<svg
   width="800"
   height="800"
   viewBox="0 0 128 128"
   aria-hidden="true"
   role="img"
   class="iconify iconify--noto"
   preserveAspectRatio="xMidYMid"
   version="1.1"
   id="svg6"
   sodipodi:docname="turtle-svgrepo-com.svg"
   xmlns:inkscape="http://www.inkscape.org/namespaces/inkscape"
   xmlns:sodipodi="http://sodipodi.sourceforge.net/DTD/sodipodi-0.dtd"
   xmlns="http://www.w3.org/2000/svg"
   xmlns:svg="http://www.w3.org/2000/svg">
  <defs
     id="defs6" />
  <sodipodi:namedview
     id="namedview6"
     pagecolor="#ffffff"
     bordercolor="#000000"
     borderopacity="0.25"
     inkscape:showpageshadow="2"
     inkscape:pageopacity="0.0"
     inkscape:pagecheckerboard="0"
     inkscape:deskcolor="#d1d1d1" />
  <path
     d="m 112.7,59.21 c 0,0 3.94,-2.21 4.93,-2.77 0.99,-0.56 4.6,-2.82 5.91,-0.84 0.77,1.16 -0.7,4.44 -3.05,7.86 -2.14,3.13 -7.12,9.56 -7.4,10.83 -0.28,1.27 1.11,6.36 1.53,8.33 0.42,1.97 1.74,6.71 1.17,8.54 -0.57,1.83 -3.43,6.85 -10.75,6.76 -5.82,-0.07 -7.51,-1.78 -7.7,-2.82 -0.14,-0.75 -0.56,-3.24 -0.56,-3.24 0,0 -4.79,2.96 -7.04,4.08 -2.25,1.12 -8.31,4.22 -8.31,4.22 0,0 1.17,5.35 1.36,7.51 0.19,2.16 0.86,5.25 -0.28,7.32 -1.03,1.88 -4.25,5.02 -11.83,4.97 -5.92,-0.04 -7.41,-1.88 -8.35,-3 -0.94,-1.13 -1.13,-6.48 -1.13,-7.6 0,-1.12 -0.19,-5.07 -0.19,-5.07 0,0 -8.02,-0.4 -12.86,-0.75 -4.38,-0.32 -10.16,-0.99 -10.16,-0.99 0,0 0.21,2.33 0.42,4.01 0.19,1.5 0.23,4.64 -1.34,6.17 -2.11,2.06 -7.56,2.21 -10.56,1.92 -3,-0.28 -7.18,-1.83 -8.4,-4.55 -1.22,-2.72 0.38,-6.29 1.03,-8.35 0.58,-1.81 1.6,-4.41 1.22,-5.16 -0.38,-0.75 -4.04,-1.69 -9.29,-6.95 -5.26,-5.26 -12.13,-23.52 3.28,-36.23 15.49,-12.76 43.81,1.1 45.31,2.04 1.54,0.96 53.04,3.76 53.04,3.76 z"
     fill="#bdcf47"
     id="path1" />
  <path
     d="M 66.25,25.28 C 52.32,25.9 41.87,32.8 36.68,40.34 c -3.1,4.5 -4.65,7.74 -4.65,7.74 0,0 4.81,0.14 9.15,2.46 5,2.67 10.8,5.56 14.61,18.13 2.87,9.5 3.98,18.53 11.44,20.52 8.45,2.25 28.16,1.13 37.59,-8.02 9.43,-9.15 11.26,-16.05 8.87,-25.06 C 111.3,47.1 100.52,31.06 85.53,26.83 79.06,25 72.58,25 66.25,25.28 Z"
     fill="#6e823a"
     id="path2" />
  <path
     d="m 111.93,51.32 c -0.42,-0.99 -1.3,-2.5 -1.3,-2.5 0,0 -0.07,2.05 -0.25,3.13 -0.28,1.76 -1.25,5.42 -1.81,4.88 -1,-0.97 -5.73,-6.92 -7.98,-10.23 -1.71,-2.52 -7.6,-9.11 -7.74,-11.26 -0.07,-1.06 1.27,-4.65 1.27,-4.65 0,0 -1.22,-0.7 -2.35,-1.34 -0.88,-0.49 -2.16,-1.03 -2.16,-1.03 0,0 -0.77,4.9 -1.62,5.82 -0.75,0.81 -5.32,2.6 -8.87,3.94 -4.29,1.62 -8.45,3.73 -10,4.01 -1.36,0.25 -9.09,-1.41 -12,-1.97 -3.66,-0.7 -9.18,-2.26 -10.45,-3.17 -1.48,-1.06 -3.07,-3.78 -3.07,-3.78 0,0 -0.89,0.61 -1.78,1.31 -0.88,0.69 -2.02,2.06 -2.02,2.06 0,0 2.31,2.32 2.44,3.18 0.18,1.2 -1.27,2.83 -2.46,4.38 -0.72,0.93 -2.75,4.85 -2.75,4.85 0,0 0.97,0.09 2.15,0.63 1.23,0.57 2.38,1.16 2.38,1.16 0,0 2.97,-6.9 4.9,-7.53 1.65,-0.54 6.3,0.99 9.68,1.69 4.79,0.99 9.64,1.87 10.66,3.17 1.06,1.34 2.06,6.68 3.03,11.19 C 70.89,64.2 73.64,77.02 73,78 72.37,78.99 67.3,78.63 64.41,78.28 61.96,77.98 58,76.52 58,76.52 c 0,0 0.58,2.11 0.77,2.67 0.28,0.81 1.16,3.06 1.16,3.06 0,0 5.67,2.5 22.42,0.95 16.75,-1.55 25.03,-12.96 27.38,-18.02 3.14,-6.78 3.54,-10.39 3.54,-10.39 0,0 -0.92,-2.48 -1.34,-3.47 z M 96.65,73.21 C 92.41,75.88 81.45,78.7 79.47,77.64 77.89,76.79 75.53,63.7 74.4,57.86 73.68,54.12 71.95,48.44 72.99,46.67 c 0.7,-1.2 4.79,-2.99 7.81,-4.4 2.87,-1.33 6.97,-3.13 8.17,-2.99 1.7,0.2 5.35,6.12 9.01,11.19 3.66,5.07 7.67,10.35 7.74,12.18 0.09,1.84 -4.7,7.82 -9.07,10.56 z"
     fill="#484e23"
     id="path3" />
  <path
     d="m 41.18,65.86 c 0.5,2.83 -0.95,5.75 -4.07,6.02 -2.56,0.22 -4.59,-1.57 -5.09,-4.4 -0.5,-2.83 1.14,-5.49 3.68,-5.94 2.52,-0.45 4.98,1.48 5.48,4.32 z"
     fill="#2a2b28"
     id="path4" />
  <path
     d="m 22.82,66.11 c 0.07,2.84 -2.42,5.69 -5.5,5.11 -2.53,-0.48 -3.99,-2.73 -3.71,-5.55 0.29,-2.82 2.59,-4.9 5.15,-4.65 2.56,0.25 3.99,2.13 4.06,5.09 z"
     fill="#2a2b28"
     id="path5" />
  <path
     d="m 30.77,76.59 c 1.16,-0.79 3.1,-2.67 4.36,-1.06 1.27,1.62 -0.92,3.1 -2.18,4.01 -1.27,0.92 -4.08,3.17 -6.12,3.17 -1.9,0 -4.79,-2.32 -6.62,-3.87 -1.49,-1.26 -2.18,-2.89 -1.34,-3.87 0.84,-0.98 2.14,-0.62 3.24,0.35 1.27,1.13 3.72,3.38 4.72,3.38 0.98,0.01 2.39,-1.05 3.94,-2.11 z"
     fill="#2a2b28"
     id="path6" />
</svg>
