<?xml version="1.0" encoding="UTF-8" standalone="no"?>
<!-- Uploaded to: SVG Repo, www.svgrepo.com, Generator: SVG Repo Mixer Tools -->

<svg
   width="690.02344"
   height="746.29352"
   viewBox="0 0 293.25996 317.17475"
   id="icons"
   version="1.1"
   sodipodi:docname="animal-bear-fur-svgrepo-com.svg"
   xmlns:inkscape="http://www.inkscape.org/namespaces/inkscape"
   xmlns:sodipodi="http://sodipodi.sourceforge.net/DTD/sodipodi-0.dtd"
   xmlns="http://www.w3.org/2000/svg"
   xmlns:svg="http://www.w3.org/2000/svg">
  <defs
     id="defs15" />
  <sodipodi:namedview
     id="namedview15"
     pagecolor="#ffffff"
     bordercolor="#000000"
     borderopacity="0.25"
     inkscape:showpageshadow="2"
     inkscape:pageopacity="0.0"
     inkscape:pagecheckerboard="0"
     inkscape:deskcolor="#d1d1d1" />
  <title
     id="title1" />
  <path
     d="m 277.25526,169.27524 c 0,0 -1.107,52 2.05,119.932 a 34.97,34.97 0 0 0 3.041,12.966 25.752,25.752 0 0 1 1.063,2.725 c 2.017,6.167 -2.988,12.388 -9.746,12.275 l -30.933,-0.514 c -9.778,-0.163 -17.709,-7.638 -18.013,-16.978 l -2.191,-67.237 z"
     style="fill:#af543f"
     id="path1" />
  <path
     d="m 185.77026,39.32224 c 0,0 -52,4.824 -96.823999,56.9 a 2.45,2.45 0 0 0 0.117,3.315 13.291,13.291 0 0 0 5.9,3.631 c 0,0 -60.574,22.006 -86.7820002,96.08 0,0 -31.5279998,86.416 29.2000002,114.811 a 30.024,30.024 0 0 0 12.72,2.773 h 80.193999 a 29.333,29.333 0 0 0 13.088,-2.949 23.434,23.434 0 0 0 10.776,-10.5 c 0,0 4.959,13.446 17.666,13.446 h 24.011 a 13.639,13.639 0 0 0 9.8,-4.011 c 5.675,-5.831 2.837,-13.129 2.09,-20.27 a 121.124,121.124 0 0 1 -0.819,-18.028 v -5.249 a 22.99,22.99 0 0 1 6.55,-16.338 22.128,22.128 0 0 1 8.72,-5.338 c 0,0 35.818,-11.32 53.43,-62.01 a 127.316,127.316 0 0 0 6.867,-41.8 v -11.797 a 26.285,26.285 0 0 1 4.248,4.032 1.79,1.79 0 0 0 3.058,-0.613 c 2.517,-7.832 7.664,-29.392 -2.967,-51.149 z"
     style="fill:#e8947e"
     id="path2" />
  <path
     d="m 286.80926,84.26224 -101.039,-44.94 c 0,0 -0.706,-1.174 -12.074,2.356 -24.026,20.107 -22.237,46.274 -22.231,47.329 a 8,8 0 0 0 8,7.957 8.155,8.155 0 0 0 0.935,-0.054 l 2.787,-0.328 c 1.647,13.156 7.027,20.71 7.754,21.679 a 8,8 0 0 0 6.378,3.2 h 0.022 a 8,8 0 0 0 6.336,-3.116 c 14.677,21.376 34.452,25.367 35.411,25.548 a 8,8 0 0 0 7.224,-2.283 l 0.2,-0.2 0.142,0.166 a 8,8 0 0 0 8.162,2.537 c 0.944,-0.253 19.947,-5.574 32.615,-25.261 a 8,8 0 0 0 5.912,2.611 h 0.022 a 8,8 0 0 0 6.378,-3.2 c 0.727,-0.969 6.107,-8.523 7.754,-21.679 l 2.787,0.328 a 8.155,8.155 0 0 0 0.935,0.054 c 0.057,0 0.114,-0.006 0.171,-0.007 a 62.458,62.458 0 0 0 -4.581,-12.697 z"
     style="fill:#af543f"
     id="path3" />
  <path
     d="m 273.18826,43.46824 c 2.213,-13.274 0.7,-23.45 -1.882,-30.857 -4.857,-13.9230003 -23.146,-17.1530003 -32.13,-5.4560003 a 48.509,48.509 0 0 0 -6.933,13.0380003 c -2.22,-0.525 -11.587,-0.525 -13.807,0 a 48.509,48.509 0 0 0 -6.933,-13.0380003 c -8.984,-11.7 -27.273,-8.47 -32.13,5.4560003 -2.583,7.407 -4.1,17.583 -1.882,30.857 -18.16,20.534 -18.027,45.5 -18.027,45.5 l 11.256,-1.324 c -0.332,16.552 6.62,25.821 6.62,25.821 l 7.283,-9.6 c 12.91,27.806 35.953,32.172 35.953,32.172 l 6.321,-6.5 5.841,6.851 c 0,0 23.332,-6.263 33.318,-32.523 l 7.283,9.6 c 0,0 6.952,-9.269 6.621,-25.821 l 11.255,1.324 c 0,0 0.133,-24.966 -18.027,-45.5 z"
     style="fill:#e8947e"
     id="path4" />
  <path
     d="m 191.39326,32.79324 c 3.427,-2.216 9.607,-6.13 14.444,-8.74 a 3.282,3.282 0 0 0 1.545,-3.987 c -0.368,-1.038 -0.846,-2.3 -1.43,-3.648 -3.589,-8.3000003 -15.931,-6.8840003 -17.424,2.032 a 45.367,45.367 0 0 0 -0.178,12.889 1.983,1.983 0 0 0 3.043,1.454 z"
     style="fill:#af543f"
     id="path5" />
  <path
     d="m 260.50026,31.91824 c -3.427,-2.215 -9.607,-6.13 -14.444,-8.74 a 3.281,3.281 0 0 1 -1.545,-3.986 c 0.368,-1.039 0.846,-2.3 1.43,-3.648 3.589,-8.3000003 15.931,-6.8850003 17.424,2.031 a 45.367,45.367 0 0 1 0.178,12.889 1.983,1.983 0 0 1 -3.043,1.454 z"
     style="fill:#af543f"
     id="path6" />
  <path
     d="m 241.42626,187.23824 -2.981,-5.728 c -3.86,3.94 -10.563,7.527 -15.053,9.667 a 8.43,8.43 0 0 1 -8.439,-0.7 203.145,203.145 0 0 0 -22.9,-13.773 116.839,116.839 0 0 0 -25.836,-9.313 143.4,143.4 0 0 1 21.329,17.724 c 21.668,20.136 38.779,26.3 46.473,28.162 a 9.747,9.747 0 0 0 7.79,-1.448 c 18.4,-12.6 30.009,-26.5 37.084,-37.463 a 130.066,130.066 0 0 0 3.576,-30.582 v -11.796 c -11.713,38.5 -29.866,52.4 -36.811,56.48 a 3.042,3.042 0 0 1 -4.232,-1.23 z"
     style="fill:#af543f"
     id="path7" />
  <path
     d="m 210.53826,70.24624 a 3.983,3.983 0 0 1 -2.4,-0.8 23.906,23.906 0 0 0 -7,-3.363 4.0005025,4.0005025 0 0 1 2.061,-7.731 31.982,31.982 0 0 1 9.738,4.695 4,4 0 0 1 -2.4,7.2 z"
     style="fill:#373d4c"
     id="path8" />
  <path
     d="m 240.14126,70.24624 a 4,4 0 0 1 -2.4,-7.2 31.994,31.994 0 0 1 9.738,-4.694 4.0000858,4.0000858 0 0 1 2.069,7.728 23.9,23.9 0 0 0 -7.006,3.367 3.991,3.991 0 0 1 -2.401,0.799 z"
     style="fill:#373d4c"
     id="path9" />
  <path
     d="m 136.51726,212.34524 a 12.225,12.225 0 0 0 -4,-5.661 l -0.061,-0.048 a 2.685,2.685 0 0 0 -4.195,3.018 130.137,130.137 0 0 1 7.336,32.526 c 0,0 2.3,38.438 11.954,69.114 a 22.486,22.486 0 0 0 6.605,-7.908 c -9.349,-20.4 -11.416,-62.107 -11.416,-62.107 a 140.754,140.754 0 0 0 -6.223,-28.934 z"
     style="fill:#af543f"
     id="path10" />
  <path
     d="m 210.46426,227.62824 a 1.811,1.811 0 0 0 -3.561,0.544 c 1.564,10.218 0.585,31 0.164,38.4 a 22.642,22.642 0 0 1 6.386,-13.639 22,22 0 0 1 3.026,-2.508 z"
     style="fill:#af543f"
     id="path11" />
  <path
     d="m 116.99126,256.13324 h -0.058 a 4,4 0 0 1 -3.425,-2.031 c -3.337,-5.905 -11.131,-11.873 -11.21,-11.932 l -0.14,-0.113 a 34.679,34.679 0 0 0 -26.531999,-7.902 4.01,4.01 0 0 1 -4.631,-4.74 24.356,24.356 0 0 0 0.371,-5.225 61.874,61.874 0 0 0 -14.235,9 4,4 0 0 1 -5.347,-5.95 67.438,67.438 0 0 1 21.893,-12.519 4,4 0 0 1 5.19,3.193 50.582,50.582 0 0 1 0.491,7.971 h 0.2 a 43.2,43.2 0 0 1 27.656999,9.967 66.938,66.938 0 0 1 10,9.631 c 3.847,-3.977 10.657,-8.929 20.071,-7.844 a 4,4 0 1 1 -0.919,7.947 c -9.934,-1.151 -15.892,8.514 -15.951,8.612 a 4,4 0 0 1 -3.425,1.935 z"
     style="fill:#af543f"
     id="path12" />
  <path
     d="m 195.91026,192.40624 -14.629,-20.431 c -27.069,-10.39 -32.195,-17.109 -42.433,-40.205 -0.857,-1.934 -1.858,-3.767 -3.974,-3.778 a 4.012,4.012 0 0 0 -4.011,3.738 20.736,20.736 0 0 1 -2.192,8.077 c 0,0 -9.436,-9.795 -7.149,-37.19 a 1.763,1.763 0 0 0 -3.386,-0.818 l -0.019,0.048 c -0.415,1.051 -9.957,25.977 7.435,47.382 a 4,4 0 0 0 5.846,0.39 22.135,22.135 0 0 0 3.313,-4.281 54.869,54.869 0 0 0 7.156,11.178 69.47,69.47 0 0 0 23.91,18.6 205.3,205.3 0 0 1 30.133,17.29 z"
     style="fill:#af543f"
     id="path13" />
  <path
     d="m 225.34026,76.12224 a 24.177,24.177 0 0 0 -8.135,1.394 c -4.5,1.605 -6.32,6.523 -3.887,10.308 a 27.407,27.407 0 0 0 10.671,9.39 3.029,3.029 0 0 0 2.7,0 27.413,27.413 0 0 0 10.67,-9.39 c 2.433,-3.785 0.618,-8.7 -3.887,-10.308 a 24.175,24.175 0 0 0 -8.132,-1.394 z"
     style="fill:#373d4c"
     id="path14" />
  <path
     d="m 151.43326,305.50324 -12.319,-32.164 c 0,0 1.671,16.971 -14.213,25.143 a 31.109,31.109 0 0 1 -14.25,3.287 H 48.789261 a 49.322,49.322 0 0 1 -30.317,-10.289 77.988,77.988 0 0 1 -14.0830002,-14.452 c 4.987,14.949 14.8890002,28.568 32.9910002,37.031 a 30.017,30.017 0 0 0 12.719,2.773 h 80.193999 a 29.333,29.333 0 0 0 13.088,-2.949 24.144,24.144 0 0 0 8.81,-7.3 z"
     style="fill:#af543f"
     id="path15" />
</svg>
