<?xml version="1.0" encoding="UTF-8" standalone="no"?>
<!-- Uploaded to: SVG Repo, www.svgrepo.com, Generator: SVG Repo Mixer Tools -->

<svg
   width="638.80402"
   height="746.18469"
   viewBox="0 0 102.20864 119.38955"
   aria-hidden="true"
   role="img"
   class="iconify iconify--noto"
   preserveAspectRatio="xMidYMid"
   version="1.1"
   id="svg37"
   sodipodi:docname="crocodile-svgrepo-com.svg"
   xmlns:inkscape="http://www.inkscape.org/namespaces/inkscape"
   xmlns:sodipodi="http://sodipodi.sourceforge.net/DTD/sodipodi-0.dtd"
   xmlns="http://www.w3.org/2000/svg"
   xmlns:svg="http://www.w3.org/2000/svg">
  <defs
     id="defs37" />
  <sodipodi:namedview
     id="namedview37"
     pagecolor="#ffffff"
     bordercolor="#000000"
     borderopacity="0.25"
     inkscape:showpageshadow="2"
     inkscape:pageopacity="0.0"
     inkscape:pagecheckerboard="0"
     inkscape:deskcolor="#d1d1d1" />
  <path
     d="m 46.513759,9.542822 -18.96,10.7 -11.07,10.7 -9.0300003,1.75 c 0,0 3.5200003,3.94 13.7600003,0.6 10.14,-3.31 15.86,-16.91 26.92,-15.7 10.63,1.16 8.62,11.51 8.62,11.51 l 14.54,-16.55 z"
     fill="#5a6415"
     id="path1" />
  <path
     d="m 43.283759,38.182822 c 0,0 -3.37,0.99 -5.3,6.23 -1.5,4.07 -0.52,8.02 -0.09,9.57 0.42,1.55 1.49,3.66 1.56,4.5 0.07,0.84 -2.41,2.49 -2.29,4.05 0.07,0.92 1.77,2.28 3.87,2.53 4.08,0.49 5,-0.56 5,-0.56 l 5.49,-18.9 z"
     fill="#5a6415"
     id="path2" />
  <path
     d="m 45.283759,71.092822 c 0,0 -7.07,-4.08 -14.32,-3.66 -7.25,0.42 -9.29,3.8 -10.14,6.69 -0.56,1.92 -1.86,5.23 -2.89,6.9 -0.95,1.55 -2.96,2.87 -4.22,3.15 -1.81,0.4 -4.0500003,1.16 -3.33,3.94 0.59,2.28 2.25,3.71 4.29,5.05 2.01,1.31 4.38,2.82 4.38,2.82 l 25.97,-17.21 z"
     fill="#5a6415"
     id="path3" />
  <path
     d="m 70.093759,84.112822 -5.91,7.81 c 0,0 2.32,4.65 8.09,5.98 5.77,1.34 8.76,1.69 9.54,3.549998 1.05,2.54 -0.14,5.91 -0.56,6.62 -0.42,0.7 -2.62,3 -1.02,4.58 1.94,1.9 7.18,0.77 9.01,0.14 1.83,-0.63 4.13,-1.11 4.94,-3.78 0.55,-1.83 1.66,-8.42 1.5,-12.509998 -0.18,-4.75 -1.06,-7.92 -2.53,-9.26 -1.48,-1.34 -11.16,-3.13 -11.16,-3.13 0,0 1.67,-3.88 3.59,-8.94 0.95,-2.5 1.51,-5.17 1.97,-5.35 0.73,-0.28 1.94,1.69 2.22,2.46 0.28,0.77 0.14,8.47 1.19,9.62 0.89,0.98 3.83,1.62 6.52,-0.18 2.36,-1.58 4.850001,-4.51 4.720001,-7.53 -0.18,-3.91 -3.770001,-6.76 -3.910001,-8.31 -0.14,-1.55 0.56,-5.46 0,-8.48 -0.56,-3.03 -15.03,-12 -15.03,-12 z"
     fill="#5a6415"
     id="path4" />
  <path
     fill="#f26a35"
     d="m 44.053759,97.622822 -33.37,9.009998 -4.5000003,1.06 0.14,4.57 8.5200003,5.63 19.71,-5.84 12.6,-6.75 -3.52,-8.169998"
     id="path5" />
  <path
     d="m 7.5237587,113.53282 c 0,0 0.28,-4.15 2.11,-3.8 1.4900003,0.29 2.1800003,5.21 2.1800003,5.21 l 2.53,2.11 2.53,-2.39 c 0,0 1.27,-4.93 2.75,-5.07 1.69,-0.16 2.82,4.43 2.82,4.43 l -8.09,4.43 z"
     fill="#fffdfd"
     id="path6" />
  <path
     d="m 27.513759,102.97282 c 0,0 1.75,3.48 3.8,3.31 2.46,-0.21 2.89,-6.19 2.89,-6.19 z"
     fill="#fffdfd"
     id="path7" />
  <path
     d="m 23.143759,88.262822 c -0.32,1.93 -4.3,4.33 -5.96,5.42 -2.06,1.36 -4.46,3.17 -6.01,3.24 -1.5500003,0.07 -3.8500003,0.23 -6.0500003,0.38 -2.11,0.14 -3.61,0.59 -4.60000004,2.63 -0.73,1.509998 -0.89,5.019998 0.80000004,6.709998 1.69,1.69 5.42,3.17 10.4200003,2.53 5,-0.63 6.55,-1.48 8.17,-2.18 1.62,-0.7 9.15,-3.73 12.67,-4.65 3.52,-0.92 10.14,-2.819998 11.26,-1.83 1.13,0.99 -3.38,4.01 -6.9,5.35 -3.52,1.34 -13.97,7.32 -18.11,8.45 -2.95,0.8 -9.2200003,0.36 -10.7500003,-1.06 -1.16,-1.07 -1.55,-1.81 -1.58,-2.78 -0.04,-0.97 -1.11,-1.32 -2.08,-0.32 -1.2,1.23 0.11,4.5 2.53,6.48 2.41,1.95 6.4700003,3.09 12.4800003,2.67 8.17,-0.56 15.65,-5.84 17.41,-5.91 1.76,-0.07 7.5,0.85 12.95,-1.31 5.6,-2.22 8.35,-6.43 8.35,-6.43 0,0 4.88,-2.35 7.98,-4.46 3.1,-2.109998 5.07,-3.569998 5.07,-3.569998 0,0 -2.72,-1.6 -2.79,-5.49 -0.04,-2.32 0.77,-5.49 2.82,-5.14 2.04,0.35 -1.48,5.49 2.32,7.32 3.8,1.83 10.35,3.87 13.87,1.83 3.52,-2.04 7.15,-7.31 5.96,-9.07 -1.2,-1.76 -4.03,-2.41 -6.76,-2.96 -2.56,-0.51 -5.82,-0.71 -5.82,-0.71 0,0 3.45,-8.66 3.87,-13.51 0.22,-2.53 0.12,-4.94 -0.21,-6.97 -0.42,-2.6 -1.09,-5.83 -1.06,-8.24 0.04,-2.6 0.28,-6.19 1.62,-5.91 1.34,0.28 0.73,3.94 0.99,7.39 0.28,3.87 1.97,9.36 6.34,9.08 4.36,-0.28 6.69,-3.31 6.05,-9.08 -0.63,-5.77 -1.3,-9.43 -3.7,-12.39 -2.39,-2.96 -5.03,-3.55 -5.03,-3.55 0,0 -0.35,-10.94 -3.59,-17.7 -3.55,-7.43 -11.51,-17.53 -23.75,-21.05 -12.24,-3.52 -21.31,-0.11 -27.63,3.73 -8.69,5.28 -12.49,19.6 -17.84,22.21 -5.35,2.61 -9.6800003,2.5 -9.7500003,3.98 -0.07,1.48 0.49,1.97 3.9400003,1.9 3.45,-0.07 6.99,-0.63 11.54,-3.87 5.38,-3.84 12.74,-12.74 18.3,-14.78 5.56,-2.04 11.54,-1.41 14.36,1.62 2.82,3.03 3.66,6.43 2.99,9.15 -1.11,4.52 -4.4,7.39 -4.4,7.39 0,0 -10.49,2.82 -13.51,7.46 -3.02,4.64 -2.15,6.72 0.14,8.59 3.67,2.99 8.59,1.48 8.59,1.48 0,0 -2.43,8.94 -2.99,11.68 -0.56,2.75 -2.36,11.76 -2.92,13.16 -0.56,1.41 -1.27,4.5 -3.17,4.43 -1.9,-0.07 -5.28,-3.59 -11.05,-1.34 -5.23,2.04 -5.35,7.47 -5.78,10 z"
     fill="#70853c"
     id="path8" />
  <path
     d="m 40.143759,99.592822 c -2.15,0.599998 -2.29,5.879998 -2.29,5.879998 0,0 1.31,-0.51 2.71,-1.3 1.37,-0.77 1.99,-1.43 1.99,-1.43 0,0 -1.08,-3.519998 -2.41,-3.149998 z"
     fill="#fffdfd"
     id="path9" />
  <path
     d="m 85.273759,109.32282 c -1.48,-0.11 -2.11,1.31 -2.44,2.76 -0.18,0.77 -0.25,1.51 -0.25,1.51 0,0 0.84,0.18 1.83,0.11 0.99,-0.07 1.9,-0.21 1.9,-0.21 0,0 1.01,-4.02 -1.04,-4.17 z"
     fill="#70853c"
     id="path10" />
  <path
     d="m 87.633759,113.21282 c 0,0 -0.21,-1.71 0.53,-3.11 0.74,-1.41 2.78,-1.4 2.89,0.53 0.05,0.97 -0.07,1.6 -0.07,1.6 0,0 -0.7,0.35 -1.39,0.55 -0.81,0.22 -1.96,0.43 -1.96,0.43 z"
     fill="#70853c"
     id="path11" />
  <path
     d="m 93.463759,78.832822 c -1.72,0.01 -1.82,3.55 -1.82,3.55 0,0 0.61,0.5 1.71,0.53 0.98,0.03 1.76,-0.18 1.76,-0.18 0,0 0.26,-3.91 -1.65,-3.9 z"
     fill="#71873b"
     id="path12" />
  <path
     d="m 96.603759,82.222822 c 0,0 -1.63,-3.92 0.5,-4.46 1.46,-0.37 1.97,2.66 1.97,2.66 0,0 -0.46,0.58 -1.06,0.99 -0.64,0.43 -1.41,0.81 -1.41,0.81 z"
     fill="#71873b"
     id="path13" />
  <path
     d="m 37.683759,63.552822 c 0,0 1.36,-3.22 2.73,-2.52 1.44,0.74 -0.39,3.82 -0.39,3.82 0,0 -0.77,-0.25 -1.41,-0.6 -0.44,-0.24 -0.93,-0.7 -0.93,-0.7 z"
     fill="#70853c"
     id="path14" />
  <path
     d="m 43.133759,61.902822 c 1.51,0.07 0.99,3.26 0.99,3.26 0,0 -0.65,0.07 -1.34,0.05 -0.64,-0.02 -1.39,-0.09 -1.39,-0.09 0,0 0.4,-3.28 1.74,-3.22 z"
     fill="#70853c"
     id="path15" />
  <path
     d="m 10.263759,87.242822 c 0,0 3.63,-0.95 4.36,0.67 0.74,1.62 -2.97,2.71 -2.97,2.71 0,0 -0.76,-0.96 -1,-1.62 -0.51,-1.36 -0.39,-1.76 -0.39,-1.76 z"
     fill="#70853c"
     id="path16" />
  <path
     d="m 12.873759,91.832822 c -0.04,-0.11 2.25,-2.29 3.55,-1.34 1.3,0.95 -0.81,3.24 -0.81,3.24 0,0 -0.88,-0.48 -1.44,-0.88 -0.68,-0.48 -1.3,-1.02 -1.3,-1.02 z"
     fill="#70853c"
     id="path17" />
  <path
     d="m 49.843759,90.912822 c 0.14,1.64 -0.33,3.57 -2.82,4.18 -2.26,0.56 -4.55,-0.89 -4.6,-3.33 -0.05,-2.35 1.79,-4.04 3.8,-4.04 2.01,0 3.45,1.18 3.62,3.19 z"
     fill="#2e2c33"
     id="path18" />
  <path
     d="m 15.003759,103.51282 c -0.09,1.17 -1.1,1.49 -1.83,1.41 -1.03,-0.12 -1.71,-1.13 -1.42,-2.09 0.27,-0.93 1.21,-1.36 2.01,-1.11 0.79,0.24 1.32,0.79 1.24,1.79 z"
     fill="#2e2c33"
     id="path19" />
  <path
     d="m 6.8637587,101.24282 c 0.42,0.94 -0.38,1.87 -0.99,2.11 -0.82,0.33 -1.91,-0.04 -2.18,-1.01 -0.26,-0.93 0.31,-1.79 1.12,-2 0.81,-0.21 1.64,-0.02 2.05,0.9 z"
     fill="#2e2c33"
     id="path20" />
  <path
     d="m 47.553759,73.222822 c -0.68,2.26 0.08,3.65 0.41,4.38 0.66,1.45 1.7,1.4 2.55,0.74 0.84,-0.66 -0.38,-3 0.05,-4.08 0.61,-1.55 2.77,-1.6 2.58,-3.47 -0.14,-1.4 -2.01,-1.7 -3.33,-0.56 -0.97,0.81 -1.81,1.46 -2.26,2.99 z"
     fill="#97a927"
     id="path21" />
  <path
     d="m 52.043759,59.372822 c -0.95,2.35 -0.35,4.24 -0.07,4.93 0.46,1.13 2.57,1.48 2.78,-0.39 0.14,-1.26 -0.46,-2.08 0.11,-3.52 0.55,-1.41 1.69,-1.06 2.75,-2.01 0.56,-0.51 0.63,-2.39 -1.44,-2.36 -1.1,0.02 -3.01,0.57 -4.13,3.35 z"
     fill="#97a927"
     id="path22" />
  <path
     d="m 69.533759,64.642822 c -0.42,2.15 -0.07,3.52 0.35,4.26 0.42,0.74 2.18,1.26 2.67,-0.35 0.28,-0.92 -0.39,-1.65 0.11,-3.55 0.25,-0.97 0.92,-1.44 1.55,-2.11 0.99,-1.06 -0.33,-2.76 -1.94,-2.11 -1.12,0.45 -2.22,1.24 -2.74,3.86 z"
     fill="#97a927"
     id="path23" />
  <path
     d="m 63.163759,77.882822 c -0.88,1.58 -0.72,3.36 -0.56,4.4 0.32,2.15 2.46,2.11 2.71,0.88 0.25,-1.23 -0.04,-2.75 0.39,-3.77 0.43,-1.02 1.76,-1.26 2.6,-1.69 1.16,-0.6 0.84,-3.06 -1.34,-2.6 -2.18,0.46 -3.1,1.52 -3.8,2.78 z"
     fill="#97a927"
     id="path24" />
  <path
     d="m 73.513759,48.632822 c -0.53,1.79 -0.38,3.01 -0.25,3.66 0.32,1.51 2.43,1.58 2.64,0.25 0.21,-1.34 0.14,-2.08 0.39,-2.92 0.41,-1.39 0.76,-1.63 1.37,-2.29 1.09,-1.16 -0.25,-2.99 -1.9,-2.01 -0.95,0.57 -1.85,1.95 -2.25,3.31 z"
     fill="#97a927"
     id="path25" />
  <path
     d="m 56.433759,43.542822 c -0.91,1.76 -0.69,3.66 -0.55,4.59 0.15,0.92 0.62,1.78 1.64,1.7 1.02,-0.07 1.39,-0.85 1.28,-1.7 -0.06,-0.44 -0.29,-1.89 0.18,-2.89 0.47,-1 1.41,-1.6 2.15,-1.89 1.83,-0.7 0.75,-3.34 -1.35,-2.63 -1.53,0.53 -2.62,1.41 -3.35,2.82 z"
     fill="#97a927"
     id="path26" />
  <path
     d="m 63.203759,29.842822 c -1.32,1.42 -1.39,3.14 -1.3,4.36 0.18,2.43 2.43,2.04 2.71,0.67 0.19,-0.92 0.39,-2.18 0.67,-2.82 0.56,-1.27 1.51,-2.04 0.77,-2.82 -0.67,-0.69 -1.97,-0.34 -2.85,0.61 z"
     fill="#97a927"
     id="path27" />
  <path
     d="m 75.803759,33.092822 c -0.12,2.11 0.23,2.97 0.76,3.94 0.76,1.39 2.71,1.04 2.82,-0.6 0.08,-1.19 -0.48,-0.91 -0.36,-3.22 0.08,-1.46 0.87,-2.86 -0.2,-3.38 -1.06,-0.52 -2.82,-0.24 -3.02,3.26 z"
     fill="#97a927"
     id="path28" />
  <path
     d="m 72.523759,16.852822 c 0.6,1.02 1.37,1.9 1.65,3.31 0.39,1.94 2.93,1.48 2.96,-0.28 0.04,-2.36 -0.7,-3.41 -1.55,-4.47 -0.82,-1.02 -2.15,-1.06 -2.71,-0.67 -0.56,0.39 -0.86,1.24 -0.35,2.11 z"
     fill="#97a927"
     id="path29" />
  <path
     d="m 62.853759,17.712822 c -0.64,0.54 -0.87,1.62 -0.23,2.42 0.84,1.04 1.31,1.89 1.26,2.76 -0.08,1.39 1.17,1.9 1.97,1.32 1.07,-0.78 1.44,-2.24 0.42,-4.53 -0.96,-2.14 -2.69,-2.6 -3.42,-1.97 z"
     fill="#97a927"
     id="path30" />
  <path
     d="m 60.103759,5.422822 c -0.31,0.98 0.73,1.34 1.77,1.52 1.04,0.18 2.24,0.96 2.59,1.73 0.49,1.08 2.03,1.67 2.36,-0.02 0.29,-1.45 -1.56,-2.95 -2.7,-3.61 -0.93,-0.55 -3.48,-1.32 -4.02,0.38 z"
     fill="#97a927"
     id="path31" />
  <path
     d="m 57.813759,9.712822 c -1.58,-0.89 -4.32,-0.81 -4.65,0.7 -0.35,1.65 1.16,1.6 1.83,1.65 0.88,0.07 1.72,0.32 2.25,0.95 0.53,0.63 0.92,1.34 2.01,1.02 1.09,-0.31 1.31,-2.78 -1.44,-4.32 z"
     fill="#97a927"
     id="path32" />
  <path
     d="m 52.393759,4.502822 c 0.46,-0.58 0.32,-2.29 -2.78,-2.43 -2.59,-0.12 -3.26,1.12 -2.85,1.9 0.53,1.02 1.82,0.31 2.89,0.42 1.3,0.14 2.18,0.81 2.74,0.11 z"
     fill="#97a927"
     id="path33" />
  <path
     d="m 45.883759,7.562822 c -1.79,-0.21 -3.78,0.87 -3.38,2.43 0.32,1.23 1.79,-0.1 2.96,-0.07 1.41,0.04 2.65,0.9 3.06,0.07 0.6,-1.2 -0.18,-2.14 -2.64,-2.43 z"
     fill="#97a927"
     id="path34" />
  <path
     d="m 39.523759,5.452822 c -0.03,1.2 -1.15,0.85 -2.53,1.37 -0.84,0.32 -1.63,1.83 -2.42,1.17 -1.06,-0.89 -0.09,-2.31 1.5,-3.13 1.15,-0.61 3.49,-0.68 3.45,0.59 z"
     fill="#97a927"
     id="path35" />
  <path
     d="m 34.673759,10.772822 c -2.35,1.15 -2.96,4.01 -1.79,4.52 1.42,0.62 1.39,-1.5 2.61,-2.28 0.97,-0.61 3.23,-0.29 3.21,-1.67 -0.02,-1.38 -2.61,-1.26 -4.03,-0.57 z"
     fill="#97a927"
     id="path36" />
  <path
     d="m 30.293759,18.502822 c 0.26,-0.91 -1.55,-2.15 -3.7,-0.7 -2.15,1.45 -2.3,3.57 -0.92,3.87 0.99,0.21 1.06,-1.29 1.9,-1.94 1.2,-0.91 2.37,0.01 2.72,-1.23 z"
     fill="#97a927"
     id="path37" />
</svg>
