<?xml version="1.0" encoding="UTF-8" standalone="no"?>
<!-- Uploaded to: SVG Repo, www.svgrepo.com, Generator: SVG Repo Mixer Tools -->

<svg
   width="638.92224"
   height="744.64777"
   viewBox="0 0 102.22756 119.14364"
   aria-hidden="true"
   role="img"
   class="iconify iconify--noto"
   preserveAspectRatio="xMidYMid"
   version="1.1"
   id="svg23"
   sodipodi:docname="dragon-svgrepo-com.svg"
   xmlns:inkscape="http://www.inkscape.org/namespaces/inkscape"
   xmlns:sodipodi="http://sodipodi.sourceforge.net/DTD/sodipodi-0.dtd"
   xmlns="http://www.w3.org/2000/svg"
   xmlns:svg="http://www.w3.org/2000/svg">
  <defs
     id="defs23" />
  <sodipodi:namedview
     id="namedview23"
     pagecolor="#ffffff"
     bordercolor="#000000"
     borderopacity="0.25"
     inkscape:showpageshadow="2"
     inkscape:pageopacity="0.0"
     inkscape:pagecheckerboard="0"
     inkscape:deskcolor="#d1d1d1" />
  <path
     d="m 89.980802,49.866617 c 0,0 3.5,-0.66 6.57,-2.96 2.75,-2.06 6.769998,-5.88 5.399998,-7.32 -1.48,-1.55 -3.869998,2.53 -4.429998,1.55 -0.37,-0.65 2.32,-2.89 3.519998,-6.34 1.07,-3.07 -0.15,-6.11 -2.889998,-2.75 -0.85,1.04 -1.49,2.17 -1.9,1.76 -0.44,-0.44 0.61,-3 1.38,-5.39 1.29,-4.04 -0.68,-6.72 -4.05,-1.83 -1.44,2.08 -2.09,4.82 -3.17,4.62 -0.77,-0.14 -0.38,-1.7 -0.51,-3.25 -0.27,-3.23 -3.36,-2.87 -4.42,2.83 -0.47,2.52 -0.06,5.43 -0.63,5.63 -0.99,0.35 -0.77,-3.94 -2.39,-3.52 -1.18,0.31 -1.62,3.24 -1.55,6.34 0.07,3.1 2.04,8.09 2.04,8.09 l 2.75,5 z"
     fill="#bdce44"
     id="path1" />
  <path
     d="m 82.310802,47.636617 c 0,0 -2.21,5.16 0.82,11.8 2.21,4.85 5.37,8.27 3.5,10.21 -2.77,2.86 -12.53,-3.33 -22.15,-0.49 -7.49,2.21 -11.06,6.47 -13.24,14.29 -1.63,5.85 -3.24,8.12 -5.96,8.92 -2.12,0.62 -5.44,0.16 -7.2,-1.45 -3.72,-3.42 -3.63,-7.37 -2.23,-10.69 1.31,-3.11 5.64,-6.15 7.65,-7.19 5.56,-2.89 19.22,-7.11 23.09,-14.5 3.45,-6.59 4.36,-14.15 2.25,-19.08 -2.11,-4.93 -5.49,-3.17 -5.49,-3.17 l 0.77,11.68 -13.44,14.08 -19.36,13.23 -2.67,14.08 6.76,11.400003 13.94,-1.060003 14.22,-21.4 13.73,-0.99 13.02,-0.7 4.93,-13.8 z"
     fill="#6d8038"
     id="path2" />
  <path
     d="m 92.440802,35.576617 c -2.32,-1.57 -10.23,5.63 -10.3,13.73 -0.07,8.09 4.81,13.8 5.8,15.42 0.99,1.62 4.11,7.3 0.07,9.85 -3.24,2.06 -18.37,-4.58 -26.19,0.42 -7.81,5 -5.16,13.59 -12.34,20.53 -2.69,2.61 -17.15,5.020003 -18.35,-9.34 -1.2,-14.36 16.19,-15.06 24.78,-21.33 8.59,-6.26 11.33,-11.54 11.05,-18.93 -0.28,-7.39 -2.46,-9.71 -2.46,-9.71 l -13.8,5.63 -6.34,10.28 c 0,0 -8.27,3.03 -15.58,7.95 -8.61,5.8 -10.14,10 -10.14,10 0,0 -2.02,-0.63 -2.02,-1.13 0,-0.5 7.09,-8.57 6.48,-12.11 -0.75,-4.34 -3.14,-5.51 -4.55,-5.65 -1.41,-0.14 -2.21,1.08 -1.17,2.67 1.03,1.6 1.55,3 1.36,3.61 -0.19,0.61 -0.81,1.25 -0.94,0.19 -0.14,-1.17 -0.99,-3.17 -1.6,-3.99 -0.5,-0.67 -2.06,-2.63 -3.99,-2.3 -1.93,0.33 -2.06,2.16 -0.47,3.66 1.6,1.5 3.14,3.61 2.35,4.55 -0.8,0.94 -2.11,-2.09 -2.96,-3.21 -0.84,-1.13 -2.9299996,-1.56 -4.1799996,-1.81 -1.31,-0.26 -3.47,1.19 -2.21,3.28 0.94,1.55 2.21,0.8 3.75,2.44 1.5399996,1.64 1.5999996,2.25 1.5499996,2.67 -0.05,0.42 -2.9599996,2.58 -3.2799996,4.55 -0.33,1.97 0.23,3.19 -0.52,3.89 -0.75,0.7 -3.94,0.56 -4.97,0.89 -1.02999998,0.33 -2.15999998,2.96 -0.19,3.8 1.97,0.84 5.58,0.99 7.27,0.47 1.23,-0.38 1.6,-0.94 2.1099996,-0.84 0.52,0.09 4.6,3.1 4.6,3.1 0,0 -0.58,4.34 -0.49,8.02 0.12,4.79 1.55,8.54 1.55,8.54 0,0 1.43,2.04 0.82,2.02 -1.74,-0.07 -6.48,-4.79 -8.8199996,-5.3 -2.35,-0.52 -4.22,-0.37 -5.12,0.66 -0.82,0.94 -1.12,3.01 0.52,3.14 1.79,0.14 2.63,-0.23 2.63,0.42 0,0.43 -0.58,0.78 -1.74,1.17 -1.67,0.56 -2.14,1.89 -1.74,3.520003 0.38,1.53 2.49,1.08 3.1,0.61 0.61,-0.47 0.84,-0.94 1.17,-0.52 0.33,0.42 -1.11,1.5 -1.55,2.49 -0.89,1.99 0.36,2.85 1.69,2.96 1.83,0.14 2.11,-2.21 2.9599996,-3.1 0.84,-0.89 1.92,-1.6 2.3,-1.55 0.38,0.05 0.23,1.55 1.92,3.38 1.69,1.83 3.99,0.8 4.36,1.13 0.37,0.33 -0.28,2.77 1.17,4.08 1.45,1.31 3.8,0.75 3.8,-1.27 0,-2.02 0.19,-2.86 0.19,-2.86 0,0 2.84,2.49 6.55,3.8 3.71,1.31 8.78,2.42 8.78,2.42 0,0 -0.51,0.91 -0.4,2.7 0.05,0.73 0.21,2.96 2.37,2.91 1.55,-0.03 1.62,-3 2.18,-3.1 0.56,-0.09 -0.54,3.87 2.32,4.06 2.86,0.19 1.95,-3.54 2.46,-3.64 0.52,-0.09 0.53,4.84 4.27,3.14 1.97,-0.89 -0.66,-5.24 -0.47,-5.63 0.12,-0.23 1.97,-0.52 3.19,-1.31 0.81,-0.53 1.31,-1.69 1.31,-1.69 0,0 5.91,-1.67 8.35,-6.08 3.33,-6.020003 2.77,-13.160003 5.4,-15.460003 2.63,-2.3 7.7,-0.47 10.14,-0.19 2.44,0.28 2.67,0.19 2.82,0.28 0.14,0.09 0.42,1.22 0.19,1.55 -0.23,0.33 -6.9,2.72 -8.49,5.4 -1.6,2.67 -1.37,4.580003 -1.22,5.300003 0.33,1.55 1.85,1.76 2.53,0.47 0.67,-1.27 1.03,-2.390003 1.6,-2.210003 0.56,0.19 -0.54,2.290003 -0.09,3.280003 0.66,1.45 2.3,1.22 2.96,0.7 0.66,-0.52 0.82,-2.58 1.29,-2.35 0.47,0.23 0,1.13 0.87,2.65 0.77,1.35 3.31,0.12 2.93,-1.88 -0.23,-1.22 -1.24,-2.140003 0.21,-3.310003 1.45,-1.17 2.63,-1.13 4.13,-2.06 1.5,-0.94 1.36,-2.3 3.05,-1.69 1.69,0.61 1.74,2.14 3,1.27 1.9,-1.31 0.99,-3.94 -0.61,-5.21 -1.6,-1.27 -3.94,-1.41 -4.27,-1.55 -0.33,-0.14 -0.47,-1.92 -0.47,-1.92 0,0 9.479998,-3.71 10.559998,-13.05 1.08,-9.34 -9.669998,-19.43 -10.369998,-25.48 -0.68,-6.01 3.62,-11.52 1.59,-12.89 z"
     fill="#00aa48"
     id="path3" />
  <path
     d="m 27.490802,108.90662 c 1.28,0.69 2.64,1.29 3.97,1.73 3.82,1.26 7.7,1.97 7.7,1.97 0,0 0.8,-1.64 3.47,-2.86 1.51,-0.69 4.79,-1.22 4.79,-1.22 0,0 -4.83,-0.14 -9.71,-0.94 -2.1,-0.34 -4.73,-1.24 -7.12,-2.82 z"
     fill="#7bd989"
     id="path4" />
  <path
     d="m 38.600802,61.696617 c 3.05,-1.62 5.98,-3 8.26,-3.99 l -2.72,-5.43 c -2.17,0.75 -5,1.91 -8.44,3.71 z"
     fill="#7bd989"
     id="path5" />
  <path
     d="m 23.190802,75.876617 c 1.34,-2.89 3.25,-5.47 5.41,-7.57 l -3.76,-5.36 c -3.48,2.91 -5.93,6.02 -7.56,9.32 z"
     fill="#7bd989"
     id="path6" />
  <path
     d="m 16.600802,73.746617 c -1.68,4.04 -2.17,7.32 -2.08,12.2 l 6.66,-0.38 c -0.14,-2.87 0.39,-5.64 1.37,-8.21 z"
     fill="#7bd989"
     id="path7" />
  <path
     d="m 19.110802,101.14662 c 1.19,1.64 2.55,3.12 4,4.61 0.77,0.79 1.79,1.59 2.95,2.32 l 3.24,-4.23 c -0.83,-0.66 -1.6,-1.41 -2.3,-2.26 -0.96,-1.17 -1.9,-2.410003 -2.75,-3.900003 z"
     fill="#7bd989"
     id="path8" />
  <path
     d="m 18.230802,99.856617 c -1.97,-3.11 -3.34,-6.88 -3.65,-12.36 l 6.69,-0.61 c 0.33,4.15 1.19,7.13 2.32,9.5 z"
     fill="#7bd989"
     id="path9" />
  <path
     d="m 29.760802,67.246617 c 0.93,-0.8 1.9,-1.52 2.88,-2.13 1.49,-0.93 3.03,-1.83 4.57,-2.67 l -2.82,-5.76 c -1.48,0.81 -3.32,1.83 -5.01,2.89 -1.33,0.84 -2.53,1.69 -3.42,2.47 z"
     fill="#7bd989"
     id="path10" />
  <path
     d="m 48.090802,57.176617 c 0.46,-0.19 0.88,-0.36 1.25,-0.51 3.38,-1.31 4.41,-3.33 3.75,-4.88 -0.66,-1.55 -3.24,-1.17 -3.85,-0.94 -0.25,0.09 -1.54,0.29 -3.79,0.99 z"
     fill="#7bd989"
     id="path11" />
  <linearGradient
     id="IconifyId17ecdb2904d178eab7802"
     gradientUnits="userSpaceOnUse"
     x1="88.641998"
     y1="32.750999"
     x2="46.971001"
     y2="33.876999"
     gradientTransform="translate(-13.149198,-4.5533834)">
    <stop
       offset="0"
       stop-color="#01ab46"
       id="stop11" />
    <stop
       offset=".396"
       stop-color="#128a3c"
       id="stop12" />
    <stop
       offset="1"
       stop-color="#2f502a"
       id="stop13" />
  </linearGradient>
  <path
     d="m 21.280802,19.556617 c 0,0 -0.42,-5.3 3.14,-8.12 3.57,-2.8200004 9.2,-0.94 12.29,-0.38 3.09,0.56 7.13,0.47 10.04,-0.19 2.91,-0.66 4.04,-1.2200004 5.82,-1.3100004 1.78,-0.09 4.36,-0.28 6.62,-0.47 1.91,-0.16 5.73,-0.66 6.34,1.1300004 0.46,1.33 -0.84,2.67 -2.91,3.19 -2.06,0.52 -2.67,0.75 -2.25,1.69 0.42,0.94 3.85,0.33 4.6,0.09 0.75,-0.23 5.12,-1.13 5.12,1.41 0,2.54 -3.57,3.28 -5.87,3.85 -2.3,0.56 -3.7,0.23 -3.61,1.41 0.14,1.88 6.01,0.09 7.79,-0.14 1.78,-0.23 4.04,-0.56 4.27,1.13 0.23,1.69 -1.55,3.52 -4.93,4.08 -3.38,0.56 -5.58,1.13 -5.54,2.02 0.04,0.89 4.2,-0.02 5.4,-0.23 1.55,-0.28 3.75,-0.32 3.99,1.27 0.56,3.75 -6.1,3.1 -6.24,4.6 -0.13,1.34 5.3,-0.09 5.96,2.11 0.66,2.21 -1.41,4.13 -4.69,4.41 -2.28,0.2 -10.09,-1.36 -11.31,-0.05 -1.22,1.31 2.96,1.61 4.36,1.92 1.88,0.42 5.02,0.66 3.61,3.52 -0.92,1.88 -4.36,1.36 -6.87,1.48 -2.51,0.12 -6.97,0.4 -6.97,0.4 l -10.04,0.47 -8.4,-0.99 -5.3,-1.97 -4.04,-1.69 -1.27,-1.36 11.68,-14.41 z"
     fill="url(#IconifyId17ecdb2904d178eab7802)"
     id="path13"
     style="fill:url(#IconifyId17ecdb2904d178eab7802)" />
  <path
     d="m 53.730802,46.246617 c 0,3.25 -2.22,6.86 -6.83,6.9 -4.61,0.04 -6.97,-2.78 -7.71,-2.99 -0.74,-0.21 -0.99,2.67 -3.55,2.82 -2.57,0.14 -6.37,-3.2 -6.86,-3.31 -0.49,-0.11 -0.63,2.53 -3.41,2.53 -1.94,0 -4.19,-3.03 -5.67,-4.4 -1.48,-1.37 -4.12,-3.38 -4.12,-3.38 h 7.46 c 0,0 2.5,-0.28 5.63,0 3.04,0.27 5.53,2.67 10.56,2.57 2.82,-0.06 4.15,-0.32 4.15,-0.32 0,0 1.02,-3.68 5.67,-3.91 4.33,-0.21 4.68,2.75 4.68,3.49 z"
     fill="#bece44"
     id="path14" />
  <path
     d="m 38.340802,16.196617 c 0,0 4.86,-1.85 5.47,-3.17 0.61,-1.31 2.53,-6.2400004 5.02,-7.1300004 2.49,-0.89 3.94,1.6 2.21,3.52 -1.73,1.9200004 -4.27,3.5200004 -2.86,4.4100004 1.41,0.89 4.5,-3.47 5.3,-4.5000004 0.8,-1.03 2.63,-3.71 4.69,-3.66 2.06,0.05 3.34,3.58 -0.61,6.8500004 -4.08,3.38 -6.1,4.18 -10.79,4.5 -4.69,0.33 -6.95,0.63 -6.95,0.63 z"
     fill="#ffba02"
     id="path15" />
  <path
     d="m 14.330802,16.406617 c 0,0 -2.35,-7.7900004 1.78,-11.1700004 4.13,-3.38 9.53,-1.27 12.81,0.75 3.01,1.85 8.9,1.54 8.68,-1.88 -0.19,-2.96 -3.44,-2.13 -3.71,-0.8 -0.23,1.17 -0.73,1.92 -1.17,1.78 -0.5,-0.15 -0.81,-1.16 -0.75,-1.78 0.23,-2.66999995 2.49,-3.46999995 4.27,-3.27999995 1.4,0.15 3.75,1.16999995 3.52,4.92999995 -0.23,3.76 -4.15,4.81 -7.93,4.18 -2.99,-0.5 -5.68,-2.58 -8.39,-3.31 -1.66,-0.44 -4,-0.08 -5.43,0.96 -1.67,1.22 -2.11,3.15 -2.1,4.7400004 0.01,1.01 0.2,1.94 0.29,2.63 0.21,1.57 1.97,6.34 1.97,6.34 z"
     fill="#7cdb8b"
     id="path16" />
  <path
     d="m 41.460802,21.946617 c 0,0 2.39,0.52 2.49,3.28 0.1,2.76 -0.33,3 -0.09,3.1 0.24,0.1 2.16,-1.03 3.19,0.28 1.3,1.66 -1.03,4.36 -2.35,5.26 -1.31,0.89 -2.11,1.03 -2.3,1.45 -0.19,0.42 -1.96,5.87 -4.36,6.85 -2.77,1.13 -10.75,0.66 -11.83,0.66 -1.08,0 -2.16,1.06 -3.17,1.58 -1.01,0.52 -1.99,0.86 -3.17,0.57 -1.17,-0.28 -2.96,-1.6 -2.96,-1.6 z"
     fill="#7cdb8b"
     id="path17" />
  <path
     d="m 25.460802,34.236617 2.86,0.14 1.45,-5.12 c 0,0 -3.99,-1.36 -5.4,-1.08 -1.41,0.28 -4.46,1.45 -5.44,1.97 -0.99,0.52 -1.78,1.83 -3.66,1.55 -1.88,-0.28 -5.9099996,-1.03 -8.3099996,1.69 -2.07,2.36 -1.69,4.36 0.09,5.21 1.78,0.84 4.0399996,-1.83 5.4899996,-2.06 1.45,-0.23 3.66,0.8 3.66,0.8 z"
     fill="#d43330"
     id="path18" />
  <path
     d="m 14.900802,28.326617 c 0,0 0.89,4.08 1.97,4.08 1.08,0 1.08,-1.31 1.08,-1.31 0,0 4.13,-1.08 4.93,-1.55 0.8,-0.47 1.78,-2.39 1.78,-2.39 l -7.32,-0.52 z"
     fill="#ffffff"
     id="path19" />
  <path
     d="m 14.800802,39.446617 c 0,0 -0.84,-1.83 -0.52,-2.63 0.33,-0.8 0.61,-2.25 1.55,-2.16 1.03,0.1 1.17,1.69 1.17,1.69 0,0 2.72,-2.49 4.83,-3.33 1.13,-0.45 3.05,-0.61 3.19,0.28 0.14,0.89 -0.52,3.43 -0.52,3.43 z"
     fill="#ffffff"
     id="path20" />
  <path
     d="m 11.710802,36.066617 c -0.35,0.64 -0.66,3 -0.09,4.69 0.56,1.69 2.44,4.32 5.35,4.5 2.91,0.18 8.31,-6.01 8.63,-6.19 0.33,-0.19 9.48,1.03 12.06,-2.63 2.58,-3.66 1.23,-10.1 2.53,-12.11 1.41,-2.16 3.47,-0.75 3.47,-0.75 0,0 -0.23,-1.5 -1.27,-2.53 -1.03,-1.03 -2.49,-0.84 -2.06,-2.06 0.42,-1.22 3.61,-0.09 3.8,-0.99 0.19,-0.89 -1.09,-1.79 -2.55,-2.06 -0.69,-0.13 -2.43,0.19 -2.52,-0.23 -0.09,-0.42 1.36,-0.47 1.41,-1.45 0.05,-0.99 -3.71,-0.61 -5.26,-0.42 -1.55,0.19 -3.57,1.08 -3.71,0.7 -0.14,-0.38 2.53,-1.78 2.44,-2.25 -0.09,-0.47 -2.21,-0.89 -5.35,0.8 -3.14,1.69 -7.23,5.82 -7.23,5.82 l -3.1,-0.23 c 0,0 -4.32,-5.11 -7.09,-4.46 -2.9199996,0.69 -3.8899996,3.52 -3.8499996,7.51 0.04,3.99 1.74,6.19 6.0499996,6.99 2.44,0.45 8.78,-0.22 10.09,-0.28 3.43,-0.16 4.08,1.36 4.27,2.67 0.19,1.31 -2.35,2.77 -3.57,3.05 -1.22,0.28 -2.86,0.56 -4.18,1.45 -1.31,0.89 -2.82,3.38 -3.71,3.33 -0.89,-0.05 -1.08,-1.6 -1.55,-2.53 -0.43,-0.95 -2.17,-1.88 -3.01,-0.34 z"
     fill="#02ab47"
     id="path21" />
  <path
     d="m 35.460802,18.896617 c -0.04,0.39 -1.09,3.94 -3.8,5.49 -2.71,1.55 -5.46,1.09 -6.19,-1.16 -0.82,-2.51 0.56,-5.1 3.84,-4.65 2.96,0.42 6.36,-1.55 6.15,0.32 z"
     fill="#79da89"
     id="path22" />
  <ellipse
     transform="rotate(-51.325)"
     cx="0.87354755"
     cy="35.751606"
     rx="2.24"
     ry="1.9400001"
     fill="#2f2e2f"
     id="ellipse22" />
  <path
     d="m 11.590802,17.136617 c -0.62,0.56 0.42,1.98 0.49,2.79 0.07,0.81 -0.31,2.28 0.75,2.21 1.06,-0.07 1.38,-1.31 1.16,-2.75 -0.3,-1.94 -1.31,-3.24 -2.4,-2.25 z"
     fill="#2f2e2f"
     id="path23" />
</svg>
