<?xml version="1.0" encoding="UTF-8" standalone="no"?>
<!-- Uploaded to: SVG Repo, www.svgrepo.com, Generator: SVG Repo Mixer Tools -->

<svg
   width="710.44745"
   height="752.67126"
   viewBox="0 0 113.67159 120.4274"
   aria-hidden="true"
   role="img"
   class="iconify iconify--noto"
   preserveAspectRatio="xMidYMid"
   version="1.1"
   id="svg15"
   sodipodi:docname="eagle-svgrepo-com.svg"
   xmlns:inkscape="http://www.inkscape.org/namespaces/inkscape"
   xmlns:sodipodi="http://sodipodi.sourceforge.net/DTD/sodipodi-0.dtd"
   xmlns="http://www.w3.org/2000/svg"
   xmlns:svg="http://www.w3.org/2000/svg">
  <defs
     id="defs15" />
  <sodipodi:namedview
     id="namedview15"
     pagecolor="#ffffff"
     bordercolor="#000000"
     borderopacity="0.25"
     inkscape:showpageshadow="2"
     inkscape:pageopacity="0.0"
     inkscape:pagecheckerboard="0"
     inkscape:deskcolor="#d1d1d1" />
  <path
     d="m 38.296588,65.862949 c 0,0 11.83,-0.7 10,-16.75 -1.83,-16.05 -7.6,-16.33 -9.85,-24.35 -2.25,-8.02 -2.3,-16.0300004 -3.38,-16.6100004 -0.83,-0.45 -7.32,4.5000004 -7.32,4.5000004 0,0 -6.01,5.05 -6.48,3.66 -0.66,-1.97 5.07,-11.1200004 5.91,-12.9500004 0.84,-1.83 0.49,-4.83 -3.38,-2.52999996 -3.47,2.04999996 -24.21999983,18.86000036 -23.78999983,31.95000036 0.43,13.09 16.04999983,27.73 16.04999983,27.73 l 9.43,-9.43 z"
     fill="#4f3b37"
     id="path1" />
  <linearGradient
     id="IconifyId17ecdb2904d178eab7826"
     gradientUnits="userSpaceOnUse"
     x1="68.597"
     y1="90.461998"
     x2="76.877998"
     y2="115.641"
     gradientTransform="translate(-6.6934118,-3.6170514)">
    <stop
       offset=".207"
       stop-color="#ac8979"
       id="stop1" />
    <stop
       offset=".309"
       stop-color="#b59482"
       id="stop2" />
    <stop
       offset=".485"
       stop-color="#cdb099"
       id="stop3" />
    <stop
       offset=".714"
       stop-color="#f4ddbe"
       id="stop4" />
    <stop
       offset=".771"
       stop-color="#ffeac8"
       id="stop5" />
  </linearGradient>
  <path
     d="m 61.196588,87.072949 c 0,0 10.89,6.29 13.7,8.45 2.81,2.16 7.13,5.630001 7.13,5.630001 0,0 -1.97,4.97 -3.94,6.19 -1.97,1.22 -4.5,1.6 -4.5,1.6 0,0 -3.38,3.57 -5.73,3.75 -2.35,0.18 -4.32,-1.03 -4.32,-1.03 0,0 -3.1,1.13 -4.41,1.03 -1.31,-0.09 -5.16,-3.1 -5.16,-3.1 z"
     fill="url(#IconifyId17ecdb2904d178eab7826)"
     id="path5"
     style="fill:url(#IconifyId17ecdb2904d178eab7826)" />
  <path
     d="m 44.486588,57.982949 c 0,0 5.16,0.47 7.7,-8.07 2.53,-8.54 1.97,-15.3 6.85,-20.37 4.88,-5.07 9.67,-6.1 14.92,-6.48 5.26,-0.38 25.15,-1.13 30.130002,-1.5 4.97,-0.38 9.1,-1.69 9.57,-0.66 0.35,0.77 -5.54,10.79 -5.54,10.79 0,0 -13.230002,0.19 -13.510002,3 -0.28,2.82 9.880002,1.29 9.950002,2.72 0.1,1.97 -8.540002,12.95 -11.640002,16.05 -3.1,3.1 -5.63,3.47 -6.66,5.07 -1.03,1.6 -5.54,15.39 -10.89,20.27 -5.35,4.88 -12.11,5.26 -12.11,5.26 0,0 4.04,5.63 2.72,10.42 -1.31,4.79 -3.66,11.120001 -6.48,14.410001 -1.99,2.33 -5.12,4.36 -8.26,2.11 -3.5,-2.51 -3.28,-7.6 -2.44,-10.7 0.84,-3.100001 0.38,-5.160001 0.38,-5.160001 0,0 -5,5.210001 -7.98,7.790001 -3.14,2.72 -6.05,7.23 -10.14,2.25 -4.58,-5.570001 0.33,-8.820001 2.21,-11.260001 1.88,-2.44 2.58,-3.47 2.58,-3.47 l -6.76,-14.27 z"
     fill="#70534c"
     id="path6" />
  <path
     d="m 17.956588,49.322949 c -2.05,2.05 -7.46,7.58 -0.28,13.77 7.18,6.19 7.39,9.88 9.29,12.48 1.91,2.62 3.45,5.14 4.65,6.41 1.2,1.27 4.29,3.87 5.28,3.59 0.99,-0.28 -1.06,-7.74 -0.56,-8.17 0.5,-0.43 5.98,3.38 6.83,2.82 0.89,-0.6 -0.99,-7.81 -0.56,-8.17 0.42,-0.35 5.33,3.02 5.98,2.46 0.92,-0.77 -2.82,-15.7 -3.17,-16.47 -0.19,-0.41 -5.33,-4.21 -9.71,-7.18 -3.9,-2.64 -5.49,-3.87 -9.15,-4.36 -3.38,-0.45 -7.06,1.27 -8.6,2.82 z"
     fill="#ffeac8"
     id="path7" />
  <path
     d="m 16.966588,72.132949 c 0.42,-1.06 0.92,-2.22 3.66,-4.26 2.75,-2.04 7.07,-5.07 7.18,-6.02 0.11,-0.88 -5.75,-0.31 -7.51,-0.45 -1.76,-0.14 -3.75,-0.4 -4.88,-1.31 -1.01,-0.82 -1.03,-1.6 -1.03,-1.6 0,0 -4.3,2.96 -4.8099998,6.38 -0.56,3.8 0.6999998,6.48 3.2399998,8.31 2.54,1.83 3.6,2.32 4.26,1.97 0.81,-0.42 -0.11,-3.02 -0.11,-3.02 z"
     fill="#ffb903"
     id="path8" />
  <path
     d="m 15.156588,70.892949 c 0.14,-1.02 0.5,-3.12 2.65,-5.23 1.83,-1.8 5,-4.29 5.88,-4.29 h 2.46 c 0,0 -0.7,1.44 -1.97,2.25 -1.27,0.81 -2.87,2.05 -4.89,3.84 -2.11,1.87 -2.29,4.61 -2.29,4.61 0,0 0.77,2.22 0.18,2.96 -0.53,0.63 -2.16,-3.11 -2.02,-4.14 z"
     fill="#ff8e01"
     id="path9" />
  <path
     d="m 22.316588,57.632949 c 0.08,0.66 0.6,1.97 2.43,1.58 1.52,-0.32 2.64,-2.39 2.15,-3.87 -0.4,-1.19 -1.37,-1.44 -2.04,-1.02 -0.67,0.42 -2.72,1.87 -2.54,3.31 z"
     fill="#302f2f"
     id="path10" />
  <path
     d="m 73.256588,107.72295 c -0.22,0.13 -1.83,2.96 -4.79,3.71 -2.96,0.75 -4.13,-0.75 -4.74,-0.75 -0.61,0 -2.7,1.29 -4.62,1.1 -1.5,-0.15 -3.97,-2.28 -3.97,-2.28 l -1.03,1.64 c 0,0 2.39,2.58 5.07,2.72 2.67,0.14 4.36,-1.03 4.36,-1.03 0,0 2.63,1.34 5.4,0.8 3.85,-0.75 5.3,-4.13 5.3,-4.13 0,0 3.19,-0.33 5.3,-1.92 2.11,-1.6 4.01,-5.77 2.6,-6.43 -1.41,-0.66 -2.18,2.86 -3.87,4.22 -1.69,1.36 -4.4,1.98 -5.01,2.35 z"
     fill="#70534c"
     id="path11" />
  <path
     d="m 19.196588,107.85295 c -0.52,-1.12 1.6,-6.65 7.23,-6.46 5.63,0.19 8.21,4.36 7.7,8.49 -0.52,4.13 -3.24,5.44 -3.89,4.97 -0.66,-0.47 -1.36,-3.43 -1.36,-3.43 l -2.86,-3.61 c -0.02,0.01 -5.74,2.34 -6.82,0.04 z"
     fill="#ffb903"
     id="path12" />
  <path
     d="m 40.966588,114.23295 c -0.77,-1.5 0.87,-4.79 3.19,-5.99 2.87,-1.49 4.99,-1.57 8.26,1.07 4.39,3.54 0.94,9.84 -1.01,10.65 -2.71,1.13 -2.04,0.01 -1.99,-1.35 0.05,-1.36 -1.22,-4.83 -1.22,-4.83 z"
     fill="#ffb903"
     id="path13" />
  <path
     d="m 30.226588,108.84295 c 0.4,1.49 0.77,5.91 -0.21,5.84 -0.66,-0.05 -1.53,-2.63 -1.9,-3.61 -0.37,-0.98 -2.75,-2.42 -3.64,-2.46 -0.89,-0.05 -3.97,0.59 -4.06,0 -0.19,-1.16 3.5,-2.91 4.95,-2.86 1.27,0.03 4.43,1.5 4.86,3.09 z"
     fill="#f4821e"
     id="path14" />
  <path
     d="m 40.926588,114.01295 c 0.05,1.07 2.96,0.33 4.13,0.47 1.17,0.14 2.65,0.72 3.31,2.08 0.31,0.64 0.59,3.73 1.24,3.78 1.22,0.09 1.55,-4.11 1.41,-4.49 -0.42,-1.14 -2.06,-3.97 -5.26,-4.28 -1.69,-0.18 -4.86,1.88 -4.83,2.44 z"
     fill="#f4821e"
     id="path15" />
</svg>
