<?xml version="1.0" encoding="UTF-8" standalone="no"?>
<!-- Uploaded to: SVG Repo, www.svgrepo.com, Generator: SVG Repo Mixer Tools -->

<svg
   width="663.56305"
   height="750.0058"
   viewBox="0 0 106.17009 120.00093"
   aria-hidden="true"
   role="img"
   class="iconify iconify--noto"
   preserveAspectRatio="xMidYMid"
   version="1.1"
   id="svg143"
   sodipodi:docname="gorilla-svgrepo-com.svg"
   xmlns:inkscape="http://www.inkscape.org/namespaces/inkscape"
   xmlns:sodipodi="http://sodipodi.sourceforge.net/DTD/sodipodi-0.dtd"
   xmlns="http://www.w3.org/2000/svg"
   xmlns:svg="http://www.w3.org/2000/svg">
  <defs
     id="defs143" />
  <sodipodi:namedview
     id="namedview143"
     pagecolor="#ffffff"
     bordercolor="#000000"
     borderopacity="0.25"
     inkscape:showpageshadow="2"
     inkscape:pageopacity="0.0"
     inkscape:pagecheckerboard="0"
     inkscape:deskcolor="#d1d1d1" />
  <linearGradient
     id="IconifyId17ecdb2904d178eab8956"
     gradientUnits="userSpaceOnUse"
     x1="74.723999"
     y1="227.577"
     x2="73.440002"
     y2="253.39301"
     gradientTransform="translate(-12.914417,-4)">
    <stop
       offset="0"
       stop-color="#484d51"
       id="stop1" />
    <stop
       offset=".355"
       stop-color="#424548"
       id="stop2" />
    <stop
       offset=".854"
       stop-color="#343434"
       id="stop3" />
  </linearGradient>
  <linearGradient
     id="IconifyId17ecdb2904d178eab8957"
     gradientUnits="userSpaceOnUse"
     x1="28.532"
     y1="195.246"
     x2="25.107"
     y2="248.717"
     gradientTransform="translate(-12.914417,-4)">
    <stop
       offset="0"
       stop-color="#484d51"
       id="stop4" />
    <stop
       offset=".355"
       stop-color="#424548"
       id="stop5" />
    <stop
       offset=".854"
       stop-color="#343434"
       id="stop6" />
  </linearGradient>
  <linearGradient
     id="IconifyId17ecdb2904d178eab8958"
     gradientUnits="userSpaceOnUse"
     x1="70.005997"
     y1="143.082"
     x2="69.626999"
     y2="161.28799"
     gradientTransform="translate(-12.914417,-4)">
    <stop
       offset=".159"
       stop-color="#a9a9a9"
       id="stop7" />
    <stop
       offset=".275"
       stop-color="#929394"
       id="stop8" />
    <stop
       offset=".427"
       stop-color="#7b7e7f"
       id="stop9" />
    <stop
       offset=".59"
       stop-color="#6a6e71"
       id="stop10" />
    <stop
       offset=".77"
       stop-color="#606568"
       id="stop11" />
    <stop
       offset="1"
       stop-color="#5d6265"
       id="stop12" />
  </linearGradient>
  <linearGradient
     id="IconifyId17ecdb2904d178eab8959"
     gradientUnits="userSpaceOnUse"
     x1="95.738998"
     y1="195.724"
     x2="100.198"
     y2="248.521"
     gradientTransform="translate(-12.914417,-4)">
    <stop
       offset=".159"
       stop-color="#a9a9a9"
       id="stop17" />
    <stop
       offset=".327"
       stop-color="#a2a3a3"
       id="stop18" />
    <stop
       offset=".569"
       stop-color="#8f9192"
       id="stop19" />
    <stop
       offset=".854"
       stop-color="#707476"
       id="stop20" />
    <stop
       offset="1"
       stop-color="#5d6265"
       id="stop21" />
  </linearGradient>
  <radialGradient
     id="IconifyId17ecdb2904d178eab8960"
     cx="56.603001"
     cy="201.509"
     r="29.157"
     gradientTransform="matrix(0.9702,-0.2421,0.5524,2.2138,-122.55042,-234.883)"
     gradientUnits="userSpaceOnUse">
    <stop
       offset=".29"
       stop-color="#959ea1"
       stop-opacity="0"
       id="stop23" />
    <stop
       offset=".89"
       stop-color="#959ea1"
       id="stop24" />
  </radialGradient>
  <linearGradient
     id="IconifyId17ecdb2904d178eab8961"
     gradientUnits="userSpaceOnUse"
     x1="41.335999"
     y1="212.33299"
     x2="47.294998"
     y2="197.98199"
     gradientTransform="translate(-12.914417,-4)">
    <stop
       offset="0"
       stop-color="#484d51"
       id="stop25" />
    <stop
       offset=".416"
       stop-color="#424548"
       id="stop26" />
    <stop
       offset="1"
       stop-color="#343434"
       id="stop27" />
  </linearGradient>
  <linearGradient
     id="IconifyId17ecdb2904d178eab8962"
     gradientUnits="userSpaceOnUse"
     x1="56.594002"
     y1="164.66299"
     x2="51.666"
     y2="176.37801"
     gradientTransform="translate(-12.914417,-4)">
    <stop
       offset="0"
       stop-color="#484d51"
       id="stop28" />
    <stop
       offset=".416"
       stop-color="#424548"
       id="stop29" />
    <stop
       offset="1"
       stop-color="#343434"
       id="stop30" />
  </linearGradient>
  <g
     id="g143"
     transform="translate(-12.914417,-4)">
    <linearGradient
       id="IconifyId17ecdb2904d178eab8981"
       gradientUnits="userSpaceOnUse"
       x1="75.294998"
       y1="116.281"
       x2="75.294998"
       y2="89.424004">
      <stop
         offset="0"
         stop-color="#484d51"
         id="stop115" />
      <stop
         offset=".355"
         stop-color="#424548"
         id="stop116" />
      <stop
         offset=".854"
         stop-color="#343434"
         id="stop117" />
    </linearGradient>
    <path
       d="m 85.15,82.83 -20.16,5.9 c 0,0 2,11.13 2.76,15.12 0.76,3.99 1.14,7.51 0.76,8.75 -0.38,1.24 -3.99,3.71 -3.33,6.09 0.67,2.38 6.28,2.95 12.17,2.19 5.9,-0.76 6.94,-2.85 7.04,-5.99 0.1,-3.14 -2.09,-8.84 -1.81,-10.36 0.29,-1.52 2.66,-4.94 2.95,-8.65 0.29,-3.71 -0.38,-13.05 -0.38,-13.05 z"
       fill="url(#IconifyId17ecdb2904d178eab8981)"
       id="path117"
       style="fill:url(#IconifyId17ecdb2904d178eab8981)" />
    <linearGradient
       id="IconifyId17ecdb2904d178eab8982"
       gradientUnits="userSpaceOnUse"
       x1="27.496"
       y1="118.193"
       x2="27.496"
       y2="54.952999">
      <stop
         offset="0"
         stop-color="#484d51"
         id="stop118" />
      <stop
         offset=".355"
         stop-color="#424548"
         id="stop119" />
      <stop
         offset=".854"
         stop-color="#343434"
         id="stop120" />
    </linearGradient>
    <path
       d="M 41.31,61.38 22.63,36.57 c 0,0 -7.56,3 -7.99,13.83 -0.43,10.83 2.42,16.97 2.14,21.39 -0.29,4.42 -4.14,8.7 -3.85,15.69 0.29,6.99 4.14,17.26 4.14,18.97 0,1.71 -0.57,11.32 1.64,13.36 2.01,1.86 6.63,2.33 10.63,2.04 4,-0.29 8.42,-1.14 8.42,-4.28 0,-3.14 -5.27,-2.74 -5.71,-4.42 -0.21,-0.83 0.61,-1.22 1.09,-3.19 0.28,-1.11 -0.05,-2.76 -0.05,-2.76 0,0 7.16,-9.89 8.65,-16.81 1.5,-6.92 -2.5,-13.62 -2.78,-15.83 -0.28,-2.19 2.35,-13.18 2.35,-13.18 z"
       fill="url(#IconifyId17ecdb2904d178eab8982)"
       id="path120"
       style="fill:url(#IconifyId17ecdb2904d178eab8982)" />
    <linearGradient
       id="IconifyId17ecdb2904d178eab8983"
       gradientUnits="userSpaceOnUse"
       x1="71.005997"
       y1="-1.476"
       x2="70.626999"
       y2="16.73">
      <stop
         offset=".159"
         stop-color="#a9a9a9"
         id="stop121" />
      <stop
         offset=".275"
         stop-color="#929394"
         id="stop122" />
      <stop
         offset=".427"
         stop-color="#7b7e7f"
         id="stop123" />
      <stop
         offset=".59"
         stop-color="#6a6e71"
         id="stop124" />
      <stop
         offset=".77"
         stop-color="#606568"
         id="stop125" />
      <stop
         offset="1"
         stop-color="#5d6265"
         id="stop126" />
    </linearGradient>
    <path
       d="m 29.62,53.71 c -1.01,-1.59 -4.99,-1.43 -7.84,-5.92 -2.85,-4.49 -2.42,-9.34 -0.93,-12.05 1.24,-2.23 2.78,-3 2.78,-3 L 23.7,30.6 c 0,0 -2.35,-1.43 -2.57,-4.64 -0.22,-3.21 0.86,-4.71 3.85,-7.13 2.99,-2.42 5.71,-4.14 5.71,-4.14 0,0 -0.29,-2.92 0.5,-4.78 C 31.97,8.06 35.54,4 41.81,4 c 6.27,0 11.16,3.85 14.94,7.84 3.78,3.99 4.14,7.56 4.06,8.49 -0.07,0.93 -3.17,5.56 -3.17,5.56 l 7.35,9.35 16.3,9.44 12.23,16.08 14.83,12.34 4.17,19.25 c 0,0 4.24,4.49 5.6,10.7 1.35,6.2 1.43,15.26 -0.71,16.76 -2.14,1.5 -6.85,4.21 -15.4,3.85 -6.72,-0.28 -6.56,-1.78 -6.42,-3 0.18,-1.5 4.49,-5.63 4.99,-6.28 0.5,-0.65 0.36,-7.27 -1.21,-8.2 -1.57,-0.93 -4.49,-1.35 -8.06,-5.71 -3.57,-4.35 -4.49,-10.48 -4.49,-10.48 0,0 -3.49,1.27 -7.7,1.35 C 73.27,91.46 65,88.7 65,88.7 c 0,0 -17.4,-7.61 -21.47,-12.91 -2.95,-3.84 -4.28,-6.13 -4.28,-6.13 0,0 -3.85,-1.78 -6.63,-7.35 -2.79,-5.54 -2,-7.03 -3,-8.6 z"
       fill="url(#IconifyId17ecdb2904d178eab8983)"
       id="path126"
       style="fill:url(#IconifyId17ecdb2904d178eab8983)" />
    <path
       d="m 44.24,26.82 c 0.21,-1.57 1,-2.71 -0.93,-3.85 -1.93,-1.14 -8.91,-0.78 -11.84,-0.64 -2.92,0.14 -8.49,0 -7.99,2.35 0.12,0.59 0.23,1.68 1.07,2.46 2.52,2.34 7.42,2.67 7.42,2.67 z"
       fill="#44494e"
       id="path127" />
    <path
       d="m 31.54,27.75 c 0.93,0.18 1.93,-4.28 7.99,-4.06 6.06,0.21 7.38,3.85 7.38,3.85 0,0 -4.89,6.99 -6.81,11.55 -1.93,4.56 -3.78,10.27 -4.85,10.63 -1.07,0.36 -6.61,-0.12 -10.2,-3 -2.89,-2.32 -3.99,-5.24 -3.42,-8.63 0.29,-1.74 1.32,-2.89 1.75,-3.35 0.34,-0.37 2.14,1.93 3.21,1.5 1.07,-0.43 0.93,-1.11 0.53,-1.57 -0.39,-0.46 -2.21,-1.68 -2.21,-1.68 0,0 0.86,-1.32 2.1,-0.75 1.06,0.48 2.14,2.1 2.14,2.1 0,0 1.96,-2.06 2.82,-2.21 1.39,-0.25 2.35,1.11 2.35,1.11 0,0 -2.96,0.96 -3.32,1.82 -0.36,0.86 0.29,1.96 2.35,1.21 2.07,-0.75 2.96,-1.18 2.96,-1.18 0,0 0.11,-3.24 -3.03,-4.1 -2.21,-0.61 -4.06,1.6 -4.06,1.6 0,0 -1.35,-1.35 -2.1,-1.57 -0.75,-0.21 -1.39,-0.07 -1.39,-0.07 0,0 -1.03,-2.18 -1.39,-3.21 -0.36,-1.03 -0.78,-2.57 -0.78,-2.57 0,0 2.21,-0.89 4.28,-0.07 2.06,0.83 2.78,2.47 3.7,2.65 z"
       fill="#aeaeaf"
       id="path128" />
    <path
       d="m 36.71,27.57 c -0.91,0.88 -1.11,2.46 -0.18,3.17 0.93,0.71 2.28,0.43 3.14,-0.53 0.86,-0.96 1,-2.46 0.25,-3.03 -0.75,-0.57 -2.1,-0.68 -3.21,0.39 z"
       fill="#000000"
       id="path129" />
    <path
       d="m 29.01,30.21 c -0.89,0.8 -2.1,0.04 -2.53,-0.53 -0.62,-0.83 -0.82,-2.1 -0.46,-2.6 0.36,-0.5 1.64,-0.71 2.53,0.11 0.89,0.81 1.21,2.34 0.46,3.02 z"
       fill="#000000"
       id="path130" />
    <path
       d="m 28.55,41.08 c 3.46,0.11 4.81,-0.04 5.74,-0.11 0.41,-0.03 1.28,-0.57 2.32,0.04 1.04,0.61 0.79,2.21 -0.61,2.25 -1.39,0.04 -1.68,-0.21 -1.68,-0.21 0,0 -2.08,0.45 -5.81,0.14 -3.46,-0.29 -4.71,-1.07 -4.71,-1.07 0,0 -1.6,0.66 -1.93,-0.53 -0.31,-1.17 0.74,-1.94 1.68,-1.53 0.92,0.38 1.96,0.93 5,1.02 z"
       fill="#000000"
       id="path131" />
    <linearGradient
       id="IconifyId17ecdb2904d178eab8984"
       gradientUnits="userSpaceOnUse"
       x1="96.738998"
       y1="51.166"
       x2="101.198"
       y2="103.963">
      <stop
         offset=".159"
         stop-color="#a9a9a9"
         id="stop131" />
      <stop
         offset=".327"
         stop-color="#a2a3a3"
         id="stop132" />
      <stop
         offset=".569"
         stop-color="#8f9192"
         id="stop133" />
      <stop
         offset=".854"
         stop-color="#707476"
         id="stop134" />
      <stop
         offset="1"
         stop-color="#5d6265"
         id="stop135" />
    </linearGradient>
    <path
       d="m 85.39,70.25 c 1.27,2.62 4.42,5.56 6.63,4.99 2.21,-0.57 2.57,-1.57 4.28,-2.42 1.71,-0.86 3.28,-0.71 3.28,-0.71 0,0 -2.71,3.28 -3.35,6.63 -0.64,3.35 -2.07,12.48 4.14,16.54 6.2,4.06 12.19,-2.85 12.19,-2.85 0,0 1.71,-11.13 0.5,-18.83 -1.21,-7.7 -5.28,-14.77 -8.91,-16.9 -2.42,-1.43 -3.71,-1 -6.92,-2.07 -2.65,-0.88 -6.7,-2.78 -9.56,-4.85 -2.85,-2.07 -5.92,-4.42 -5.92,-4.42 0.11,-0.58 2.99,7.8 2.85,13.05 -0.09,3.43 -0.43,9.35 0.79,11.84 z"
       fill="url(#IconifyId17ecdb2904d178eab8984)"
       id="path135"
       style="fill:url(#IconifyId17ecdb2904d178eab8984)" />
    <path
       d="m 82.28,45.88 c 0,0 1.42,9.03 0.9,15.38 -0.54,6.69 -4.7,10.85 -4.88,12.48 -0.3,2.7 -1.81,16.64 -4.7,17.37 -4.01,1 -12.3,-24.24 -12.3,-24.24 z"
       fill="#44494e"
       id="path136" />
    <path
       d="m 55.77,28.91 c 0,0 1.32,-0.5 2.73,-1.2 1.14,-0.57 2,-1.75 2,-1.75 0,0 6.39,-1.14 12.77,4.66 6.37,5.8 10.17,12.93 8.65,24.15 -1.52,11.22 -6.18,17.88 -6.18,17.88 0,0 0.57,9.32 -1.33,15.78 -1.9,6.47 -9.7,19.87 -9.98,23.39 -0.28,3.52 4.02,4.24 5.21,7.24 1.05,2.65 -0.86,4.79 -7.13,4.89 -6.27,0.1 -12.84,0.33 -13.12,-2.5 -0.48,-4.78 2.97,-5.63 2.78,-11.43 -0.19,-5.8 -4.28,-11.89 -4.85,-21.01 -0.57,-9.13 1.24,-11.89 1.24,-11.89 0,0 -0.57,-12.84 1.14,-21.39 1.71,-8.55 7.89,-15.31 7.61,-19.59 C 57,31.86 55.77,28.91 55.77,28.91 Z"
       fill="#5d6265"
       id="path137" />
    <linearGradient
       id="IconifyId17ecdb2904d178eab8985"
       gradientUnits="userSpaceOnUse"
       x1="42.429001"
       y1="67.628998"
       x2="49.026001"
       y2="51.743">
      <stop
         offset="0"
         stop-color="#484d51"
         id="stop137" />
      <stop
         offset=".416"
         stop-color="#424548"
         id="stop138" />
      <stop
         offset="1"
         stop-color="#343434"
         id="stop139" />
    </linearGradient>
    <path
       d="m 54.11,46.5 c 0.02,-0.06 0.04,-0.12 0.06,-0.17 0.27,-0.77 0.56,-1.58 0.42,-2.38 -0.03,-0.2 -0.11,-0.41 -0.29,-0.51 -0.19,-0.1 -0.43,-0.02 -0.62,0.09 -1.17,0.68 -1.54,2.23 -2.3,3.27 -1.09,1.48 -2.33,2.94 -3.91,3.91 -2.68,1.66 -6.22,2.46 -9.3,2.93 -0.29,0.04 -0.61,0.1 -0.79,0.33 -1.07,1.3 5.11,2.5 10.39,1.56 -0.92,2.82 1.1,6.52 2.07,9.31 0.65,1.86 0.47,3.89 0.18,5.8 -0.06,0.4 -0.81,3.11 0.09,3.08 0.35,-0.01 0.81,-1.52 0.96,-1.79 0.54,-0.98 1.14,-1.87 1.54,-2.92 0.76,-1.97 1.09,-4.11 0.91,-6.22 -0.18,-2.11 -0.84,-4.15 -1.05,-6.26 -0.34,-3.39 0.52,-6.8 1.64,-10.03 z"
       fill="url(#IconifyId17ecdb2904d178eab8985)"
       id="path139"
       style="fill:url(#IconifyId17ecdb2904d178eab8985)" />
    <linearGradient
       id="IconifyId17ecdb2904d178eab8986"
       gradientUnits="userSpaceOnUse"
       x1="57.460999"
       y1="20.641001"
       x2="51.931"
       y2="33.787998">
      <stop
         offset="0"
         stop-color="#484d51"
         id="stop140" />
      <stop
         offset=".416"
         stop-color="#424548"
         id="stop141" />
      <stop
         offset="1"
         stop-color="#343434"
         id="stop142" />
    </linearGradient>
    <path
       d="m 57.38,30.56 c 0.36,-0.93 0.69,-1.58 1.09,-2.05 0.78,-1.32 3.05,-2.41 3.05,-6 0,-2.97 -1.74,-6.31 -1.74,-6.31 0,0 -0.78,5.72 -2.35,7.06 -1.59,1.35 -3.47,1.81 -5.51,1.88 -4.13,0.13 -1.57,3.05 0.1,5.08 1.81,2.19 2.89,4.74 3.56,7.48 1.07,-2.14 0.83,-4.88 1.8,-7.14 z"
       fill="url(#IconifyId17ecdb2904d178eab8986)"
       id="path142"
       style="fill:url(#IconifyId17ecdb2904d178eab8986)" />
    <path
       d="m 21.32,115.19 c -0.43,-3.54 1.83,-6.21 0.39,-9.74 -0.8,-1.95 -2.1,-3.65 -3.05,-5.53 C 16.1,94.81 16.9,89.34 18.57,84.1 c 1.08,-3.38 2.6,-6.96 1.53,-10.33 0.75,1.57 1.51,3.13 2.26,4.7 1.06,-5.52 0.6,-11.32 -1.31,-16.61 -1.32,-3.66 -3.32,-7.07 -4.28,-10.84 -0.63,-2.5 -0.53,-6.95 0.77,-10.01 -1.47,2.13 -2.73,5.15 -2.9,9.39 -0.43,10.84 2.42,16.97 2.14,21.39 -0.29,4.42 -4.14,8.7 -3.85,15.69 0.29,6.99 4.14,17.26 4.14,18.97 0,1.71 -0.57,11.32 1.64,13.36 1.51,1.4 4.49,2.01 7.57,2.1 -2.08,-1.12 -4.68,-4.36 -4.96,-6.72 z"
       fill="#5d6265"
       id="path143" />
  </g>
</svg>
