<?xml version="1.0" encoding="UTF-8" standalone="no"?>
<!-- Uploaded to: SVG Repo, www.svgrepo.com, Generator: SVG Repo Mixer Tools -->

<svg
   width="734.4328"
   height="738.61334"
   viewBox="0 0 117.50925 118.17813"
   aria-hidden="true"
   role="img"
   class="iconify iconify--noto"
   preserveAspectRatio="xMidYMid"
   version="1.1"
   id="svg13"
   sodipodi:docname="sauropod-svgrepo-com.svg"
   xmlns:inkscape="http://www.inkscape.org/namespaces/inkscape"
   xmlns:sodipodi="http://sodipodi.sourceforge.net/DTD/sodipodi-0.dtd"
   xmlns="http://www.w3.org/2000/svg"
   xmlns:svg="http://www.w3.org/2000/svg">
  <defs
     id="defs13" />
  <sodipodi:namedview
     id="namedview13"
     pagecolor="#ffffff"
     bordercolor="#000000"
     borderopacity="0.25"
     inkscape:showpageshadow="2"
     inkscape:pageopacity="0.0"
     inkscape:pagecheckerboard="0"
     inkscape:deskcolor="#d1d1d1" />
  <path
     d="m 29.317054,74.544742 -5.49,3.1 c 0,0 0.56,13.09 -0.99,18.16 -1.55,5.069998 -3.8,8.729998 -4.79,10.139998 -0.99,1.41 -3.8,2.5 -2.67,6.05 0.67,2.1 3.8,2.82 8.87,2.67 5.07,-0.14 14.36,-6.9 14.36,-6.9 l 2.96,-14.639998 17.6,6.76 c 0,0 -0.42,2.249998 -0.7,3.099998 -0.28,0.84 -1.97,3.24 -1.83,4.5 0.14,1.27 1.8,2.01 9.71,1.83 7.78,-0.18 9.15,-9.569998 9.15,-9.569998 l -6.48,-14.22 z"
     fill="#04841f"
     id="path1" />
  <path
     d="m 14.627054,6.6847424 c 1.84,-0.77 3.33,-7.64999997 10.42,-6.56999997 7.23,1.09999997 6.01,7.26999997 6.76,8.01999997 0.75,0.75 6.39,2.7699996 6.21,7.1299996 -0.19,4.34 -1.79,8.21 -6.68,9.06 -4.89,0.85 -10.42,-0.94 -12.86,-0.28 -2.44,0.66 -4.69,3.33 -4.22,7.6 0.27,2.43 2.84,15.4 11.17,22.24 9.48,7.79 14.83,7.41 26.84,7.98 12.01,0.56 19.85,2.49 26.94,8.82 5.05,4.51 9.21,17.15 22.149996,14.55 11.92,-2.39 5.82,-14.73 -2.159996,-16.52 -4.6,-1.03 -9.01,-0.94 -9.1,-2.63 -0.09,-1.69 3.34,-3.41 9.34,-3.14 7.319996,0.33 18.249996,6.01 18.069996,16.94 -0.18,10.63 -10.23,14.83 -10.23,14.83 l -12.289996,3.47 -12.68,2.109998 c 0,0 0.18,2.12 1.58,4.75 1.4,2.63 3.1,7.88 1.65,10.63 -0.94,1.78 -3.27,2.43 -9.68,2.5 -5.22,0.06 -9.94,-0.67 -10.1,-2.64 -0.19,-2.35 0.83,-3.18 2.25,-4.15 1.5,-1.03 1.28,-1.61 1.48,-3.17 0.2,-1.56 -0.1,-4.44 -0.53,-5.81 -0.42,-1.34 -1.65,-3.309998 -1.65,-3.309998 l -22.63,0.21 c 0,0 -0.38,0.839998 -0.56,4.499998 -0.19,3.66 0.55,8.77 -0.09,10.23 -0.89,2.02 -3.57,3.94 -10.14,4.04 -6.57,0.09 -10.61,-1.5 -10.32,-5.07 0.28,-3.57 3,-4.13 3.94,-5.73 0.94,-1.6 3.24,-7.27 3.47,-9.709998 0.2,-2.07 -0.19,-4.93 -0.09,-6.52 0.1,-1.59 -3.49,-11.34 -3.49,-11.34 0,0 -7.51,-9.48 -10.79,-12.86 -3.07,-3.16 -9.1,-10.7 -9.1,-10.7 0,0 -8.44999998,-13.89 -7.41999998,-27.03 C 1.117054,15.974742 7.877054,9.5047424 14.627054,6.6847424 Z"
     fill="#02ab47"
     id="path2" />
  <path
     d="m 6.657054,27.454742 c 3.07,-7.3 8.66,-9.43 11.26,-10.28 2.6,-0.85 7.88,-1.55 10.14,-1.9 2.26,-0.35 9.92,-0.84 9.92,-0.84 0,0 0.24,0.59 0.14,1.79 -0.11,1.34 -0.56,2.01 -0.56,2.01 0,0 -8.45,1.2 -8.45,2.75 0,1.55 2.46,1.41 3.45,1.41 0.99,0 2.96,-0.07 2.96,-0.07 0,0 -0.46,1.34 -2.99,2.04 -2.51,0.7 -6.3,0.63 -9.47,0.77 -3.17,0.14 -5.21,0.7 -6.12,1.9 -0.92,1.2 -4.36,3.8 -2.46,17.46 1.9,13.66 11.3,28.88 13.55,33.08 0.81,1.51 3.55,4.96 3.7,6.23 0.06,0.58 -0.59,1.91 -0.81,3.73 -0.26,2.17 -0.11,4.82 -0.11,4.82 0,0 -3.04,-3.97 -4.36,-6.41 -2.11,-3.87 -2.6,-7 -2.6,-7 0,0 -11.19,-10.8 -16.26,-21.72 -5.07,-10.92 -3.89,-22.73 -0.93,-29.77 z"
     fill="#bdce46"
     id="path3" />
  <path
     d="m 29.527054,13.584742 c 0.03,1.61 -1.67,2.84 -3.55,2.39 -1.2,-0.28 -1.93,-1.29 -1.69,-2.89 0.24,-1.59 1.11,-2.65 2.57,-2.82 1.51,-0.16 2.64,1.17 2.67,3.32 z"
     fill="#303030"
     id="path4" />
  <path
     d="m 44.207054,102.06474 c 0,0 -0.21,-3.309998 1.06,-4.959998 0.65,-0.85 1.13,-1.34 1.13,-1.34 0,0 6.86,0.51 9.96,0.6 3.8,0.11 10.84,-0.14 10.84,-0.14 l 0.6,2.57 c 0.42,1.829998 1.16,3.659998 1.16,3.659998 0,0 -6.12,0.66 -12.53,0.56 -7.01,-0.1 -12.22,-0.95 -12.22,-0.95 z"
     fill="#bdce46"
     id="path5" />
  <path
     d="m 81.447054,96.964742 c 0,0 0.32,0.81 0.46,1.62 0.13,0.72 0.32,1.789998 0.32,1.789998 0,0 11.09,0.28 19.319996,-1.969998 8.24,-2.25 12.92,-8.35 13.87,-10.21 0.99,-1.94 1.57,-3.84 0.53,-2.43 -2.04,2.78 -5.53,7.5 -14.39,9.75 -8.859996,2.25 -20.109996,1.45 -20.109996,1.45 z"
     fill="#bdce46"
     id="path6" />
  <circle
     transform="rotate(-81.749)"
     cx="-65.577713"
     cy="54.808239"
     fill="#7cdb8a"
     r="2.3299999"
     id="circle6" />
  <ellipse
     transform="rotate(-77.45)"
     cx="-57.394775"
     cy="69.015106"
     rx="2.01"
     ry="1.86"
     fill="#7cdb8a"
     id="ellipse6" />
  <ellipse
     cx="66.87706"
     cy="77.534744"
     rx="2.22"
     ry="2.29"
     fill="#7cdb8a"
     id="ellipse7" />
  <ellipse
     cx="63.517056"
     cy="70.034744"
     rx="1.6799999"
     ry="1.76"
     fill="#7cdb8a"
     id="ellipse8" />
  <ellipse
     cx="56.707054"
     cy="78.304741"
     rx="1.76"
     ry="1.87"
     fill="#7cdb8a"
     id="ellipse9" />
  <ellipse
     cx="74.427055"
     cy="72.134743"
     rx="1.64"
     ry="1.84"
     fill="#7cdb8a"
     id="ellipse10" />
  <ellipse
     transform="rotate(-4.537)"
     cx="70.177879"
     cy="87.10733"
     rx="1.48"
     ry="1.45"
     fill="#7cdb8a"
     id="ellipse11" />
  <ellipse
     transform="rotate(-77.814)"
     cx="-55.599052"
     cy="48.985039"
     rx="1.76"
     ry="1.55"
     fill="#7cdb8a"
     id="ellipse12" />
  <ellipse
     transform="rotate(-77.954)"
     cx="-52.997189"
     cy="61.079239"
     rx="1.62"
     ry="1.48"
     fill="#7cdb8a"
     id="ellipse13" />
</svg>
