<?xml version="1.0" encoding="UTF-8" standalone="no"?>
<!-- Uploaded to: SVG Repo, www.svgrepo.com, Generator: SVG Repo Mixer Tools -->

<svg
   width="747.97272"
   height="644.46906"
   viewBox="0 0 119.67563 103.11505"
   aria-hidden="true"
   role="img"
   class="iconify iconify--noto"
   preserveAspectRatio="xMidYMid"
   version="1.1"
   id="svg19"
   sodipodi:docname="t-rex-svgrepo-com.svg"
   xmlns:inkscape="http://www.inkscape.org/namespaces/inkscape"
   xmlns:sodipodi="http://sodipodi.sourceforge.net/DTD/sodipodi-0.dtd"
   xmlns="http://www.w3.org/2000/svg"
   xmlns:svg="http://www.w3.org/2000/svg">
  <defs
     id="defs19" />
  <sodipodi:namedview
     id="namedview19"
     pagecolor="#ffffff"
     bordercolor="#000000"
     borderopacity="0.25"
     inkscape:showpageshadow="2"
     inkscape:pageopacity="0.0"
     inkscape:pagecheckerboard="0"
     inkscape:deskcolor="#d1d1d1" />
  <path
     d="m 1.0754051,12.978815 8.45,1.27 7.2699999,5.23 c 0,0 -1.71,2.75 -3.78,2.09 -2.18,-0.69 -1.83,-3.59 -1.83,-3.59 0,0 -1.4799999,2.37 -2.9799999,1.71 -1.9,-0.83 -1.78,-3.47 -1.78,-3.47 0,0 -1.42,1.8 -3.1,1.22 -2.72,-0.94 -2.25,-4.46 -2.25,-4.46 z"
     fill="#e8dd9e"
     id="path1" />
  <path
     d="M 30.165405,12.458815 7.9254051,7.5788146 l -5.82,0.75 c 0,0 -2.16,3.4700004 -1.97,4.1300004 0.19,0.66 0.56,1.31 1.78,1.69 1.22,0.38 5.91,1.31 7.7,2.25 1.7799999,0.94 7.1299999,4.97 7.1299999,4.97 0,0 -1.64,2.77 -3.97,4.97 -1.11,1.05 -7.1099999,5.07 -7.1099999,5.07 l 8.9199999,1.88 15.86,-9.48 z"
     fill="#ff631a"
     id="path2" />
  <path
     d="m 39.085405,38.368815 c 0,0 -5.26,-1.69 -7.41,2.82 -2.16,4.5 0.39,6.01 -1.78,8.35 -1.22,1.31 -2.44,-0.47 -5.16,1.31 -2.04,1.33 -3.1,4.41 -2.72,7.04 0.38,2.63 1.88,6.01 3.57,5.73 1.69,-0.28 1.13,-3.94 1.13,-3.94 0,0 1.29,3.47 2.91,3.47 2.35,0 1.03,-5.35 1.69,-5.73 0.66,-0.38 4.06,0.58 6.38,-0.66 2.82,-1.5 5.26,-10.89 5.26,-10.89 z"
     fill="#596514"
     id="path3" />
  <path
     d="m 55.885405,34.708815 c 0,0 -16.87,18.75 -17.27,27.59 -0.34,7.6 3.38,12.01 7.23,14.27 3.85,2.25 8.54,3.47 8.54,8.07 0,4.6 -5.35,5.63 -7.6,5.82 -2.25,0.19 -5.54,0.73 -8.28,2.18 -2.76,1.46 -4.2,5.18 -2.7,6.08 0.94,0.56 4.79,-1.67 4.79,-1.67 0,0 -1.33,3.329995 0.38,3.639995 2.86,0.52 7.79,-2.529995 7.79,-2.529995 0,0 -1.71,2.249995 -0.49,2.769995 1.94,0.82 4.53,-0.7 5.65,-1.359995 1.13,-0.66 4.04,-2.91 5.82,-3 1.78,-0.09 5.35,0.47 5.44,-0.38 0.09,-0.84 -2.82,-4.08 -2.91,-7.09 -0.09,-3 2.06,-6.24 2.06,-9.15 0,-2.91 -6.48,-4.79 -6.1,-9.85 0.14,-1.95 12.12,-17.04 11.92,-23.56 -0.33,-10.43 -14.27,-11.83 -14.27,-11.83 z"
     fill="#596514"
     id="path4" />
  <path
     d="m 98.395405,32.168815 c 0,0 8.070005,-3.19 7.700005,-5.91 -0.37,-2.72 -7.320005,-4.13 -9.200005,-4.32 -1.88,-0.19 -5.35,-1.03 -7.13,-2.82 -1.78,-1.78 -2.44,-4.13 -1.41,-4.6 1.03,-0.47 5.35,1.6 5.35,1.6 0,0 11.360005,0.47 12.950005,0.75 1.59,0.28 12.11,5.82 8.35,11.07 -3.75,5.27 -16.610005,4.23 -16.610005,4.23 z"
     fill="#596514"
     id="path5" />
  <path
     d="m 3.6254051,9.2688146 c 0,0 0.99,4.2200004 3.03,4.3600004 2.04,0.14 2.53,-3.8000004 2.53,-3.8000004 l 1.1299999,-0.99 c 0,0 -1.4099999,5.0000004 1.27,6.0500004 2.67,1.06 2.18,-4.9300004 2.18,-4.9300004 l 1.06,0.9900004 c 0,0 0.07,6.9 2.53,6.76 2.46,-0.14 2.46,-5.07 2.46,-5.07 l -6.97,-7.0400004 z"
     fill="#ffffff"
     id="path6" />
  <path
     d="m 43.775405,64.128815 c 0,0 -0.63,4.22 1.27,4.65 1.9,0.43 1.69,-3.66 1.69,-3.66 z"
     fill="#e3d9a8"
     id="path7" />
  <path
     d="m 49.035405,66.848815 c 0,0 0.28,4.08 2.11,3.73 1.83,-0.35 0.63,-5.07 0.63,-5.07 z"
     fill="#e3d9a8"
     id="path8" />
  <path
     d="m 22.705405,27.788815 c 0,0 -0.19,-4.76 -2.32,-4.29 -1.17,0.26 -1.9,1.83 -2.04,3.94 -0.07,0.98 -0.49,3.24 -0.49,3.24 h -0.84 c 0,0 -0.35,-4.15 -2.32,-3.73 -1.97,0.42 -2.11,5.07 -2.11,5.07 l 5.21,1.06 z"
     fill="#ffffff"
     id="path9" />
  <path
     d="m 10.925405,30.998815 c 0,0 -0.14,-4.72 -2.0399999,-4.43 -1.9,0.29 -1.9,3.24 -1.9,3.24 0,0 -1.13,-2.26 -2.39,-1.77 -1.26,0.49 -1.03,2.32 -0.12,4.15 0.87,1.76 6.4499999,-1.19 6.4499999,-1.19 z"
     fill="#e3e0aa"
     id="path10" />
  <path
     d="m 9.1854051,32.428815 c 0,0 0.42,-4.65 -0.49,-4.79 -0.92,-0.14 -0.92,1.27 -0.92,1.97 0,0.7 0.14,3.03 0.14,3.03 z"
     fill="#ffffff"
     id="path11" />
  <path
     d="m 34.855405,5.6388146 c 0,0 -0.73,-3.94 -3.68,-4.85999998 -5.44,-1.69 -8.7,2.97999998 -8.7,2.97999998 0,0 -4.11,-0.23 -6.66,-1.22 -2.55,-0.99 -7.1099999,-3.50999998 -10.4899999,-2.13999998 -2.77,1.12999998 -4.15,3.81999998 -4.9,6.91999998 -0.75,3.1000004 -0.28,5.1600004 -0.28,5.1600004 0,0 3.19,-3.1000004 6.85,-2.8200004 3.6599999,0.28 9.2899999,3.1900004 10.7899999,3.9400004 1.5,0.75 9.95,3.19 9.95,3.19 0,0 -1.69,5.35 -2.91,6.85 -1.22,1.5 -3.85,3.57 -7.98,5.35 -4.13,1.78 -12.1999999,3.1 -12.1999999,3.1 0,0 0.56,6.57 2.82,7.6 2.25,1.03 6.2899999,1.88 9.2899999,0.56 3,-1.32 13.8,-2.25 13.8,-2.25 0,0 1.69,0.75 3.1,2.35 1.41,1.6 3.28,3.57 4.13,5.91 0.84,2.35 1.69,4.97 2.44,6.48 0.75,1.5 2.53,5.16 2.53,5.16 0,0 1.41,-2.82 3.38,-3.47 1.97,-0.66 4.6,-0.19 4.6,-0.19 0,0 -0.31,-10.4 1.97,-14.08 2.25,-3.64 4.97,-4.41 8.07,-4.22 3.1,0.19 3.66,2.16 1.22,2.16 -2.44,0 -6.08,0.87 -7.39,3.78 -1.31,2.91 -1.53,4.86 -1.9,7.58 -0.38,2.72 -0.38,6.1 -0.38,6.1 0,0 -3.47,-0.47 -5.54,0.38 -2.06,0.84 -3.38,3.57 -3.57,5.44 -0.19,1.88 0.38,4.41 2.06,4.5 1.69,0.09 2.16,-1.78 2.16,-1.78 0,0 0.28,3.75 3.28,3.28 3,-0.47 2.11,-2.75 3.61,-4.53 1.5,-1.78 4.58,-2.11 7.86,-6.52 3.28,-4.41 3.21,-6.9 3.21,-7.65 0,-0.75 -0.16,-2.86 0.87,-2.96 1.03,-0.09 1.15,2.04 1.15,2.98 0,0.94 -0.84,5.8 -3.75,9.1 -2.32,2.64 -6.38,4.69 -7.6,6.48 -1.22,1.79 -1.15,4.06 -1.13,4.13 0.21,0.64 3.47,1.78 6.95,2.06 3.47,0.28 6.57,-1.22 6.57,-1.22 0,0 0,3.94 0.38,7.04 0.38,3.1 2.63,5.91 2.25,9.39 -0.38,3.47 -2.25,6.29 -3.57,7.04 -1.31,0.75 -7.22,3.04 -6.59,5.4 0.45,1.69 3.69,1.34 5.19,1.08 1.62,-0.28 2.53,-0.49 4.04,-0.31 1.5,0.19 0.56,4.409995 3.47,4.219995 2.91,-0.19 5.35,-4.179995 7.04,-4.109995 2.3,0.09 6.6,3.289995 9.06,1.219995 1.95,-1.639995 -1.74,-4.499995 -3.99,-6.759995 -2.25,-2.26 -4.5,-5.54 -4.32,-11.26 0,0 0.38,-9.01 0.47,-11.64 0.09,-2.63 0.09,-7.32 0.09,-7.32 0,0 4.41,-3.28 6.48,-5.54 2.06,-2.25 2.35,-3.85 5.91,-6.95 3.57,-3.1 12.290005,-2.56 21.300005,-10.79 4.45,-4.07 6.1,-13.7 0.19,-20.46 -5.91,-6.76 -17.080005,-4.04 -19.430005,-4.32 -2.35,-0.28 -5.91,-2.25 -7.46,-1.43 -1.23,0.65 -1.13,1.69 -1.13,1.69 0,0 4.38,2.32 7.46,2.84 6.030005,1.01 16.610005,-1.5 16.800005,5.91 0.19,7.41 -19.710005,7.98 -21.590005,7.79 -1.88,-0.19 -12.37,-6.24 -16.21,-7.23 -3.41,-0.87 -8.35,-1.73 -11.94,-1.5 -3.75,0.23 -6.5,0.94 -9.2,2.16 -1.31,0.59 -2.18,1.29 -2.18,1.29 0,0 -6.54,-13.76 -10.39,-17.6200004 -3.01,-2.97 -5.73,-3.44 -5.73,-3.44 z"
     fill="#96a820"
     id="path12" />
  <path
     d="m 29.035405,15.608815 c -0.56,-0.77 -5.98,-0.21 -8.8,-1.76 -2.82,-1.55 -9.92,-5.7700004 -14.0099999,-5.4900004 -4.08,0.28 -6.08,3.2100004 -6.1,4.1100004 -0.02,0.89 0.68,0.89 1.53,-0.02 0.85,-0.91 2.67,-2.6000004 6.41,-1.97 3.7299999,0.63 10.9099999,5.14 13.7299999,6.26 2.82,1.13 5.14,0.42 5.14,0.42 0,0 -0.07,1.64 -1.06,3.4 -0.99,1.76 -4.01,5.77 -2.42,4.69 1.83,-1.24 4.01,-4.17 4.55,-5.42 0.71,-1.62 1.03,-4.22 1.03,-4.22 z"
     fill="#5a6610"
     id="path13" />
  <ellipse
     transform="rotate(-33.816)"
     cx="20.015396"
     cy="21.048717"
     rx="2.6099999"
     ry="2.5"
     fill="#31312f"
     id="ellipse13" />
  <path
     d="m 41.775405,19.618815 c 1.21,-1.21 3.91,4.67 1.71,11.57 -1.13,3.54 -4.46,6.73 -10.23,7.93 -5.77,1.2 -7.81,0.21 -11.12,0.63 -3.31,0.42 -7.25,3.24 -12.5999999,1.62 -5.35,-1.62 -5.28,-6.34 -5.56,-7.6 -0.28,-1.27 -0.09,-1.76 0.66,-1.69 0.75,0.07 0.92,4.16 1.99,5.65 0.96,1.34 3.7299999,2.77 6.1499999,2.51 3.24,-0.35 3.8,-1.76 9.43,-2.75 5.63,-0.99 12.32,-0.14 16.4,-6.19 4.49,-6.65 2.12,-10.62 3.17,-11.68 z"
     fill="#586214"
     id="path14" />
  <path
     d="m 66.135405,29.478815 c 0.4,3.08 -0.03,5.7 -0.92,7.25 -0.77,1.36 -3.07,1.36 -3.07,1.36 0,0 -0.87,-0.87 -2.42,-1.15 -1.55,-0.28 -1.48,-1.55 -1.55,-3.45 -0.07,-1.9 -0.97,-3.36 -1.79,-4.86 -0.99,-1.79 -2.67,-3.45 -2.67,-3.45 0,0 1.17,-0.79 4.66,-1.53 2.54,-0.54 4.81,-0.45 4.81,-0.45 0,0 2.53,3.04 2.95,6.28 z"
     fill="#586415"
     id="path15" />
  <path
     d="m 68.735405,23.668815 c 0,0 2.86,2.35 3.03,6.79 0.18,4.79 -0.87,10.05 2.25,10.98 3.24,0.96 5.84,-1.69 6.26,-5.84 0.42,-4.15 -0.6,-8.62 -0.6,-8.62 0,0 -2.96,-1.44 -5.38,-2.22 -1.36,-0.44 -5.56,-1.09 -5.56,-1.09 z"
     fill="#586415"
     id="path16" />
  <path
     d="m 88.235405,40.778815 c 2.71,0.81 4.15,-1.24 4.79,-4.55 0.64,-3.31 0.68,-4.27 0.68,-4.27 0,0 -2.04,0.14 -3.28,-0.05 -0.76,-0.12 -4.18,-1.67 -4.18,-1.67 0,0 0.02,3.09 0.02,4.15 0,2.69 -0.61,5.62 1.97,6.39 z"
     fill="#586415"
     id="path17" />
  <path
     d="m 75.705405,60.588815 c -0.86,1.45 -1.93,2.31 -2.8,1.96 -0.87,-0.34 -1.1,-1.82 -0.65,-3.44 0.57,-2.09 2.03,-2.58 2.9,-2.24 0.87,0.34 1.57,2 0.55,3.72 z"
     fill="#596514"
     id="path18" />
  <ellipse
     transform="rotate(-83.275)"
     cx="-66.959618"
     cy="86.687355"
     rx="1.73"
     ry="1.11"
     fill="#596514"
     id="ellipse18" />
  <ellipse
     cx="77.925407"
     cy="69.738815"
     rx="1.3"
     ry="1.9"
     fill="#596514"
     id="ellipse19" />
</svg>
