<?xml version="1.0" encoding="UTF-8" standalone="no"?>
<!-- Uploaded to: SVG Repo, www.svgrepo.com, Generator: SVG Repo Mixer Tools -->

<svg
   width="786.0592"
   height="557.84027"
   viewBox="0 0 125.76947 89.254443"
   aria-hidden="true"
   role="img"
   class="iconify iconify--noto"
   preserveAspectRatio="xMidYMid"
   version="1.1"
   id="svg37"
   xmlns="http://www.w3.org/2000/svg"
   xmlns:svg="http://www.w3.org/2000/svg">
  <defs
     id="defs37" />
  <path
     d="m 98.666568,33.928735 c 1.380002,1.78 3.080002,5.61 4.660002,11.35 1.58,5.74 4.06,11.38 8.41,11.28 4.35,-0.1 3.96,-3.45 4.66,-4.78 0.44,-0.83 1.17,-2.83 5.33,-0.56 4.15,2.27 2.55,4.3 1.83,5.97 -0.78,1.81 -4.19,8.01 -12.26,7.78 -7.47,-0.22 -10.53,-3.91 -13.400002,-9.45 -2.87,-5.54 0.77,-21.59 0.77,-21.59 z"
     fill="#fe6a1f"
     id="path1" />
  <path
     d="m 101.08657,60.488735 c 0,0 1.89,-0.48 3.86,-2.3 1.68,-1.55 3.08,-3.23 3.08,-3.23 0,0 -1,-1.19 -1.78,-2.45 -1.15,-1.87 -1.67,-3.38 -1.67,-3.38 l -7.420002,5.19 c 0,0 1.19,1.94 1.82,3.19 0.84,1.72 2.110002,2.98 2.110002,2.98 z"
     fill="#323130"
     id="path2" />
  <path
     d="m 20.246568,8.7787349 c 0,0 -0.21,-7.42 5.24,-8.61000001 5.93,-1.28999999 7.91,5.24000001 7.91,5.24000001 l -3.36,4.25 z"
     fill="#fe6a1f"
     id="path3" />
  <path
     d="m 69.406568,59.818735 c 0,0 2.7,7.13 2.97,9.79 0.52,5.23 -4.04,6.16 -3.56,9.89 0.32,2.45 2.46,3.07 7.32,3.07 6.13,0 9.1,-2.87 9.1,-2.87 l 2.18,-26.31 -18.4,2.18 z"
     fill="#fe6a1f"
     id="path4" />
  <path
     d="m 27.346568,52.368735 c 0,0 -2.81,7.07 -5.64,10.61 -2.82,3.52 -7.75,7.83 -7.38,13.91 0.23,3.72 2.43,5.37 4.95,5.87 2.61,0.52 5.62,-0.18 7.01,-3.44 1.38,-3.26 1.38,-5.74 1.38,-5.74 0,0 6,-6.5 7.88,-8.48 1.88,-1.98 5.38,-5.07 5.38,-5.07 z"
     fill="#fe6a1f"
     id="path5" />
  <path
     d="m 25.196568,68.498735 c 1.11,-1.54 -0.31,-3.02 -1.26,-3.86 -1.26,-1.11 -2.34,-1.56 -2.34,-1.56 l -2.15,2.56 c 0,0 1.3,0.85 2.26,1.74 0.81,0.75 2.52,2.46 3.49,1.12 z"
     fill="#333132"
     id="path6" />
  <path
     d="m 23.186568,60.858735 c 0,0 1.63,1.11 2,1.48 0.37,0.37 1.97,1.48 2.63,0.74 0.99,-1.09 -0.17,-2.67 -0.93,-3.6 -0.65,-0.81 -1.88,-1.92 -1.88,-1.92 z"
     fill="#333132"
     id="path7" />
  <path
     d="m 21.776568,77.138735 c -1.63,0.89 -2.37,2.56 -1.78,4.01 0.54,1.33 3.12,2 5.42,0.04 1.17,-1 1.48,-3.3 0.78,-4.04 -0.7,-0.74 -2.63,-0.98 -4.42,-0.01 z"
     fill="#bb5d42"
     id="path8" />
  <path
     d="m 17.886568,79.218735 c -0.97,0 -2.34,0.69 -1.89,2 0.33,0.96 3.11,1.84 3.6,0.19 0.37,-1.26 -0.97,-2.19 -1.71,-2.19 z"
     fill="#bb5d42"
     id="path9" />
  <path
     d="m 25.886568,48.348735 -5.34,-2.97 c 0,0 -7.29,0.46 -11.7699995,-2.27 -4.19,-2.56 -7.02,-6.13 -7.62,-10.09 -0.6,-3.96 -0.51,-7.81 0.19,-9.1 0.69,-1.29 1.99,-1.58 3.77,-2.27 1.78,-0.69 4.46,-2.31 4.46,-2.31 0,0 0.39,-3.14 2.2399995,-5.78 2.77,-3.9600001 4.77,-4.2700001 5.76,-4.7700001 0.99,-0.49 10.78,-0.99 10.78,-0.99 l 2.37,-0.2 2.97,-5.14 c 0,0 3.86,-2.77000001 8.51,-0.49 4.65,2.28 4.85,7.91 4.55,9.8900001 -0.3,1.98 -0.99,3.56 -0.89,4.25 0.05,0.35 2.1,2.08 3.96,3.96 1.82,1.83 3.13,3.4 3.89,3.86 0.77,0.46 10.25,-1.14 21.44,-0.3 11.31,0.85 18.73,3 22.89,8.94 4.150002,5.93 4.200002,12.43 3.020002,19.35 -1.180002,6.92 -4.950002,13.85 -5.340002,14.94 -0.4,1.09 -0.4,8.8 -0.4,10.78 0,1.98 0.72,10.39 -5.74,10.5 -3.68,0.06 -7.23,0.66 -8.72,-2.41 -1.48,-3.07 -0.26,-6.75 -0.26,-6.75 l 2.94,-3.21 -0.4,-5.64 -5.93,-5.74 -1.09,-4.35 -11.37,0.49 c 0,0 -9.3,1.48 -9.89,2.18 -0.59,0.7 -2.08,10.19 -2.57,15.03 -0.49,4.85 -2.74,9.52 -4.33,10.21 -1.58,0.69 -4.64,1.82 -8.79,0.89 -3.79,-0.85 -4.53,-4.49 -2.26,-7.46 1.45,-1.91 2.86,-2.6 2.86,-2.6 0,0 -0.26,-5.49 -0.41,-10.46 -0.11,-3.64 -0.05,-7.07 -0.3,-7.53 -0.59,-1.09 -8.33,-11.15 -8.33,-11.15 z"
     fill="#ff9613"
     id="path10" />
  <path
     d="m 109.87657,56.218735 c 0,0 -0.11,3.2 -0.45,4.56 -0.59,2.41 -1.52,3.82 -1.52,3.82 0,0 2.08,0.6 4.97,0.45 2.71,-0.15 4.55,-1.32 4.55,-1.32 0,0 -1.36,-3.09 -1.73,-4.06 -0.37,-0.96 -1.52,-3.75 -1.52,-3.75 0,0 -0.63,0.37 -1.93,0.56 a 4.9,4.9 0 0 1 -2.37,-0.26 z"
     fill="#323130"
     id="path11" />
  <path
     d="m 115.62657,54.258735 c 0,0 2.08,0.59 3.86,1.41 1.78,0.82 3.86,2.08 3.86,2.08 0,0 2,-4.01 2.37,-6.82 0.26,-2.01 -0.42,-4.59 -2.45,-5.34 -2.6,-0.96 -5.19,0.89 -6.16,3.86 -0.97,2.97 -1.48,4.81 -1.48,4.81 z"
     fill="#323130"
     id="path12" />
  <path
     d="m 42.626568,13.528735 c 0,0 2.45,-5.6400001 -1.11,-7.5700001 -3.56,-1.93 -5.64,3.41 -5.64,3.41 a 117.283,117.283 0 0 0 6.75,4.1600001 z"
     fill="#fd6a1f"
     id="path13" />
  <path
     d="m 9.9865685,21.398735 c 0,0 -4.04,1.11 -6.12,2.49 -1.24,0.82 -1.5,2.44 -1.56,4.23 -0.19,6.08 3.49,12.31 9.1599995,14.21 6.65,2.22 10.39,0.59 10.39,0.59 0,0 -2.74,-4.23 -4.3,-6.08 -1.56,-1.85 -2.89,-3.12 -3.41,-4.08 -0.52,-0.96 -1.11,-5.3 -1.93,-7.23 -0.82,-1.95 -2.2299995,-4.13 -2.2299995,-4.13 z"
     fill="#ffffff"
     id="path14" />
  <path
     d="m 9.0965685,27.258735 c 0,0 -6.16,2 -6.16,2.23 0,0.22 -0.07,3.19 0.37,3.56 0.45,0.37 1.63,1.04 2.67,1.19 1.04,0.15 2.3,0.07 2.89,0.59 0.33,0.28 0.59,2.3 -2.37,2.97 -2.96,0.67 -5.42,-2.52 -6.08,-4.75 -0.67,-2.23 -0.67,-6.97 1.04,-9.27 1.2,-1.64 6.23,1.25 7.64,3.48 z"
     fill="#323332"
     id="path15" />
  <path
     d="m 42.436568,82.858735 c -1.13,-0.12 -1.77,0.56 -1.87,3.08 -0.09,2.23 0.7,3.17 1.64,3.3 1.49,0.22 0.69,-1.93 0.74,-2.82 0.1,-1.49 1.24,-3.38 -0.51,-3.56 z"
     fill="#fe6a1f"
     id="path16" />
  <path
     d="m 37.546568,82.298735 c -0.7,-0.41 -2,0.11 -2.02,2.94 -0.01,2.29 1.52,3.45 2.53,3.18 0.56,-0.15 -0.25,-2.17 -0.48,-2.93 -0.39,-1.27 1.38,-2.37 -0.03,-3.19 z"
     fill="#fe6a1f"
     id="path17" />
  <path
     d="m 45.666568,88.418735 c -0.19,0.78 4.5,-0.11 6.08,-3.82 1.58,-3.71 2.37,-11.97 2.72,-15.13 0.35,-3.17 1.24,-5.89 1.58,-6.08 0.35,-0.2 3.87,-0.99 9.46,-1.63 4.92,-0.57 9.24,-0.89 9.24,-0.89 0,0 0.25,2.92 2.72,5.44 2.47,2.52 4.85,4.35 5.04,4.7 0.2,0.35 0.27,4.39 -0.05,5.24 -0.07,0.2 -3.9,3.02 -3.78,6.84 0.1,3.36 3.02,4.83 4.75,5.03 1.73,0.2 2.46,0.14 1.37,-0.51 -1.09,-0.64 -3.97,-1.08 -3.93,-4.67 0.05,-4.71 3.57,-5.85 3.72,-6.74 0.15,-0.89 -0.15,-6.08 -0.3,-6.43 -0.15,-0.35 -3.75,-3.55 -4.95,-5.04 -2.11,-2.63 -1.53,-5.44 -1.98,-5.84 -0.45,-0.4 -8.15,-0.06 -12.12,0.4 -2.8,0.32 -10.09,1.21 -11.62,2.97 -0.49,0.56 -1.7,11.88 -1.88,13.3 -0.3,2.34 -0.38,6.16 -1.93,8.75 -1.3,2.2 -3.89,3.07 -4.14,4.11 z"
     fill="#bb5d42"
     id="path18" />
  <path
     d="m 83.646568,85.268735 c 0.05,2.03 0.73,3.19 2.21,3.09 1.48,-0.1 0.18,-2.23 0.1,-2.92 -0.15,-1.29 1.07,-3.05 0.15,-3.26 -1.48,-0.35 -2.5,1.31 -2.46,3.09 z"
     fill="#fe6a1f"
     id="path19" />
  <path
     d="m 21.586568,22.548735 c 0.17,1.89 -0.54,3.62 -2.05,3.92 -1.51,0.31 -3.04,-0.39 -3.44,-2.88 -0.38,-2.35 0.72,-3.63 2.23,-3.93 1.51,-0.3 3.06,0.68 3.26,2.89 z"
     fill="#313130"
     id="path20" />
  <path
     d="m 21.856568,15.758735 c 1.93,-0.26 1.56,-2.27 1.26,-3.66 -0.3,-1.39 -0.79,-2.3200001 -0.79,-2.3200001 0,0 1.64,-0.28 2.46,0.07 0.33,0.14 0.63,0.4500001 0.95,0.8200001 1.78,2.03 1.1,5.6 2.83,5.8 1.73,0.2 1.77,-2.49 1.67,-4.17 -0.1,-1.68 -0.35,-2.5200001 -0.1,-2.9700001 0.25,-0.45 1.52,-0.13 1.63,-0.45 0.32,-0.95 1.04,-3.46 2.18,-4.75 1.14,-1.29 2.96,-2.58 5.12,-2.55 1.51,0.02 3.23,0.48 2.89,0.22 -1.03,-0.80000001 -6.08,-2.60000001 -9.5,-0.1 -2.88,2.11 -3.36,4.99 -3.36,4.99 0,0 -2.05,-0.15 -5.54,0.11 -2.59,0.19 -4.89,1.02 -6.14,1.63 -2.47,1.2 -3.65,2.6700001 -3.65,2.6700001 0,0 1.94,-0.86 2.56,-1.04 1.52,-0.4500001 2.44,0.27 3.23,2.15 0.47,1.15 0.82,3.75 2.3,3.55 z"
     fill="#33312f"
     id="path21" />
  <path
     d="m 28.446568,20.908735 c -0.89,-0.07 -0.91,1.31 -1.03,2.71 -0.2,2.37 -0.27,4.79 -0.45,5.08 -0.3,0.49 -1.89,2.65 -2.78,3.63 -0.45,0.49 -1.96,1.87 -1.53,2.57 0.94,1.53 6.92,-2.32 7.47,-5.69 0.5,-3.08 0.3,-8.15 -1.68,-8.3 z"
     fill="#33312f"
     id="path22" />
  <path
     d="m 32.166568,31.998735 c -0.15,0.45 -1.98,2.31 -4.08,3.75 -2.18,1.48 -4.36,2.16 -3.68,3.15 0.84,1.24 4.4,0.05 6.33,-0.84 1.55,-0.72 4.3,-2.9 4.9,-4.45 0.49,-1.29 0.25,-5.64 -0.49,-8.06 -0.74,-2.42 -1.89,-5.14 -2.82,-4.23 -0.53,0.52 -0.03,2.37 0.11,4.9 0.14,2.67 -0.16,5.44 -0.27,5.78 z"
     fill="#33312f"
     id="path23" />
  <path
     d="m 39.546568,72.908735 c 0,0 2.57,-0.73 4.15,-0.63 1.58,0.1 5.04,0.45 5.64,0.15 0.97,-0.49 -2.49,-3.21 -5.55,-3.51 -3.06,-0.3 -4.46,0.06 -4.46,0.06 z"
     fill="#333132"
     id="path24" />
  <path
     d="m 39.286568,64.938735 c 0,0 0.8,-0.9 3.82,-0.85 3.02,0.05 6.32,0.48 6.22,-0.56 -0.1,-1.04 -4.59,-3.15 -6.53,-3.26 -1.19,-0.07 -3.88,0.3 -3.88,0.3 z"
     fill="#333132"
     id="path25" />
  <path
     d="m 26.776568,47.058735 c 0,0 3.39,-3.52 5.24,-5.04 2.77,-2.27 7.12,-5.93 7.22,-11.57 0.1,-5.64 -2.57,-10.29 -3.07,-11.18 -0.49,-0.89 -1.98,-3.86 -0.3,-5.04 1.68,-1.19 3.84,-0.89 7.52,3.07 3.86,4.15 8.11,12.17 8.11,12.17 0,0 -2.27,6.33 -7.12,9.99 -1.78,1.34 -3.68,1.91 -4.99,2.97 -2.26,1.83 -3.15,4.36 -3.41,6.87 -0.79,7.52 1.69,7.46 2.65,9.38 0.68,1.38 0.83,5.17 0.67,5.3 -0.84,0.71 -3.71,-2.37 -4.2,-2.87 -0.49,-0.49 -2.08,-2.18 -2.08,-2.18 0,0 -0.1,1.78 -0.79,1.78 -0.94,0 -3.46,-2.57 -4.75,-5.24 -1.29,-2.67 -2.77,-5.14 -4.15,-7.12 -0.6,-0.86 -2.94,-2.92 -2.94,-2.92 0,0 0.87,-0.94 2.55,-0.64 1.66,0.29 3.84,2.27 3.84,2.27 z"
     fill="#fdedcc"
     id="path26" />
  <path
     d="m 41.166568,23.028735 c -1.5,0.77 0.75,8.27 -0.35,11.08 -0.55,1.4 -2.37,4.9 -1.09,5.64 1.29,0.74 5.29,-3.17 5.84,-5.59 0.55,-2.42 -2.47,-12.12 -4.4,-11.13 z"
     fill="#33312f"
     id="path27" />
  <path
     d="m 40.176568,51.068735 c 0,2.18 7.16,1.93 7.16,1.93 0,0 4.52,4.01 5.5,3.31 1.19,-0.84 0.74,-2.03 -0.2,-3.51 -1.48,-2.33 -2.37,-3.66 -4.01,-4.35 -1.48,-0.63 -4.4,0.22 -5.93,0.59 -1.92,0.47 -2.52,1.32 -2.52,2.03 z"
     fill="#33312f"
     id="path28" />
  <path
     d="m 49.776568,36.078735 c -0.89,1.09 0.31,2.07 1.43,3.81 1.06,1.64 3.39,4.75 3.39,4.75 0,0 -0.32,7.02 0.57,7.66 1.04,0.74 2.37,-1.38 3.02,-3.17 0.65,-1.79 0.69,-4.06 0.54,-5.44 -0.15,-1.38 -1.09,-3.61 -4.46,-6.02 -2.58,-1.83 -4.05,-2.13 -4.49,-1.59 z"
     fill="#33312f"
     id="path29" />
  <path
     d="m 54.466568,23.968735 c 0,0 2.03,3.12 3.12,6.08 1.09,2.97 2.16,6.19 2.55,8.56 0.21,1.27 0.87,4.01 1.85,4.15 0.99,0.15 1.68,-2.64 1.97,-5.75 0.3,-3.23 -0.09,-7.85 -0.63,-9.93 -0.54,-2.08 -1.19,-3.65 -1.19,-3.65 0,0 -1.81,-0.03 -4.01,0.09 -1.92,0.1 -3.66,0.45 -3.66,0.45 z"
     fill="#33312f"
     id="path30" />
  <path
     d="m 68.366568,23.318735 c 0,0 1.08,4.08 1.3,9.9 0.15,3.81 0.63,10.42 1.78,10.42 1.48,0 2.82,-5.03 3.41,-10.72 0.59,-5.69 0.45,-9.35 0.45,-9.35 0,0 -1.8,-0.2 -3.38,-0.26 -1.96,-0.06 -3.56,0.01 -3.56,0.01 z"
     fill="#33312f"
     id="path31" />
  <path
     d="m 81.496568,43.718735 c 2,0.26 3.89,-5.61 4.78,-9.27 0.89,-3.66 1.47,-8.75 1.47,-8.75 0,0 -1.58,-0.45 -3.21,-0.82 -1.88,-0.43 -3.56,-0.63 -3.56,-0.63 0,0 0.33,3.41 0.25,8.96 -0.05,2.97 -0.95,10.36 0.27,10.51 z"
     fill="#33312f"
     id="path32" />
  <path
     d="m 93.216568,28.068735 c 0,0 -0.67,7.41 -1.11,8.94 -0.45,1.53 -4.27,7.01 -3.49,7.9 1.02,1.17 6.05,-2.93 7.53,-6.19 1.48,-3.26 1.72,-6.52 1.72,-6.52 0,0 -0.57,-1.09 -2.24,-2.46 -1.3,-1.07 -2.41,-1.67 -2.41,-1.67 z"
     fill="#33312f"
     id="path33" />
  <path
     d="m 56.016568,63.418735 c 0,0 4.54,-6.47 5.63,-9.33 1.09,-2.87 3.02,-7.58 4.7,-8.01 1.73,-0.45 1.23,4.11 0.15,7.67 -1.04,3.41 -2.87,8.21 -2.87,8.21 0,0 -1.86,0.3 -3.45,0.54 -3.26,0.49 -4.16,0.92 -4.16,0.92 z"
     fill="#33312f"
     id="path34" />
  <path
     d="m 68.326568,61.418735 c 0,0 3.39,-6.45 4.3,-9.09 0.57,-1.64 1.77,-6.21 3.3,-6.16 1.53,0.05 1.43,3.86 0.99,6.18 -0.45,2.32 -2.18,8.51 -2.18,8.51 0,0 -1.36,0.11 -2.82,0.26 -1.2,0.12 -3.59,0.3 -3.59,0.3 z"
     fill="#33312f"
     id="path35" />
  <path
     d="m 79.646568,57.808735 c 0.25,0.83 7.03,0.42 9.27,-1.06 4.27,-2.83 6.45,-10.41 4.97,-10.31 -1.48,0.1 -5.98,5.14 -7.57,6.18 -1.58,1.03 -7.17,3.55 -6.67,5.19 z"
     fill="#33312f"
     id="path36" />
  <path
     d="m 75.936568,64.198735 c 0,0 6.34,1.08 10.09,0.19 3.34,-0.79 6.23,-4.49 7.27,-3.89 1.04,0.59 -0.3,5.64 -5.04,7.27 -4.59,1.58 -8.16,0.89 -8.16,0.89 0,0 -1.6,-1.15 -2.37,-2.08 -1.2,-1.42 -1.79,-2.38 -1.79,-2.38 z"
     fill="#33312f"
     id="path37" />
</svg>
