<?xml version="1.0" encoding="UTF-8" standalone="no"?>
<!-- Uploaded to: SVG Repo, www.svgrepo.com, Generator: SVG Repo Mixer Tools -->

<svg
   width="737.70099"
   height="666.28217"
   viewBox="0 0 118.03216 106.60515"
   aria-hidden="true"
   role="img"
   class="iconify iconify--noto"
   preserveAspectRatio="xMidYMid"
   version="1.1"
   id="svg11"
   sodipodi:docname="spouting-whale-svgrepo-com.svg"
   xmlns:inkscape="http://www.inkscape.org/namespaces/inkscape"
   xmlns:sodipodi="http://sodipodi.sourceforge.net/DTD/sodipodi-0.dtd"
   xmlns="http://www.w3.org/2000/svg"
   xmlns:svg="http://www.w3.org/2000/svg">
  <defs
     id="defs11" />
  <sodipodi:namedview
     id="namedview11"
     pagecolor="#ffffff"
     bordercolor="#000000"
     borderopacity="0.25"
     inkscape:showpageshadow="2"
     inkscape:pageopacity="0.0"
     inkscape:pagecheckerboard="0"
     inkscape:deskcolor="#d1d1d1" />
  <path
     d="m 52.943374,40.57 c 0,0 -3.1,-2.11 -6.62,-1.97 -3.52,0.14 -7.88,2.82 -7.88,2.82 0,0 -6.05,0.28 -10.7,0.14 -4.65,-0.14 -15.63,-1.41 -21.2599998,1.13 -5.63000002,2.53 -7.04000002,7.32 -6.19000002,11.12 0.84000002,3.8 1.74000002,9.8 20.54999982,20.55 8.24,4.71 17.26,6.44 25.05,7.05 0.35,1.43 1.2,11.61 2.83,17.02 2.11,7.04 5.1,7.32 6.19,7.6 4.36,1.13 2.52,-4.63 2.39,-9.01 -0.21,-7.3 1.41,-14.21 2.25,-14.22 1.64,-0.01 6.91,1.83 8.17,1.83 10.14,17.03 19.08,19.17 22.1,17.03 2.39,-1.69 -0.14,-5.07 -2.67,-11.12 -1.58,-3.78 -2.6,-5.56 -0.95,-5.69 13.53,-1.08 29.349996,-6.38 31.639996,-26.97 1.53,-13.81 -6.72,-24.35 -7.46,-26.33 0.42,-2.04 3.42,-7.55 4.72,-11.58 2.18,-6.79 2.53,-9.82 1.48,-9.96 -1.12,-0.1500004 -5.07,3.24 -9.29,5.91 -3.51,2.23 -4.82,8.31 -4.82,8.31 0,0 -5.739996,-3.52 -10.949996,-1.27 -6.19,2.68 -9.43,3.24 -9.57,4.22 -0.14,0.99 6.34,3.24 10.84,4.5 4.66,1.31 9.849996,2.39 9.849996,2.39 0,0 4.5,11.83 -2.959996,15.2 -7.46,3.38 -12.95,-0.99 -19.99,-4.5 -7.04,-3.52 -13.55,-7.85 -19.01,-7.18 -4.96,0.64 -7.74,2.98 -7.74,2.98 z"
     fill="#6ba4ae"
     id="path1" />
  <path
     d="m 56.673374,16.47 c 0,0 -0.42,-2.99 3.1,-3.98 3.52,-0.99 7.39,-1.13 7.6,-4.7200004 0.24,-4.08 -3.73,-4.93 -6.97,-3.94 -4.36,1.33 -7.6,6.1900004 -7.6,6.1900004 0,0 -3.8,-7.3200004 -9.85,-7.3200004 -4.96,0 -5.48,3.69 -5.07,5.42 0.63,2.6700004 3.69,3.9100004 6.93,4.2600004 3.55,0.39 3.91,3.84 3.91,3.84 0,0 -6.14,-4.04 -6.9,0 -0.77,4.15 6.19,3.24 7.74,7.04 0.93,2.28 1.2,14.22 3.8,14.08 2.67,-0.14 1.55,-13.51 3.38,-15.06 1.83,-1.55 7.74,-3.38 6.62,-6.05 -1.71,-4.07 -6.69,0.24 -6.69,0.24 z"
     fill="#36b4e1"
     id="path2" />
  <ellipse
     cx="72.113373"
     cy="2.75"
     rx="2.2"
     ry="2.23"
     fill="#36b4e1"
     id="ellipse2" />
  <ellipse
     cx="72.043381"
     cy="12.55"
     rx="1.55"
     ry="1.5"
     fill="#36b4e1"
     id="ellipse3" />
  <ellipse
     cx="31.243374"
     cy="2.5699997"
     rx="2.54"
     ry="2.5699999"
     fill="#36b4e1"
     id="ellipse4" />
  <ellipse
     cx="29.343372"
     cy="10.98"
     rx="1.91"
     ry="1.96"
     fill="#36b4e1"
     id="ellipse5" />
  <ellipse
     transform="rotate(-32.683)"
     cx="17.697592"
     cy="35.999355"
     rx="1.87"
     ry="1.83"
     fill="#36b4e1"
     id="ellipse6" />
  <path
     d="m 56.323374,65.77 c 0.7,2.82 -16.05,2.67 -30.13,0.14 -14.08,-2.53 -24.6399998,-8.16 -24.6399998,-8.16 -0.02,0.23 -1.47000002,-3.34 -1.55000002,-5.91 -0.06,-2.05 0.7,-3.63 0.7,-3.63 0,0 4.82000002,4.12 12.70999982,6.93 7.88,2.82 17.13,6.02 24.74,7.11 12.82,1.83 17.68,1.57 18.17,3.52 z"
     fill="#fdeacb"
     id="path6" />
  <ellipse
     transform="rotate(-8.773)"
     cx="47.724552"
     cy="69.402931"
     rx="3.52"
     ry="3.3299999"
     fill="#2c292a"
     id="ellipse7" />
  <path
     d="m 113.19337,71.76 c 0,0 -5.35,5.7 -17.739996,5.56 -8.36,-0.1 -21.4,-1.55 -21.4,-1.55 0,0 4.5,2.11 7.04,4.93 2.53,2.82 5.95,9.57 5.95,9.57 0,0 11.68,-3.34 17.179996,-7.99 5.49,-4.65 8.97,-10.52 8.97,-10.52 z"
     fill="#a4ced5"
     id="path7" />
  <path
     d="m 4.8333742,62.68 c 0,0 11.0899998,6.9 21.7899998,8.87 10.7,1.97 20.41,3.1 26.19,3.38 5.78,0.28 11.4,0.14 11.4,0.14 0,0 7.18,10.98 9.01,14.08 1.83,3.1 5.35,9.71 9.29,11.26 3.94,1.55 7.5,1.13 7.5,1.13 0,0 -5.21,3.94 -11.16,-0.14 -2.55,-1.75 -8.55,-9.08 -8.55,-9.08 0,0 -7.32,-0.07 -11.83,-0.53 -4.21,-0.43 -8.9,-1.37 -8.9,-1.37 0,0 -0.27,4.59 0.07,6.97 0.35,2.46 2.04,6.81 5.91,7.74 0.88,0.21 1.96,0.17 1.9,0.28 -0.46,0.92 -4.46,2.6 -8.17,-1.06 -4.82,-4.76 -3.8,-14.43 -3.8,-14.43 0,0 -6.83,-1.47 -14.92,-6.41 -4.61,-2.82 -14.04,-8.73 -18.37,-12.85 C 8.7733742,67.42 4.8333742,62.68 4.8333742,62.68 Z"
     fill="#a4ced5"
     id="path8" />
  <path
     d="m 50.053374,77.81 c 3.12,0.82 7.21,-0.28 7.25,0.49 0.07,1.34 -4.56,1.86 -7.53,1.48 -3.8,-0.49 -6.37,-3.17 -6.34,-4.01 0.08,-1.55 2.75,1.02 6.62,2.04 z"
     fill="#d9ebf3"
     id="path9" />
  <path
     d="m 28.513374,73.87 c -0.5,0.86 2.75,3.17 4.86,3.73 2.11,0.56 4.01,1.06 5.49,1.97 1.48,0.91 3.1,4.65 6.55,5.7 3.45,1.06 6.55,-1.34 10.28,-1.2 3.73,0.14 6.05,0.07 5.56,-0.49 -0.49,-0.56 -3.31,-1.48 -5.63,-1.62 -2.32,-0.14 -6.76,1.69 -9.64,0.77 -2.89,-0.92 -3.45,-4.22 -6.34,-5.42 -2.89,-1.2 -5.28,-1.13 -6.62,-1.62 -1.34,-0.48 -4.01,-2.67 -4.51,-1.82 z"
     fill="#d9ebf3"
     id="path10" />
  <path
     d="m 20.423374,72.39 c -0.69,0.15 0.53,3.41 4.89,5.88 4.36,2.47 7.92,2.93 9.82,4.05 2.75,1.62 3.26,4.51 7.6,6.19 5.63,2.18 10.28,0.7 14.08,0.63 3.8,-0.07 10.14,1.62 10.35,0.63 0.27,-1.26 -6.05,-2.67 -10.56,-2.75 -3.1,-0.05 -6.69,1.41 -11.83,0.07 -5.14,-1.34 -5.07,-4.58 -9.08,-6.69 -3.23,-1.7 -6.62,-2.53 -9.36,-3.8 -2.74,-1.25 -4.93,-4.42 -5.91,-4.21 z"
     fill="#d9ebf3"
     id="path11" />
</svg>
