<?xml version="1.0" encoding="UTF-8" standalone="no"?>
<!-- Uploaded to: SVG Repo, www.svgrepo.com, Generator: SVG Repo Mixer Tools -->

<svg
   width="747.89465"
   height="635.11334"
   viewBox="0 0 119.66314 101.61813"
   aria-hidden="true"
   role="img"
   class="iconify iconify--noto"
   preserveAspectRatio="xMidYMid"
   version="1.1"
   id="svg18"
   sodipodi:docname="cow-svgrepo-com.svg"
   xmlns:inkscape="http://www.inkscape.org/namespaces/inkscape"
   xmlns:sodipodi="http://sodipodi.sourceforge.net/DTD/sodipodi-0.dtd"
   xmlns="http://www.w3.org/2000/svg"
   xmlns:svg="http://www.w3.org/2000/svg">
  <defs
     id="defs18" />
  <sodipodi:namedview
     id="namedview18"
     pagecolor="#ffffff"
     bordercolor="#000000"
     borderopacity="0.25"
     inkscape:showpageshadow="2"
     inkscape:pageopacity="0.0"
     inkscape:pagecheckerboard="0"
     inkscape:deskcolor="#d1d1d1" />
  <path
     d="m 27.035477,7.0557194 c -0.28,-0.14 1.69,-2.6 2.39,-3.8 0.7,-1.2 1.27,-3.10000002 2.75,-2.96000002 1.48,0.14 1.62,2.75000002 1.55,3.87000002 -0.14,2.25 -1.41,4.79 -1.41,4.79 z"
     fill="#ffbd16"
     id="path1" />
  <path
     d="m 86.235477,55.975719 -41.91,7.72 c 0,0 0.45,2.7 1.22,5.73 0.77,3.03 3.66,11.68 3.52,15.27 -0.14,3.59 -2.89,10.84 -1.9,12.39 0.99,1.55 4.58,1.48 6.69,0.99 2.11,-0.49 4.32,-2.02 4.6,-2.93 0.28,-0.91 -0.38,-9.03 -0.31,-10.93 0.07,-1.9 0.49,-5.56 1.2,-8.38 0.7,-2.82 1.13,-7.95 1.13,-7.95 l 10.21,-5.21 c 0,0 7.11,5.42 9.08,8.31 1.97,2.89 3.45,9.08 3.38,11.61 -0.07,2.53 -1.74,9.79 -0.66,11.1 1.34,1.62 4.56,1.83 6.66,1.64 2.58,-0.23 4.83,-1.64 4.83,-1.64 v -30.33 z"
     fill="#adadb8"
     id="path2" />
  <path
     d="m 113.12548,63.645719 c -1.69,-0.07 -3.23,6 -2.75,8.66 0.7,3.87 3.52,5.21 4.43,6.48 0.92,1.27 1.45,2.84 2.53,3.31 1.13,0.49 2.44,-4.92 2.32,-9.08 -0.13,-5.15 -4.25,-9.27 -6.53,-9.37 z"
     fill="#4d4d4d"
     id="path3" />
  <path
     d="m 80.325477,63.925719 -5.42,5.07 c 0,0 2.49,2.8 4.5,4.22 2.39,1.69 4.65,1.97 4.65,1.97 0,0 -0.49,4.01 1.9,4.36 2.23,0.33 2.04,-4.08 2.39,-4.15 0.35,-0.07 1.06,3.24 2.96,3.17 1.9,-0.07 5.42,-7.46 5.42,-7.46 l -4.37,-11.05 z"
     fill="#fea8a7"
     id="path4" />
  <path
     d="m 40.225477,11.135719 c 0.14,-0.35 -1.41,-1.6899996 -2.89,-2.6699996 -1.48,-0.99 -4.36,-1.34 -4.36,-1.34 l -12.88,6.2599996 -7.81,7.56 c 0,0 -3.2799996,2.3 -4.6899996,3.28 -1.41,0.99 -3.73,2.56 -4.93,3.33 -1.2,0.77 -2.18000002,1.2 -2.39000002,2.11 -0.21,0.91 4.34000002,8.28 4.34000002,8.28 l 2.39,1.76 5.6999996,-0.49 c 0,0 7.6,3.52 11.12,4.79 3.52,1.27 11.54,3.87 11.54,3.87 0,0 1.48,4.01 2.46,6.26 0.99,2.25 2.98,5.37 2.98,5.37 l 20.67,9.97 c 0,0 1.97,7.81 2.32,9.85 0.35,2.04 0.77,7.74 0.63,10.49 -0.14,2.75 -0.72,7.27 -0.63,8.45 0.09,1.31 1.28,2.950001 3.03,3.240001 2.89,0.47 6.34,-0.56 7.81,-2.600001 1.47,-2.04 -0.35,-7.67 -0.56,-10 -0.21,-2.32 -1.21,-7.63 -0.49,-9.36 1.2,-2.89 2.39,-6.55 2.6,-7.81 0.21,-1.27 0.7,-3.31 0.7,-3.31 0,0 3.8,0.07 6.9,-0.35 3.1,-0.42 6.19,-1.06 6.19,-1.06 0,0 0.99,4.15 1.13,6.69 0.14,2.53 0.63,7.53 0.56,11.47 -0.07,3.94 -1.41,8.73 -0.99,9.71 0.42,0.99 1.27,2.72 5.21,2.18 4.170003,-0.57 5.160003,-2.75 5.580003,-3.73 0.42,-0.98 0.96,-9.71 1.53,-11.97 0.56,-2.25 2.39,-11.12 3.38,-14.15 0.99,-3.03 4.65,-14.36 4.65,-14.36 0,0 0,4.72 0.28,6.62 0.28,1.9 0.84,5.98 1.97,5.84 1.13,-0.14 0.77,-3.52 0.84,-5.77 0.07,-2.25 -0.07,-5.42 0.77,-8.09 0.84,-2.67 1.63,-6.9 1.69,-7.39 0.52,-3.99 -0.07,-8.66 -0.14,-9.43 -0.07,-0.77 -5.7,-4.43 -5.7,-4.43 0,0 0.14,-2.93 -0.21,-3.36 -0.35,-0.42 -5.49,-4.32 -7.09,-4.65 -2.67,-0.55 -5.370003,0.4 -5.370003,0.4 l -14.91,11.06 -27.17,-11.12 c 0,0 -2.67,-0.07 -3.52,-0.07 -0.84,0 -4.86,-1.69 -4.86,-1.69 l -4.65,-4.29 z"
     fill="#dfdfdf"
     id="path5" />
  <path
     d="m 103.19548,42.885719 c -0.58,-5.25 1.62,-10.14 2.96,-12.25 1.34,-2.11 2.84,-4.06 3.21,-4.62 0.35,-0.52 7.23,5.58 7.04,8.45 -0.03,0.5 -0.94,6.48 -1.88,9.24 -0.76,2.25 -2.65,7.81 -3.28,8.02 -0.63,0.21 -7.34,-2.51 -8.05,-8.84 z"
     fill="#4d4d4d"
     id="path6" />
  <path
     d="m 102.98548,49.845719 c -1.88,-0.05 -3.310003,1.83 -5.000003,3.73 -1.69,1.9 -3.03,3.38 -2.75,5.28 0.28,1.9 2.39,5 6.260003,4.58 3.87,-0.42 4.93,-4.36 5,-6.76 0.08,-2.39 -0.69,-6.76 -3.51,-6.83 z"
     fill="#4d4d4d"
     id="path7" />
  <path
     d="m 77.885477,22.205719 c -9.64,0.14 -21,0.09 -22.2,0.38 -0.7,0.16 1.76,8.61 5.91,12.98 4.15,4.37 17.07,19.94 26.61,15.84 6.55,-2.82 5.28,-12.04 6.34,-16.82 1.06,-4.79 5.870003,-12.27 5.870003,-12.27 0,0 -14.720003,-0.22 -22.530003,-0.11 z"
     fill="#4d4d4d"
     id="path8" />
  <path
     d="m 56.385477,7.4757194 c 0.84,1.15 -3.66,7.6699996 -5.14,9.3599996 -1.48,1.69 -4.43,3.66 -4.43,3.66 0,0 2.49,0.94 2.91,1.29 0.42,0.35 3.82,6.59 3.85,8.35 0.05,3.05 -6.48,10.84 -9.5,10.77 -3.03,-0.07 -10.35,-4.93 -11.33,-6.26 -0.99,-1.34 -2.25,-13.02 -0.77,-16.82 1.48,-3.8 4.36,-6.76 5.21,-6.9 0.85,-0.14 1.9,0.14 1.9,0.14 0,0 3.38,-2.4599996 8.45,-3.3799996 5.07,-0.92 8.29,-0.98 8.85,-0.21 z"
     fill="#4d4d4d"
     id="path9" />
  <path
     d="m 41.045477,18.875719 c -0.49,-0.56 0.71,-4.59 4.01,-6.97 3.52,-2.5299996 7.25,-2.4599996 7.88,-1.9699996 0.7,0.5399996 -1.45,4.5199996 -4.15,6.5499996 -3.38,2.53 -7.25,2.96 -7.74,2.39 z"
     fill="#ffd1b3"
     id="path10" />
  <path
     d="m 12.465477,26.835719 c 0,0 4.22,-8.45 7.53,-10.84 3.31,-2.39 6.73,-3.28 9.64,-4.29 4.43,-1.55 6.12,-4.8599996 6.12,-4.8599996 0,0 -5.91,-1.34 -10.84,0.14 -3.63,1.09 -7.32,3.4499996 -8.87,5.3499996 -1.55,1.9 -2.56,5.32 -3.66,7.11 -1.34,2.18 -4.5499996,4.58 -4.5499996,4.58 0,0 1.1,0.23 2.3899996,1.08 0.55,0.35 2.24,1.73 2.24,1.73 z"
     fill="#4d4d4d"
     id="path11" />
  <path
     d="m 33.585477,8.4657194 c 0.16,0.57 0.61,1.8199996 1.62,2.5299996 1.19,0.85 3.04,1.09 4.22,0.63 2.18,-0.84 2.93,-5.6999996 3.1,-7.1799996 0.28,-2.53 -0.14,-4.65000002 -1.48,-4.43000002 -0.91,0.14 -3.59,3.49000002 -4.36,4.08000002 -1.2,0.92 -3.67,2.32 -3.1,4.37 z"
     fill="#ffbd16"
     id="path12" />
  <path
     d="m 22.555477,20.005719 c 0.52,-0.23 1.27,-1.88 2.77,-1.74 1.5,0.14 2.68,1.9 2.21,3.89 -0.47,1.97 -1.7,2.57 -3.05,2.3 -1.17,-0.23 -1.74,-1.55 -1.97,-1.74 -0.23,-0.19 -2.58,-0.42 -2.53,-1.41 0.04,-0.97 2.57,-1.3 2.57,-1.3 z"
     fill="#1b1b1b"
     id="path13" />
  <path
     d="m 3.3654774,37.645719 c -0.42,0.52 0.43,2.18 2.25,2.82 2.23,0.77 3.73,0.73 5.3699996,0.31 1.32,-0.34 2.56,-1.15 2.56,-1.15 0,0 2.64,-1.01 1.48,-2.37 -1.6,-1.88 -3.59,1.1 -3.59,1.1 0,0 -1.34,0.82 -3.7799996,0.49 -1.9,-0.26 -3.17,-1.95 -3.17,-1.95 z"
     fill="#4d4d4d"
     id="path14" />
  <path
     d="m 9.0354774,32.255719 c 0.19,-0.97 0.49,-1.66 -2.11,-2.44 -2.67,-0.8 -5.21,-1.22 -6.29000002,-0.7 -0.55,0.26 -1.22,3.1 0.28,5.96 0.85000002,1.62 2.49000002,4.41 3.28000002,4.08 0.79,-0.33 2.23,-2.75 2.67,-3.33 0.63,-0.8 1.85,-1.93 2.17,-3.57 z"
     fill="#fca4a7"
     id="path15" />
  <path
     d="m 7.3954774,31.785719 c -0.04,1.36 -2.11,2.77 -4.55,2.06 -2.44000002,-0.71 -2.86000002,-2.49 -2.72000002,-3.52 0.14,-1.03 2.02000002,-0.05 3.24000002,0.19 1.22,0.24 4.08,-0.19 4.03,1.27 z"
     fill="#ffd3af"
     id="path16" />
  <path
     d="m 66.245477,51.585719 c -2.2,0.5 -4.32,4.27 -4.08,7.41 0.21,2.77 2.51,6.18 6.19,6.57 3.52,0.38 6.1,-2.86 6.01,-5.77 -0.07,-2.16 -2.46,-3.32 -3.8,-4.93 -2.16,-2.58 -2.87,-3.61 -4.32,-3.28 z"
     fill="#4d4d4d"
     id="path17" />
  <path
     d="m 41.655477,51.025719 c -1.13,0.47 -1.5,2.39 -1.69,3.57 -0.19,1.18 0,3.43 0.56,4.6 0.56,1.17 3.71,6.24 4.6,6.95 0.89,0.7 4.93,2.44 9.48,3.1 4.55,0.66 6.95,0.42 6.95,0.42 0,0 -1.27,-2.58 -2.25,-4.97 -0.99,-2.39 -2.39,-6.48 -4.27,-8.68 -1.88,-2.2 -11.34,-5.84 -13.38,-4.99 z"
     fill="#4d4d4d"
     id="path18" />
</svg>
