<?xml version="1.0" encoding="UTF-8" standalone="no"?>
<!-- Uploaded to: SVG Repo, www.svgrepo.com, Generator: SVG Repo Mixer Tools -->

<svg
   width="685.95703"
   height="737.51508"
   viewBox="0 0 109.75312 118.00241"
   aria-hidden="true"
   role="img"
   class="iconify iconify--noto"
   preserveAspectRatio="xMidYMid"
   version="1.1"
   id="svg6"
   sodipodi:docname="dolphin-svgrepo-com.svg"
   xmlns:inkscape="http://www.inkscape.org/namespaces/inkscape"
   xmlns:sodipodi="http://sodipodi.sourceforge.net/DTD/sodipodi-0.dtd"
   xmlns="http://www.w3.org/2000/svg"
   xmlns:svg="http://www.w3.org/2000/svg">
  <defs
     id="defs6" />
  <sodipodi:namedview
     id="namedview6"
     pagecolor="#ffffff"
     bordercolor="#000000"
     borderopacity="0.25"
     inkscape:showpageshadow="2"
     inkscape:pageopacity="0.0"
     inkscape:pagecheckerboard="0"
     inkscape:deskcolor="#d1d1d1" />
  <path
     d="m 6.6297916,44.492945 c -1.8,4.64 -5.62,6.83 -6.48000004,10.56 -0.99,4.32 3.10000004,8.73 7.18000004,8.59 4.0800004,-0.14 13.0800004,-5.04 16.1900004,-6.76 3.57,-1.97 11.92,-5.87 11.92,-5.87 l 23.28,-5.96 16.04,15.63 -1.41,12.95 c 0,0 -0.84,3.38 -2.67,6.62 -1.83,3.24 -7.18,8.17 -10.42,7.32 -3.24,-0.84 -4.83,-6.49 -9.71,-8.87 -5.77,-2.82 -14.5,-3.1 -14.78,-0.7 -0.28,2.4 4.22,3.24 5.35,4.5 1.13,1.27 2.67,6.48 4.36,8.17 1.69,1.69 5.35,4.08 5.35,4.08 0,0 -3.66,4.65 -3.94,8.310005 -0.28,3.66 0.42,7.32 -0.14,8.59 -0.56,1.27 -3.94,4.93 -2.25,6.19 1.69,1.26 10.84,-5.21 13.37,-10.14 2.53,-4.93 3.66,-8.310005 4.79,-9.290005 1.13,-0.98 16.33,-3.52 26.89,-17.03 10.559998,-13.51 10.699998,-29.99 10.42,-37.03 -0.28,-7.04 -3.28,-13.47 -0.75,-17.41 2.529998,-3.94 5.269998,-4.75 6.709998,-5.21 1.92,-0.61 4.27,-1.13 3.75,-3.28 -0.39,-1.65 -2.16,-6.1 -12.109998,-8.45 -7.02,-1.6499998 -14.22,0.28 -14.22,0.28 0,0 -23.13,-15.4999998 -48.43,-8.4399998 -24.21,6.76 -31.8200004,22.8099998 -31.5300004,31.8199998 0.16,5.2 4.22,8.3 3.24,10.83 z"
     fill="#36b4e1"
     id="path1" />
  <path
     d="m 52.939792,44.772945 -9.57,5.35 c 0,0 0.48,6.24 3.38,10.7 1.92,2.96 4.79,5.49 7.6,6.48 3.33,1.17 6.88,1.16 7.04,0.28 0.28,-1.55 -2.2,-3.48 -3.38,-6.76 -1.03,-2.86 -1.13,-13.23 -1.13,-13.23 z"
     fill="#006da6"
     id="path2" />
  <path
     d="m 33.939792,51.672945 c 0,0 12.81,-13.94 27.45,-11.97 14.64,1.97 18.21,12.62 17.32,24.35 -0.54,7.16 -7.89,17.51 -8.02,16.19 -0.09,-0.94 2.44,-16.28 -2.35,-21.49 -5.52,-6.01 -12.15,-7.79 -18.49,-8.07 -6.34,-0.28 -15.91,0.99 -15.91,0.99 z"
     fill="#ddecf5"
     id="path3" />
  <path
     d="m 31.899792,26.612945 c 1.35,2.09 0.84,4.62 -1.06,5.84 -1.9,1.22 -4.99,0.54 -6.34,-1.55 -1.35,-2.09 -0.87,-5.23 1.2,-6.12 3.03,-1.31 4.85,-0.26 6.2,1.83 z"
     fill="#2d2b30"
     id="path4" />
  <path
     d="m 0.28979156,58.362945 c 0,0 3.43000004,0.1 5.14000004,-0.49 4.29,-1.5 9.4300004,-6.26 11.7600004,-8.45 1.93,-1.81 4.65,-5 6.34,-6.69 1.69,-1.69 3.31,-3.52 4.08,-3.24 0.77,0.28 1.55,2.25 1.34,3.1 -0.21,0.84 -5.91,5.91 -8.66,8.45 -2.75,2.53 -7.32,6.69 -10.5600004,8.31 -1.41,0.71 -3.94,1.81 -6.83,1.55 -1.76,-0.16 -2.68000004,-1.91 -2.61000004,-2.54 z"
     fill="#006da6"
     id="path5" />
  <path
     d="m 51.749792,25.352945 c 0.68,1.05 3.1,-0.27 4.5,-1.06 1.76,-0.99 8.66,-5.14 15.35,-5.7 6.69,-0.56 11.68,1.76 12.81,2.25 1.13,0.49 3.73,1.62 3.73,2.25 0,0.63 -6.35,3.6 -9.01,5.35 -2.67,1.76 -7.04,3.87 -9.92,4.5 -2.35,0.52 -6.9,-0.14 -6.97,1.2 -0.07,1.34 -0.42,2.11 5.14,2.11 5.56,0 15.13,-5.77 17.25,-7.18 2.12,-1.41 9.64,-5.14 9.08,-6.48 -0.8,-1.9 -9.78,-7.56 -21.54,-7.32 -10.21,0.21 -15.77,4.72 -18.3,6.62 -0.62,0.46 -2.9,2.26 -2.12,3.46 z"
     fill="#006da6"
     id="path6" />
</svg>
