<?xml version="1.0" encoding="UTF-8" standalone="no"?>
<!-- Uploaded to: SVG Repo, www.svgrepo.com, Generator: SVG Repo Mixer Tools -->

<svg
   width="516.79889"
   height="738.72443"
   viewBox="0 0 82.687822 118.19591"
   aria-hidden="true"
   role="img"
   class="iconify iconify--noto"
   preserveAspectRatio="xMidYMid"
   version="1.1"
   id="svg15"
   sodipodi:docname="flamingo-svgrepo-com.svg"
   xmlns:inkscape="http://www.inkscape.org/namespaces/inkscape"
   xmlns:sodipodi="http://sodipodi.sourceforge.net/DTD/sodipodi-0.dtd"
   xmlns="http://www.w3.org/2000/svg"
   xmlns:svg="http://www.w3.org/2000/svg">
  <defs
     id="defs15" />
  <sodipodi:namedview
     id="namedview15"
     pagecolor="#ffffff"
     bordercolor="#000000"
     borderopacity="0.25"
     inkscape:showpageshadow="2"
     inkscape:pageopacity="0.0"
     inkscape:pagecheckerboard="0"
     inkscape:deskcolor="#d1d1d1" />
  <path
     d="m 44.397847,60.001524 4.5,-0.38 c 0,0 0.75,50.489996 0,52.369996 -0.75,1.88 -8.26,9.76 -12.95,4.32 -4.69,-5.44 0,-6.19 3.75,-6.57 3.75,-0.38 4.88,0.38 5.07,-0.94 0.2,-1.31 -0.37,-48.799996 -0.37,-48.799996 z"
     fill="#f77eae"
     id="path1" />
  <path
     d="m 16.527847,4.3015237 c 0,0 5.73,-6.05 13.8,-3.80000001 8.07,2.25000001 8.63,12.53000031 3.85,20.46000031 -4.09,6.78 -12.45,18.76 -12.29,25.34 0.14,6.03 5.63,5.44 8.07,0.94 2.44,-4.5 3.21,-6.52 3.21,-6.52 l 9.71,23.65 c 0,0 -14.62,9.07 -27.38,-2.58 -11.9200005,-10.89 2.11,-32.01 4.97,-37.26 1.69,-3.1 2.86,-5.68 2.53,-8.54 -0.19,-1.68 -2.42,-3.12 -3.94,-3.73 -1.46,-0.58 -9.5000005,-3.1900003 -9.5000005,-3.1900003 z"
     fill="#f77eae"
     id="path2" />
  <path
     d="m 44.117847,66.001524 c 0,0 19.23,10.88 18.21,11.36 -1.41,0.66 -9.1,2.25 -13.14,3.1 -3.21,0.67 -7.79,1.22 -9.57,2.25 -1.78,1.03 -4.6,5.07 -5.16,6.38 -0.56,1.31 -1.03,3.85 2.72,5.63 3.75,1.78 5.91,-0.66 5.91,-2.82 0,-2.16 -0.66,-5.16 0,-5.54 0.87,-0.49 7.13,-2.06 10.89,-2.91 3.76,-0.85 11.36,-2.91 12.48,-3.19 1.13,-0.28 3.19,-0.38 3.57,-2.16 0.38,-1.78 -2.44,-2.44 -3.85,-3.28 -1.41,-0.84 -5.73,-3.75 -7.6,-4.88 -1.88,-1.13 -7.88,-5.73 -7.88,-5.73 l -6.19,-0.56 z"
     fill="#f2478d"
     id="path3" />
  <path
     d="m 16.527847,2.8415237 c 0,0 0.56,-0.56 2.91,-0.56 2.35,0 6.48,1.88 8.54,2.82 2.06,0.94 4.13,1.88 4.13,2.53 0,0.66 -4.97,1.6 -7.41,2.16 -2.44,0.5600003 -6.85,1.9700003 -6.85,1.9700003 l -6.01,-5.3500003 z"
     fill="#ffd4ac"
     id="path4" />
  <path
     d="m 28.257847,6.9215237 c 0,1.37 -1.16,2.49 -2.58,2.49 -1.43,0 -2.67,-1.16 -2.67,-2.53 0,-1.37 1.11,-2.53 2.53,-2.53 1.42,0 2.72,1.2 2.72,2.57 z"
     fill="#1a191e"
     id="path5" />
  <path
     d="m 19.107847,2.2515237 -5.16,0.21 -7.0900005,7.8800003 -0.19,3.1 c 0,0 2.67,-1.03 5.4000005,-1.45 2.72,-0.42 3.65,-0.43 4.27,-0.38 1.03,0.09 1.69,0.19 1.69,0.19 0,0 1.8,-2.6800003 1.88,-4.5000003 0.14,-3.15 -0.8,-5.05 -0.8,-5.05 z"
     fill="#f2478d"
     id="path6" />
  <path
     d="m 5.8278465,3.1715237 c -1.59,1.02 -3.24,4.04 -4.27,5.91 -1.02999997,1.8700003 -2.61,6.2500003 -0.55999997,7.2300003 1.37999997,0.66 4.21999997,-2.11 6.09999997,-2.91 1.83,-0.78 3.1200005,-1.03 3.1200005,-1.03 0,0 0.19,-0.75 0.49,-0.94 0.3,-0.19 5.63,-1.17 5.63,-1.17 V 8.9515237 c 0,0 -6.24,1.1700003 -6.3400005,0.75 -0.09,-0.42 1.4800005,-3.05 2.7000005,-4.32 1.22,-1.27 4.08,-3 4.08,-3 0,0 -2.6,-0.23 -5.47,-0.42 -2.6100005,-0.18 -3.7900005,0.13 -5.4800005,1.21 z"
     fill="#5f6369"
     id="path7" />
  <path
     d="m 14.137847,9.7415237 1.92,-1.08 c 0,0 1.27,-1.13 2.11,-0.28 0.87,0.87 -0.33,2.5300003 -1.55,1.9700003 -0.9,-0.4200003 -2.48,-0.6100003 -2.48,-0.6100003 z"
     fill="#1a191e"
     id="path8" />
  <radialGradient
     id="IconifyId17ecdb2904d178eab8772"
     cx="56.959"
     cy="45.199001"
     r="52.141998"
     gradientUnits="userSpaceOnUse"
     gradientTransform="translate(-22.172153,-4.6984763)">
    <stop
       offset=".195"
       stop-color="#f77eae"
       id="stop8" />
    <stop
       offset=".354"
       stop-color="#f678aa"
       id="stop9" />
    <stop
       offset=".564"
       stop-color="#f568a1"
       id="stop10" />
    <stop
       offset=".801"
       stop-color="#f24c90"
       id="stop11" />
    <stop
       offset=".842"
       stop-color="#f2478d"
       id="stop12" />
  </radialGradient>
  <path
     d="m 32.317847,54.161524 c 1.27,3.8 3.45,13.02 18.65,13.02 10.98,0 14.27,-0.17 17.53,0.56 2.18,0.49 4.58,2.04 6.62,2.6 0.63,0.17 -0.21,-2.53 -0.63,-4.01 -0.24,-0.85 -0.99,-2.46 -0.99,-2.46 0,0 1.9,0.49 3.52,1.2 1.33,0.58 3.03,1.34 4.08,1.97 0.69,0.41 -0.19,-2.86 -1.06,-5 -0.61,-1.49 -2.67,-4.08 -2.67,-4.08 0,0 1.97,0.77 2.82,1.13 0.51,0.21 1.57,0.73 2.42,0.96 0.72,0.2 -3.61,-7.65 -5.44,-9.83 -1.83,-2.18 -5.7,-5.77 -7.53,-6.9 -1.83,-1.13 -15.98,-0.84 -15.98,-0.84 l -20.98,1.06 c -0.01,-0.01 -1.98,5.76 -0.36,10.62 z"
     fill="url(#IconifyId17ecdb2904d178eab8772)"
     id="path12"
     style="fill:url(#IconifyId17ecdb2904d178eab8772)" />
  <linearGradient
     id="IconifyId17ecdb2904d178eab8773"
     gradientUnits="userSpaceOnUse"
     x1="69.226997"
     y1="39.488998"
     x2="81.181"
     y2="67.652"
     gradientTransform="translate(-22.172153,-4.6984763)">
    <stop
       offset=".162"
       stop-color="#f77eae"
       id="stop13" />
    <stop
       offset=".37"
       stop-color="#f982a4"
       id="stop14" />
    <stop
       offset=".664"
       stop-color="#fc8a8f"
       id="stop15" />
  </linearGradient>
  <path
     d="m 43.937847,33.181524 c 8.55,-1.06 16.26,3.38 20.98,6.12 4.72,2.75 10.49,8.94 10.49,8.94 0,0 -3.26,0.5 -5.75,0.45 -2.3,-0.05 -5.44,-0.52 -5.44,-0.52 0,0 2.82,2.3 4.36,4.79 0.59,0.94 2.11,3.87 2.11,3.87 0,0 -5.49,0.07 -10.77,-2.18 -3.22,-1.37 -8.09,-4.43 -8.09,-4.43 0,0 1.69,4.43 2.11,5.49 0.42,1.06 1.13,3.38 1.13,3.38 0,0 -5.35,-0.21 -9.71,-3.87 -4.36,-3.66 -4.22,-4.55 -4.22,-4.55 0,0 1.27,4.62 1.62,5.82 0.35,1.2 0.84,4.36 0.84,4.36 0,0 -5.8,-0.56 -8.87,-3.8 -2.02,-2.13 -3.38,-5.35 -3.45,-7.95 -0.09,-2.62 0.69,-14.44 12.66,-15.92 z"
     fill="url(#IconifyId17ecdb2904d178eab8773)"
     id="path15"
     style="fill:url(#IconifyId17ecdb2904d178eab8773)" />
</svg>
