<?xml version="1.0" encoding="UTF-8" standalone="no"?>
<!-- Uploaded to: SVG Repo, www.svgrepo.com, Generator: SVG Repo Mixer Tools -->

<svg
   width="751.98004"
   height="637.69141"
   viewBox="0 0 319.59152 271.01885"
   id="icons"
   version="1.1"
   sodipodi:docname="animal-cute-fox-svgrepo-com.svg"
   xmlns:inkscape="http://www.inkscape.org/namespaces/inkscape"
   xmlns:sodipodi="http://sodipodi.sourceforge.net/DTD/sodipodi-0.dtd"
   xmlns="http://www.w3.org/2000/svg"
   xmlns:svg="http://www.w3.org/2000/svg">
  <defs
     id="defs23" />
  <sodipodi:namedview
     id="namedview23"
     pagecolor="#ffffff"
     bordercolor="#000000"
     borderopacity="0.25"
     inkscape:showpageshadow="2"
     inkscape:pageopacity="0.0"
     inkscape:pagecheckerboard="0"
     inkscape:deskcolor="#d1d1d1" />
  <title
     id="title1" />
  <path
     d="m 251.93135,190.49223 -1.284,31.906 q -11.594,12.169 -23.185,4.156 a 148.1,148.1 0 0 0 -4.454,-23.705 l 7.607,-9.66 c 0,0 22.676,-15.477 21.316,-2.697 z"
     style="fill:#d15124"
     id="path1" />
  <path
     d="m 168.47035,192.26723 c 0,0 -19.468,11.571 -25.223,34.326 -0.373,1.475 -0.681,2.837 -0.935,4.106 -6.955,5.67 -14.962,6.814 -24.193,2.691 0.684,-6.8 1.534,-13.872 1.731,-19.03 l 24.624,-32.318 z"
     style="fill:#d15124"
     id="path2" />
  <path
     d="m 141.91935,250.83823 c -0.384,-6.634 -1.442,-10.937 0.395,-20.139 -4.889,2.9 -12.633,5.192 -24.233,3.081 -0.63,6.311 -1.106,12.356 -0.768,16.381 0.851,10.153 25.522,16.506 24.606,0.677 z"
     style="fill:#a3b8bf"
     id="path3" />
  <path
     d="m 247.50635,261.55323 c 2.828,-0.778 2.859,-4.519 2.522,-9.722 a 102.932,102.932 0 0 1 -0.058,-12.629 l 0.677,-16.8 a 23.13,23.13 0 0 1 -23.187,4.156 c 1.238,10.659 1.648,20.636 1.783,26.224 a 9.282,9.282 0 0 0 5.562,8.414 19.612,19.612 0 0 0 12.701,0.357 z"
     style="fill:#a3b8bf"
     id="path4" />
  <path
     d="m 204.83135,97.081234 c 0,0 -5.686,15.432996 -32.085,16.651996 0,0 -34.607,-0.849 -58.89,-7.717 0,0 -32.037002,-9.681996 -58.889002,13.4 0,0 -44.675,21.119 -44.269,71.073 1.189,17.094 33.439,36.473 48.246,9.832 1.3,-5.48 1.391,-11.8 1.688,-19.142 0,0 1.357,-22.653 23.983,-30.9 a 49.825,49.825 0 0 0 4.2,37.236 30.522,30.522 0 0 1 3.5,19.057 164.733,164.733 0 0 0 -1.608,16.464 c 7.48,10.848 17.165002,13.611 29.100002,8.107 3.316,-11.044 10.457,-22.783 24.51,-32.94 a 108.414,108.414 0 0 0 34.521,1.218 c 0,0 -0.587,10.531 -0.809,24.1 q 12.144,15.012 27.78,7.262 c 2.82,-9.371 8.768,-19.616 20.748,-27.789 9.94,-46.929 11.409,-88.136 -21.726,-105.912996 z"
     style="fill:#ff8752"
     id="path5" />
  <path
     d="m 208.89735,75.556234 c 0,0 -10.138,4.13 -17.056,16.722 a 1.86,1.86 0 0 0 0.71,2.539 21.353,21.353 0 0 0 12.284,2.264 c 0,0 -11.474,34.128996 9.365,50.678996 a 4.6,4.6 0 0 1 1.354,5.55 c -4.363,9.336 -13.985,35.821 7.983,51.9 v 0 c 1.025,-0.8 2.088,-1.583 3.218,-2.346 a 20.573,20.573 0 0 1 10.435,-3.465 c 7.491,-0.391 21.933,-2.643 28.969,-13.783 0,0 21.525,-2.843 28.429,-24.368 0,0 17.464,-17.058 12.591,-42.239 0,0 2.75,2.151 9.538,2.075 a 1.855,1.855 0 0 0 1.773,-1.362 c 1.187,-4.391 3.81,-19.416 -8.062,-40.107996 l 9.163,0.812 c -18.909,-20.262 -82.431,-26.509 -110.694,-4.87 z"
     style="fill:#e7eef2"
     id="path6" />
  <path
     d="m 302.30935,45.819234 c 0,0 11.779,-12.453 8.418,-36.0569997 a 11.4,11.4 0 0 0 -16,-8.74 51.165,51.165 0 0 0 -25.32,25.3909997 h -13.81 c 0,0 -8.019,-16.5519997 -30.7,-24.7889997 -4.826,-1.75299999 -10.607,1.6 -12.054,6.523 -3.255,11.0789997 -0.877,27.7279997 9.29,40.6429997 0,0 -0.238,7.366 -20.857,17.591 a 1.589,1.589 0 0 0 -0.722,2.135 14.005,14.005 0 0 0 8.335,7.04 c 0,0 19.048,-4.872 35.1,8.078 0,0 5.927,5.156 17.7,5.156 0,0 9.341,-0.34 20.406,-8.312 0,0 16.8,-10.026 28.333,-0.861 a 16.739,16.739 0 0 0 7.694,1.086 1.577,1.577 0 0 0 1.359,-1.73 c -0.5,-4.96 -3.184,-21.533 -17.172,-33.154 z"
     style="fill:#ff8752"
     id="path7" />
  <path
     d="m 243.00535,28.904234 a 55.144,55.144 0 0 0 -11.265,9.455 2.21,2.21 0 0 1 -3.39,-0.076 c -2.648,-3.315 -7.358,-10.773 -7.935,-22.421 a 3.94,3.94 0 0 1 5.05,-4 31.475,31.475 0 0 1 18.209,14.053 2.214,2.214 0 0 1 -0.669,2.989 z"
     style="fill:#d15124"
     id="path8" />
  <path
     d="m 280.87435,30.234234 a 55.159,55.159 0 0 1 12.023,8.47 2.209,2.209 0 0 0 3.371,-0.362 c 2.359,-3.527 6.421,-11.357 6.01,-23.012 a 3.941,3.941 0 0 0 -5.37,-3.558 31.477,31.477 0 0 0 -16.955,15.543 2.216,2.216 0 0 0 0.921,2.919 z"
     style="fill:#d15124"
     id="path9" />
  <path
     d="m 99.476348,269.42823 c 3.861002,2.393 9.288002,1.573 14.000002,0.827 a 6.356,6.356 0 0 0 5.284,-7.61 64.349,64.349 0 0 1 1.043,-31.5 c -15.393,3.231 -24.593002,-3.268 -29.100002,-8.107 -0.544,11.569 0.041,25.56 3.707,39.444 a 11.647,11.647 0 0 0 5.066,6.946 z"
     style="fill:#e7eef2"
     id="path10" />
  <path
     d="m 204.75935,259.95023 -0.334,-2.851 a 55.931,55.931 0 0 1 1.393,-26.308 c -12.048,4.592 -23.078,-3.16 -27.788,-7.264 -0.2,12.274 -0.1,27.031 1,38.732 a 8.874,8.874 0 0 0 8.824,8.037 c 12.626,-0.011 17.364,-2.247 16.905,-10.346 z"
     style="fill:#e7eef2"
     id="path11" />
  <path
     d="m 261.68835,106.15123 a 3.019,3.019 0 0 1 -3.018,-3.019 v -7.964996 a 3.019,3.019 0 1 1 6.037,0 v 7.964996 a 3.019,3.019 0 0 1 -3.019,3.019 z"
     style="fill:#373d4c"
     id="path12" />
  <path
     d="m 250.12335,65.934234 a 2.994,2.994 0 0 1 -1.647,-0.5 14.284,14.284 0 0 0 -4.661,-1.991 3.0002205,3.0002205 0 0 1 1.322,-5.853 20.371,20.371 0 0 1 6.639,2.833 3,3 0 0 1 -1.653,5.506 z"
     style="fill:#373d4c"
     id="path13" />
  <path
     d="m 270.73835,66.231234 a 3,3 0 0 1 -1.86,-5.355 20.253,20.253 0 0 1 6.613,-3.465 3.0003013,3.0003013 0 0 1 1.736,5.744 14.394,14.394 0 0 0 -4.633,2.432 2.985,2.985 0 0 1 -1.856,0.644 z"
     style="fill:#373d4c"
     id="path14" />
  <path
     d="m 245.18335,86.404234 a 3.148,3.148 0 0 1 -2.12,-0.818 c -6.648,-6.023 -15.544,-6.092 -15.633,-6.092 a 3.16,3.16 0 0 1 0,-6.319 c 0.464,0 11.441,0.088 19.875,7.728 a 3.159,3.159 0 0 1 -2.122,5.5 z"
     style="fill:#373d4c"
     id="path15" />
  <path
     d="m 244.41635,97.717234 a 3.156,3.156 0 0 1 -1.506,-0.385 c -9.675,-5.261 -17.057,-0.938 -17.367,-0.752 a 3.159,3.159 0 0 1 -3.325,-5.372 c 0.431,-0.27 10.7,-6.5 23.71,0.573 a 3.16,3.16 0 0 1 -1.512,5.936 z"
     style="fill:#373d4c"
     id="path16" />
  <path
     d="m 278.62135,86.404234 a 3.159,3.159 0 0 1 -2.121,-5.5 c 8.434,-7.64 19.411,-7.728 19.874,-7.728 a 3.16,3.16 0 0 1 0.009,6.319 c -0.134,0 -9.072,0.141 -15.642,6.092 a 3.144,3.144 0 0 1 -2.12,0.817 z"
     style="fill:#373d4c"
     id="path17" />
  <path
     d="m 278.95335,97.552234 a 3.16,3.16 0 0 1 -1.512,-5.936 c 13.014,-7.075 23.279,-0.843 23.71,-0.573 a 3.1590798,3.1590798 0 0 1 -3.329,5.37 c -0.359,-0.215 -7.723,-4.486 -17.363,0.754 a 3.151,3.151 0 0 1 -1.506,0.385 z"
     style="fill:#373d4c"
     id="path18" />
  <path
     d="m 266.77335,82.104234 h -10.169 a 4.594,4.594 0 0 0 -4.047,6.764 20.35,20.35 0 0 0 9.131,8.578 20.35,20.35 0 0 0 9.132,-8.578 4.594,4.594 0 0 0 -4.047,-6.764 z"
     style="fill:#373d4c"
     id="path19" />
  <path
     d="m 89.668348,140.87423 a 1.328,1.328 0 0 0 -1.212,-2.194 l -0.078,0.013 a 40.6,40.6 0 0 0 -33.217,36.674 c -0.855,9.9 -3.18,25.3 -9.476,36.937 4.989,-1.721 9.644,-5.476 13.259,-11.98 a 100.167,100.167 0 0 0 2.521,-19.173 37.909,37.909 0 0 1 23.15,-30.866 22.513,22.513 0 0 1 5.053,-9.411 z"
     style="fill:#d15124"
     id="path20" />
  <path
     d="m 2.903348,230.70423 c 5.839,4.206 16.08,9.173 35.284,0 0,0 14.908,-5.845 20.751,-30.377 -31.361,18.3 -48.24,-9.83 -48.24,-9.83 0,0 -0.4,12.74 -4.257,23.9 0,0 -1.8,8.232 -4.164,11.153 -1.52099998,1.875 -1.33399998,3.738 0.626,5.154 z"
     style="fill:#e7eef2"
     id="path21" />
  <path
     d="m 58.938348,200.32223 a 49.226,49.226 0 0 1 -9.875,4.469 c -4.161,11.137 -10.942,20.859 -22.014,23.044 -13.492,2.663 -18.791,-4.779 -20.614,-13.442 a 35.493,35.493 0 0 1 -5.45799998,10.538 4.264,4.264 0 0 0 0.76499998,6.155 c 5.838,4.206 18.585,10 37.791,0.832 0,0 13.564,-7.064 19.405,-31.596 z"
     style="fill:#a3b8bf"
     id="path22" />
  <path
     d="m 282.94535,132.83923 c -2.456,4.665 -6.954,10.4 -14.762,12.6 a 1.215,1.215 0 0 1 -1.479,-1.536 60.418,60.418 0 0 0 1.938,-7.678 1.21,1.21 0 0 0 -2.085,-1.037 32.884,32.884 0 0 1 -17.147,10.316 1.215,1.215 0 0 1 -1.367,-1.66 c 0.661,-1.558 1.555,-3.8 2.241,-6.038 a 1.21,1.21 0 0 0 -1.742,-1.423 34.388,34.388 0 0 1 -14.963,4.29 1.213,1.213 0 0 1 -0.572,-2.318 c 5.974,-2.627 15.652,-7.629 20.927,-14.346 a 1.205,1.205 0 0 1 2.143,0.568 33.8,33.8 0 0 1 -0.343,11.043 1.211,1.211 0 0 0 1.928,1.2 c 3.541,-2.746 9.684,-8.119 12.87,-14.473 a 1.209,1.209 0 0 1 2.187,0.089 21.3,21.3 0 0 1 1.631,10.763 1.213,1.213 0 0 0 1.682,1.276 22.412,22.412 0 0 0 5.073,-3.129 1.211,1.211 0 0 1 1.84,1.493 z"
     style="fill:#a3b8bf"
     id="path23" />
</svg>
