<?xml version="1.0" encoding="UTF-8" standalone="no"?>
<!-- Uploaded to: SVG Repo, www.svgrepo.com, Generator: SVG Repo Mixer Tools -->

<svg
   width="567.84259"
   height="748.75995"
   viewBox="0 0 90.854814 119.80159"
   aria-hidden="true"
   role="img"
   class="iconify iconify--noto"
   preserveAspectRatio="xMidYMid"
   version="1.1"
   id="svg38"
   sodipodi:docname="giraffe-svgrepo-com.svg"
   xmlns:inkscape="http://www.inkscape.org/namespaces/inkscape"
   xmlns:sodipodi="http://sodipodi.sourceforge.net/DTD/sodipodi-0.dtd"
   xmlns="http://www.w3.org/2000/svg"
   xmlns:svg="http://www.w3.org/2000/svg">
  <defs
     id="defs38" />
  <sodipodi:namedview
     id="namedview38"
     pagecolor="#ffffff"
     bordercolor="#000000"
     borderopacity="0.25"
     inkscape:showpageshadow="2"
     inkscape:pageopacity="0.0"
     inkscape:pagecheckerboard="0"
     inkscape:deskcolor="#d1d1d1" />
  <path
     d="m 38.024608,67.972844 c -1.2,0.28 -8.02,0.92 -8.02,0.92 0,0 -0.06,10.21 0,15.98 0.07,6.9 0.56,11.83 0.49,16.119996 -0.08,4.58 -0.77,9.36 -1.06,10.21 -0.29,0.85 -1.55,3.45 -1.34,3.94 0.21,0.49 1.2,0.79 3.73,0.84 3.59,0.07 4.29,-0.49 4.5,-1.27 0.09,-0.34 0.35,-17.179996 0.63,-19.919996 0.31,-3.02 0.42,-14.15 0.42,-14.15 z"
     fill="#fa821b"
     id="path1" />
  <path
     d="m 73.284608,76.772844 -5.7,6.55 1.83,8.94 c 0,0 2.67,3.94 2.67,5.77 0,1.83 -0.28,6.599996 -0.35,7.249996 -0.14,1.34 -1.2,5.21 -1.48,6.62 -0.28,1.41 -0.63,2.82 -0.21,3.31 0.42,0.49 2.61,0.39 3.59,0.35 1.62,-0.07 2.39,-0.42 2.89,-0.7 0.6,-0.34 0.63,-6.9 0.77,-10.35 0.13,-3.12 0.56,-7.739996 0.56,-8.799996 0,-1.06 -1.97,-3.24 -2.96,-5.21 -0.7,-1.41 -1.41,-3.45 -1.41,-4.72 0,-1.27 -0.2,-9.01 -0.2,-9.01 z"
     fill="#fa821b"
     id="path2" />
  <path
     fill="#fa821b"
     d="m 15.964608,7.762844 -0.23,-4.83 3.19,-0.1 0.89,4.27 z"
     id="path3" />
  <path
     d="m 83.494608,79.232844 c 0,0 2.53,-0.4 4.22,0.63 1.69,1.03 3.16,3.07 3.14,6.45 -0.01,2.66 -0.96,5.06 -2.02,6.57 -0.82,1.17 -1.83,1.78 -2.16,1.6 -0.33,-0.18 -0.23,-3.28 -0.8,-5.44 -0.57,-2.16 -2.11,-7.37 -2.25,-7.98 -0.13,-0.61 -0.13,-1.83 -0.13,-1.83 z"
     fill="#d57657"
     id="path4" />
  <path
     d="m 22.374608,7.812844 c 0,0 -2.78,-1.54 -5.92,-0.55 -3.14,0.99 -4.82,3.27 -6.04,5.48 -1.2199998,2.21 -2.4899998,3.68 -3.6099998,4.46 -2.37,1.65 -8.02,3.61 -6.56999997,8.17 1.08999997,3.44 6.79999997,1.97 9.99999977,1.74 3.19,-0.23 8.45,-0.09 8.45,-0.09 l 7.7,-12.34 z"
     fill="#d57657"
     id="path5" />
  <path
     d="m 30.624608,13.722844 8.24,-1.29 1.65,1.27 c 0,0 -2.46,4.79 -4.96,6.03 -2.17,1.08 -5.96,0.8 -5.96,0.8 0,0 1.78,5.49 3.66,9.06 1.88,3.57 5.63,9.48 6.76,10.65 1.13,1.17 7.56,5.4 8.4,6.15 0.84,0.75 3.94,7.23 3.94,7.23 l -12.11,0.27 -17.45,-33.65 z"
     fill="#d57657"
     id="path6" />
  <path
     d="m 27.954608,3.302844 -3.89,-1.13 c 0,0 -0.8,3.1 -1.22,3.89 -0.42,0.8 -2.58,1.92 -2.82,3.1 -0.23,1.17 -0.09,1.83 -0.09,1.83 0,0 -7.09,-0.66 -7.88,5.49 -0.39,2.98 0.36,4.93 1.27,6.34 1.2,1.86 2.94,2.56 3.1,2.96 0.28,0.7 4.74,11.64 5.58,13.84 0.84,2.21 6.99,15.63 7.09,16.61 0.09,0.99 -0.42,2.53 -0.66,4.13 -0.23,1.6 -0.75,6.29 1.03,9.85 1.78,3.56 5.73,7.04 6.1,8.31 0.38,1.27 2.16,5.63 2.72,8.82 0.56,3.19 1.41,10.04 1.78,12.669996 0.38,2.63 1.45,7.04 1.41,10.32 -0.05,3.28 -1.36,7.04 -1.13,7.88 0.23,0.84 1.97,1.6 3.94,1.5 1.97,-0.09 3.94,-0.99 4.04,-1.5 0.09,-0.52 -0.7,-10.51 -0.89,-12.62 -0.19,-2.11 -0.75,-8.539996 -0.38,-13.839996 0.38,-5.3 1.22,-12.76 1.22,-12.76 0,0 3.24,-0.33 4.6,-0.56 1.36,-0.23 5.77,-1.6 5.77,-1.6 0,0 0.66,3.57 1.69,8.92 1.03,5.35 1.83,10.65 1.41,12.62 -0.42,1.969996 -1.13,6.049996 -2.53,9.899996 -1.4,3.85 -3.52,9.76 -3.24,10.37 0.28,0.61 2.16,1.31 4.13,1.13 1.97,-0.19 3.28,-0.94 3.52,-1.5 0.24,-0.56 0.8,-6.29 0.99,-6.95 0.19,-0.66 4.65,-13.369996 5.07,-16.469996 0.42,-3.1 1.17,-11.45 1.45,-12.34 0.28,-0.89 2.39,-2.3 3.47,-5.16 1.08,-2.86 1.55,-5.91 1.55,-5.91 0,0 1.64,3.19 3.28,5.16 1.64,1.97 4.83,4.81 5.21,5.26 0.65,0.75 2.06,0.14 1.03,-1.22 -1.03,-1.36 -3.52,-3.61 -4.6,-5.4 -1.08,-1.78 -3,-6.19 -3.33,-7.32 -0.33,-1.13 -1.54,-3.27 -1.99,-4 -0.73,-1.17 -4.85,-8.07 -7.29,-8.73 -2.44,-0.66 -5.98,-1.44 -10.01,-1.4 -2.39,0.03 -7.65,-1.5 -8.4,-1.83 -0.75,-0.33 -2.67,-1.27 -2.67,-1.27 0,0 -1.6,-2.72 -2.91,-3.99 -1.31,-1.27 -4.55,-2.58 -5.35,-3.38 -0.8,-0.8 -4.88,-6.9 -7.04,-11.31 -2.16,-4.41 -4.32,-8.02 -4.79,-9.85 -0.47,-1.83 -0.89,-4.18 -0.89,-4.18 0,0 4.27,0.23 6.85,-0.56 2.58,-0.79 6.05,-4.65 6.05,-4.65 0,0 -2.72,-2.58 -6.71,-2.49 -3.99,0.09 -5.14,0.97 -5.14,0.97 0,0 -0.07,-2.24 0.02,-3.27 0.1,-1.02 0.48,-4.68 0.48,-4.68 z"
     fill="#ffb305"
     id="path7" />
  <path
     d="m 4.0846082,21.682844 c -0.75,0.69 -1.27,1.63 -0.71,2.26 0.66,0.74 1.62,0.3 2.32,-0.3 0.71,-0.59 1.47,-1.67 0.91,-2.36 -0.5,-0.62 -1.56,-0.49 -2.52,0.4 z"
     fill="#2e2a32"
     id="path8" />
  <path
     d="m 23.354608,17.332844 c 0,2.41 -1.98,4.5 -4.46,4.5 -2.48,0 -4.51,-1.86 -4.51,-4.27 0,-2.41 2.01,-4.36 4.49,-4.36 2.48,0 4.48,1.72 4.48,4.13 z"
     fill="#fee2b2"
     id="path9" />
  <path
     d="m 16.314608,17.362844 c 0.23,-0.55 0.41,-1.17 0.96,-1.64 0.99,-0.84 2.73,-0.86 3.54,0.4 0.94,1.45 0.31,2.96 -0.84,3.5 -1.04,0.49 -2.58,-0.02 -2.58,-0.02 0,0 -1.29,0.61 -2.44,0.45 -0.49,-0.07 -1.25,-0.5 -1.27,-0.92 -0.02,-0.54 0.17,-0.73 1.36,-0.84 1.01,-0.11 1.15,-0.65 1.27,-0.93 z"
     fill="#2e2a32"
     id="path10" />
  <path
     d="m 17.394608,0.18284401 c -2,-0.15 -2.57,0.74 -2.6,1.78999999 -0.04,1.06 0.6,2.08 2.29,2.08 1.69,0 2.46,-0.6 2.46,-2.11 0,-1.33999999 -1.23,-1.68999999 -2.15,-1.75999999 z"
     fill="#4d4d4d"
     id="path11" />
  <path
     d="m 23.524608,1.482844 c -0.7,1.58 0.14,2.86 1.87,3.48 1.76,0.63 3.24,0.28 3.63,-1.51 0.39,-1.79 -0.56,-2.59999999 -1.55,-3.05999999 -0.98,-0.45 -3.06,-0.92 -3.95,1.08999999 z"
     fill="#4d4d4d"
     id="path12" />
  <path
     d="m 24.184608,22.922844 c 0.82,0.41 0.77,1.76 0.49,2.53 -0.17,0.46 -1.27,1.13 -2.11,0.28 -0.84,-0.84 0.36,-3.45 1.62,-2.81 z"
     fill="#d57657"
     id="path13" />
  <path
     d="m 20.284608,29.992844 c -0.03,0.81 0.95,3.38 2.11,3.45 1.16,0.07 2.71,-0.6 2.6,-1.44 -0.11,-0.84 -1.09,-3.41 -1.97,-3.45 -0.88,-0.04 -2.71,0.39 -2.74,1.44 z"
     fill="#d57657"
     id="path14" />
  <path
     d="m 26.264608,27.702844 c -1.26,0.65 -0.42,1.87 0.07,2.5 0.49,0.63 1.55,1.51 2.29,0.95 0.74,-0.56 0.46,-1.56 0.32,-2.22 -0.5,-2.32 -1.24,-1.96 -2.68,-1.23 z"
     fill="#d57657"
     id="path15" />
  <path
     d="m 29.254608,32.702844 c -0.68,0.43 -1.48,0.67 -0.56,2.46 0.92,1.79 2.6,6.19 4.5,5.24 1.9,-0.95 0.14,-3.48 -0.56,-4.82 -0.7,-1.33 -1.58,-4 -3.38,-2.88 z"
     fill="#d57657"
     id="path16" />
  <path
     d="m 22.884608,37.382844 c -0.25,1.1 1.65,5.38 3.38,5.56 1.72,0.18 2.89,-0.88 2.89,-1.79 0,-0.92 -1.87,-5.6 -3.31,-5.56 -1.44,0.04 -2.78,1.02 -2.96,1.79 z"
     fill="#d57657"
     id="path17" />
  <path
     d="m 27.634608,47.342844 c -0.06,0.78 1.9,4.5 3.52,4.65 1.62,0.15 4.4,-1.06 4.54,-2.46 0.14,-1.41 -1.48,-5.07 -3.31,-5.24 -1.83,-0.18 -4.68,2.07 -4.75,3.05 z"
     fill="#d57657"
     id="path18" />
  <path
     d="m 34.744608,42.732844 c -0.87,0.99 -0.39,1.13 1.55,3.48 0.65,0.79 2.01,2.85 3.2,1.34 1.01,-1.27 0.88,-1.23 -1.62,-3.52 -0.92,-0.84 -2.39,-2.14 -3.13,-1.3 z"
     fill="#d57657"
     id="path19" />
  <path
     d="m 40.694608,49.912844 c 0,1.02 3.38,3.2 4.08,2.32 0.7,-0.88 -1.02,-3.7 -1.97,-3.94 -0.95,-0.24 -2.11,0.95 -2.11,1.62 z"
     fill="#d57657"
     id="path20" />
  <path
     d="m 33.554608,56.922844 c 1.9,2.36 3.1,1.76 4.19,2.29 1.09,0.53 3.13,1.96 3.91,1.94 1.23,-0.04 3.87,-1.62 3.98,-3.45 0.11,-1.83 -3.41,-5.6 -5.77,-6.02 -2.37,-0.43 -8.04,3.09 -6.31,5.24 z"
     fill="#d57657"
     id="path21" />
  <path
     d="m 31.934608,60.222844 c 0.06,0.38 -0.81,1.65 -1.2,2.96 -0.39,1.3 -0.42,3.13 -0.7,3.41 -0.28,0.28 -1.65,0.04 -1.65,0.04 0,0 -0.48,-2 -0.32,-4.75 0.11,-1.83 0.88,-3.94 0.88,-3.94 0,0 2.88,1.62 2.99,2.28 z"
     fill="#d57657"
     id="path22" />
  <path
     d="m 34.434608,61.142844 c -0.56,0.21 -1.69,1.48 -2.15,2.89 -0.46,1.41 -0.88,3.91 -0.6,4.26 0.28,0.35 7.85,3.91 9.12,3.73 1.27,-0.18 5.81,-3.7 5.91,-4.93 0.11,-1.23 -0.7,-4.72 -2.29,-4.89 -1.58,-0.18 -4.08,2.25 -4.75,2.39 -0.67,0.14 -4.29,-3.8 -5.24,-3.45 z"
     fill="#d57657"
     id="path23" />
  <path
     d="m 47.064608,53.752844 c 0.04,0.56 1.37,1.65 1.51,3.41 0.14,1.76 -1.27,3.27 -1.27,3.91 0,0.64 1.76,4.24 2.39,4.15 1.34,-0.18 3.84,-4.22 4.01,-7.71 0.11,-2.11 -0.6,-4.29 -1.16,-4.65 -0.56,-0.35 -2.15,-0.99 -3.24,-0.67 -1.08,0.33 -2.31,0.64 -2.24,1.56 z"
     fill="#d57657"
     id="path24" />
  <path
     d="m 56.924608,55.442844 c -1.03,0.23 -2.99,6.19 -2.36,7.29 0.63,1.09 5.14,2.64 6.26,1.58 1.13,-1.06 0.35,-3.87 -0.32,-5.21 -0.66,-1.34 -2.49,-3.91 -3.58,-3.66 z"
     fill="#d57657"
     id="path25" />
  <path
     d="m 51.324608,66.352844 c -0.49,0.63 2.78,4.93 4.01,6.34 0.82,0.93 4.79,-4.47 4.61,-5.53 -0.17,-1.06 -6.6,-3.4 -8.62,-0.81 z"
     fill="#d57657"
     id="path26" />
  <path
     d="m 49.524608,68.712844 c -1.51,-0.2 -5.38,3.17 -5.49,3.8 -0.11,0.63 1.48,4.12 3.48,3.98 2.01,-0.14 5.17,-1.94 5.1,-2.67 -0.06,-0.75 -1.75,-4.94 -3.09,-5.11 z"
     fill="#d57657"
     id="path27" />
  <path
     d="m 36.964608,73.322844 c -1.21,0.7 0.35,3.77 2.53,5.81 2.12,1.98 3.17,3.2 4.05,2.46 0.88,-0.74 1.44,-4.89 0.7,-5.56 -0.73,-0.67 -5.45,-3.77 -7.28,-2.71 z"
     fill="#d57657"
     id="path28" />
  <path
     d="m 42.844608,84.792844 c -0.15,0.9 1.16,2.11 1.87,1.83 0.7,-0.28 1.9,-2.36 1.09,-3.06 -0.82,-0.71 -2.79,0.17 -2.96,1.23 z"
     fill="#d57657"
     id="path29" />
  <path
     d="m 40.164608,88.102844 c -0.33,0.92 0.81,2.15 1.94,2.15 1.13,0 1.27,-1.72 0.25,-2.39 -1.03,-0.68 -1.98,-0.36 -2.19,0.24 z"
     fill="#d57657"
     id="path30" />
  <path
     d="m 67.024608,63.532844 c -1.38,-0.3 -4.47,2.15 -5.14,4.26 -0.67,2.11 0.04,9.19 1.58,9.61 1.54,0.42 5.24,-3.73 5.46,-4.89 0.21,-1.16 -0.78,-8.73 -1.9,-8.98 z"
     fill="#d57657"
     id="path31" />
  <path
     d="m 69.234608,63.952844 c 0.77,2.46 1.44,6.05 2.29,7.32 1.22,1.83 4.15,-2.11 3.84,-4.36 -0.32,-2.25 -2.32,-4.68 -3.45,-4.79 -1.13,-0.1 -3.06,0.62 -2.68,1.83 z"
     fill="#d57657"
     id="path32" />
  <path
     d="m 68.674608,77.332844 c -0.82,-0.37 -4.43,2.89 -4.61,4.08 -0.18,1.2 1.97,4.19 3.38,3.55 1.41,-0.63 1.93,-7.31 1.23,-7.63 z"
     fill="#d57657"
     id="path33" />
  <path
     d="m 70.614608,77.082844 c 0.47,0.93 2.22,0.49 2.82,-0.32 0.6,-0.81 0.6,-3.55 0.18,-3.66 -0.42,-0.11 -2.15,1.3 -2.32,1.58 -0.19,0.29 -0.82,2.12 -0.68,2.4 z"
     fill="#d57657"
     id="path34" />
  <path
     d="m 64.734608,88.702844 c -0.04,0.35 1.33,3.58 2.04,3.55 0.99,-0.04 1.41,-2.75 1.51,-3.31 0.08,-0.43 -0.67,-1.83 -1.51,-1.79 -0.84,0.04 -1.97,0.98 -2.04,1.55 z"
     fill="#d57657"
     id="path35" />
  <path
     d="m 63.744608,62.762844 c 0.44,1.24 3.06,-1.44 3.27,-1.9 0.21,-0.46 0.99,-2.96 0,-3.59 -0.99,-0.63 -4.43,-0.11 -4.61,0.53 -0.17,0.63 1.13,4.36 1.34,4.96 z"
     fill="#d57657"
     id="path36" />
  <path
     d="m 69.414608,60.402844 c 0.36,0.45 2.15,0.74 2.92,0.53 0.77,-0.21 1.13,-0.42 1.13,-0.42 0,0 -1.65,-2.46 -2.08,-2.99 -0.42,-0.53 -1.9,-1.9 -2.29,-2.08 -0.38,-0.18 -0.74,3.66 0.32,4.96 z"
     fill="#d57657"
     id="path37" />
  <path
     d="m 61.884608,56.422844 c 1.48,0 3.03,-2.08 3.03,-2.08 0,0 -2.11,-0.35 -2.6,-0.42 -0.49,-0.07 -3.03,-0.14 -3.03,-0.14 0,0 1.44,2.64 2.6,2.64 z"
     fill="#d57657"
     id="path38" />
</svg>
