<?xml version="1.0" encoding="UTF-8" standalone="no"?>
<!-- Uploaded to: SVG Repo, www.svgrepo.com, Generator: SVG Repo Mixer Tools -->

<svg
   width="528.18939"
   height="746.37903"
   viewBox="0 0 84.510303 119.42064"
   aria-hidden="true"
   role="img"
   class="iconify iconify--noto"
   preserveAspectRatio="xMidYMid"
   version="1.1"
   id="svg14"
   sodipodi:docname="goat-svgrepo-com.svg"
   xmlns:inkscape="http://www.inkscape.org/namespaces/inkscape"
   xmlns:sodipodi="http://sodipodi.sourceforge.net/DTD/sodipodi-0.dtd"
   xmlns="http://www.w3.org/2000/svg"
   xmlns:svg="http://www.w3.org/2000/svg">
  <defs
     id="defs14" />
  <sodipodi:namedview
     id="namedview14"
     pagecolor="#ffffff"
     bordercolor="#000000"
     borderopacity="0.25"
     inkscape:showpageshadow="2"
     inkscape:pageopacity="0.0"
     inkscape:pagecheckerboard="0"
     inkscape:deskcolor="#d1d1d1" />
  <path
     d="m 46.878422,45.340135 c 0,0 5.07,-2.25 9.57,-3.1 4.5,-0.84 8.17,-0.7 8.17,-0.7 0,0 3.94,-5.77 4.5,-8.87 0.56,-3.1 0.63,-5.98 0.7,-6.48 0.17,-1.2 8.17,-1.27 9.85,3.52 1.69,4.79 -0.42,10.56 -1.83,12.67 -1.41,2.11 -2.96,3.66 -2.96,3.66 0,0 6.9,6.48 8.45,13.66 1.55,7.18 1.13,17.74 1.13,17.74 0,0 -0.42,8.02 -4.36,8.59 -3.94,0.56 -8.73,-3.03 -9.43,-3.87 -0.7,-0.84 -2.06,-3.21 -4.36,-2.46 -2.6,0.84 -3.27,3.84 -3.8,6.48 -0.66,3.24 -1.64,11.5 -1.64,11.5 0,0 -4.69,1.88 -7.51,1.45 -2.82,-0.42 -6.34,-3.8 -6.34,-3.8 0,0 0.28,-4.22 -1.13,-5.07 -1.41,-0.85 -2.82,1.55 -2.82,1.55 l -5.63,6.19 -7.74,-6.34 c 0,0 -0.56,-2.82 -1.41,-4.22 -0.84,-1.41 -2.53,-4.5 -3.1,-6.62 -1.4,-5.21 -0.98,-15.2 -0.98,-15.2 l -8.59,-41.95 2.11,-1.97 c 0,0 1.97,-10.14 5.07,-14.5000002 3.1,-4.36 5.63,-5.49 7.32,-6.33999995 1.69,-0.85 6.9,-1.41 6.9,0 0,1.40999995 -2.39,3.23999995 -3.8,5.48999995 -1.41,2.25 -2.96,5.4900002 -3.8,8.3100002 -0.84,2.82 -1.78,6.19 -1.78,6.19 l 3.05,0.7 c 0,0 1.69,-4.08 3.24,-6.19 1.55,-2.11 3.73,-5 6.41,-7.0400002 2.27,-1.73 5.42,-3.52 8.94,-3.52 3.52,0 8.17,0.99 7.74,3.59 -0.23,1.42 -2.89,0.77 -5.56,2.5300002 -3.25,2.14 -6.76,5.7 -9.36,11.68 -2.6,5.98 -3.52,8.59 -3.52,8.59 0,0 6.83,6.41 7.53,8.59 0.7,2.18 0.77,5.56 0.77,5.56 z"
     fill="#b68859"
     id="path1" />
  <path
     d="m 15.908422,65.990135 c 0,0 5.73,3.62 8.26,3.75 3.89,0.21 9.62,-2.09 13.21,-6.03 3.59,-3.94 6.55,-9.68 6.03,-16.68 -0.45,-6.03 -2.51,-8.24 -2.51,-8.24 0,0 3.59,3.52 8.8,3.1 5.21,-0.42 9.43,-3.59 11.05,-6.76 1.28,-2.5 2.46,-5.56 1.69,-6.12 -0.77,-0.56 -3.36,0 -3.36,0 l -9.81,4.43 -16.82,1.13 -17.6,25.13 z"
     fill="#6d4938"
     id="path2" />
  <path
     d="m 2.3884217,26.010135 c -0.7,0.48 0.35,3.66 2.82,5.56 2.47,1.9 5.9800003,2.46 5.9800003,2.46 l 5.21,-7.11 c 0,0 -12.6700003,-1.83 -14.0100003,-0.91 z"
     fill="#6d4938"
     id="path3" />
  <path
     d="m 46.968422,93.820135 c 0,0 2.86,2.63 6.87,2.28 4.01,-0.35 7.63,-2.93 7.63,-2.93 0,0 -0.8,8.209995 -0.87,9.759995 -0.07,1.55 -0.21,6.1 -0.21,6.1 0,0 -5.07,5.44 -7.81,4.95 -2.75,-0.49 -6.57,-5.3 -6.5,-6.22 0.07,-0.92 0.66,-5.04 0.8,-7.16 0.14,-2.109995 0.09,-6.779995 0.09,-6.779995 z"
     fill="#855b52"
     id="path4" />
  <path
     d="m 36.528422,92.570135 c 4.29,-0.3 7.53,-1.95 7.53,-1.95 0,0 0.23,6.01 0.14,7.6 -0.16,2.779995 -0.38,6.099995 -0.66,6.949995 -0.28,0.84 -9.41,2.04 -9.41,2.04 0,0 -4.43,-3.94 -4.43,-4.15 0,-0.21 0.23,-3.209995 0.33,-5.439995 0.07,-1.62 -0.42,-6.66 -0.42,-6.66 0,0 2.84,1.9 6.92,1.61 z"
     fill="#855b52"
     id="path5" />
  <path
     d="m 70.248422,81.620135 c 0,0 3.03,0.33 5.07,0.12 2.04,-0.21 6.26,-1.76 7.32,-2.46 1.06,-0.7 1.83,-1.83 1.83,-1.83 0,0 -0.42,8.73 -0.35,10.42 0.07,1.69 0.07,5.7 0.07,5.7 0,0 -3.31,5.35 -6.83,5.7 -3.52,0.35 -7.11,-6.15 -7.11,-6.15 0,0 0.52,-3.43 0.52,-5.54 -0.01,-2.11 -0.52,-5.96 -0.52,-5.96 z"
     fill="#855b52"
     id="path6" />
  <path
     d="m 52.458422,110.24013 c 3.72,0.33 8,-1.69 8,-1.69 0,0 0.35,6.41 -0.63,8.26 -0.84,1.6 -3.43,3.33 -9.78,2.3 -4.12,-0.67 -4.62,-3.11 -4.86,-4.65 -0.23,-1.55 0.84,-6.9 0.84,-6.9 0,0 1.72,2.26 6.43,2.68 z"
     fill="#46484a"
     id="path7" />
  <path
     d="m 77.288422,95.230135 c 2.96,-0.1 6.9,-1.67 6.9,-1.67 0,0 0.21,6.26 -2.18,8.449995 -2.75,2.51 -9.27,1.74 -11.1,-0.31 -1.83,-2.039995 -0.66,-8.779995 -0.66,-8.779995 0,0 3.02,2.45 7.04,2.31 z"
     fill="#46484a"
     id="path8" />
  <path
     d="m 36.178422,104.54013 c 3.46,0.14 7.65,-1.1 7.65,-1.1 0,0 0.52,7.56 -3,8.87 -3.74,1.4 -8.63,1.08 -10.56,-1.36 -1.39,-1.76 -0.63,-8.17 -0.63,-8.17 0,0 2.95,1.62 6.54,1.76 z"
     fill="#46484a"
     id="path9" />
  <path
     d="m 19.918422,28.730135 c 0.69,0.41 2.11,-3.87 11.19,-3.8 10,0.07 15.27,4.93 16.05,5 0.77,0.07 6.12,0 7.81,-0.14 1.69,-0.14 4.65,-1.48 4.58,-0.49 -0.07,0.99 -1.2,6.41 -6.19,7.81 -5,1.41 -13.44,-1.62 -15.06,-1.76 -1.62,-0.14 -3.03,0 -2.89,2.46 0.14,2.46 -18.37,13.59 -18.37,13.59 0,0 -13.5400003,-6.31 -13.7500003,-7.09 -0.21,-0.77 1.31,-2.82 2.56,-4.74 1.58,-2.44 2.39,-5.14 3.24,-6.55 0.84,-1.41 2.1800003,-3.24 2.1800003,-3.24 0,0 -2.6300003,0.21 -4.3600003,-0.54 -1.19,-0.51 -4.15,-2.49 -4.29,-3.19 -0.14,-0.7 3.31,0.07 6.12,-0.21 2.8200003,-0.28 8.0900003,-3.24 8.0900003,-3.24 0,0 1.76,1.41 2.25,2.75 0.49,1.34 0.49,3.17 0.84,3.38 z"
     fill="#855b52"
     id="path10" />
  <path
     d="m 7.7384217,62.030135 c 0,0 -0.81,3.1 -0.33,6.48 0.38,2.65 2.37,5.21 2.7200003,6.12 0.35,0.91 0.99,3.03 0.92,3.73 -0.07,0.7 0.89,0.87 1.1,0.35 0.26,-0.63 -0.02,-1.51 0.7,-1.34 0.8,0.19 0,1.74 1.03,1.78 1.08,0.05 0.35,-1.41 1.13,-1.41 0.82,0 0.09,1.67 1.27,1.64 1.08,-0.02 0.07,-1.48 1.1,-1.45 0.84,0.02 0.14,1.55 1.31,1.38 0.66,-0.09 -0.11,-1.66 0.75,-1.85 0.75,-0.16 0.35,1.41 1.22,1.08 0.56,-0.21 0.75,-1.67 0.54,-3.36 -0.21,-1.69 -0.84,-4.08 -1.2,-6.01 -0.35,-1.92 -0.75,-3.97 -0.77,-5.8 -0.02,-1.83 -0.05,-3.97 -0.05,-3.97 z"
     fill="#46484a"
     id="path11" />
  <path
     d="m 20.648422,45.860135 c 0.55,0.05 2.63,-2.25 3.57,-3.89 0.94,-1.64 3.43,-5.26 7.09,-5.68 3.76,-0.43 5.96,1.55 6.85,4.65 0.82,2.86 0.05,6.15 -3.71,7.93 -3.62,1.72 -5.02,1.03 -8.07,1.92 -1.62,0.47 -4.13,1.88 -4.27,2.06 -0.14,0.19 0.83,6.93 -4.5,9.85 -4.46,2.44 -11.3100003,1.5 -14.8300003,-2.91 -3.86,-4.84 -3.13999999,-12.11 -0.28,-15.63 2.83,-3.48 6.24,-4.75 11.2600003,-3.28 5.62,1.65 6.37,4.93 6.89,4.98 z"
     fill="#fff3dd"
     id="path12" />
  <path
     d="m 35.428422,43.420135 c 0,2.06 -1.31,3.94 -3.89,3.99 -2.21,0.04 -3.07,-1.79 -3.14,-3.85 -0.09,-2.63 1.79,-3.95 3.66,-3.99 2.43,-0.05 3.37,1.79 3.37,3.85 z"
     fill="#2e2e2e"
     id="path13" />
  <path
     d="m 5.6284217,48.620135 c 0,0 3.66,-2.01 4.12,-2.25 0.4600003,-0.24 1.6500003,-0.67 2.2900003,0.32 0.63,0.99 -0.39,1.87 -1.2,2.22 -0.81,0.35 -4.2200003,2.43 -4.2200003,2.43 0,0 -0.39,2.57 -0.04,2.85 0.94,0.75 2.36,1.16 3.5200003,1.06 1.16,-0.11 2.08,-0.6 2.43,-0.67 0.35,-0.07 1.34,-0.11 1.55,0.6 0.21,0.7 -0.29,1.52 -1.16,1.94 -1.04,0.49 -2.08,1.01 -3.8400003,0.7 -1.37,-0.24 -2.46,-0.56 -3.1,-0.99 -0.63,-0.42 -1.3,-1.2 -1.3,-1.2 0,0 -0.95,1.16 -1.83,1.13 -0.88,-0.04 -2.00999999,-0.6 -2.03999999,-0.7 -0.04,-0.11 -1.2,-1.02 -0.67,-2.01 0.53,-0.99 1.71999999,0.35 2.45999999,0.46 0.74,0.11 1.2,-0.39 1.27,-0.63 0.07,-0.25 0.04,-2.99 0.04,-2.99 0,0 -1.58,-2.04 -1.94,-2.39 -0.35,-0.35 -1.26999999,-1.51 -0.32,-2.22 0.95,-0.71 1.58,0 1.83,0.21 0.25,0.21 2.15,2.13 2.15,2.13 z"
     fill="#2e2e2e"
     id="path14" />
</svg>
