<?xml version="1.0" encoding="UTF-8" standalone="no"?>
<!-- Uploaded to: SVG Repo, www.svgrepo.com, Generator: SVG Repo Mixer Tools -->

<svg
   width="771.83258"
   height="695.80292"
   viewBox="0 0 123.49321 111.32847"
   aria-hidden="true"
   role="img"
   class="iconify iconify--noto"
   preserveAspectRatio="xMidYMid"
   version="1.1"
   id="svg30"
   sodipodi:docname="horse-svgrepo-com.svg"
   xmlns:inkscape="http://www.inkscape.org/namespaces/inkscape"
   xmlns:sodipodi="http://sodipodi.sourceforge.net/DTD/sodipodi-0.dtd"
   xmlns="http://www.w3.org/2000/svg"
   xmlns:svg="http://www.w3.org/2000/svg">
  <defs
     id="defs30" />
  <sodipodi:namedview
     id="namedview30"
     pagecolor="#ffffff"
     bordercolor="#000000"
     borderopacity="0.25"
     inkscape:showpageshadow="2"
     inkscape:pageopacity="0.0"
     inkscape:pagecheckerboard="0"
     inkscape:deskcolor="#d1d1d1" />
  <path
     d="m 14.602382,9.3825844 c 0,0 -3.18,-7.15 -5.2599998,-6.55 -2.08,0.6 -0.3,10.0299996 -0.3,10.0299996 z"
     fill="#feaf5f"
     id="path1" />
  <path
     d="m 98.502382,47.112584 c 0,0 3.769998,-1.29 6.449998,2.38 2.68,3.67 1.6,7.93 5.19,12.87 2.26,3.1 5.07,2.26 7.99,1.42 2.99,-0.85 5.26,-0.94 5.36,0.99 0.03,0.58 -0.73,4.22 -3.97,7.55 -3.57,3.67 -8.39,6.25 -15.58,3.43 -6.579998,-2.58 -8.419998,-11.17 -8.419998,-11.17 z"
     fill="#865b52"
     id="path2" />
  <path
     d="m 55.312382,35.492584 c 0,0 7.8,-4.65 6.25,-9.23 -1.64,-4.85 -7.64,-0.69 -8.94,-2.28 -1.43,-1.76 5.86,-6.16 1.69,-10.72 -4.17,-4.5599996 -8.61,1.9 -10.13,0.1 -1.49,-1.77 3.47,-5.5599996 0.3,-9.4299996 -3.17,-3.87000002 -8.54,-0.2 -10.13,0.99 -1.17,0.88 -3.38,2.48 -6.16,3.08 -2.78,0.6 -7.25,-1.09 -11.12,-1.09 -3.87,0 -9.6299998,2.58 -10.8199998,7.6399996 -1.19,5.06 -1.89,7.45 -2.78,7.84 -0.89,0.39 -3.38000002,0 -3.47000002,1.79 -0.09,1.79 2.38000002,2.28 5.76000002,2.08 3.38,-0.2 8.1399998,-2.58 10.1299998,-5.06 1.99,-2.48 3.67,-6.25 3.67,-6.25 z"
     fill="#865b52"
     id="path3" />
  <linearGradient
     id="IconifyId17ecdb2904d178eab9182"
     gradientUnits="userSpaceOnUse"
     x1="23.860001"
     y1="70.781998"
     x2="19.916"
     y2="102.334"
     gradientTransform="translate(-3.1476178,-9.1674156)">
    <stop
       offset=".306"
       stop-color="#b3875d"
       id="stop3" />
    <stop
       offset=".567"
       stop-color="#a87c5b"
       id="stop4" />
    <stop
       offset=".926"
       stop-color="#916656"
       id="stop5" />
  </linearGradient>
  <path
     d="m 27.412382,61.212584 c 0,0 -5.26,3.28 -7.94,4.07 -2.68,0.79 -6.25,-0.3 -8.74,2.18 -2.4799998,2.48 -1.0899998,4.77 -2.0799998,7.25 -0.99,2.48 -4.85,6.23 -4.47,9.93 0.5,4.86 4.72,7.2 4.72,7.2 0,0 4.0199998,-3.82 3.9199998,-7.4 -0.1,-3.58 -0.1,-5.26 0.4,-6.95 0.5,-1.69 2.48,-4.67 3.97,-5.16 1.49,-0.5 6.85,-0.3 9.23,-0.4 2.38,-0.1 6.85,-0.5 6.85,-0.5 z"
     fill="url(#IconifyId17ecdb2904d178eab9182)"
     id="path5"
     style="fill:url(#IconifyId17ecdb2904d178eab9182)" />
  <linearGradient
     id="IconifyId17ecdb2904d178eab9183"
     gradientUnits="userSpaceOnUse"
     x1="76.399002"
     y1="58.587002"
     x2="72.263"
     y2="104.09"
     gradientTransform="translate(-3.1476178,-9.1674156)">
    <stop
       offset=".476"
       stop-color="#b3875d"
       id="stop6" />
    <stop
       offset=".735"
       stop-color="#a4785a"
       id="stop7" />
    <stop
       offset=".985"
       stop-color="#916656"
       id="stop8" />
  </linearGradient>
  <path
     d="m 83.902382,50.392584 -24.42,21.24 -1.27,4.69 c 0,0 3.95,-0.67 5.24,-1.07 1.29,-0.4 3.13,-0.84 3.13,-0.84 0,0 0.63,0.83 1.04,2.88 0.5,2.48 0.4,4.07 0.2,4.37 -0.55,0.82 -4.37,2.38 -5.86,2.48 -1.49,0.1 -5.26,-0.53 -7.05,2.28 -1.39,2.18 -0.66,3.15 -0.79,3.67 -0.2,0.79 -1.84,1.24 -1.24,2.73 0.6,1.49 8.09,0.65 8.09,0.65 0,0 0.47,-2.02 0.89,-2.08 1.04,-0.15 2.78,-0.6 3.87,-1.99 1.09,-1.39 9.53,-1.99 10.42,-3.77 1.29,-2.58 -0.2,-5.96 -0.3,-9.13 -0.1,-3.17 -0.1,-5.91 0.15,-6.45 2.88,-1.69 6.7,-5.26 6.7,-5.26 l 6.85,-12.01 z"
     fill="url(#IconifyId17ecdb2904d178eab9183)"
     id="path8"
     style="fill:url(#IconifyId17ecdb2904d178eab9183)" />
  <path
     fill="#b3875d"
     d="m 25.822382,38.772584 2.76,5.31 13.43,-10.67 -12.32,-10.62 -5.36,9.03 z"
     id="path9" />
  <path
     d="m 27.912382,42.742584 c 0.3,1.04 0.69,2.38 0.89,3.57 0.2,1.19 0.3,2.98 0.3,2.98 0,0 -3.92,2.28 -4.47,5.96 -0.51,3.45 0.12,9.11 1.71,11.99 1.59,2.88 4.1,5.14 6.7,6.03 2.82,0.97 6.24,2.85 12.81,3.43 4.57,0.4 10.92,1.29 18.76,-2.68 7.84,-3.97 14.22,-13.6 15.31,-15.59 1.09,-1.99 3.28,-5.16 4.37,-4.27 1.09,0.89 -1.99,2.98 -2.78,7.05 -0.79,4.07 0.26,8.97 6.06,10.72 6.16,1.86 14.119998,-1.19 15.609998,-12.81 1.49,-11.62 -5.289998,-19.73 -11.539998,-22.93 -4.86,-2.49 -10.24,-2.7 -13.48,-1.79 -1.76,0.5 -3.3,1.89 -4.84,2.38 -1.26,0.41 -6.75,0.58 -9.68,0.4 -3.43,-0.21 -2.66,-1.5 -5.73,-3.49 -3.08,-1.99 -4.02,-1.41 -5.19,-2.57 -1.51,-1.49 -7.48,-10.22 -15.69,-15.69 -7.15,-4.77 -11.17,-5.11 -11.17,-5.11 0,0 0.67,-1.9399996 0.2,-5.0099996 -0.3,-1.94 -1.99,-5.21000002 -3.08,-5.31000002 -1.04,-0.1 -2.94,2.72000002 -3.43,5.36000002 -0.6,3.23 0.3,5.3599996 0.3,5.3599996 0,0 -0.22,6.55 -3.95,11.02 -3.73,4.47 11.91,2.23 14.07,3.2 2.16,0.97 3.86,5.58 3.57,9.61 -0.35,5.21 -5.71,7.93 -5.63,8.19 z"
     fill="#feaf5f"
     id="path10" />
  <linearGradient
     id="IconifyId17ecdb2904d178eab9184"
     gradientUnits="userSpaceOnUse"
     x1="41.299"
     y1="112.112"
     x2="45.998001"
     y2="70.490997"
     gradientTransform="translate(-3.1476178,-9.1674156)">
    <stop
       offset="0"
       stop-color="#865b52"
       id="stop10" />
    <stop
       offset=".545"
       stop-color="#feaf5f"
       id="stop11" />
  </linearGradient>
  <path
     d="m 38.482382,72.902584 c 0,0 -0.74,2.01 -1.12,2.31 -0.37,0.3 -2.83,3.05 -3.95,4.17 -1.12,1.12 -2.53,2.66 -3.13,3.18 -0.6,0.52 -3.11,1.89 -2.98,4.49 0.2,4 2.18,4.39 2.61,6.48 0.35,1.73 0.7,4.15 1.86,6.03 1.34,2.159996 3.23,3.299996 6.21,3.299996 2.98,0 4.74,-5.979996 4.74,-5.979996 0,0 -2.61,-3.72 -3.8,-3.5 -1.19,0.22 -1.39,1.39 -2.08,0.97 -0.81,-0.49 -1.07,-2.28 -1.29,-3.25 -0.22,-0.97 -0.82,-2.13 -0.45,-2.58 0.37,-0.45 4.16,-2.44 6.13,-3.77 3.3,-2.23 11.91,-8.94 11.91,-8.94 0,0 5.97,-15.45 -5.88,-13.55 -10.19,1.63 -8.78,10.64 -8.78,10.64 z"
     fill="url(#IconifyId17ecdb2904d178eab9184)"
     id="path11"
     style="fill:url(#IconifyId17ecdb2904d178eab9184)" />
  <linearGradient
     id="IconifyId17ecdb2904d178eab9185"
     gradientUnits="userSpaceOnUse"
     x1="62.056999"
     y1="118.415"
     x2="96.686996"
     y2="68.959"
     gradientTransform="translate(-3.1476178,-9.1674156)">
    <stop
       offset="0"
       stop-color="#865b52"
       id="stop12" />
    <stop
       offset=".136"
       stop-color="#9f6c55"
       id="stop13" />
    <stop
       offset=".421"
       stop-color="#dd985b"
       id="stop14" />
    <stop
       offset=".56"
       stop-color="#feaf5f"
       id="stop15" />
  </linearGradient>
  <path
     d="m 92.742382,50.192584 c -2.92,-0.49 -10.97,3.8 -11.81,14.84 -0.45,5.91 -1.27,10.7 -1.64,12.26 -0.37,1.56 -1.04,3.65 -1.41,3.95 -0.37,0.3 -2.5,1.72 -4.19,4.19 -1.74,2.53 -1.24,5.19 -1.76,5.93 -0.52,0.74 -2.51,2.41 -4.19,4.1 -1.14,1.14 -4.96,0.97 -6.45,2.68 -1.49,1.71 -1.27,3.569996 -1.27,3.569996 0,0 -2.88,0.74 -3.7,2.68 -0.82,1.94 1.09,4.39 2.73,4.62 1.64,0.23 5.17,0.81 5.51,0.45 1.09,-1.19 0.3,-3.72 0.3,-3.72 0,0 1.64,0 3.13,-2.01 1.49,-2.01 3.5,-3.28 5.21,-4.689996 1.71,-1.41 8.09,-6.04 9.31,-8.27 1.61,-2.95 1.04,-5.73 2.16,-7.52 1.12,-1.79 3.3,-3.7 7.4,-7.05 3.28,-2.68 7.09,-5.04 9.779998,-11.67 3.84,-9.53 -7.319998,-14.04 -9.109998,-14.34 z"
     fill="url(#IconifyId17ecdb2904d178eab9185)"
     id="path15"
     style="fill:url(#IconifyId17ecdb2904d178eab9185)" />
  <radialGradient
     id="IconifyId17ecdb2904d178eab9186"
     cx="-0.117"
     cy="70.575996"
     r="51.660999"
     gradientUnits="userSpaceOnUse"
     gradientTransform="translate(-3.1476178,-9.1674156)">
    <stop
       offset=".226"
       stop-color="#865b52"
       id="stop16" />
    <stop
       offset=".285"
       stop-color="#895d52"
       id="stop17" />
    <stop
       offset=".336"
       stop-color="#946554"
       id="stop18" />
    <stop
       offset=".385"
       stop-color="#a67255"
       id="stop19" />
    <stop
       offset=".432"
       stop-color="#c08358"
       id="stop20" />
    <stop
       offset=".477"
       stop-color="#e09a5c"
       id="stop21" />
    <stop
       offset=".512"
       stop-color="#feaf5f"
       id="stop22" />
  </radialGradient>
  <path
     d="m 30.812382,24.202584 c -1.19,0.45 -2.01,0.37 -1.94,1.34 0.07,0.97 2.98,3.35 2.23,7.89 -0.75,4.54 -3.65,7 -6.33,7.89 -2.68,0.89 -5.56,0.77 -5.56,0.77 l -3.82,4.37 c 0,0 0.25,3.62 -2.18,5.26 -1.8,1.21 -2.88,0.84 -2.88,0.84 0,0 -1.5999998,1.37 -3.4299998,0.79 -2.38,-0.74 -6.55000002,-3.72 -6.11000002,-10.18 0.41000002,-5.94 4.82000002,-9.61 5.81000002,-11.86 0.46,-1.06 0.25,-5.16 0.25,-5.16 0,0 5.7599998,-1.39 8.6399998,-4.72 2.05,-2.37 3.82,-5.86 3.92,-7.3 0.1,-1.44 16.93,5.06 16.93,5.06 z"
     fill="url(#IconifyId17ecdb2904d178eab9186)"
     id="path22"
     style="fill:url(#IconifyId17ecdb2904d178eab9186)" />
  <path
     d="m 19.742382,26.072584 c 0.74,1.37 0.16,3 -1.03,3.65 -0.98,0.54 -3.05,-0.06 -3.58,-1.4 -0.62,-1.58 -0.26,-2.87 0.94,-3.52 1.2,-0.64 2.93,-0.1 3.67,1.27 z"
     fill="#2f2927"
     id="path23" />
  <path
     d="m 3.8323822,44.382584 c -0.82,0.78 -0.74,2.33 0.15,3.87 0.89,1.54 1.94,2.28 2.93,1.64 0.99,-0.64 0.55,-2.53 -0.1,-4.02 -0.65,-1.49 -2.13,-2.28 -2.98,-1.49 z"
     fill="#523226"
     id="path24" />
  <path
     d="m 11.272382,46.172584 c 0,-0.3 -1.4899998,-2.87 0.22,-3.8 1.13,-0.61 2.38,0.3 2.27,1.86 -0.11,1.5 -0.78,2.05 -0.78,2.05 0,0 0.15,0.78 -0.41,3.61 -0.42,2.15 -1.23,2.42 -1.75,2.83 -0.39,0.31 -2.3499998,0.97 -2.0499998,0.48 0.3,-0.48 1.7899998,-2.31 2.1199998,-3.98 0.25,-1.24 0.38,-3.05 0.38,-3.05 z"
     fill="#523226"
     id="path25" />
  <path
     d="m 12.792382,84.662584 c 0,0 -1.17,2.2 -1.86,3.4 -0.9699998,1.68 -2.6799998,3.23 -2.6799998,3.23 0,0 1.8999998,2.72 4.2399998,3.69 2.35,0.97 3.24,-3.16 2.94,-6.63 -0.15,-1.75 -0.52,-2.83 -1.23,-3.39 -0.43,-0.34 -1.41,-0.3 -1.41,-0.3 z"
     fill="#6b4733"
     id="path26" />
  <path
     d="m 38.182382,93.722584 c 0.74,1.29 1.52,3.1 1.41,4.86 -0.15,2.569996 -1.82,4.279996 -1.82,4.279996 0,0 2.02,0.61 5.08,0.48 2.08,-0.09 3.34,-0.56 3.67,-1.15 0.34,-0.6 -0.34,-3.759996 -1.94,-6.289996 -1.6,-2.53 -2.94,-2.77 -3.72,-3.02 -1.14,-0.35 -2.68,0.84 -2.68,0.84 z"
     fill="#6b4733"
     id="path27" />
  <path
     d="m 57.212382,92.822584 c -2.23,-0.07 -4.47,-0.74 -4.47,-0.74 0,0 -0.48,1.45 -0.63,3.61 -0.15,2.08 -0.26,3.83 0.6,4.13 0.86,0.299996 3.24,-0.19 5.66,-1.82 1.26,-0.85 2.42,-2.68 2.64,-3.16 0.22,-0.48 0.22,-2.08 0.22,-2.08 0,0 -2.23,0.12 -4.02,0.06 z"
     fill="#6b4733"
     id="path28" />
  <path
     d="m 56.982382,103.46258 c -0.56,0.26 -1.49,1.97 -2.23,3.13 -0.74,1.15 -1.63,2.81 -1.56,3.35 0.11,0.89 1.34,1.45 4.88,1.38 3.54,-0.07 5.73,-1.19 5.99,-1.34 0.26,-0.15 0.67,-0.82 0.67,-0.82 0,0 -1.3,-1.75 -3.65,-3.5 -2.35,-1.75 -4.1,-2.2 -4.1,-2.2 z"
     fill="#6b4733"
     id="path29" />
  <path
     d="m 36.642382,74.612584 c 0,0 -1.24,-1.17 -1.96,-2.31 -1.04,-1.64 -1.41,-2.76 -1.71,-5.29 -0.21,-1.76 0.97,-5.05 -1.45,-5.31 -1.82,-0.2 -2.76,0.87 -2.57,4.12 0.15,2.67 1.71,5.81 2.01,6.18 0.3,0.37 0.91,0.97 2.49,1.71 1.58,0.74 3.19,0.9 3.19,0.9 z"
     fill="#b3875d"
     id="path30" />
</svg>
