<?xml version="1.0" encoding="UTF-8" standalone="no"?>
<!-- Uploaded to: SVG Repo, www.svgrepo.com, Generator: SVG Repo Mixer Tools -->

<svg
   width="790.24677"
   height="630.69446"
   viewBox="0 0 126.43948 100.91111"
   aria-hidden="true"
   role="img"
   class="iconify iconify--noto"
   preserveAspectRatio="xMidYMid"
   version="1.1"
   id="svg6"
   sodipodi:docname="kangaroo-svgrepo-com.svg"
   xmlns:inkscape="http://www.inkscape.org/namespaces/inkscape"
   xmlns:sodipodi="http://sodipodi.sourceforge.net/DTD/sodipodi-0.dtd"
   xmlns="http://www.w3.org/2000/svg"
   xmlns:svg="http://www.w3.org/2000/svg">
  <defs
     id="defs6" />
  <sodipodi:namedview
     id="namedview6"
     pagecolor="#ffffff"
     bordercolor="#000000"
     borderopacity="0.25"
     inkscape:showpageshadow="2"
     inkscape:pageopacity="0.0"
     inkscape:pagecheckerboard="0"
     inkscape:deskcolor="#d1d1d1" />
  <path
     d="m 42.654219,52.592897 -2.78,1.7 c 0,0 1.48,5.41 2.07,8.36 0.59,2.95 1.28,5.21 2.07,6.69 1.23,2.31 4.42,2.49 5.65,1.55 2.56,-1.94 3.91,-7.82 3.91,-7.82 0,0 1.35,-4.84 2.09,-7.45 0.6,-2.13 2.02,-5.31 2.02,-5.31 l 4.82,2.29 c 0,0 -0.27,4.82 1.52,8.83 1.72,3.85 6.29,7.62 8.21,8.8 1.92,1.18 3.76,1.84 3.39,3.84 -0.37,1.99 -3.02,6.34 -4.79,8.56 -1.77,2.21 -6.25,8.77 -7.23,11.06 -1.16,2.7 -2.36,5.68 0.44,6.490003 2.8,0.81 6.96,-4.970003 6.96,-4.970003 l 13.62,-19.08 c 0,0 0.07,-1.03 -1.03,-2.29 -1.11,-1.25 -1.48,-1.99 -2.07,-3.61 -0.59,-1.62 -0.81,-6.71 -0.81,-6.71 0,0 4.79,-8.92 5.68,-10.03 0.89,-1.11 2.43,-3.17 2.43,-3.17 0,0 1.39,4.59 3.91,8.85 2.85,4.82 8.470001,9.7 13.720001,11.7 5.41,2.07 10.55,2.53 14.38,2.68 3.84,0.15 6.05,-1.16 5.53,-2.04 -0.52,-0.89 -10.33,-2.16 -10.33,-2.16 l -17.180001,-11.08 -7.38,-18.44 -14.08,-11.66 -19.4,0.52 -13.06,20.87 c 0,0 1.84,4.43 1.99,5.24 0.15,0.81 -0.07,5.46 -0.07,5.46 0,0 -0.54,-1.84 -0.96,-3.25 -0.3,-0.99 -0.37,-2.73 -0.37,-2.73 z"
     fill="#865b52"
     id="path1" />
  <path
     d="m 32.324219,25.962897 c 0,0 6.18,-6.04 8.19,-8.7 3.2,-4.23 5.53,-9.8799996 2.95,-11.7999996 -2.58,-1.92 -7.23,2.51 -9.81,5.9699996 -2.58,3.46 -5.14,9 -5.73,7.6 -0.59,-1.4 2.19,-4.74 3.98,-7.62 0.92,-1.4799996 3.39,-4.1999996 4.47,-6.5399996 0.94,-2.03 0.72,-3.75 -0.74,-4.51999998 -3.25,-1.72000002 -8.41,3.22999998 -10.1,6.58999998 -2.38,4.7199996 -3.17,10.1799996 -3.17,10.1799996 0,0 -3.91,-0.44 -7.38,2.21 -2.5,1.91 -3.84,5.9 -5.1600003,6.64 -1.33,0.74 -6.29,3.05 -6.29,3.05 0,0 -3.92999995,4.47 -0.27,8.16 1.69,1.7 3.17,2.95 6.64,3.02 3.0200003,0.06 9.3700003,-3.61 12.1000003,-3.1 2.73,0.51 5.41,7.46 7.45,10.1 2.73,3.54 6.37,6.1 9.1,6.83 2.73,0.74 8.38,0.76 8.38,0.76 0,0 -0.07,-2.51 -0.52,-3.61 -0.44,-1.11 -1.03,-2.07 -0.37,-2.58 0.66,-0.52 2.14,1.84 2.14,3.91 0,2.07 -0.44,7.01 -0.52,9.29 -0.07,2.29 -0.59,6.71 2.36,7.82 2.95,1.11 5.73,-1.2 6.32,-2.02 0.59,-0.81 1.87,-2.04 1.65,-2.63 -0.22,-0.59 -1.92,-2.14 -3.1,-2.29 -1.18,-0.15 -2.43,0.1 -2.43,0.1 0,0 0.39,-2.95 0.98,-5.02 0.59,-2.07 1.45,-6.88 1.23,-9.83 -0.22,-2.95 -2.8,-6.12 -1.92,-7.15 0.88,-1.03 2.14,-0.15 3.1,2.36 0.96,2.51 0.96,4.79 0.89,6.71 -0.07,1.92 -0.44,3.69 -0.44,3.69 0,0 3.46,-0.16 5.02,-0.22 1.77,-0.07 4.65,-0.52 4.65,-0.52 0,0 -0.72,-5.76 -0.44,-8.85 0.37,-4.13 3.07,-8.38 5.14,-10.38 2.07,-1.99 4.89,-4.23 5.41,-2.97 0.52,1.25 -3.93,3.96 -5.75,7.08 -1.73,2.96 -3.61,9.07 -1.48,15.42 2.14,6.34 6.27,11.43 8.7,13.28 2.43,1.84 6.49,2.95 6.34,6.27 -0.15,3.32 -6.93,11.51 -8.92,14.53 -1.99,3.02 -4.87,6.27 -5.38,9.07 -0.52,2.8 -0.89,5.830003 2.8,4.200003 3.69,-1.620003 8.33,-10.620003 10.33,-13.280003 1.99,-2.66 5.46,-8.19 7.67,-11.06 2.21,-2.88 3.1,-3.17 2.88,-5.16 -0.22,-1.99 -4.79,-3.98 -5.83,-6.93 -1.04,-2.95 -1.18,-10.77 0,-13.35 1.18,-2.58 2.43,-4.43 2.43,-4.43 0,0 4.41,10.48 7.45,14.46 4.080001,5.34 11.280001,9.44 19.990001,10.62 8.7,1.18 10.9,0.28 7.6,-0.89 -1.25,-0.44 -4.64,-1.75 -8.06,-3.47 -3.25,-1.62 -8.31,-4.08 -12.22,-9.96 -4.33,-6.51 -6.120001,-18.73 -13.790001,-27.95 -6.34,-7.62 -18.49,-14.32 -32.38,-8.7 -9.66,3.91 -13.05,14.09 -18.88,13.05 -5.86,-1.02 -7.26,-7.44 -7.26,-7.44 z"
     fill="#d27856"
     id="path2" />
  <path
     d="m 30.334219,22.672897 c 1.53,1.09 5.51,-3.51 7.33,-5.9 2.61,-3.44 4.14,-6.65 3.05,-7.4699996 -1.57,-1.18 -4.87,2.8499996 -6.74,5.6499996 -2.42,3.62 -4.67,6.98 -3.64,7.72 z"
     fill="#ffd2af"
     id="path3" />
  <path
     d="m 20.534219,27.372897 c 0.16,2.08 -0.83,3.06 -1.92,3.13 -1.09,0.07 -2.09,-1.25 -2.18,-2.67 -0.09,-1.42 0.73,-2.63 1.83,-2.7 1.09,-0.07 2.16,0.82 2.27,2.24 z"
     fill="#010102"
     id="path4" />
  <path
     d="m 4.3742187,28.812897 c 0.99,0.66 1.15,3.24 0.79,4.38 -0.39,1.23 -1.52,3.29 -2.85,2.75 -0.74,-0.3 -2.65999995,-3.98 -2.25999995,-4.97 0.38,-0.98 3.72999995,-2.55 4.31999995,-2.16 z"
     fill="#2c302b"
     id="path5" />
  <path
     d="m 4.9642187,38.402897 c 0,0 1.97,-0.64 2.66,-1.28 0.69,-0.64 1.67,-1.48 2.4100003,-1.18 0.74,0.3 0.98,1.38 -0.3900003,2.46 -1.04,0.82 -2.41,1.23 -2.41,1.23 0,0 -0.84,0.05 -1.52,-0.25 -0.4,-0.16 -0.85,-0.73 -0.75,-0.98 z"
     fill="#2c302b"
     id="path6" />
</svg>
