<?xml version="1.0" encoding="UTF-8" standalone="no"?>
<!-- Uploaded to: SVG Repo, www.svgrepo.com, Generator: SVG Repo Mixer Tools -->

<svg
   width="785.50177"
   height="594.68024"
   viewBox="0 0 125.68028 95.148838"
   aria-hidden="true"
   role="img"
   class="iconify iconify--noto"
   preserveAspectRatio="xMidYMid"
   version="1.1"
   id="svg55"
   sodipodi:docname="leopard-svgrepo-com.svg"
   xmlns:inkscape="http://www.inkscape.org/namespaces/inkscape"
   xmlns:sodipodi="http://sodipodi.sourceforge.net/DTD/sodipodi-0.dtd"
   xmlns="http://www.w3.org/2000/svg"
   xmlns:svg="http://www.w3.org/2000/svg">
  <defs
     id="defs55" />
  <sodipodi:namedview
     id="namedview55"
     pagecolor="#ffffff"
     bordercolor="#000000"
     borderopacity="0.25"
     inkscape:showpageshadow="2"
     inkscape:pageopacity="0.0"
     inkscape:pagecheckerboard="0"
     inkscape:deskcolor="#d1d1d1" />
  <path
     d="m 24.869349,7.7103749 c 0,0 0.84,-2.32 2.59,-5.18 1.63,-2.65999999 3.4,-3.02999999 4.81,-1.99999999 1.41,1.03999999 -0.15,5.02999999 -0.15,5.02999999 l -4.14,4.4400001 z"
     fill="#ff8f04"
     id="path1" />
  <path
     d="m 41.069349,15.780375 -24.55,24.03 c 0,0 2.44,2.66 3.99,3.85 1.55,1.19 3.92,3.77 3.92,3.77 l 22.04,-12.5 0.3,-8.21 c 0,0 -2.14,-2.37 -3.55,-4.51 -1,-1.52 -1.93,-6.58 -2.15,-6.43 z"
     fill="#ff8f04"
     id="path2" />
  <path
     d="m 29.899349,56.970375 c -0.07,0.37 -2.29,5.55 -4.66,9.02 -2.37,3.48 -6.02,8.53 -7.1,11.69 -0.96,2.81 -1.67,8.75 3.77,9.84 6.66,1.33 7.99,-3.7 8.36,-6.29 0.19,-1.3 2.66,-4.14 3.7,-5.55 1.04,-1.41 5.33,-5.62 5.33,-5.62 z"
     fill="#ff8f04"
     id="path3" />
  <path
     d="m 72.659349,61.930375 c 0.22,0.07 2.51,4.96 2.81,6.14 0.3,1.18 0.07,8.36 -0.22,10.06 -0.3,1.7 -4.51,4.51 -3.99,7.91 0.25,1.62 1.85,2.59 5.47,2.59 3.62,0 8.58,-0.44 8.58,-0.44 l 4.22,-15.68 -13.55,-11.54 z"
     fill="#ff8f04"
     id="path4" />
  <path
     d="m 95.439349,41.890375 -1.63,-5.18 c 0,0 4.88,2.37 8.830001,11.29 1.61,3.64 3.82,12.97 8.41,13.12 4.59,0.15 6.21,-5.81 6.21,-5.81 0,0 6.32,4.81 5.58,7.1 -0.74,2.29 -5.36,8.47 -12.54,7.95 -7.17,-0.52 -9.59,-6.59 -12.760001,-10.91 -3.18,-4.34 -2.1,-17.56 -2.1,-17.56 z"
     fill="#ff8f04"
     id="path5" />
  <path
     d="m 23.619349,82.120375 c -1.26,0.78 -2.96,2.81 -1.33,4.81 0.99,1.22 3.55,1.18 5.25,-0.3 0.99,-0.86 2.39,-3.47 0.67,-4.73 -1.12,-0.81 -3.04,-0.74 -4.59,0.22 z"
     fill="#fd6a21"
     id="path6" />
  <path
     d="m 20.809349,85.230375 c 0.16,-1.02 -0.89,-1.55 -1.7,-1.26 -0.7,0.25 -1.18,1.33 -0.37,2.07 0.81,0.74 1.92,0.15 2.07,-0.81 z"
     fill="#fd6a21"
     id="path7" />
  <path
     d="m 115.17935,59.120375 c 0,0 1.41,1.92 3.11,3.25 1.47,1.15 3.62,1.92 3.62,1.92 0,0 3.7,-3.85 3.77,-8.21 0.05,-2.89 -1.92,-4.44 -4.81,-4.22 -2.89,0.22 -3.33,2.29 -3.85,3.92 -0.47,1.52 -1.84,3.34 -1.84,3.34 z"
     fill="#33312e"
     id="path8" />
  <path
     d="m 115.47935,69.520375 c 0,0 -1.03,-0.54 -1.38,-1.53 -0.32,-0.91 -0.02,-2.28 1.13,-2.88 1.13,-0.59 2.49,-0.05 3.01,1.06 0.52,1.11 0.3,1.63 0.3,1.63 0,0 -0.69,0.59 -1.36,0.96 -0.71,0.39 -1.7,0.76 -1.7,0.76 z"
     fill="#33312e"
     id="path9" />
  <path
     d="m 107.46935,58.820375 c 0,0 -1.6,0.96 -1.08,2.86 0.37,1.36 2.47,1.9 3.45,1.31 1.15,-0.69 1.21,-1.87 1.21,-1.87 0,0 -1.21,-0.2 -2,-0.79 -0.82,-0.61 -1.58,-1.51 -1.58,-1.51 z"
     fill="#33312e"
     id="path10" />
  <path
     d="m 104.08935,51.850375 c 0,0 -1.26,0.37 -1.65,1.73 -0.28,0.98 0.34,2.85 2.02,2.81 0.94,-0.02 1.43,-0.25 1.43,-0.25 0,0 -0.5,-1.24 -0.91,-2.14 -0.4,-0.87 -0.89,-2.15 -0.89,-2.15 z"
     fill="#33312e"
     id="path11" />
  <path
     d="m 103.27935,67.250375 c 0,0 0.3,-0.96 1.87,-1.13 1.33,-0.15 2.57,0.55 3.08,1.87 0.35,0.89 0.15,2.05 0.15,2.05 0,0 -1.45,-0.3 -2.86,-1.06 -1.19,-0.65 -2.24,-1.73 -2.24,-1.73 z"
     fill="#33312e"
     id="path12" />
  <path
     d="m 27.759349,9.1203749 c 0,0 3.01,-3.7 4.29,-4.88 1.28,-1.18 5.18,-3.89999999 8.19,-1.82 3.01,2.07 3.06,6.91 2.81,9.3200001 -0.27,2.59 -1.32,7.13 -1.45,8.36 -0.1,0.89 -0.42,2.84 -1.31,2.24 -0.89,-0.6 -11,-10.4 -11,-10.4 z"
     fill="#33312e"
     id="path13" />
  <path
     d="m 20.359349,7.7103749 c -3.32,0.89 -5.35,2.4900001 -7.32,4.2200001 -1.97,1.73 -2.88,3.65 -3.9200002,3.99 -1.04,0.35 -5.94,1.13 -7.17,2.07 -1.23000003,0.94 -1.11000003,1.92 -1.11000003,1.92 l 8.48000003,16.07 7.6400002,4.88 c 0,0 2.07,-1.55 3.25,-2.24 1.18,-0.69 3.18,-1.55 3.18,-1.55 0,0 3.73,0.1 7.72,-0.79 5.08,-1.13 9.99,-3.72 10.13,-12.06 0.09,-4.96 -3.85,-7.89 -4.24,-8.33 -0.39,-0.44 0.32,-1.27 0.99,-2.12 1.28,-1.63 4.39,-6.3600001 1.18,-8.8800001 -3.21,-2.52 -7.34,2.66 -7.89,3.21 -0.57,0.57 -1.04,1.68 -1.33,1.48 -0.29,-0.19 -4.26,-3.3 -9.59,-1.87 z"
     fill="#ffba06"
     id="path14" />
  <path
     d="m 32.119349,10.380375 c -0.12,0.24 0.99,0.75 1.68,1.43 0.99,0.99 1.07,1.51 1.58,1.43 0.99,-0.15 4.09,-5.5700001 2.56,-6.7100001 -2.1,-1.56 -5.47,3.16 -5.82,3.8500001 z"
     fill="#ffeacf"
     id="path15" />
  <path
     d="m 7.8893488,19.470375 c -0.4,0.04 -6.8,1.97 -6.8,1.97 l 1.53,8.53 c 0,0 -1.82000003,5.82 2.07,8.88 3.9,3.06 8.9500002,2.39 11.1700002,2.19 2.22,-0.2 1.55,-1.21 1.45,-1.9 -0.1,-0.69 -1.63,-6.46 -3.16,-8.28 -1.53,-1.82 -2.81,-3.21 -3.01,-3.85 -0.2,-0.63 -1.9200002,-7.68 -3.2500002,-7.54 z"
     fill="#ffeacf"
     id="path16" />
  <path
     d="m 8.8693488,19.080375 c 0.64,0.64 -1.28,1.73 -2.81,2.91 -1.53,1.18 -3.06,2.51 -3.06,2.51 0,0 -0.2,4.14 1.68,4.93 1.88,0.79 5.18,-0.05 5.5700002,0.69 0.39,0.74 -0.8400002,3.25 -3.4500002,3.3 -2.61,0.05 -4.49,-2.22 -4.78,-2.96 -0.3,-0.74 -1.28000003,-2.76 -1.78000003,-5.97 -0.32,-2.07 -0.35,-4.73 0.1,-5.18 0.45,-0.45 3.16000003,-0.54 4.49000003,-0.59 1.33,-0.05 2.81,0.1 2.81,0.1 0,0 0.99,0.01 1.23,0.26 z"
     fill="#33312e"
     id="path17" />
  <path
     d="m 20.909349,17.300375 c 0,0 0.25,-1.82 -1.97,-1.43 -1.84,0.33 -2.9,2.12 -3.11,2.91 -0.32,1.21 0.35,1.87 0.35,1.87 0,0 -1.78,1.83 -0.96,2.69 1.08,1.13 2.59,-1.21 2.59,-1.21 0,0 0.42,0.71 1.18,0.49 0.89,-0.25 1.65,-1.36 2.69,-2.59 1.04,-1.23 2.69,-1.77 2.34,-3.03 -0.45,-1.62 -3.11,0.3 -3.11,0.3 z"
     fill="#33312e"
     id="path18" />
  <ellipse
     cx="26.299349"
     cy="26.930374"
     rx="1.6799999"
     ry="1.6900001"
     fill="#33312e"
     id="ellipse18" />
  <ellipse
     cx="33.159348"
     cy="23.390373"
     rx="1.8099999"
     ry="1.78"
     fill="#33312e"
     id="ellipse19" />
  <ellipse
     cx="32.179348"
     cy="29.660374"
     rx="1.8099999"
     ry="1.78"
     fill="#33312e"
     id="ellipse20" />
  <ellipse
     cx="22.289349"
     cy="33.010376"
     rx="1.75"
     ry="1.73"
     fill="#33312e"
     id="ellipse21" />
  <ellipse
     cx="25.709349"
     cy="10.380375"
     rx="1.75"
     ry="1.73"
     fill="#33312e"
     id="ellipse22" />
  <path
     d="m 20.879349,8.8703749 c 0.33,0.82 -0.24,1.6200001 -1.13,1.9700001 -0.9,0.36 -1.89,0.28 -2.22,-0.54 -0.33,-0.8200001 0.28,-1.6100001 1.18,-1.9700001 0.9,-0.36 1.84,-0.28 2.17,0.54 z"
     fill="#33312e"
     id="path22" />
  <path
     d="m 46.029349,25.830375 c 0,0 -0.67,6.73 -6.07,11.02 -5.4,4.29 -16.86,9.25 -16.86,9.25 0,0 3.18,3.33 3.92,4.96 0.74,1.63 2.22,10.8 5.03,14.13 2.81,3.33 8.65,7.77 9.17,8.73 0.52,0.96 1.85,7.25 0.74,9.47 -1.11,2.22 -1.48,2.14 -1.48,2.14 0,0 -5.78,2.09 -4.96,5.99 1.04,4.88 9.91,2.81 11.09,2.74 1.18,-0.07 3.77,-3.18 3.77,-3.18 l 3.62,-4.36 1.48,-6.29 1.78,-8.43 2.81,-4.36 6.21,-2.07 7.62,-2.37 5.1,4.88 4.44,5.25 0.74,4.44 -0.22,3.99 -2.74,5.77 -0.52,4.59 c 0,0 1.04,2.14 2.29,2.59 1.26,0.44 6.95,0.81 9.17,-0.74 2.22,-1.55 3.48,-5.47 3.7,-8.95 0.22,-3.48 0.22,-8.58 0.44,-11.17 0.16,-1.85 -0.44,-4.73 -0.44,-4.73 0,0 4.290001,-5.4 4.510001,-15.83 0.22,-10.43 -4.360001,-15.38 -8.060001,-17.83 -3.7,-2.44 -10.8,-4.81 -19.16,-5.4 -8.36,-0.59 -12.5,0.07 -17.97,-0.81 -5.47,-0.88 -9.15,-3.42 -9.15,-3.42 z"
     fill="#ffba06"
     id="path23" />
  <path
     d="m 36.459349,91.740375 c -0.02,0.94 0.25,2.42 1.48,2.66 1.23,0.25 0.84,-1.43 0.89,-2.47 0.04,-0.94 1.07,-2.06 0.2,-2.56 -0.94,-0.54 -2.52,0.39 -2.57,2.37 z"
     fill="#ff8f04"
     id="path24" />
  <path
     d="m 42.179349,89.910375 c -0.94,-0.1 -2.02,0.35 -2.12,2.07 -0.08,1.48 0.25,2.91 1.63,2.91 1.38,0 0.81,-1.87 0.84,-2.56 0.05,-1.33 0.88,-2.29 -0.35,-2.42 z"
     fill="#ff8f04"
     id="path25" />
  <path
     d="m 84.929349,90.550375 c -1.18,-0.11 -1.63,0.64 -1.63,2.07 0,1.53 0.2,2.32 1.38,2.42 1.18,0.1 0.89,-1.38 0.89,-2.12 0,-0.74 0.4,-2.27 -0.64,-2.37 z"
     fill="#ff8f04"
     id="path26" />
  <path
     d="m 88.929349,90.750375 c -0.88,-0.09 -1.38,0.69 -1.38,2.22 0,1.48 0.39,2.27 1.28,2.17 0.88,-0.1 0.99,-1.18 0.99,-2.12 -0.01,-1.04 0.09,-2.17 -0.89,-2.27 z"
     fill="#ff8f04"
     id="path27" />
  <path
     d="m 45.489349,93.610375 c -0.1,0.83 1.23,0.78 2.32,0.35 1.23,-0.49 3.43,-1.7 4.36,-2.74 1.33,-1.48 2.22,-2.96 2.93,-5.05 0.44,-1.3 1.37,-5.68 2.22,-9.37 0.89,-3.85 1.58,-5.23 1.78,-5.87 0.35,-1.13 1.58,-2.56 1.58,-2.56 0,0 4.14,-1.43 6.26,-2.07 2.12,-0.64 6.31,-2.37 6.8,-2.17 0.49,0.2 2.66,2.32 5.03,4.88 1.71,1.85 4.24,5.08 4.24,5.08 0,0 0.3,2.51 0.35,3.8 0.05,1.28 0.05,3.4 0.05,3.65 0,0.25 -2.61,4.09 -3.11,5.82 -0.49,1.73 -1.22,3.62 0.25,5.92 0.79,1.23 2.51,1.73 2.76,1.23 0.15,-0.3 -0.59,-0.79 -1.04,-1.33 -0.44,-0.54 -0.84,-1.58 -0.84,-2.47 0,-1.82 0.64,-3.27 1.04,-4.14 0.54,-1.18 2.27,-3.9 2.47,-4.59 0.2,-0.69 0.2,-3.01 0.1,-4.83 -0.07,-1.29 -0.25,-3.21 -0.54,-3.85 -0.3,-0.64 -1.38,-2.02 -3.8,-4.64 -3.65,-3.95 -5.82,-6.11 -6.61,-6.36 -0.79,-0.25 -6.8,2.12 -7.79,2.42 -0.99,0.3 -6.36,1.92 -6.85,2.27 -0.49,0.35 -2.02,2.27 -2.56,4.19 -0.26,0.91 -1.23,4.44 -1.53,5.67 -0.3,1.23 -1.87,7.88 -2.22,8.73 -0.69,1.68 -1.43,3.11 -2.61,4.24 -0.88,0.85 -2.32,1.73 -3.16,2.22 -0.55,0.31 -1.79,0.73 -1.88,1.57 z"
     fill="#fd6a21"
     id="path28" />
  <path
     d="m 89.469349,43.610375 c 0,0 2.18,-1.06 2.12,-2.42 -0.05,-1.05 -0.49,-2.31 -2.32,-2.37 -1.53,-0.05 -3,0.74 -3.16,2.27 -0.15,1.48 1.48,2.47 1.48,2.47 0,0 -3.9,-1.01 -3.75,2.64 0.05,1.29 0.45,2.25 0.96,2.91 1.73,2.22 6.11,2.07 8.01,0.17 1.16,-1.16 1.38,-2.56 1.13,-3.8 -0.57,-2.95 -4.47,-1.87 -4.47,-1.87 z"
     fill="#33312e"
     id="path29" />
  <path
     d="m 79.309349,36.510375 c 0,0 2.39,-0.22 2.27,-2.27 -0.07,-1.23 -1.13,-2 -3.16,-1.95 -2.02,0.05 -3.07,1.11 -3.16,2.14 -0.15,1.78 1.73,2.12 1.73,2.12 l -0.35,0.99 c 0,0 -1.43,-1.63 -2.71,-0.74 -1.28,0.89 -1.13,4.38 1.6,5.89 2.22,1.23 5.42,0.49 7.03,-0.99 0.94,-0.86 1.36,-1.82 1.33,-2.84 -0.03,-1.36 -0.54,-1.82 -1.38,-2.19 -0.88,-0.39 -2.76,0.62 -2.76,0.62 z"
     fill="#33312e"
     id="path30" />
  <path
     d="m 95.389349,53.080375 c 0,0 -0.55,-0.76 -0.54,-1.49 0,-0.57 0.39,-1.26 1.58,-1.41 1.19,-0.15 1.84,0.98 1.8,1.7 -0.05,0.92 -1.06,1.65 -1.06,1.65 l -0.02,0.89 c 0,0 1.22,0.43 1.5,1.58 0.39,1.63 -1.95,3.6 -4.61,2.56 -1.22,-0.47 -1.95,-1.73 -1.97,-2.71 -0.03,-1.16 0.81,-2.04 1.26,-2.27 0.92,-0.5 2.06,-0.5 2.06,-0.5 z"
     fill="#33312e"
     id="path31" />
  <path
     d="m 66.639349,36.710375 c 0,0 1.43,-0.59 1.13,-2.07 -0.3,-1.48 -2.32,-1.94 -3.99,-1.78 -1.48,0.15 -2.81,1.92 -2.17,3.21 0.64,1.28 1.58,1.33 1.58,1.33 0,0 -2.6,-0.27 -2.76,1.92 -0.15,1.97 1.08,4.44 5.28,4.59 4.19,0.15 5.42,-5.62 4.09,-6.9 -1.2,-1.15 -3.16,-0.3 -3.16,-0.3 z"
     fill="#33312e"
     id="path32" />
  <path
     d="m 54.949349,46.910375 c 0,0 3.45,-0.59 2.05,-3.03 -0.98,-1.7 -5.53,-0.58 -5.18,1.87 0.08,0.58 1.04,1.17 1.5,1.28 0.32,0.07 -0.39,0.62 -0.39,0.62 0,0 -2.34,-0.64 -3.03,1.01 -0.89,2.12 0.59,4.41 3.16,5.13 3.38,0.94 6.83,-0.94 6.76,-3.57 -0.08,-2.82 -3.08,-2.42 -3.08,-2.42 z"
     fill="#33312e"
     id="path33" />
  <path
     d="m 38.339349,45.930375 c 0,0 -1.26,-0.62 -1.11,-2.1 0.08,-0.78 0.83,-1.53 2,-1.5 2.66,0.05 3.55,1.43 2.96,3.16 -0.32,0.94 -2.37,1.48 -2.37,1.48 l 0.79,1.08 c 0,0 1.64,-0.8 2.37,0.2 0.52,0.72 0.7,2.25 -0.32,3.48 -0.62,0.74 -2.44,1.65 -5.1,1.06 -1.92,-0.43 -3.25,-1.61 -3.72,-2.96 -0.5,-1.42 -0.05,-2.77 0.71,-3.25 1.58,-0.99 3.55,0.35 3.55,0.35 z"
     fill="#33312e"
     id="path34" />
  <path
     d="m 48.739349,35.030375 c 0,0 -2.37,-0.59 -3.01,0.54 -0.64,1.13 -0.89,3.45 1.68,4.78 2.56,1.33 6.85,-0.6 7.05,-3.25 0.15,-1.97 -1.13,-3.85 -2.81,-3.8 -2.27,0.07 -1.63,0.54 -1.63,0.54 l -0.15,-0.89 c 0,0 1.53,-1.33 0.15,-2.47 -1.38,-1.13 -3.85,0.74 -3.75,1.97 0.1,1.23 1.48,1.48 1.48,1.48 z"
     fill="#33312e"
     id="path35" />
  <path
     d="m 41.739349,47.140375 c 0,1.46 -0.92,2.49 -2.42,2.49 -1.5,0 -3.01,-1.03 -3.01,-2.49 0,-1.46 1.31,-2.29 2.81,-2.29 1.5,0 2.62,0.83 2.62,2.29 z"
     fill="#d2735b"
     id="path36" />
  <path
     d="m 57.269349,46.910375 c 0.68,1.18 0.29,2.67 -1.1,3.25 -1.57,0.65 -3,0.25 -3.69,-0.93 -0.68,-1.18 -0.08,-2.6 1.22,-3.35 1.3,-0.74 2.89,-0.15 3.57,1.03 z"
     fill="#d2735b"
     id="path37" />
  <path
     d="m 67.239349,36.450375 c 0.78,1.35 0.38,3.46 -1.04,4.18 -1.84,0.94 -3.53,0.1 -4.31,-1.25 -0.78,-1.35 -0.18,-2.93 1.2,-3.72 1.38,-0.8 3.37,-0.57 4.15,0.79 z"
     fill="#d2735b"
     id="path38" />
  <path
     d="m 51.949349,33.650375 c 0.68,1.18 0.25,3.06 -1.08,3.75 -1.73,0.89 -3.26,0.19 -3.94,-0.99 -0.68,-1.18 -0.08,-2.6 1.22,-3.35 1.28,-0.74 3.11,-0.59 3.8,0.59 z"
     fill="#d2735b"
     id="path39" />
  <path
     d="m 81.319349,35.570375 c 1.35,1.74 0.39,3.57 -1.16,4.37 -2,1.04 -3.97,0.61 -4.7,-0.66 -0.73,-1.27 0.02,-3.34 1.53,-4.21 1.51,-0.87 3.43,-0.66 4.33,0.5 z"
     fill="#d2735b"
     id="path40" />
  <path
     d="m 90.409349,41.580375 c 1.9,0.97 1.93,2.83 1.01,4.06 -1.19,1.59 -3.01,1.95 -4.19,1.15 -1.18,-0.79 -1.49,-2.79 -0.63,-4.06 0.86,-1.28 2.54,-1.8 3.81,-1.15 z"
     fill="#d2735b"
     id="path41" />
  <path
     d="m 97.749349,52.640375 c 1.14,1.26 0.7,2.62 -0.26,3.24 -1.25,0.8 -2.66,0.52 -3.32,-0.41 -0.66,-0.92 -0.39,-2.46 0.54,-3.13 0.93,-0.66 2.28,-0.54 3.04,0.3 z"
     fill="#d2735b"
     id="path42" />
  <ellipse
     transform="rotate(-77.96)"
     cx="-64.567444"
     cy="62.714642"
     rx="2"
     ry="1.91"
     fill="#33312e"
     id="ellipse42" />
  <ellipse
     transform="rotate(-45.001)"
     cx="1.7078434"
     cy="83.441269"
     rx="2.02"
     ry="2.01"
     fill="#33312e"
     id="ellipse43" />
  <ellipse
     transform="rotate(-38.626)"
     cx="5.4817433"
     cy="85.803345"
     rx="1.53"
     ry="1.3200001"
     fill="#33312e"
     id="ellipse44" />
  <ellipse
     transform="rotate(-38.626)"
     cx="28.614634"
     cy="94.587555"
     rx="2.1800001"
     ry="1.7"
     fill="#33312e"
     id="ellipse45" />
  <ellipse
     transform="rotate(-85.044)"
     cx="-56.115765"
     cy="59.631248"
     rx="2.6600001"
     ry="2.05"
     fill="#33312e"
     id="ellipse46" />
  <ellipse
     transform="rotate(-77.96)"
     cx="-51.865658"
     cy="46.016594"
     rx="2"
     ry="1.91"
     fill="#33312e"
     id="ellipse47" />
  <ellipse
     transform="rotate(-30)"
     cx="6.5033312"
     cy="82.874062"
     rx="2.3"
     ry="2.1199999"
     fill="#33312e"
     id="ellipse48" />
  <ellipse
     transform="rotate(-30)"
     cx="7.6817646"
     cy="74.491493"
     rx="2.3900001"
     ry="2.1400001"
     fill="#33312e"
     id="ellipse49" />
  <path
     d="m 60.949349,58.260375 c 1.33,1.4 0.6,3.1 -0.73,3.97 -1.72,1.12 -3.51,0.95 -4.26,-0.1 -0.75,-1.05 -0.21,-2.94 1.08,-3.87 1.29,-0.93 3.03,-0.93 3.91,0 z"
     fill="#d2735b"
     id="path49" />
  <ellipse
     transform="rotate(-77.96)"
     cx="-36.032803"
     cy="84.955215"
     rx="1.87"
     ry="1.8200001"
     fill="#33312e"
     id="ellipse50" />
  <ellipse
     transform="rotate(-38.626)"
     cx="24.08375"
     cy="82.04229"
     rx="2.4200001"
     ry="1.9"
     fill="#33312e"
     id="ellipse51" />
  <ellipse
     transform="rotate(-45.001)"
     cx="21.125544"
     cy="102.34752"
     rx="1.61"
     ry="1.8200001"
     fill="#33312e"
     id="ellipse52" />
  <path
     d="m 71.619349,52.440375 c -0.53,-0.18 -3.35,-1.38 -5.03,0.64 -1.68,2.02 -1.33,6.36 2.91,6.56 4.26,0.19 5.97,-5.87 2.12,-7.2 z"
     fill="#33312e"
     id="path52" />
  <path
     d="m 83.159349,60.130375 c -1.42,-0.34 -4.27,0.5 -4.04,2.96 0.2,2.14 2.08,3.19 4.39,2.86 2.75,-0.4 4.18,-4.74 -0.35,-5.82 z"
     fill="#33312e"
     id="path53" />
  <path
     d="m 74.569349,54.010375 c -0.79,1.88 -2.59,2.03 -3.85,1.22 -1.64,-1.04 -2.12,-2.77 -1.45,-3.95 0.68,-1.18 2.59,-1.6 3.89,-0.86 1.3,0.75 1.93,2.33 1.41,3.59 z"
     fill="#d2735b"
     id="path54" />
  <path
     d="m 86.119349,57.140375 c 1.57,1.66 0.76,3.64 -0.76,4.62 -1.96,1.27 -4.03,1.03 -4.92,-0.21 -0.89,-1.24 -0.31,-3.45 1.16,-4.5 1.47,-1.04 3.47,-1.02 4.52,0.09 z"
     fill="#d2735b"
     id="path55" />
</svg>
