<?xml version="1.0" encoding="UTF-8" standalone="no"?>
<!-- Uploaded to: SVG Repo, www.svgrepo.com, Generator: SVG Repo Mixer Tools -->

<svg
   width="746.7403"
   height="690.17358"
   viewBox="0 0 119.47845 110.42777"
   aria-hidden="true"
   role="img"
   class="iconify iconify--noto"
   preserveAspectRatio="xMidYMid"
   version="1.1"
   id="svg14"
   sodipodi:docname="ox-bull-svgrepo-com.svg"
   xmlns:inkscape="http://www.inkscape.org/namespaces/inkscape"
   xmlns:sodipodi="http://sodipodi.sourceforge.net/DTD/sodipodi-0.dtd"
   xmlns="http://www.w3.org/2000/svg"
   xmlns:svg="http://www.w3.org/2000/svg">
  <defs
     id="defs14" />
  <sodipodi:namedview
     id="namedview14"
     pagecolor="#ffffff"
     bordercolor="#000000"
     borderopacity="0.25"
     inkscape:showpageshadow="2"
     inkscape:pageopacity="0.0"
     inkscape:pagecheckerboard="0"
     inkscape:deskcolor="#d1d1d1" />
  <path
     d="m 37.77026,68.302911 -5.68,2.3 c 0,0 3.57,15.58 3.07,20.51 -0.5,4.93 -1.13,8.8 -2.39,10.489999 -1.26,1.69 -1.34,2.96 -1.13,3.45 0.21,0.49 2.11,2.04 7.04,1.83 4.93,-0.21 5.21,-2.39 5.63,-3.52 0.42,-1.13 -0.92,-8.089999 -0.56,-12.389999 0.35,-4.29 1.34,-6.83 1.41,-9.36 0.07,-2.53 0.35,-6.12 0.35,-6.12 z"
     fill="#51362f"
     id="path1" />
  <path
     d="m 62.48026,71.682911 -0.14,8.38 c 0,0 3.73,-0.77 7.67,-0.28 3.94,0.49 8.66,3.31 9.01,3.31 0.35,0 2.82,-2.25 2.82,-2.25 0,0 1.48,7.6 1.55,10.07 0.07,2.46 0,5.84 -0.63,7.6 -0.63,1.759999 -1.81,3.989999 -1.27,4.719999 0.53,0.7 5.14,1.27 7,0.77 3.44,-0.91 4.26,-1.79 4.36,-3.41 0.09,-1.409999 -0.32,-6.369999 -0.46,-8.479999 -0.14,-2.11 -0.92,-7.18 -0.84,-8.8 0.07,-1.62 1.55,-9.43 1.55,-9.43 l -1.9,-11.12 z"
     fill="#51362f"
     id="path2" />
  <path
     d="m 110.91026,69.992911 c 0,0 -0.92,3.8 0.14,8.09 0.84,3.4 3.52,5.56 4.65,7.46 1.13,1.9 2.39,5.42 3.17,5.35 0.91,-0.08 0.84,-8.66 -0.49,-12.95 -1.33,-4.29 -5.56,-8.66 -5.56,-8.66 z"
     fill="#51362f"
     id="path3" />
  <path
     d="m 4.1302601,5.1629114 3.87,10.4899996 8.8699999,3.8 3.87,-4.29 c 0,0 -5.32,-2.53 -7.25,-4.29 -2.39,-2.1799996 -3.5199999,-4.3599996 -3.24,-5.4899996 0.28,-1.13 1.46,-0.98 1.41,-1.97 -0.07,-1.27 -2.5999999,-1.76 -2.5999999,-1.76 z"
     fill="#f6c519"
     id="path4" />
  <path
     d="m 12.36026,23.322911 c 0,0 -5.3099999,-4.5 -7.7399999,-7.6 -2.49,-3.18 -3.24,-6.1199996 -3.03,-8.6599996 0.21,-2.54 1.91,-5.41 5.56,-5.7 2.6,-0.21 4.2199999,1.13 4.1199999,1.41 -0.12,0.31 -3.6999999,0.42 -3.9099999,3.1 -0.2,2.47 0.84,4.9299996 3.7299999,7.4599996 2.89,2.53 8.8,5.07 8.8,5.07 z"
     fill="#b48958"
     id="path5" />
  <path
     d="m 23.41026,11.852911 c -4.04,0.47 -3.87,3.66 -6.05,4.79 -2.18,1.13 -3.73,1.55 -5.21,3.24 -1.48,1.69 -1.13,3.1 -2.3899999,4.29 -1.26,1.19 -5.77,5.49 -6.12,6.69 -0.35,1.2 5.49,14.15 6.6199999,15.42 1.13,1.27 5.98,1.55 5.98,1.55 0,0 2.75,4.01 5.35,4.93 2.6,0.92 4.65,0.77 4.65,0.77 0,0 -0.49,4.72 0.99,9.15 1.48,4.43 3.94,9.15 8.73,12.46 4.79,3.31 13.51,4.72 13.51,4.72 0,0 2.53,7.32 2.46,10.56 -0.07,3.24 -0.56,6.51 -0.77,8.31 -0.12,1.05 -2.18,7.109999 -1.69,8.169999 0.49,1.06 3.06,3.38 6.16,3.52 3.1,0.14 6.51,-2.78 6.65,-3.84 0.14,-1.06 -1.62,-9.679999 -1.69,-12.349999 -0.07,-2.67 1.82,-11.72 2.25,-13.44 0.42,-1.69 1.2,-4.01 1.2,-4.01 0,0 6.34,0.56 12.11,-0.92 5.77,-1.48 9.64,-3.94 9.64,-3.94 0,0 -0.92,-5.42 0.84,-5.49 1.76,-0.07 1.63,3.85 2.6,7.6 1.16,4.47 3.59,8.8 5,12.18 1.41,3.38 2.67,8.17 2.46,10.84 -0.21,2.67 -3.52,7.319999 -2.89,8.799999 0.63,1.48 3.1,1.69 5.14,1.62 2.04,-0.07 5.24,-0.63 5.84,-1.55 0.64,-0.98 0.21,-8.449999 0.56,-10.209999 0.35,-1.76 2.15,-8.09 2.08,-10.49 -0.07,-2.4 -5.1,-2.46 -4.68,-10.77 0.47,-9.22 3.59,-16.54 3.59,-16.54 0,0 0.82,4.68 1.76,7.74 0.77,2.53 3.17,6.97 4.65,6.26 1.48,-0.7 -0.39,-2.04 -1.48,-8.52 -0.79,-4.71 -2.18,-16.82 -2.46,-19.22 -0.28,-2.4 -0.93,-4.65 -1.48,-5.49 -1.68,-2.58 -4.08,-3.8 -5.98,-5.28 -1.9,-1.48 -4.46,-3.18 -6.12,-3.45 -3.86,-0.63 -10.91,0.35 -16.19,0.14 -5.29,-0.22 -12.19,-0.78 -15.14,-1.49 -2.95,-0.71 -3.94,-1.41 -3.94,-1.41 0,0 -11.97,-7.81 -14.71,-9.43 -2.75,-1.62 -6.69,-3.52 -9.57,-3.17 -2.88,0.35 -7.4,-3.3 -12.26,-2.74 z"
     fill="#865b52"
     id="path6" />
  <path
     d="m 48.75026,77.592911 c 0,0 -1.13,-3.52 -0.28,-6.9 0.76,-3.05 3.75,-5.5 1.41,-6.05 -1.79,-0.42 -3.78,1.68 -4.36,5.14 -0.78,4.58 3.23,7.81 3.23,7.81 z"
     fill="#51362f"
     id="path7" />
  <path
     d="m 32.70026,45.642911 c 0.76,0.93 7.18,-0.35 9.22,-2.89 2.04,-2.53 1.06,-9.64 0.77,-11.12 -0.28,-1.48 -0.77,-3.87 -0.77,-3.87 0,0 4.01,-1.76 4.08,-2.6 0.07,-0.84 -2.32,-7.46 -8.45,-7.6 -6.12,-0.14 -11.9,-2.32 -12.04,0.35 -0.14,2.67 1.83,5.35 5.84,5.21 4.01,-0.14 4.5,-2.96 6.69,-2.75 2.19,0.21 5.42,2.96 5,3.38 -0.42,0.42 -9.57,-0.56 -9.43,1.41 0.14,1.97 4.36,2.32 4.65,2.75 0.28,0.42 2.67,8.87 1.34,11.76 -1.34,2.87 -7.53,5.19 -6.9,5.97 z"
     fill="#51362f"
     id="path8" />
  <path
     d="m 14.68026,4.3229114 c 0,0 8.66,1.27 10.91,4.36 2.25,3.0899996 3.94,9.3899996 7.18,9.2199996 3.98,-0.21 4.54,-0.39 4.4,-4.47 -0.14,-4.0799996 -3.34,-9.4699996 -7.57,-11.8599996 -4.23,-2.39000002 -9.7,-1.57000002 -12.11,-0.70000002 -2.52,0.91000002 -4.14,3.03000002 -2.81,3.45000002 z"
     fill="#f7c515"
     id="path9" />
  <path
     d="m 14.12026,3.8329114 c -0.34,0.75 3.85,2.15 5.28,3.03 3.31,2.04 5.42,4.4299996 5.84,7.6699996 0.42,3.24 0.93,4.11 2.67,5.14 2.39,1.41 6.12,0.47 7.32,-0.53 2.32,-1.94 1.78,-2.86 1.94,-3.7 0.07,-0.39 -2.25,2.01 -4.12,1.48 -1.69,-0.48 -2.53,-1.62 -2.82,-2.5 -0.42,-1.3 -1.41,-5.5299996 -3.87,-7.8499996 -2.46,-2.32 -11.32,-4.79 -12.24,-2.74 z"
     fill="#b48958"
     id="path10" />
  <path
     d="m 23.98026,25.652911 c 0.74,1.72 0.35,3.94 -1.94,4.15 -1.43,0.13 -2.68,-0.99 -3.13,-2.76 -0.44,-1.77 0.33,-3.49 1.72,-3.84 1.4,-0.35 2.63,0.77 3.35,2.45 z"
     fill="#0c090c"
     id="path11" />
  <path
     d="m 8.7702601,36.352911 c 0,0 1.07,-8.17 -4.05,-6.69 -2.18,0.63 -4.74999998,4.96 -4.71999997579,6.37 0.0599999958,2.56 1.12999997579,6.93 4.35999997579,8.83 1.36,0.8 3.2,1.2 3.7,1.41 0.49,0.21 2.2199999,0.92 2.9199999,0.46 1.14,-0.74 1.41,-2.68 1.02,-5.6 -0.48,-3.73 -3.2299999,-4.78 -3.2299999,-4.78 z"
     fill="#be9079"
     id="path12" />
  <path
     d="m 1.5202601,36.452911 c 0.74,-1.04 1.34,-2.99 2.78,-2.32 1.44,0.67 0.42,3.08 -0.49,4.05 -1.02,1.09 -2.81,1.75 -3.16999998,0.84 -0.32,-0.81 0.11,-1.48 0.87999998,-2.57 z"
     fill="#2c2f33"
     id="path13" />
  <path
     d="m 1.4902601,40.682911 c -0.55999998,0.58 0.53,2.04 2.57,2.78 2.04,0.74 5.47,0.31 5.24,-1.13 -0.18,-1.13 -1.83,-0.7 -3.59,-0.81 -2.32,-0.14 -3.24,-1.87 -4.22,-0.84 z"
     fill="#2c2f33"
     id="path14" />
</svg>
