<?xml version="1.0" encoding="UTF-8" standalone="no"?>
<!-- Uploaded to: SVG Repo, www.svgrepo.com, Generator: SVG Repo Mixer Tools -->

<svg
   width="667.04486"
   height="746.8363"
   viewBox="0 0 106.72718 119.49381"
   aria-hidden="true"
   role="img"
   class="iconify iconify--noto"
   preserveAspectRatio="xMidYMid"
   version="1.1"
   id="svg14"
   sodipodi:docname="parrot-svgrepo-com.svg"
   xmlns:inkscape="http://www.inkscape.org/namespaces/inkscape"
   xmlns:sodipodi="http://sodipodi.sourceforge.net/DTD/sodipodi-0.dtd"
   xmlns="http://www.w3.org/2000/svg"
   xmlns:svg="http://www.w3.org/2000/svg">
  <defs
     id="defs14" />
  <sodipodi:namedview
     id="namedview14"
     pagecolor="#ffffff"
     bordercolor="#000000"
     borderopacity="0.25"
     inkscape:showpageshadow="2"
     inkscape:pageopacity="0.0"
     inkscape:pagecheckerboard="0"
     inkscape:deskcolor="#d1d1d1" />
  <path
     d="m 28.392048,91.380868 c 0,0 2.44,10.040002 2.06,11.450002 -0.38,1.41 -7.32,2.53 -11.36,4.6 -2.65,1.36 -6.92,4.39 -4.32,6.84 1.41,1.33 5.35,-2.03 17.18,-2.71 12.01,-0.69 14.13,0.29 13.51,-2.25 -0.61,-2.53 -3.8,-2.82 -6.48,-3.94 -0.89,-0.37 -1.92,-0.96 -2.35,-1.6 -0.41,-0.61 0.19,-10.980002 0.19,-10.980002 z"
     fill="#feba02"
     id="path1" />
  <path
     d="m 50.542048,98.420868 c 0,0 0.28,10.150002 0.28,10.800002 0,0.95 -2.32,2.09 -5.77,2.86 -3.45,0.77 -10.28,2.05 -10.37,6.42 -0.06,2.69 13.12,-0.95 20.65,-0.84 7.53,0.11 12.36,1.1 12.01,-2.06 -0.28,-2.53 -4.2,-3.68 -6.31,-4.14 -2.11,-0.46 -3.07,-1.49 -3.13,-2.75 -0.04,-0.82 0.14,-10.070002 0.14,-10.070002 z"
     fill="#feba02"
     id="path2" />
  <linearGradient
     id="IconifyId17ecdb2904d178eab14760"
     gradientUnits="userSpaceOnUse"
     x1="46.854"
     y1="97.056999"
     x2="65.857002"
     y2="33.648998"
     gradientTransform="translate(-11.617952,-4.0991321)">
    <stop
       offset=".136"
       stop-color="#79da88"
       id="stop2" />
    <stop
       offset=".304"
       stop-color="#57cd75"
       id="stop3" />
    <stop
       offset=".634"
       stop-color="#19b553"
       id="stop4" />
    <stop
       offset=".791"
       stop-color="#01ab46"
       id="stop5" />
  </linearGradient>
  <path
     d="m 30.272048,3.9108679 9.06,-0.61 c 0,0 5.04,1.63 9.83,8.5700001 6.36,9.23 5.52,26.11 5.52,26.11 l 17.46,46.55 2.11,15.39 c 0,0 -15.62,2.460002 -30.92,0.470002 -18.02,-2.350002 -36.6000003,-18.680002 -36.3200003,-43.080002 0.28,-24.4 19.6200003,-47.9600001 19.6200003,-47.9600001 z"
     fill="url(#IconifyId17ecdb2904d178eab14760)"
     id="path5"
     style="fill:url(#IconifyId17ecdb2904d178eab14760)" />
  <path
     d="m 9.5320477,12.830868 c 0,0 -6.95,2.16 -8.92000005,9.95 -1.96999995,7.79 1.32000005,15.04 2.77000005,15.53 0.56,0.19 2.3,-3.33 2.3,-3.33 0,0 2.44,2.82 3.66,3.47 1.2200003,0.66 1.8300003,1.15 2.9100003,1.08 2.11,-0.14 5.21,-6.29 5.12,-10.42 l 1.08,-20.2300001 z"
     fill="#ffd51d"
     id="path6" />
  <path
     d="m 18.232048,23.990868 c 0,0 8.47,-1.41 11.85,-4.32 3.38,-2.91 7.32,-5.54 8.63,-10.7900001 0.8,-3.2 0.84,-5.44 0.84,-5.44 0,0 -11.81,-6.85 -22.51,-1.22 -10.7000003,5.63 -8.1700003,13.2800001 -8.1700003,13.2800001 z"
     fill="#ff2b23"
     id="path7" />
  <path
     d="m 17.882048,25.120868 c 0,0 -6.85,4.04 -7.6,4.6 -0.7500003,0.56 -3.2000003,1.78 -4.3200003,2.72 -1.78,1.5 -3.38,4.88 -2.72,5.73 0.66,0.84 1.6,-1.78 4.22,-3.38 2.6200003,-1.6 7.1300003,-4.13 8.3500003,-4.79 1.22,-0.66 1.6,-1.03 1.6,-1.03 z"
     fill="#ff600d"
     id="path8" />
  <path
     d="m 20.212048,23.360868 c 0.47,-0.99 0.68,-3.26 -2.51,-7.25 -3.75,-4.69 -9.0100003,-4.88 -9.0100003,-4.88 l -0.56,1.88 5.8200003,5.82 3.23,6.97 c 0,0 2.06,-0.5 3.03,-2.54 z"
     fill="#a02a1b"
     id="path9" />
  <path
     d="m 4.2720477,16.300868 c 0,0 4.32,0.28 7.3200003,2.91 1.78,1.56 4.47,4.9 5.13,6.41 0.66,1.51 2.91,-2.67 1.13,-5.49 -1.78,-2.82 -3.91,-5.65 -7.85,-7.02 -2.8400003,-0.98 -5.5400003,1.41 -5.7300003,3.19 z"
     fill="#ec80af"
     id="path10" />
  <path
     d="m 37.872048,21.840868 c 0,0 -3.47,-8.82 -10.61,-8.45 -7.2,0.38 -8.31,5.73 -7.98,8.92 0.38,3.69 2.82,5.73 8.45,5.54 5.64,-0.2 10.14,-6.01 10.14,-6.01 z"
     fill="#fbd3b3"
     id="path11" />
  <path
     d="m 32.622048,20.710868 c 0,2.28 -2.48,4.32 -4.74,4.32 -2.25,0 -4.08,-1.85 -4.08,-4.13 0,-2.28 1.31,-4.79 4.5,-4.97 3.37,-0.21 4.32,2.5 4.32,4.78 z"
     fill="#312f2a"
     id="path12" />
  <path
     d="m 74.762048,76.650868 c 0,0 2.25,5.07 10.89,10.7 7.33,4.78 10.89,7.7 15.960002,9.48 5.07,1.78 5.26,2.25 5.07,3.190002 -0.19,0.94 -8.070002,7.04 -16.710002,6.29 -8.63,-0.75 -12.76,-4.13 -15.39,-5.91 -2.63,-1.780002 -7.6,-14.360002 -7.6,-14.360002 z"
     fill="#01ab46"
     id="path13" />
  <path
     d="m 54.722048,37.740868 c 0,0 -11.97,3.52 -17.22,11.5 -4.4,6.68 -4.01,18.04 0.47,26.47 5.54,10.42 16.99,17.83 23.09,20.65 6.1,2.82 14.45,4.220002 18.11,3.850002 3.66,-0.370002 -3.28,-25.620002 -9.95,-39.140002 -6.5,-13.19 -14.5,-23.33 -14.5,-23.33 z"
     fill="#b7d019"
     id="path14" />
</svg>
