<?xml version="1.0" encoding="UTF-8" standalone="no"?>
<!-- Uploaded to: SVG Repo, www.svgrepo.com, Generator: SVG Repo Mixer Tools -->

<svg
   width="480.2117"
   height="730.68475"
   viewBox="0 0 76.833872 116.90956"
   aria-hidden="true"
   role="img"
   class="iconify iconify--noto"
   preserveAspectRatio="xMidYMid"
   version="1.1"
   id="svg12"
   sodipodi:docname="penguin-svgrepo-com.svg"
   xmlns:inkscape="http://www.inkscape.org/namespaces/inkscape"
   xmlns:sodipodi="http://sodipodi.sourceforge.net/DTD/sodipodi-0.dtd"
   xmlns="http://www.w3.org/2000/svg"
   xmlns:svg="http://www.w3.org/2000/svg">
  <defs
     id="defs12" />
  <sodipodi:namedview
     id="namedview12"
     pagecolor="#ffffff"
     bordercolor="#000000"
     borderopacity="0.25"
     inkscape:showpageshadow="2"
     inkscape:pageopacity="0.0"
     inkscape:pagecheckerboard="0"
     inkscape:deskcolor="#d1d1d1" />
  <path
     d="m 44.585893,107.06047 c 0,0 -6.69,4.63 -7.32,5.44 -0.63,0.8 -0.9,1.74 0.32,2.11 1.22,0.37 3.16,-0.14 3.16,-0.14 0,0 -0.97,1.44 1.31,1.97 1.53,0.35 4.5,-1.2 4.5,-1.2 0,0 -0.49,1.37 1.55,1.65 2.94,0.41 8.02,-5.9 9.06,-7.87 1.04,-1.97 0.56,-3.66 0.56,-3.66 z"
     fill="#adadb7"
     id="path1" />
  <path
     d="m 26.985893,102.90047 c 0,0 -8.21,4.92 -8.87,5.2 -0.66,0.28 -3.22,1.71 -2.25,3.28 0.75,1.22 3.66,0.28 3.66,0.28 0,0 -0.63,1.37 1.03,2.16 1.67,0.79 5.16,-1.13 5.16,-1.13 0,0 -0.39,1.71 1.88,1.97 2.91,0.34 9.39,-8.54 9.39,-8.54 z"
     fill="#adadb7"
     id="path2" />
  <path
     d="m 59.785893,32.680472 c 0,0 1.13,-17.6 -7.46,-25.76 -8.59,-8.16 -19.15,-7.22999999 -22.39,-6.37999999 -3.24,0.83999999 -8.88,2.87999999 -12.86,8.62999999 -5.26,7.6 -3.1,14.73 -5.54,19.33 -1.9199998,3.63 -7.2299998,14.03 -8.0699998,21.49 -0.84,7.46 -1.41,21.59 -0.99,26.61 0.41,4.91 0.61,9.24 3.24,13.23 1.57,2.39 4.6999998,2.44 5.7699998,1.13 0.63,-0.77 0.42,-1.9 0.42,-1.9 0,0 4.28,6.38 6.01,8.52 2.82,3.469998 8.67,9.059998 18.21,10.699998 12.58,2.16 33.22,-4.5 33.22,-4.5 0,0 1.77,1.2 4.58,1.34 1.43,0.07 3.1,-1.34 2.89,-2.75 -0.21,-1.41 -1.83,-3.379998 -2.18,-4.149998 -0.35,-0.77 0.73,-22.31 -2.65,-36.95 -3.38,-14.64 -9.67,-26.62 -12.2,-28.59 z"
     fill="#4d4d4d"
     id="path3" />
  <linearGradient
     id="IconifyId17ecdb2904d178eab14777"
     gradientUnits="userSpaceOnUse"
     x1="55.562"
     y1="105.748"
     x2="69.459"
     y2="34.252998"
     gradientTransform="translate(-25.184107,-5.689528)">
    <stop
       offset=".362"
       stop-color="#ffffff"
       id="stop3" />
    <stop
       offset=".412"
       stop-color="#fffaef"
       id="stop4" />
    <stop
       offset=".51"
       stop-color="#ffedc7"
       id="stop5" />
    <stop
       offset=".646"
       stop-color="#ffd985"
       id="stop6" />
    <stop
       offset=".788"
       stop-color="#ffc139"
       id="stop7" />
    <stop
       offset=".817"
       stop-color="#ffb92e"
       id="stop8" />
    <stop
       offset=".944"
       stop-color="#ff9700"
       id="stop9" />
  </linearGradient>
  <path
     d="m 14.595893,32.680472 c 0,0 -6.0999998,6.34 -6.6599998,15.06 -0.47,7.33 -0.52,20.69 3.7099998,32.66 4.23,11.97 12.25,21.869998 23.93,24.209998 12.64,2.54 26.65,-1.92 27.08,-2.06 0.42,-0.14 -2.53,-3.279998 -4.6,-6.379998 -1.57,-2.36 -3.61,-7.6 -3.61,-7.6 0,0 0.14,4.04 -2.46,4.36 -1.98,0.25 -4.79,-1.69 -6.9,-6.34 -2.11,-4.65 -4.98,-17.27 -5.77,-27.66 -0.7,-9.29 0.25,-15.27 1.2,-17.88 0.57,-1.57 1.72,-2.64 1.72,-2.64 0,0 3.2,3.89 8.27,2.57 4.88,-1.27 6.1,-6.62 5.26,-10.98 -1.01,-5.21 -3.1,-10.84 -10.18,-9.29 -8.04,1.76 -5.24,12.14 -5.24,12.14 0,0 -5.74,4.68 -13.76,3.84 -8.05,-0.84 -11.99,-4.01 -11.99,-4.01 z"
     fill="url(#IconifyId17ecdb2904d178eab14777)"
     id="path9"
     style="fill:url(#IconifyId17ecdb2904d178eab14777)" />
  <path
     d="m 21.915893,12.460472 c 0,0 -0.97,-3.62 -3.43,-4.08 -4.74,-0.89 -11.3099998,2.21 -13.9799998,3.85 -2.16,1.33 -5.12000003,4.22 -4.22000003,5.63 0.90000003,1.41 5.77000003,0.05 9.94999983,0.75 2.89,0.49 6.9,1.69 8.59,1.64 1.35,-0.04 3.1,-2.35 3.33,-3.43 0.23,-1.08 0.23,-3 -0.24,-4.36 z"
     fill="#adadb7"
     id="path10" />
  <path
     d="m 22.145893,12.830472 c 0,0 -3.99,1.74 -12.3899998,2.3 -3.56,0.24 -9.57000003,1.97 -9.57000003,1.97 0,0 -0.61,0.61 0.38,1.13 0.99000003,0.52 6.01000003,-0.91 9.10000003,-1.08 5.0199998,-0.28 14.2199998,-0.94 14.2199998,-0.94 z"
     fill="#4d4d4d"
     id="path11" />
  <path
     d="m 38.575893,16.310472 c 0.09,2.15 -2,3.99 -3.88,3.68 -2.37,-0.4 -3.53,-2.66 -3.28,-4.9 0.25,-2.24 2.29,-3.42 4.18,-3.21 1.9,0.2 2.89,2.18 2.98,4.43 z"
     fill="#000409"
     id="path12" />
</svg>
