<?xml version="1.0" encoding="UTF-8" standalone="no"?>
<!-- Uploaded to: SVG Repo, www.svgrepo.com, Generator: SVG Repo Mixer Tools -->

<svg
   width="746.57562"
   height="696.1261"
   viewBox="0 0 119.4521 111.38018"
   aria-hidden="true"
   role="img"
   class="iconify iconify--noto"
   preserveAspectRatio="xMidYMid"
   version="1.1"
   id="svg17"
   sodipodi:docname="ram-svgrepo-com.svg"
   xmlns:inkscape="http://www.inkscape.org/namespaces/inkscape"
   xmlns:sodipodi="http://sodipodi.sourceforge.net/DTD/sodipodi-0.dtd"
   xmlns="http://www.w3.org/2000/svg"
   xmlns:svg="http://www.w3.org/2000/svg">
  <defs
     id="defs17" />
  <sodipodi:namedview
     id="namedview17"
     pagecolor="#ffffff"
     bordercolor="#000000"
     borderopacity="0.25"
     inkscape:showpageshadow="2"
     inkscape:pageopacity="0.0"
     inkscape:pagecheckerboard="0"
     inkscape:deskcolor="#d1d1d1" />
  <path
     d="m 104.30217,36.193823 c 1.29,-0.36 4.43,4.75 7.11,6.9 2.46,1.97 4.03,3.15 5.35,3.38 0.82,0.14 3.8,0.92 2.25,3.87 -1.55,2.95 -5.7,3.03 -7.74,2.96 -2.04,-0.07 -11.610001,-9.92 -11.610001,-9.92 0,0 0.13,-5.92 4.640001,-7.19 z"
     fill="#929394"
     id="path1" />
  <path
     d="m 33.842169,3.8838226 c 0,0 -4.24,-2.44 -12.46,-1.27 -6.29,0.9 -13.3699998,4.36 -17.6699998,12.6000004 -4.93,9.43 -4.60000003,18.61 -1.06,25.06 4.19,7.63 11.7599998,12.18 11.7599998,12.18 z"
     fill="#b88658"
     id="path2" />
  <path
     d="m 17.092169,17.613823 c 0,0 -2.67,0 -5,3.1 -1.87,2.49 -2.6699998,4.5 -2.6699998,4.5 0,0 -5.82,0.94 -5.98,4.36 -0.1,2.11 2.46,1.41 4.43,3.38 1.97,1.97 2.4599998,3.31 2.9599998,5.56 0.49,2.25 3.31,2.67 3.31,2.67 0,0 0.07,-5.7 -3.03,-8.8 -3.0999998,-3.1 -5.2799998,-2.32 -5.1399998,-3.1 0.14,-0.77 2.46,-2.37 4.9999998,-2.32 3.94,0.07 5.56,4.65 5.56,4.65 l 2.6,-11.54 z"
     fill="#6f4b41"
     id="path3" />
  <path
     d="m 72.202169,95.413823 c 0,0 -0.05,2.53 0.14,3.64 0.09,0.54 2.07,2.129997 5.96,2.229997 3.85,0.09 6.08,-1.989997 6.05,-3.099997 -0.02,-0.94 0.28,-4.97 0.28,-4.97 l -1.17,-4.08 -9.36,2.67 -0.73,1.4 z"
     fill="#5d6167"
     id="path4" />
  <path
     d="m 75.792169,95.603823 c 0,0 1.57,0.39 4.48,0.09 2.82,-0.28 4.32,-1.5 4.32,-1.5 l 1.06,-7.11 -13.37,1.41 1.83,6.83 z"
     fill="#979899"
     id="path5" />
  <path
     d="m 91.022169,94.753823 c 0,0 0.2,5.339997 0.52,5.959997 0.33,0.66 1.87,2.2 5.68,2.35 4.790001,0.19 5.960001,-1.6 6.100001,-2.82 0.14,-1.219997 0.84,-5.229997 0.28,-6.709997 -0.56,-1.48 -10.090001,-0.52 -10.090001,-0.52 z"
     fill="#5d6268"
     id="path6" />
  <path
     d="m 104.70217,79.173823 -13.700001,1.64 c 0,0 -0.28,13.09 0,13.94 0.28,0.84 2.18,2.07 6.48,2.18 4.580001,0.12 6.260001,-1.2 6.260001,-1.2 l 1.45,-16.28 z"
     fill="#979899"
     id="path7" />
  <path
     d="m 47.592169,102.26382 c 0,0 0.19,5.63 0.75,6.34 0.56,0.7 1.71,2.91 6.43,2.77 4.72,-0.14 6.31,-2.89 6.45,-3.59 0.14,-0.7 0.16,-4.67 0.16,-4.67 l -13.12,-2.65 z"
     fill="#5d6164"
     id="path8" />
  <path
     d="m 61.572169,93.563823 -14.5,1.2 c 0,0 0.31,6.849997 0.52,8.119997 0.18,1.1 2.09,2.72 7.09,2.58 5,-0.14 6.76,-2.39 6.76,-2.39 z"
     fill="#979899"
     id="path9" />
  <path
     d="m 26.402169,99.923823 c 0,0 2.72,-2.84 6.59,-2.98 3.87,-0.14 6.45,4.759997 6.45,4.759997 0,0 0.12,2.65 0.12,3.47 0,1.27 -2.95,3.28 -6.26,3.24 -5.09,-0.07 -5.77,-2.06 -6.01,-3.05 -0.14,-0.59 -0.89,-5.439997 -0.89,-5.439997 z"
     fill="#5f6467"
     id="path10" />
  <path
     d="m 27.572169,89.333823 -2.89,0.96 1.76,9.949997 c 0,0 2.11,2.96 6.83,2.96 4.72,0 6.19,-1.41 6.19,-1.41 l -0.42,-8.379997 z"
     fill="#98999a"
     id="path11" />
  <path
     d="m 55.452169,7.4738226 c 0,0 -2.4,-7.11000004 -12.25,-7.46000004 -11.68,-0.42 -14.08,8.87000004 -14.08,8.87000004 0,0 -5.77,-3.1 -11.12,2.5300004 -5.35,5.63 -1.13,11.68 -1.13,11.68 0,0 -3.14,2.26 -2.67,6.34 0.42,3.66 2.53,4.79 2.53,4.79 0,0 -7.8499998,4.12 -8.8699998,13.51 -1.13,10.42 3.5199998,14.08 3.5199998,14.08 0,0 -4.0799998,6.62 0.42,15.91 4.3,8.87 10.42,9.29 10.42,9.29 0,0 3.24,7.32 9.15,8.73 5.91,1.41 10.84,-0.28 10.84,-0.28 0,0 5.35,4.789997 11.12,4.08 5.77,-0.7 7.6,-3.52 7.6,-3.52 0,0 3.52,3.38 10.56,1.83 7.04,-1.55 8.31,-5.49 8.31,-5.49 0,0 6.48,3.66 13.09,0.14 6.62,-3.52 7.180001,-9.71 7.180001,-9.71 0,0 7.18,-1.13 10.98,-8.45 3.8,-7.32 0.28,-12.11 0.28,-12.11 0,0 1.83,-3.8 -0.14,-11.54 -1.97,-7.74 -7.88,-8.59 -7.88,-8.59 0,0 4.36,-7.88 -1.55,-13.8 -5.910001,-5.91 -14.640001,-4.79 -14.640001,-4.79 l -22.52,-7.88 c 0,0 2.88,-4.09 -1.97,-7.3200004 -3.8,-2.53 -7.18,-0.84 -7.18,-0.84 z"
     fill="#dedede"
     id="path12" />
  <path
     d="m 17.672169,34.593823 c 0,0 2.35,0.28 4.97,-1.78 2.63,-2.06 4.04,-4.79 4.04,-4.79 0,0 2.4,5.03 7.88,6.01 6.85,1.22 11.64,-5.16 11.64,-5.16 0,0 -0.75,3.66 3.1,6.66 3.85,3 8.45,1.78 8.45,1.78 0,0 -5.63,5.82 -7.41,10.7 -1.78,4.88 -2.72,13.14 -7.32,17.18 -6.5,5.7 -26.09,4.88 -27.5,-8.63 -0.6,-5.74 2.44,-5.82 2.82,-13.51 0.26,-5.55 -0.67,-8.46 -0.67,-8.46 z"
     fill="#979899"
     id="path13" />
  <path
     d="m 27.672169,53.373823 c 0.29,0.04 2.25,-1.03 2.63,-1.22 0.38,-0.19 2.11,-1.31 2.86,-0.23 0.75,1.08 0.22,2.09 -1.4,2.86 -1.18,0.56 -2.5,1.2 -2.5,1.2 0,0 -0.66,4.12 2.15,4.4 1.76,0.18 2.15,-1 3.41,0.18 1.27,1.17 -0.42,3.13 -3.12,3 -1.52,-0.07 -2.44,-0.43 -3.28,-1.22 -0.42,-0.39 -1.02,-1.71 -1.02,-1.71 0,0 -0.67,2.13 -3.48,2.32 -2.6,0.18 -3.99,-2.11 -2.91,-3.14 1.08,-1.03 1.13,0.31 2.77,0.26 2.36,-0.07 2.04,-4.33 2.04,-4.33 0,0 -1.62,-1.84 -2.09,-2.31 -0.47,-0.47 -1.25,-1.41 -0.66,-2.25 0.77,-1.1 1.71,-0.41 2.18,-0.08 0.47,0.31 2.12,2.23 2.42,2.27 z"
     fill="#2f2f2f"
     id="path14" />
  <path
     d="m 60.002169,35.913823 -1.22,-13.14 21.4,-4.22 6.01,12.11 -3.85,18.2 -1.22,5.44 -6.1,6.85 c 0,0 -4.33,2.51 -10.04,0.84 -6.1,-1.78 -8.73,-5.54 -10.04,-11.73 -1.98,-9.3 5.06,-14.35 5.06,-14.35 z"
     fill="#6f4b41"
     id="path15" />
  <path
     d="m 56.062169,25.403823 c 0,6.01 2.91,10.89 3.94,10.51 1.03,-0.38 4.84,-1.41 6.01,-6.29 0.56,-2.32 3.42,-4.69 6.56,-5.05 3.2,-0.37 6.7,1.34 8.36,7.31 1.5,5.4 -0.18,10.52 -3.1,12.67 -2.92,2.15 -6.89,1.68 -7.88,-1.22 -1.5,-4.41 4.69,-5.91 4.79,-7.41 0.1,-1.5 -7.6,-4.79 -12.86,0.38 -5.87,5.76 -6.38,14.27 -1.78,20.18 4.6,5.91 11.98,6.86 19.33,3 7.51,-3.94 13.81,-11.93 13.33,-27.31 -0.56,-18.02 -14.64,-27.3800004 -25.43,-24.9600004 -3.99,0.89 -6.69,2.8400004 -8.39,5.7100004 -1.71,2.86 -2.88,7.88 -2.88,12.48 z"
     fill="#b68859"
     id="path16" />
  <ellipse
     cx="43.39217"
     cy="38.753822"
     rx="3.28"
     ry="3.96"
     fill="#2f2f2f"
     id="ellipse16" />
  <ellipse
     cx="24.24217"
     cy="36.733826"
     rx="3.01"
     ry="3.5699999"
     fill="#2f2f2f"
     id="ellipse17" />
</svg>
