<?xml version="1.0" encoding="UTF-8" standalone="no"?>
<!-- Uploaded to: SVG Repo, www.svgrepo.com, Generator: SVG Repo Mixer Tools -->

<svg
   width="648.03107"
   height="728.78839"
   viewBox="0 0 103.68497 116.60614"
   aria-hidden="true"
   role="img"
   class="iconify iconify--noto"
   preserveAspectRatio="xMidYMid"
   version="1.1"
   id="svg10"
   sodipodi:docname="rooster-svgrepo-com.svg"
   xmlns:inkscape="http://www.inkscape.org/namespaces/inkscape"
   xmlns:sodipodi="http://sodipodi.sourceforge.net/DTD/sodipodi-0.dtd"
   xmlns="http://www.w3.org/2000/svg"
   xmlns:svg="http://www.w3.org/2000/svg">
  <defs
     id="defs10" />
  <sodipodi:namedview
     id="namedview10"
     pagecolor="#ffffff"
     bordercolor="#000000"
     borderopacity="0.25"
     inkscape:showpageshadow="2"
     inkscape:pageopacity="0.0"
     inkscape:pagecheckerboard="0"
     inkscape:deskcolor="#d1d1d1" />
  <path
     d="m 37.8075,23.872136 c 0,0 6.95,-3.71 10.04,-9.24 3.09,-5.5300002 4.13,-11.4100002 -0.61,-13.85000021 -5.67,-2.91999999 -11.83,4.22000001 -11.83,4.22000001 0,0 0.56,-4.46000001 -3.57,-4.93000001 -9.21,-1.05 -10.61,9.71000001 -10.61,9.71000001 0,0 -2.34,-1.96 -5.26,-0.94 -3.47,1.2200002 -4.01,5.8100002 -3.85,8.0700002 0.23,3.24 2.21,7.41 2.21,7.41 z"
     fill="#a42e1a"
     id="path1" />
  <path
     d="m 51.6475,89.572136 -24,-5.21 c 0,0 0.92,8.59 0.28,9.57 -1.24,1.93 -8.09,1.9 -12.04,2.82 -3.71,0.86 -8.73,6.210004 -5.14,10.630004 3.38,4.15 6.97,-3.45 8.87,-3.31 1.9,0.14 2.3,3.97 4.43,3.87 3.1,-0.14 1.27,-4.43 2.75,-5.98 1.48,-1.55 7.04,-1.27 8.17,-3.100004 1.13,-1.83 0.7,-7.95 0.7,-7.95 l 7.18,2.53 c 0,0 4.08,4.86 3.8,8.870004 -0.28,4.01 -2.39,6.57 -3.8,6.9 -4.93,1.13 -11.4,2.53 -10.98,5.49 0.43,3.01 6.04,1.55 14.29,1.55 8.02,0 12.18,0.99 12.81,-2.39 0.63,-3.38 -5.42,-3.45 -5.49,-4.65 -0.07,-1.2 1.9,-6.62 1.55,-9.08 -0.35,-2.470004 -3.38,-10.560004 -3.38,-10.560004 z"
     fill="#ffb70c"
     id="path2" />
  <radialGradient
     id="IconifyId17ecdb2904d178eab19929"
     cx="20.103001"
     cy="100.174"
     r="95.940002"
     gradientUnits="userSpaceOnUse"
     gradientTransform="translate(-15.0225,-5.5378642)">
    <stop
       offset=".468"
       stop-color="#8d5e50"
       id="stop2" />
    <stop
       offset=".675"
       stop-color="#5a7439"
       id="stop3" />
    <stop
       offset=".821"
       stop-color="#34642e"
       id="stop4" />
    <stop
       offset="1"
       stop-color="#315427"
       id="stop5" />
  </radialGradient>
  <path
     d="m 40.1975,45.172136 -25.58,2.44 c 0,0 -5.98,4.79 -6.99,13.98 -0.59,5.38 1.52,13.59 8.45,20.27 5.8,5.58 13.61,15.67 29.09,14.08 15.48,-1.59 25.85,-14.67 29.28,-21.73 3.28,-6.76 4.6,-14.5 5.44,-14.59 0.84,-0.09 8.69,11.29 11.36,10.7 1.69,-0.38 1.64,-5.64 1.22,-8.73 -0.66,-4.79 -2.44,-7.79 -2.44,-7.79 0,0 7.79,5.73 8.92,4.08 0.85,-1.23 0.19,-7.27 -0.99,-11.83 -1.29,-5 -3.33,-8.12 -3.33,-8.12 0,0 8.26,8.21 8.96,5.87 0.33,-1.1 0.61,-17.03 -13.28,-21.26 -13.89,-4.23 -23.89,8.59 -26.28,14.64 -2.57,6.51 -4.65,17.03 -4.65,17.03 z"
     fill="url(#IconifyId17ecdb2904d178eab19929)"
     id="path5"
     style="fill:url(#IconifyId17ecdb2904d178eab19929)" />
  <path
     d="m 26.8675,17.302136 c -6.84,0.32 -12.39,6.85 -12.39,6.85 0,0 -6.03,0.38 -7.98,1.03 -2.86,0.96 -4.88,3.2 -5.07,4.32 -0.47000004,2.77 10.32,3.94 10.32,3.94 l 0.84,15.96 c 0,0 6.66,5.82 7.41,5.91 0.75,0.09 5.82,-6.19 6.48,-6.29 0.66,-0.1 7.79,7.32 7.79,7.32 l 18.7,-6.05 c 0,0 -2.6,-4.79 -4.5,-8.09 -1.88,-3.28 -2.96,-13.8 -8.66,-19.78 -3.74,-3.95 -8.9,-5.31 -12.94,-5.12 z"
     fill="#ffb903"
     id="path6" />
  <path
     d="m 16.8275,30.532136 c 0,0 -4.55,0.03 -7.13,-0.09 -1.97,-0.09 -8.26,-0.94 -8.26,-0.94 0,0 -0.23,0.66 0.38,0.94 0.61,0.28 6.19,1.69 8.12,1.83 1.92,0.14 7.7,0.38 7.7,0.38 l 0.47,-0.94 z"
     fill="#ff732d"
     id="path7" />
  <path
     d="m 17.1975,33.392136 c 0,0 -4.79,0.19 -5.54,0.38 -0.75,0.19 -7.27,3.8 -9.71,7.65 -2.44000004,3.85 -2.91000004,9.9 0.47,12.2 2.9,1.97 8.87,0.94 11.97,-4.83 2.61,-4.86 4.55,-9.53 4.55,-9.53 0,0 10.79,-0.19 11.22,-9.24 0.42,-9.06 -7.98,-9.95 -11.03,-9.24 -2.42,0.56 -4.88,3.33 -4.88,3.33 0,0 2.21,3.19 2.44,4.69 0.23,1.5 0.51,4.59 0.51,4.59 z"
     fill="#ff6157"
     id="path8" />
  <path
     d="m 24.6775,30.102136 c -0.51,2.18 -2.27,3.71 -3.86,3.34 -1.59,-0.37 -2.48,-2.79 -1.97,-4.97 0.51,-2.18 2.1,-3.35 3.71,-3.05 1.93,0.36 2.63,2.5 2.12,4.68 z"
     fill="#29292a"
     id="path9" />
  <path
     d="m 44.6075,44.802136 c 0,0 -13.16,5.91 -16.05,14.36 -2.89,8.45 -0.4,17.75 6.83,22.24 7.81,4.86 18.11,3.81 24.71,1.06 5.56,-2.32 7.32,-5.42 6.97,-7.6 -0.42,-2.58 -1.69,-3.45 -1.69,-3.45 0,0 4.15,-2.75 4.08,-5.84 -0.07,-3.1 -3.8,-3.94 -3.8,-3.94 0,0 3.31,-2.04 3.03,-5.07 -0.28,-3.03 -4.96,-5.1 -9.64,-5.63 -5.64,-0.64 -14.44,-6.13 -14.44,-6.13 z"
     fill="#d27856"
     id="path10" />
</svg>
