<?xml version="1.0" encoding="UTF-8" standalone="no"?>
<!-- Uploaded to: SVG Repo, www.svgrepo.com, Generator: SVG Repo Mixer Tools -->

<svg
   width="747.57684"
   height="702.41986"
   viewBox="0 0 317.72016 298.52844"
   id="icons"
   version="1.1"
   sodipodi:docname="animal-dog-inu-svgrepo-com.svg"
   xmlns:inkscape="http://www.inkscape.org/namespaces/inkscape"
   xmlns:sodipodi="http://sodipodi.sourceforge.net/DTD/sodipodi-0.dtd"
   xmlns="http://www.w3.org/2000/svg"
   xmlns:svg="http://www.w3.org/2000/svg">
  <defs
     id="defs16" />
  <sodipodi:namedview
     id="namedview16"
     pagecolor="#ffffff"
     bordercolor="#000000"
     borderopacity="0.25"
     inkscape:showpageshadow="2"
     inkscape:pageopacity="0.0"
     inkscape:pagecheckerboard="0"
     inkscape:deskcolor="#d1d1d1" />
  <title
     id="title1" />
  <path
     d="m 243.51664,185.59742 c 0,0 -6.342,27.129 -6.342,65.886 v 4.353 a 37.165,37.165 0 0 0 12.9,28.4 q 0.445,0.378 0.912,0.755 a 7.461,7.461 0 0 1 2.744,5.8 v 0 a 7.517,7.517 0 0 1 -7.516,7.517 h -5.415 a 14.526,14.526 0 0 1 -12.123,-6.544 c -0.319,-0.483 -0.67,-0.991 -1.045,-1.523 a 65.718,65.718 0 0 1 -11.952,-37.921 v -47.7 z"
     style="fill:#b8ccd1"
     id="path1" />
  <path
     d="m 130.51764,184.50442 a 191.18,191.18 0 0 1 -18.057,48.262 20.5,20.5 0 0 1 -7.473,7.85 c -7.407998,4.432 -22.099998,16 -24.763998,39.092 0,0 -0.217,2.812 2.66,6.046 a 6.964,6.964 0 0 1 1.83,4.616 v 1.207 a 6.738,6.738 0 0 1 -6.738,6.738 h -8.674 a 11.134,11.134 0 0 1 -11.117,-10.412 c -0.486,-7.659 -1.501,-14.637 3.684,-26.254 a 51.541,51.541 0 0 1 6.58,-10.725 c 5.147,-6.564 15.394,-22.842 6.383,-39.477 l 18.544,-39.517 z"
     style="fill:#b8ccd1"
     id="path2" />
  <path
     d="m 252.00364,19.272417 c 0,0 4.809,-7 14.815,-13.1670005 a 6.244,6.244 0 0 1 9.476,6.0190005 l -2.344,20.7 c 0,0 -18.545,-3.606 -21.947,-13.552 z"
     style="fill:#db5e26"
     id="path3" />
  <path
     d="m 311.89564,60.389417 -4.986,-11.314 a 72.167,72.167 0 0 1 -11.765,-6.976 c 0.25,-0.081 0.5,-0.153 0.746,-0.252 -3.937,-2.428 -7.8,-5.058 -11.052,-7.448 -0.963,-0.748 -1.882,-1.461 -2.738,-2.122 -0.813,-0.626 -1.564,-1.224 -2.241,-1.781 a 40.951,40.951 0 0 0 -18.421,-8.743 54.107,54.107 0 0 0 -5.86,-0.812 64.036,64.036 0 0 0 -6.742,-17.0750005 7.654,7.654 0 0 0 -12.658,-0.956 112.844,112.844 0 0 0 -10.641,16.4270005 23.879,23.879 0 0 1 -4.938,6.371 c -36.2,33.046 -50.622,62.606 -50.622,62.606 -4.983,-0.59 -11.084,1.191 -14.955,2.608 a 60.184,60.184 0 0 1 -10.76,2.848 c -29.359,4.9 -49.153998,1.361 -49.153998,1.361 a 70.875,70.875 0 0 0 -0.357,-34.513 47.716,47.716 0 0 0 -18.716,-27.369 q -0.708,-0.487 -1.418,-0.941 c -17.44,-11.121 -43.9,-7.591 -58.86,6.692 a 51.567,51.567 0 0 0 -14.88900015,27.632 39.52,39.52 0 0 0 0.26400005,17.634 c 4.528,17.568003 19.1560001,24.070003 27.2720001,26.365003 a 7.818,7.818 0 0 1 5.6,8.869 22.672,22.672 0 0 1 -1.128,4.032 21.009,21.009 0 0 1 -8.402,10.034 c -7.268,4.7 -10.428,10.3 -11.78,13.869 a 2.379,2.379 0 0 0 2.474,3.231 l 2.166,-0.235 a 0.981,0.981 0 0 1 0.761,1.7 25.385,25.385 0 0 0 -6.638,9.977 2.266,2.266 0 0 0 3.288,2.738 l 0.308,-0.186 a 0.937,0.937 0 0 1 1.419,0.8 c 0.123,7.366 4.538,14.24 4.538,14.24 a 49.784,49.784 0 0 1 6.557,11.5 80.729,80.729 0 0 1 6.261,31.518 l 0.005,2.843 c -0.6,8.776 -6.426,15.862 -10.54,19.823 a 16.353,16.353 0 0 0 -4.879,9.7 l -1.566,12.19 c 1.429,15.018 17.489,22.715 20.044,12.84 a 20.514,20.514 0 0 1 0.252,-7.274 c 2.363,-11.151 8.3,-20.59 12.517,-26.2 a 43.173,43.173 0 0 1 7.456,-7.723 c 1.366,-1.1 2.484,-2.333 3.654,-3.375 8.7,-7.755 11.273,-15.142 11.273,-15.142 8.3,-17.222 16.471,-28.424 22.159,-34.7 4.021,-4.438 11.668998,-4.26 17.277998,-2.163 a 115.544,115.544 0 0 1 25.541,13.81 c 20.417,14.305 40.807,12.359 40.807,12.359 l 2.289,34.728 c 0.252,6.059 0.551,12.025 0.824,17.093 3.124,18.352 25.915,34.3 24.917,17.839 l -0.63,-1.056 a 23.8,23.8 0 0 1 -3,-12.517 c 1.091,-29.916 11.935,-49.457 11.935,-49.457 a 93.037,93.037 0 0 1 8.368,-7.779 l 16.327,-14.227 a 35.026,35.026 0 0 0 11.689,-12.447 c 5.886,-11.827 10.615,-30.867 12.343,-54.351 1.85,-13.8 6.568,-23 8.549,-28.706003 a 18.3,18.3 0 0 1 9.288,-10.36 c 8.579,-4.208 16.293,-8.871 20.823,-10.6 a 14.491,14.491 0 0 0 8.379,-7.465 c 2.121,-4.325 1.965,-10.012 1.965,-10.012 z"
     style="fill:#f99848"
     id="path4" />
  <path
     d="m 282.29764,32.489417 c -5.626,-1.771 -14.2,-3.149 -23.153,0.338 a 45.1,45.1 0 0 0 -17.465,11.687 33.174,33.174 0 0 1 -13.9,9.628 29.959,29.959 0 0 1 -7.588,1.553 2,2 0 0 0 -1.545,3.066 15.784,15.784 0 0 0 4.642,4.581 1.989,1.989 0 0 1 0.271,3.081 12.9,12.9 0 0 0 -1.222,1.346 c -13.013,16.509 1.579,32.974003 5.92,37.228003 a 1.987,1.987 0 0 1 0.2,2.632 c -1.76,2.275 -6.534,6.294 -18.579,7.117 a 3.032,3.032 0 0 0 -2.836,2.905 25.754,25.754 0 0 0 4.494,15.374 11.5,11.5 0 0 1 -0.262,13.448 16.836,16.836 0 0 1 -1.157,1.326 26.856,26.856 0 0 0 -6.222,9.855 c -4.029,11.718 -7.66,35.1 18.542,51.017 a 167.524,167.524 0 0 1 17.109,-12.311 c 25.81,-16.888 25.491,-68.507 25.491,-68.507 1.86,-13.695 4.438,-22.994 6.448,-28.707003 a 18.364,18.364 0 0 1 9.273,-10.432 c 8.617,-4.2 16.582,-7.393 21.127,-9.121 a 16.311,16.311 0 0 0 8.92,-7.929 34.663,34.663 0 0 0 2.663,-10.317 l -5.868,-13.174 c -8.021,-3.515 -18.7,-10.575 -25.303,-15.684 z"
     style="fill:#e7eef2"
     id="path5" />
  <path
     d="m 304.14264,46.528417 a 37.343,37.343 0 0 1 9.326,4.411 c 3.3,2.362 3.552,4.294 4.119,6.7 a 5.642,5.642 0 0 1 -1.541,5.226 6.709,6.709 0 0 1 -8.643,0.6 c -3.635,-2.71 -7.068,-8.03 -3.261,-16.937 z"
     style="fill:#373d4c"
     id="path6" />
  <path
     d="m 81.419642,178.00742 c -3.925,4.406 -8.132,11.886 -10.169,24.464 a 114.287,114.287 0 0 1 -10.482,33.075 c 8.715,-7.739 12.123,-13.694 12.123,-13.694 8.324,-17.2 16.862,-28.284 22.561,-34.554 a 14.626,14.626 0 0 1 15.977998,-3.831 l -14.970998,-8.1 a 12.3,12.3 0 0 0 -15.04,2.64 z"
     style="fill:#e7eef2"
     id="path7" />
  <path
     d="m 168.88264,189.69842 c -0.006,5.807 -0.18,13.178 -0.829,19.661 a 49.624,49.624 0 0 0 9.674,0.384 57.457,57.457 0 0 0 -4.363,-20.9 2.323,2.323 0 0 0 -4.482,0.855 z"
     style="fill:#db5e26"
     id="path8" />
  <path
     d="m 271.06864,46.619417 a 2.98,2.98 0 0 1 -0.96,-0.158 8.637,8.637 0 0 0 -2.314,-0.395 3,3 0 0 1 0,-6 14.474,14.474 0 0 1 4.234,0.71 3,3 0 0 1 -0.96,5.843 z"
     style="fill:#373d4c"
     id="path9" />
  <path
     d="m 95.199642,95.033417 c -4.7,12.100003 -12.8,17.521003 -19.53,19.933003 a 6.971,6.971 0 0 1 -9.278,-7.259 52.3,52.3 0 0 0 -0.811,-14.106003 l -6.2,-4.177 -0.393,-3.206 h -19.419 l -5.641,12.2 -2.774,7.584003 a 16.748,16.748 0 0 0 13.678,1.048 9.9,9.9 0 0 0 5.005,-4.381 5.151,5.151 0 0 1 5.307,-2.516 5.269,5.269 0 0 1 3.847,2.438 c 1.783,3.415 0.93,6.429 0.623,9.7 -0.737,7.836 6.939,11.45 14.814,10.074 10.623,-1.858 20.945,-10.4 25.836998,-26.693003 -3.277998,-0.319 -5.064998,-0.639 -5.064998,-0.639 z"
     style="fill:#db5e26"
     id="path10" />
  <path
     d="m 95.199642,95.033417 c 0.018,-0.074 0.031,-0.146 0.049,-0.22 a 0.2,0.2 0 0 0 -0.049,0.22 z"
     style="fill:#db5e26"
     id="path11" />
  <path
     d="m 27.573642,102.99442 c -2.2,-3.114003 -3.423,-8.108003 -0.642,-15.987003 0,0 5.521,-13.8 21.395,-11.043 0,0 14.148,2.49 17.254,17.637 0,0 -9.265,-5.795 -19.217,-2.159 a 8.571,8.571 0 0 0 -5.675,8.645003 c 0.048,0.6 0.278,1.21 0.318,1.876 a 3.593,3.593 0 0 1 -0.329,1.612 5.813,5.813 0 0 1 -5.556,3.4 9.549,9.549 0 0 1 -7.548,-3.981 z"
     style="fill:#e7eef2"
     id="path12" />
  <path
     d="m 232.53864,72.549417 a 26.877,26.877 0 0 0 10.577,1.787 0.737,0.737 0 0 1 0.7,1.083 19.433,19.433 0 0 1 -10.632,9.153 0.74,0.74 0 0 0 -0.085,1.367 c 2.359,1.1 7.324,2.617 14.306,0.63 a 0.747,0.747 0 0 1 0.938,0.918 19.86,19.86 0 0 1 -2.072,4.636 0.744,0.744 0 0 0 1.041,1.017 21.52,21.52 0 0 0 8.565,-12.2 0.742,0.742 0 0 0 -0.964,-0.886 42.949,42.949 0 0 1 -7.731,1.952 0.744,0.744 0 0 1 -0.657,-1.233 23.5,23.5 0 0 0 5.622,-10.734 0.745,0.745 0 0 0 -0.866,-0.872 119.352,119.352 0 0 1 -18.512,1.926 0.748,0.748 0 0 0 -0.23,1.456 z"
     style="fill:#b8ccd1"
     id="path13" />
  <path
     d="m 26.518642,298.52842 8.122,-0.014 a 6.692,6.692 0 0 0 6.528,-5.248 6.531,6.531 0 0 0 -1.094,-5.337 16.382,16.382 0 0 1 -2.1,-3.809 18.03,18.03 0 0 1 -1.068,-4 c -2.578,1.676 -5.648,2.028 -9.2,-0.3 a 30.326,30.326 0 0 1 -10.858,-12.546 l -1.725,13.445 a 22.911,22.911 0 0 0 2.205,12.122 10.222,10.222 0 0 0 9.19,5.687 z"
     style="fill:#e7eef2"
     id="path14" />
  <path
     d="m 213.35664,288.00942 a 35.965,35.965 0 0 1 -7.5,-8.642 c -0.22,-0.348 -0.417,-0.706 -0.617,-1.064 -2.961,3.049 -6.763,4.531 -11.368,1.512 a 31.012,31.012 0 0 1 -12.932,-18.287 c 0.235,4.359 0.451,8.062 0.6,10.577 a 24.57,24.57 0 0 0 2.049,8.461 53.214,53.214 0 0 0 7.824,12.428 14.712,14.712 0 0 0 11.329,5.237 l 7.148,-0.012 a 5.682,5.682 0 0 0 5.673,-5.693 v -0.026 a 5.813,5.813 0 0 0 -2.206,-4.491 z"
     style="fill:#e7eef2"
     id="path15" />
  <path
     d="m 240.96864,22.666417 a 71.523,71.523 0 0 1 7.107,-1.18 1.729,1.729 0 0 0 1.492,-2.183 73.93,73.93 0 0 0 -4.281,-11.8700005 1.745,1.745 0 0 0 -3.037,-0.153 c -1.462,2.256 -3.28,6.5300005 -3.238,13.8090005 a 1.623,1.623 0 0 0 1.957,1.577 z"
     style="fill:#db5e26"
     id="path16" />
</svg>
